<?xml version="1.0" encoding="utf-8"?>
<!-- Generator: Adobe Illustrator 16.0.0, SVG Export Plug-In . SVG Version: 6.00 Build 0)  -->
<!DOCTYPE svg PUBLIC "-//W3C//DTD SVG 1.1//EN" "http://www.w3.org/Graphics/SVG/1.1/DTD/svg11.dtd">
<svg version="1.1" id="Layer_1" xmlns="http://www.w3.org/2000/svg" xmlns:xlink="http://www.w3.org/1999/xlink" x="0px" y="0px"
	 width="150px" height="34px" viewBox="0 0 150 34" enable-background="new 0 0 150 34" xml:space="preserve">
<g>
	<path d="M42.011,21.984c-0.704,0-1.353-0.126-1.95-0.379c-0.596-0.252-1.117-0.599-1.56-1.044
		c-0.443-0.442-0.791-0.966-1.043-1.571c-0.253-0.604-0.378-1.249-0.378-1.938c0-0.688,0.125-1.334,0.378-1.938
		c0.252-0.604,0.6-1.132,1.043-1.583c0.443-0.451,0.964-0.803,1.56-1.056c0.597-0.252,1.246-0.378,1.95-0.378
		c0.856,0,1.583,0.145,2.179,0.439c0.596,0.294,1.116,0.704,1.56,1.234l-1.146,0.941c-0.291-0.383-0.646-0.681-1.067-0.895
		c-0.42-0.214-0.93-0.322-1.525-0.322c-0.504,0-0.96,0.089-1.365,0.265c-0.405,0.175-0.75,0.428-1.032,0.749
		c-0.283,0.321-0.5,0.696-0.654,1.127c-0.153,0.429-0.229,0.898-0.229,1.403c0,0.505,0.077,0.975,0.229,1.402
		c0.153,0.434,0.371,0.809,0.654,1.129c0.283,0.321,0.627,0.574,1.032,0.749c0.405,0.177,0.86,0.264,1.365,0.264
		c0.658,0,1.2-0.117,1.628-0.355c0.428-0.236,0.795-0.531,1.101-0.884l1.101,0.941c-0.443,0.536-0.971,0.951-1.583,1.25
		C43.647,21.835,42.898,21.984,42.011,21.984L42.011,21.984z"/>
	<path d="M48.387,12.305h1.606l-0.046,1.858c0.306-0.734,0.704-1.258,1.193-1.571c0.489-0.313,1.017-0.471,1.582-0.471
		c0.352,0,0.662,0.039,0.929,0.115c0.268,0.073,0.509,0.188,0.723,0.337l-0.619,1.384c-0.153-0.107-0.333-0.195-0.539-0.264
		c-0.207-0.068-0.462-0.104-0.769-0.104c-0.673,0-1.25,0.253-1.731,0.761c-0.482,0.505-0.723,1.319-0.723,2.435v5.016h-1.606V12.305
		L48.387,12.305z"/>
	<path d="M64.054,16.365c-0.031-0.413-0.119-0.795-0.264-1.146c-0.146-0.352-0.352-0.658-0.619-0.918
		c-0.268-0.26-0.589-0.466-0.964-0.62c-0.375-0.152-0.814-0.229-1.319-0.229c-0.917,0-1.663,0.268-2.237,0.803
		c-0.573,0.536-0.921,1.239-1.043,2.11H64.054L64.054,16.365z M57.585,17.58c0.107,0.918,0.458,1.655,1.055,2.214
		c0.596,0.558,1.422,0.837,2.477,0.837c0.719,0,1.323-0.122,1.812-0.367c0.49-0.244,0.887-0.542,1.193-0.895l0.985,0.964
		c-0.443,0.49-0.985,0.887-1.628,1.193c-0.642,0.305-1.43,0.458-2.363,0.458c-0.779,0-1.487-0.126-2.121-0.379
		c-0.635-0.252-1.174-0.599-1.618-1.044c-0.443-0.442-0.787-0.966-1.032-1.571c-0.244-0.604-0.367-1.249-0.367-1.938
		c0-0.688,0.126-1.334,0.378-1.938c0.252-0.604,0.596-1.132,1.032-1.583c0.436-0.451,0.956-0.803,1.56-1.056
		c0.604-0.252,1.25-0.378,1.938-0.378c0.765,0,1.448,0.137,2.053,0.413c0.604,0.275,1.113,0.658,1.526,1.147
		c0.412,0.489,0.722,1.07,0.928,1.744c0.207,0.672,0.295,1.398,0.264,2.178H57.585L57.585,17.58z"/>
	<path d="M72.701,20.585c0.505,0,0.959-0.087,1.365-0.264c0.405-0.175,0.749-0.425,1.032-0.737c0.282-0.313,0.503-0.688,0.665-1.129
		c0.161-0.436,0.24-0.909,0.24-1.414c0-0.504-0.079-0.974-0.24-1.403c-0.161-0.432-0.383-0.807-0.665-1.127
		c-0.283-0.321-0.627-0.574-1.032-0.749c-0.406-0.176-0.86-0.265-1.365-0.265c-1.009,0-1.797,0.33-2.363,0.991
		c-0.565,0.658-0.848,1.502-0.848,2.531c0,1.044,0.283,1.9,0.848,2.565C70.904,20.252,71.692,20.585,72.701,20.585L72.701,20.585z
		 M72.356,21.984c-0.642,0-1.238-0.126-1.789-0.379c-0.55-0.252-1.028-0.596-1.434-1.032c-0.405-0.436-0.726-0.954-0.963-1.56
		c-0.237-0.604-0.355-1.265-0.355-1.983c0-0.704,0.115-1.357,0.344-1.961c0.229-0.605,0.55-1.125,0.963-1.561
		s0.898-0.78,1.457-1.032s1.158-0.378,1.801-0.378c0.887,0,1.628,0.206,2.225,0.619c0.596,0.414,1.063,0.956,1.398,1.629
		l-0.045-2.042h1.606v9.496h-1.606l0.045-2.041c-0.321,0.642-0.79,1.173-1.41,1.594C73.974,21.774,73.229,21.984,72.356,21.984
		L72.356,21.984z"/>
	<path d="M84.102,22.007c-0.367,0-0.704-0.053-1.014-0.16c-0.311-0.107-0.577-0.283-0.812-0.527
		c-0.232-0.244-0.415-0.562-0.546-0.953c-0.135-0.389-0.199-0.867-0.199-1.433v-5.275h-1.468v-1.354h1.468V7.351h1.606v4.954h2.66
		v1.354h-2.66v5.298c0,0.643,0.099,1.078,0.298,1.308c0.197,0.23,0.474,0.345,0.827,0.345c0.32,0,0.576-0.059,0.767-0.173
		s0.362-0.241,0.517-0.379l0.872,1.01c-0.215,0.215-0.509,0.425-0.883,0.632C85.159,21.904,84.682,22.007,84.102,22.007
		L84.102,22.007z"/>
	<path d="M88.734,12.305h1.604v9.496h-1.604V12.305L88.734,12.305z M89.537,9.553c-0.307,0-0.573-0.104-0.803-0.31
		c-0.229-0.206-0.346-0.478-0.346-0.814c0-0.337,0.117-0.612,0.346-0.826c0.229-0.213,0.496-0.321,0.803-0.321
		c0.306,0,0.572,0.107,0.802,0.321c0.231,0.214,0.346,0.489,0.346,0.826c0,0.336-0.114,0.608-0.346,0.814
		C90.109,9.449,89.843,9.553,89.537,9.553L89.537,9.553z"/>
	<path d="M92.656,12.305h1.767l2.522,5.482c0.078,0.168,0.146,0.344,0.206,0.528c0.062,0.184,0.114,0.359,0.161,0.527
		c0.062,0.184,0.114,0.375,0.161,0.573c0.03-0.198,0.076-0.39,0.138-0.573c0.045-0.168,0.099-0.344,0.159-0.527
		c0.062-0.184,0.132-0.359,0.206-0.528l2.479-5.482h1.651l-4.541,9.68h-0.3L92.656,12.305L92.656,12.305z"/>
	<path d="M111.855,16.365c-0.031-0.413-0.119-0.795-0.264-1.146c-0.146-0.352-0.354-0.658-0.619-0.918
		c-0.268-0.26-0.59-0.466-0.964-0.62c-0.375-0.152-0.814-0.229-1.319-0.229c-0.917,0-1.664,0.268-2.236,0.803
		c-0.573,0.536-0.92,1.239-1.044,2.11H111.855L111.855,16.365z M105.386,17.58c0.107,0.918,0.46,1.655,1.057,2.214
		c0.596,0.558,1.422,0.837,2.477,0.837c0.719,0,1.322-0.122,1.812-0.367c0.49-0.244,0.888-0.542,1.193-0.895l0.985,0.964
		c-0.442,0.49-0.985,0.887-1.627,1.193c-0.643,0.305-1.431,0.458-2.363,0.458c-0.779,0-1.486-0.126-2.122-0.379
		c-0.634-0.252-1.173-0.599-1.617-1.044c-0.441-0.442-0.787-0.966-1.031-1.571c-0.245-0.604-0.367-1.249-0.367-1.938
		c0-0.688,0.125-1.334,0.378-1.938c0.252-0.604,0.596-1.132,1.033-1.583c0.435-0.451,0.954-0.803,1.56-1.056
		c0.604-0.252,1.25-0.378,1.938-0.378c0.764,0,1.448,0.137,2.054,0.413c0.604,0.275,1.112,0.658,1.524,1.147
		c0.413,0.489,0.722,1.07,0.93,1.744c0.206,0.672,0.294,1.398,0.264,2.178H105.386L105.386,17.58z"/>
	<path d="M129.495,16.571c-0.031-0.47-0.132-0.921-0.3-1.357c-0.165-0.432-0.4-0.807-0.704-1.127
		c-0.304-0.317-0.677-0.574-1.118-0.761c-0.441-0.19-0.949-0.286-1.526-0.286c-0.531,0-1.014,0.088-1.448,0.264
		c-0.434,0.172-0.808,0.42-1.128,0.737c-0.316,0.322-0.578,0.696-0.776,1.128c-0.195,0.436-0.324,0.902-0.386,1.403H129.495
		L129.495,16.571z M122.085,17.305c0.015,0.565,0.118,1.086,0.31,1.56c0.19,0.474,0.459,0.883,0.803,1.227s0.757,0.611,1.239,0.803
		c0.481,0.191,1.021,0.287,1.616,0.287c0.781,0,1.435-0.138,1.961-0.413c0.528-0.274,0.969-0.626,1.32-1.056l0.596,0.528
		c-0.412,0.52-0.943,0.94-1.594,1.262c-0.65,0.32-1.411,0.481-2.283,0.481c-0.734,0-1.402-0.126-2.007-0.379
		c-0.604-0.252-1.119-0.599-1.552-1.044c-0.429-0.442-0.762-0.958-0.998-1.548c-0.232-0.589-0.352-1.219-0.352-1.892
		c0-0.672,0.119-1.303,0.355-1.892c0.236-0.589,0.569-1.105,0.997-1.549c0.43-0.443,0.926-0.795,1.491-1.055
		c0.566-0.26,1.186-0.39,1.858-0.39c0.704,0,1.342,0.13,1.917,0.39c0.572,0.26,1.057,0.619,1.455,1.078
		c0.397,0.459,0.703,0.998,0.917,1.618c0.215,0.619,0.314,1.28,0.298,1.983H122.085L122.085,17.305z"/>
	<path d="M133.485,12.442h0.894l-0.021,1.881c0.259-0.688,0.63-1.204,1.111-1.548c0.482-0.344,1.021-0.517,1.617-0.517
		c0.703,0,1.27,0.157,1.697,0.47l-0.435,0.723c-0.138-0.107-0.313-0.199-0.528-0.275c-0.214-0.076-0.496-0.115-0.849-0.115
		c-0.337,0-0.661,0.069-0.975,0.207c-0.313,0.138-0.589,0.348-0.825,0.635c-0.238,0.283-0.43,0.639-0.575,1.067
		c-0.145,0.432-0.218,0.929-0.218,1.494v5.337h-0.894V12.442L133.485,12.442z"/>
	<path d="M145.275,21.182c0.58,0,1.108-0.104,1.583-0.311c0.474-0.205,0.883-0.488,1.227-0.849c0.344-0.358,0.608-0.782,0.79-1.271
		c0.185-0.49,0.276-1.025,0.276-1.606c0-0.582-0.092-1.121-0.276-1.618c-0.182-0.497-0.446-0.929-0.79-1.296
		c-0.344-0.367-0.753-0.657-1.227-0.872c-0.475-0.213-1.003-0.321-1.583-0.321c-0.582,0-1.105,0.103-1.572,0.31
		c-0.465,0.207-0.863,0.49-1.192,0.849s-0.58,0.787-0.758,1.285c-0.175,0.497-0.263,1.036-0.263,1.617s0.088,1.121,0.263,1.617
		c0.178,0.497,0.429,0.93,0.758,1.295c0.329,0.367,0.728,0.655,1.192,0.86C144.17,21.078,144.693,21.182,145.275,21.182
		L145.275,21.182z M145.138,21.984c-0.657,0-1.267-0.126-1.823-0.379c-0.558-0.252-1.046-0.596-1.457-1.032
		c-0.414-0.436-0.734-0.951-0.964-1.548c-0.229-0.597-0.344-1.239-0.344-1.926c0-0.688,0.115-1.327,0.344-1.916
		c0.229-0.588,0.55-1.101,0.964-1.537c0.411-0.436,0.899-0.78,1.457-1.032c0.557-0.252,1.166-0.379,1.823-0.379
		c0.963,0,1.781,0.237,2.455,0.711c0.671,0.474,1.185,1.078,1.535,1.812l-0.023-2.317H150v9.358h-0.896l0.023-2.317
		c-0.351,0.72-0.875,1.316-1.569,1.79C146.861,21.747,146.055,21.984,145.138,21.984L145.138,21.984z"/>
	<path d="M97.041,29.486H98.5c1.319,0,2.232-0.919,2.232-2.101v-0.012c0-1.183-0.913-2.089-2.232-2.089h-1.459V29.486L97.041,29.486
		z M98.5,25.724c1.062,0,1.74,0.731,1.74,1.662v0.013c0,0.93-0.679,1.65-1.74,1.65h-0.985v-3.325H98.5L98.5,25.724z"/>
	<polygon points="101.924,29.486 104.99,29.486 104.99,29.055 102.396,29.055 102.396,27.584 104.689,27.584 104.689,27.151 
		102.396,27.151 102.396,25.717 104.96,25.717 104.96,25.285 101.924,25.285 101.924,29.486 	"/>
	<path d="M107.571,29.547c0.835,0,1.435-0.469,1.435-1.188v-0.013c0-0.643-0.432-0.985-1.367-1.189
		c-0.925-0.197-1.142-0.42-1.142-0.815v-0.013c0-0.378,0.348-0.678,0.894-0.678c0.434,0,0.824,0.138,1.214,0.455l0.276-0.365
		c-0.427-0.342-0.864-0.517-1.478-0.517c-0.798,0-1.38,0.487-1.38,1.146v0.012c0,0.691,0.444,1.003,1.411,1.213
		c0.882,0.187,1.092,0.409,1.092,0.799v0.012c0,0.414-0.372,0.714-0.937,0.714c-0.582,0-1.003-0.198-1.441-0.594l-0.294,0.349
		C106.359,29.324,106.906,29.547,107.571,29.547L107.571,29.547z"/>
	<polygon points="110.202,29.486 110.676,29.486 110.676,25.285 110.202,25.285 110.202,29.486 	"/>
	<path d="M114.046,29.559c0.708,0,1.297-0.294,1.687-0.643v-1.675h-1.735v0.426h1.279v1.046c-0.288,0.232-0.732,0.419-1.212,0.419
		c-1.021,0-1.663-0.744-1.663-1.746v-0.012c0-0.937,0.666-1.723,1.596-1.723c0.596,0,0.955,0.198,1.279,0.479l0.306-0.359
		c-0.42-0.355-0.859-0.559-1.566-0.559c-1.26,0-2.107,1.021-2.107,2.173v0.013C111.908,28.598,112.726,29.559,114.046,29.559
		L114.046,29.559z"/>
	<polygon points="116.987,29.486 117.45,29.486 117.45,26.041 120.164,29.486 120.542,29.486 120.542,25.285 120.08,25.285 
		120.08,28.652 117.433,25.285 116.987,25.285 116.987,29.486 	"/>
	<path d="M126.959,29.547c0.834,0,1.435-0.469,1.435-1.188v-0.013c0-0.643-0.433-0.985-1.368-1.189
		c-0.924-0.197-1.141-0.42-1.141-0.815v-0.013c0-0.378,0.347-0.678,0.894-0.678c0.434,0,0.823,0.138,1.214,0.455l0.276-0.365
		c-0.427-0.342-0.865-0.517-1.478-0.517c-0.799,0-1.381,0.487-1.381,1.146v0.012c0,0.691,0.443,1.003,1.411,1.213
		c0.883,0.187,1.093,0.409,1.093,0.799v0.012c0,0.414-0.373,0.714-0.938,0.714c-0.582,0-1.002-0.198-1.441-0.594l-0.293,0.349
		C125.747,29.324,126.293,29.547,126.959,29.547L126.959,29.547z"/>
	<polygon points="130.568,29.486 131.049,29.486 131.049,25.724 132.46,25.724 132.46,25.285 129.158,25.285 129.158,25.724 
		130.568,25.724 130.568,29.486 	"/>
	<path d="M135.215,29.553c1.051,0,1.753-0.637,1.753-1.861v-2.406h-0.475v2.442c0,0.919-0.492,1.387-1.266,1.387
		c-0.799,0-1.284-0.511-1.284-1.417v-2.412h-0.474v2.442C133.47,28.916,134.177,29.553,135.215,29.553L135.215,29.553z"/>
	<path d="M138.278,29.486h1.457c1.321,0,2.233-0.919,2.233-2.101v-0.012c0-1.183-0.912-2.089-2.233-2.089h-1.457V29.486
		L138.278,29.486z M139.735,25.724c1.064,0,1.742,0.731,1.742,1.662v0.013c0,0.93-0.678,1.65-1.742,1.65h-0.983v-3.325H139.735
		L139.735,25.724z"/>
	<polygon points="143.202,29.486 143.675,29.486 143.675,25.285 143.202,25.285 143.202,29.486 	"/>
	<path d="M147.044,29.559c1.279,0,2.149-1.015,2.149-2.173v-0.012c0-1.158-0.857-2.161-2.137-2.161
		c-1.278,0-2.148,1.015-2.148,2.173v0.013C144.908,28.556,145.766,29.559,147.044,29.559L147.044,29.559z M147.057,29.12
		c-0.962,0-1.658-0.78-1.658-1.734v-0.012c0-0.954,0.686-1.723,1.646-1.723s1.656,0.78,1.656,1.734v0.013
		C148.7,28.353,148.017,29.12,147.057,29.12L147.057,29.12z"/>
	<polygon fill-rule="evenodd" clip-rule="evenodd" fill="#F3A81D" points="29.165,8.601 14.583,0.2 14.583,17 29.165,8.601 	"/>
	<polygon fill-rule="evenodd" clip-rule="evenodd" fill="#F26D23" points="0,8.601 14.583,0.2 14.583,17 0,8.601 	"/>
	<polygon fill-rule="evenodd" clip-rule="evenodd" fill="#CD1F44" points="14.583,17 0,8.601 0,25.399 14.583,17 	"/>
	<polygon fill-rule="evenodd" clip-rule="evenodd" fill="#851A54" points="0,25.399 14.583,17 14.583,33.8 0,25.399 	"/>
	<polygon fill-rule="evenodd" clip-rule="evenodd" fill="#295A9C" points="29.165,25.399 14.583,17 14.583,33.8 29.165,25.399 	"/>
</g>
</svg>
