<?xml version="1.0" encoding="utf-8"?>
<!-- Generator: Adobe Illustrator 17.0.0, SVG Export Plug-In . SVG Version: 6.00 Build 0)  -->
<!DOCTYPE svg PUBLIC "-//W3C//DTD SVG 1.1//EN" "http://www.w3.org/Graphics/SVG/1.1/DTD/svg11.dtd">
<svg version="1.1" id="Layer_1" xmlns="http://www.w3.org/2000/svg" xmlns:xlink="http://www.w3.org/1999/xlink" x="0px" y="0px"
	 width="35px" height="70px" viewBox="0 0 35 70" enable-background="new 0 0 35 70" xml:space="preserve">
<circle fill="#EA4C89" cx="17.438" cy="52.063" r="16.438"/>
<g>
	<path fill="#EA4C89" d="M17.5,2C26.047,2,33,8.953,33,17.5S26.047,33,17.5,33S2,26.047,2,17.5S8.953,2,17.5,2 M17.5,0
		C7.835,0,0,7.835,0,17.5S7.835,35,17.5,35S35,27.165,35,17.5S27.165,0,17.5,0L17.5,0z"/>
</g>
<g>
	<path fill="#EA4C89" d="M24.194,11.492l-0.126-0.138C22.425,9.599,20.088,8.5,17.5,8.5c-1.03,0-2.019,0.175-2.942,0.494
		l-0.094,0.032c-3.012,1.083-5.285,3.729-5.835,6.956c-0.001,0.004-0.002,0.006-0.002,0.009c-0.002,0.01-0.003,0.021-0.004,0.031
		C8.543,16.505,8.5,16.997,8.5,17.5c0,2.145,0.755,4.118,2.013,5.666c0.001,0.001,0.105,0.127,0.105,0.127
		c1.652,1.96,4.124,3.207,6.882,3.207c1.042,0,2.044-0.179,2.975-0.506c0.024-0.007,0.049-0.016,0.072-0.025
		c2.956-1.067,5.197-3.64,5.794-6.788c0.002-0.007,0.004-0.015,0.004-0.022c0.101-0.537,0.154-1.091,0.154-1.657
		C26.5,15.193,25.627,13.087,24.194,11.492L24.194,11.492z M17.5,10.3c1.851,0,3.54,0.702,4.817,1.854
		c-0.894,1.225-2.145,2.03-3.513,2.55c-0.229-0.533-0.456-1.016-0.675-1.447c-0.634-1.248-1.255-2.204-1.741-2.872
		C16.751,10.33,17.122,10.3,17.5,10.3L17.5,10.3z M14.545,10.936c0.536,0.67,1.555,2.095,2.517,4.277
		c-2.525,0.542-5.114,0.362-6.453,0.203C11.214,13.418,12.665,11.784,14.545,10.936L14.545,10.936z M10.3,17.5
		c0-0.103,0.003-0.204,0.007-0.305c0.717,0.09,1.781,0.187,3.02,0.187c0.6,0,1.243-0.022,1.906-0.08
		c0.885-0.076,1.718-0.21,2.5-0.395c0.172,0.483,0.337,0.994,0.492,1.534c-0.811,0.236-1.649,0.531-2.512,0.885
		c-1.861,0.763-3.379,1.617-4.226,2.131C10.738,20.32,10.3,18.96,10.3,17.5L10.3,17.5z M17.5,24.7c-1.852,0-3.543-0.704-4.82-1.857
		c1.201-0.706,3.456-1.909,5.987-2.652c0.282,1.299,0.496,2.729,0.604,4.289C18.704,24.623,18.11,24.7,17.5,24.7L17.5,24.7z
		 M21.021,23.778c-0.126-1.451-0.34-2.789-0.607-4.01c1.325-0.247,2.676-0.32,3.952-0.096C23.809,21.426,22.597,22.89,21.021,23.778
		L21.021,23.778z M24.688,17.901c-1.428-0.254-3.004-0.215-4.715,0.115c-0.164-0.578-0.338-1.122-0.518-1.635
		c1.689-0.646,3.056-1.598,4.059-2.833c0.75,1.136,1.186,2.494,1.186,3.953C24.7,17.634,24.695,17.768,24.688,17.901L24.688,17.901z
		"/>
</g>
<g>
	<path fill="#EA4C89" d="M17.5,37C26.047,37,33,43.953,33,52.5S26.047,68,17.5,68S2,61.047,2,52.5S8.953,37,17.5,37 M17.5,35
		C7.835,35,0,42.835,0,52.5S7.835,70,17.5,70S35,62.165,35,52.5S27.165,35,17.5,35L17.5,35z"/>
</g>
<g>
	<path fill="#FFFFFF" d="M24.194,46.492l-0.126-0.138c-1.643-1.755-3.98-2.854-6.568-2.854c-1.03,0-2.019,0.175-2.942,0.494
		l-0.094,0.032c-3.012,1.083-5.285,3.729-5.835,6.956c-0.001,0.004-0.002,0.006-0.002,0.009c-0.002,0.01-0.003,0.021-0.004,0.031
		C8.543,51.505,8.5,51.997,8.5,52.5c0,2.145,0.755,4.118,2.013,5.666c0.001,0.001,0.105,0.127,0.105,0.127
		c1.652,1.96,4.124,3.207,6.882,3.207c1.042,0,2.044-0.179,2.975-0.506c0.024-0.007,0.049-0.016,0.072-0.025
		c2.956-1.067,5.197-3.64,5.794-6.788c0.002-0.007,0.004-0.015,0.004-0.022c0.101-0.537,0.154-1.091,0.154-1.657
		C26.5,50.193,25.627,48.087,24.194,46.492L24.194,46.492z M17.5,45.3c1.851,0,3.54,0.702,4.817,1.854
		c-0.894,1.225-2.145,2.03-3.513,2.55c-0.229-0.533-0.456-1.016-0.675-1.447c-0.634-1.248-1.255-2.204-1.741-2.872
		C16.751,45.33,17.122,45.3,17.5,45.3L17.5,45.3z M14.545,45.936c0.536,0.67,1.555,2.095,2.517,4.277
		c-2.525,0.542-5.114,0.362-6.453,0.203C11.214,48.418,12.665,46.784,14.545,45.936L14.545,45.936z M10.3,52.5
		c0-0.103,0.003-0.204,0.007-0.305c0.717,0.09,1.781,0.187,3.02,0.187c0.6,0,1.243-0.022,1.906-0.08
		c0.885-0.076,1.718-0.21,2.5-0.395c0.172,0.483,0.337,0.994,0.492,1.534c-0.811,0.236-1.649,0.531-2.512,0.885
		c-1.861,0.763-3.379,1.617-4.226,2.131C10.738,55.32,10.3,53.96,10.3,52.5L10.3,52.5z M17.5,59.7c-1.852,0-3.543-0.704-4.82-1.857
		c1.201-0.706,3.456-1.909,5.987-2.652c0.282,1.299,0.496,2.729,0.604,4.289C18.704,59.623,18.11,59.7,17.5,59.7L17.5,59.7z
		 M21.021,58.778c-0.126-1.451-0.34-2.789-0.607-4.01c1.325-0.247,2.676-0.32,3.952-0.096C23.809,56.426,22.597,57.89,21.021,58.778
		L21.021,58.778z M24.688,52.901c-1.428-0.254-3.004-0.215-4.715,0.115c-0.164-0.578-0.338-1.122-0.518-1.635
		c1.689-0.646,3.056-1.598,4.059-2.833c0.75,1.136,1.186,2.494,1.186,3.953C24.7,52.634,24.695,52.768,24.688,52.901L24.688,52.901z
		"/>
</g>
</svg>
