<?xml version="1.0" encoding="utf-8"?>
<!-- Generator: Adobe Illustrator 17.0.0, SVG Export Plug-In . SVG Version: 6.00 Build 0)  -->
<!DOCTYPE svg PUBLIC "-//W3C//DTD SVG 1.1//EN" "http://www.w3.org/Graphics/SVG/1.1/DTD/svg11.dtd">
<svg version="1.1" id="Layer_1" xmlns="http://www.w3.org/2000/svg" xmlns:xlink="http://www.w3.org/1999/xlink" x="0px" y="0px"
	 width="35px" height="70px" viewBox="0 0 35 70" enable-background="new 0 0 35 70" xml:space="preserve">
<g>
	<path fill="#DD4B38" d="M17.5,2C26.047,2,33,8.953,33,17.5S26.047,33,17.5,33S2,26.047,2,17.5S8.953,2,17.5,2 M17.5,0
		C7.835,0,0,7.835,0,17.5S7.835,35,17.5,35S35,27.165,35,17.5S27.165,0,17.5,0L17.5,0z"/>
</g>
<g>
	<path fill="#DD4B38" d="M17.5,69C8.402,69,1,61.598,1,52.5S8.402,36,17.5,36S34,43.402,34,52.5S26.598,69,17.5,69z"/>
	<path fill="#DD4B38" d="M17.5,37C26.047,37,33,43.953,33,52.5S26.047,68,17.5,68S2,61.047,2,52.5S8.953,37,17.5,37 M17.5,35
		C7.835,35,0,42.835,0,52.5S7.835,70,17.5,70S35,62.165,35,52.5S27.165,35,17.5,35L17.5,35z"/>
</g>
<g>
	<g>
		<path fill="#DD4B38" d="M16.595,19.1h4.589c-0.685,2.164-2.72,3.733-5.126,3.733c-2.967,0-5.372-2.387-5.372-5.333
			c0-2.945,2.405-5.333,5.372-5.333c1.494,0,2.845,0.606,3.819,1.583l1.82-1.964C20.244,10.372,18.253,9.5,16.058,9.5
			C11.608,9.5,8,13.082,8,17.5c0,4.419,3.608,8,8.058,8c3.898,0,7.312-2.748,8.058-6.4v-2.488h-7.521
			C16.595,16.612,16.595,19.1,16.595,19.1z M27.461,16.607V15.08h-1.319v1.528h-1.538v1.308h1.538v1.528h1.319v-1.528H29v-1.308
			L27.461,16.607L27.461,16.607z"/>
	</g>
</g>
<g>
	<g>
		<path fill="#FFFFFF" d="M16.595,54.1h4.589c-0.685,2.164-2.72,3.733-5.126,3.733c-2.967,0-5.372-2.387-5.372-5.333
			c0-2.945,2.405-5.333,5.372-5.333c1.494,0,2.845,0.606,3.819,1.583l1.82-1.964c-1.453-1.414-3.443-2.286-5.639-2.286
			c-4.45,0-8.058,3.582-8.058,8s3.608,8,8.058,8c3.898,0,7.311-2.748,8.058-6.4v-2.488h-7.521
			C16.595,51.612,16.595,54.1,16.595,54.1z M27.461,51.607V50.08h-1.319v1.528h-1.538v1.308h1.538v1.528h1.319v-1.528H29v-1.308
			h-1.539V51.607z"/>
	</g>
</g>
</svg>
