<?xml version="1.0" encoding="utf-8"?>
<!-- Generator: Adobe Illustrator 17.0.0, SVG Export Plug-In . SVG Version: 6.00 Build 0)  -->
<!DOCTYPE svg PUBLIC "-//W3C//DTD SVG 1.1//EN" "http://www.w3.org/Graphics/SVG/1.1/DTD/svg11.dtd">
<svg version="1.1" id="Layer_1" xmlns="http://www.w3.org/2000/svg" xmlns:xlink="http://www.w3.org/1999/xlink" x="0px" y="0px"
	 width="942px" height="607px" viewBox="0 0 942 607" enable-background="new 0 0 942 607" xml:space="preserve">
<g>
	<linearGradient id="SVGID_1_" gradientUnits="userSpaceOnUse" x1="-13.6694" y1="23.676" x2="955.6694" y2="583.324">
		<stop  offset="0" style="stop-color:#00FC48"/>
		<stop  offset="1" style="stop-color:#00FFFD"/>
	</linearGradient>
	<rect fill="url(#SVGID_1_)" width="942" height="607"/>
	<g>
		<path fill="#303030" d="M369.044,376.174h-2.451l-1.901-7.636h-0.031l-1.869,7.636h-2.497l-2.969-11.218h2.466l1.776,7.636h0.031
			l1.948-7.636h2.309l1.918,7.731h0.03l1.839-7.731h2.419L369.044,376.174L369.044,376.174z M380.072,372.655h-5.861
			c0.064,1.413,0.755,2.058,1.996,2.058c0.896,0,1.617-0.55,1.759-1.053h1.964c-0.628,1.918-1.964,2.734-3.802,2.734
			c-2.561,0-4.149-1.759-4.149-4.274c0-2.436,1.681-4.289,4.149-4.289C378.894,367.831,380.229,370.156,380.072,372.655
			L380.072,372.655z M376.065,369.512c-1.413,0-1.823,1.099-1.854,1.728h3.631C377.636,370.109,377.15,369.512,376.065,369.512
			L376.065,369.512z M381.454,376.174v-11.218h2.231v11.218H381.454L381.454,376.174z M389.324,369.512
			c-1.43,0-1.901,1.444-1.901,2.639c0,1.163,0.454,2.561,1.854,2.561c1.036,0,1.632-0.66,1.775-1.65h2.153
			c-0.283,2.153-1.775,3.331-3.912,3.331c-2.451,0-4.1-1.728-4.1-4.164c0-2.529,1.508-4.399,4.147-4.399
			c1.918,0,3.677,1.005,3.819,3.079h-2.184C390.832,369.999,390.25,369.512,389.324,369.512L389.324,369.512z M398.403,376.394
			c-2.544,0-4.193-1.696-4.193-4.274c0-2.593,1.65-4.289,4.193-4.289c2.563,0,4.212,1.696,4.212,4.289
			C402.615,374.698,400.965,376.394,398.403,376.394L398.403,376.394z M398.403,369.512c-1.508,0-1.963,1.303-1.963,2.607
			c0,1.288,0.454,2.593,1.963,2.593c1.525,0,1.981-1.305,1.981-2.593C400.384,370.815,399.928,369.512,398.403,369.512
			L398.403,369.512z M414.303,376.174v-4.603c0-1.084-0.095-1.979-1.367-1.979c-1.257,0-1.493,1.036-1.493,2.058v4.525h-2.231
			v-4.557c0-0.941,0.064-2.026-1.351-2.026c-0.44,0-1.508,0.283-1.508,1.869v4.713h-2.231v-8.122h2.106v1.099h0.03
			c0.582-0.833,1.431-1.319,2.482-1.319c1.021,0,1.933,0.377,2.372,1.351c0.472-0.708,1.321-1.351,2.453-1.351
			c1.728,0,2.969,0.801,2.969,2.905v5.437H414.303L414.303,376.174z M425.989,372.655h-5.86c0.063,1.413,0.753,2.058,1.994,2.058
			c0.896,0,1.619-0.55,1.762-1.053h1.963c-0.628,1.918-1.963,2.734-3.802,2.734c-2.561,0-4.147-1.759-4.147-4.274
			c0-2.436,1.681-4.289,4.147-4.289C424.811,367.831,426.147,370.156,425.989,372.655L425.989,372.655z M421.984,369.512
			c-1.415,0-1.823,1.099-1.854,1.728h3.629C423.555,370.109,423.066,369.512,421.984,369.512L421.984,369.512z M427.417,376.174
			v-2.42h2.468v2.42H427.417L427.417,376.174z M428.077,372.812l-0.597-4.838v-3.017h2.326v3.017l-0.613,4.838H428.077
			L428.077,372.812z"/>
	</g>
	<g>
		<path fill="#002E04" d="M533.487,300.82v-4.136h-4.629v4.136h-1.196v-8.862h1.196v3.665h4.629v-3.665h1.198v8.862H533.487
			L533.487,300.82z M540.672,301.055c-3.309,0-4.32-2.752-4.32-4.667c0-1.913,1.011-4.665,4.32-4.665
			c3.307,0,4.318,2.752,4.318,4.665C544.99,298.303,543.979,301.055,540.672,301.055L540.672,301.055z M540.672,292.784
			c-1.926,0-3.086,1.518-3.086,3.604s1.16,3.604,3.086,3.604c1.925,0,3.086-1.518,3.086-3.604S542.596,292.784,540.672,292.784
			L540.672,292.784z M550.101,301.055c-2.381,0-3.405-1.531-3.405-3.185v-5.911h1.196v5.578c0,1.926,1.173,2.456,2.247,2.456
			c1.098,0,2.333-0.505,2.333-2.431v-5.603h1.196v5.751C553.668,299.524,552.533,301.055,550.101,301.055L550.101,301.055z
			 M561.852,300.82c-0.173-0.543-0.21-1.89-0.21-2.223c0-0.728-0.148-1.579-1.579-1.579h-2.901v3.802h-1.198v-8.862h4.099
			c1.456,0,2.912,0.507,2.912,2.382c0,1.308-0.666,1.79-1.234,2.122c0.507,0.21,1.013,0.431,1.061,1.666l0.075,1.604
			c0.012,0.493,0.074,0.678,0.443,0.888v0.198L561.852,300.82L561.852,300.82z M560.149,292.983h-2.987v3.011h2.777
			c0.877,0,1.801-0.222,1.801-1.53C561.74,293.093,560.74,292.983,560.149,292.983L560.149,292.983z M567.998,292.748
			c-0.753,0-2.025,0.21-2.025,1.555c0,0.753,0.531,1,1.05,1.123l2.53,0.582c1.146,0.272,2.011,0.961,2.011,2.369
			c0,2.098-1.949,2.679-3.469,2.679c-1.641,0-2.283-0.495-2.678-0.853c-0.753-0.678-0.901-1.42-0.901-2.246h1.123
			c0,1.604,1.308,2.074,2.444,2.074c0.865,0,2.321-0.223,2.321-1.494c0-0.925-0.433-1.221-1.89-1.568l-1.815-0.418
			c-0.579-0.137-1.887-0.543-1.887-2.086c0-1.383,0.901-2.741,3.049-2.741c3.097,0,3.405,1.851,3.455,2.826h-1.123
			C570.134,293.179,568.998,292.748,567.998,292.748L567.998,292.748z"/>
	</g>
	<g>
		<path fill="#2F2F2F" d="M621.897,294.567v0.084c3.146,0.693,5.067,3.309,5.067,6.496c0,6.005-5.025,9.397-10.623,9.397
			c-6.414,0-10.745-3.841-10.624-10.418h5.516c0.122,3.104,1.675,5.638,5.025,5.638c2.614,0,4.657-1.798,4.657-4.495
			c0-4.33-3.799-4.249-6.618-4.249v-4.085c2.492,0.204,6.088-0.286,6.088-3.555c0-2.41-1.921-3.799-4.045-3.799
			c-2.901,0-4.453,2.165-4.412,5.107h-5.516c0.204-5.843,4.004-9.889,9.887-9.889c4.577,0,9.602,2.819,9.602,7.928
			C625.901,291.422,624.553,293.832,621.897,294.567L621.897,294.567z M649.559,309.97h-21.001c0.041-6.618,4.087-9.437,9.03-12.787
			c2.532-1.716,5.965-3.473,6.006-6.986c0-2.698-1.798-4.414-4.29-4.414c-3.432,0-4.535,3.555-4.535,6.578h-5.557
			c-0.205-6.536,3.514-11.563,10.377-11.563c5.23,0,9.807,3.351,9.807,8.949c0,4.29-2.29,6.659-5.108,8.663
			c-2.819,2.001-6.168,3.636-8.252,6.577h13.524L649.559,309.97L649.559,309.97z"/>
	</g>
	<g>
		<path fill="#002E04" d="M665.107,300.82v-5.233c0-0.26,0.025-1.383,0.025-2.209h-0.025l-2.494,7.442h-1.185l-2.492-7.431h-0.025
			c0,0.815,0.025,1.938,0.025,2.198v5.233h-1.161v-8.862h1.716l2.53,7.493h0.025l2.517-7.493h1.703v8.862H665.107L665.107,300.82z
			 M668.525,300.82v-8.862h1.196v8.862H668.525L668.525,300.82z M677.708,300.82l-4.505-7.159h-0.023v7.159h-1.161v-8.862h1.42
			l4.432,7.158h0.025v-7.158h1.16v8.862H677.708L677.708,300.82z"/>
	</g>
	<g>
		<path fill="#002E04" d="M413.997,301.381h-3.542v-8.862h3.591c2.309,0,3.729,1.751,3.729,4.307
			C417.774,298.814,416.909,301.381,413.997,301.381L413.997,301.381z M413.885,293.542h-2.234v6.814h2.321
			c1.555,0,2.568-1.223,2.568-3.458C416.539,294.667,415.514,293.542,413.885,293.542L413.885,293.542z M424.883,301.381
			l-0.877-2.581h-3.555l-0.925,2.581h-1.234l3.333-8.862h1.358l3.209,8.862H424.883L424.883,301.381z M422.265,293.839h-0.025
			l-1.42,3.9h2.752L422.265,293.839L422.265,293.839z M430.079,297.814v3.567h-1.198v-3.567l-3.346-5.295h1.395l2.545,4.257
			l2.542-4.257h1.406L430.079,297.814L430.079,297.814z M437.002,293.309c-0.752,0-2.023,0.21-2.023,1.555
			c0,0.753,0.53,1,1.048,1.123l2.53,0.579c1.148,0.272,2.011,0.963,2.011,2.371c0,2.098-1.949,2.678-3.468,2.678
			c-1.643,0-2.285-0.493-2.679-0.852c-0.753-0.678-0.901-1.42-0.901-2.246h1.125c0,1.604,1.308,2.073,2.443,2.073
			c0.865,0,2.321-0.222,2.321-1.492c0-0.926-0.431-1.221-1.887-1.568l-1.814-0.42c-0.581-0.135-1.889-0.543-1.889-2.086
			c0-1.382,0.901-2.739,3.049-2.739c3.098,0,3.407,1.851,3.455,2.826h-1.123C439.138,293.741,438.004,293.309,437.002,293.309
			L437.002,293.309z"/>
	</g>
	<g>
		<path fill="#303030" d="M364.478,292.647l0.082,0.082c1.553-1.593,3.351-2.206,5.598-2.206c5.638,0,8.824,4.371,8.824,9.724
			c0,5.883-4.861,10.418-10.621,10.297c-5.557,0-10.542-3.064-10.624-9.071h5.802c0.286,2.532,2.166,4.29,4.698,4.29
			c3.024,0,4.943-2.655,4.943-5.516c0-2.982-1.838-5.352-4.943-5.352c-2.084,0-3.227,0.735-4.372,2.288h-5.23l2.819-15.811h15.977
			v4.78h-11.808L364.478,292.647L364.478,292.647z"/>
	</g>
	<g>
		<g>
			<g>
				<path fill="#303030" d="M397.421,298.573v-17.201h-5.19l-12.421,16.67v5.312h12.095v6.618h5.516v-6.618h3.799v-4.78H397.421
					L397.421,298.573z M391.904,298.573h-7.518l7.394-9.928h0.123V298.573z"/>
			</g>
		</g>
	</g>
	<g enable-background="new    ">
		<path fill="#2F2F2F" d="M357.891,187.503h6.539v0.964h-2.725v7.088h-1.088v-7.088h-2.726L357.891,187.503L357.891,187.503z"/>
		<path fill="#2F2F2F" d="M365.117,188.624v-1.121h0.987v1.121H365.117z M366.104,195.556h-0.987v-5.866h0.987V195.556z"/>
		<path fill="#2F2F2F" d="M367.586,189.69h0.931v0.83h0.022c0.214-0.314,0.718-0.998,1.772-0.998s1.391,0.639,1.559,0.954
			c0.493-0.55,0.886-0.954,1.795-0.954c0.628,0,1.817,0.326,1.817,1.974v4.06h-0.987v-3.791c0-0.808-0.247-1.358-1.088-1.358
			c-0.83,0-1.38,0.786-1.38,1.57v3.578h-0.987v-4.06c0-0.493-0.19-1.088-0.92-1.088c-0.56,0-1.548,0.359-1.548,1.952v3.196h-0.987
			L367.586,189.69L367.586,189.69z"/>
		<path fill="#2F2F2F" d="M381.912,193.716c-0.034,0.281-0.303,1.111-1.043,1.604c-0.269,0.18-0.651,0.403-1.593,0.403
			c-1.649,0-2.624-1.245-2.624-2.939c0-1.817,0.875-3.264,2.815-3.264c1.694,0,2.524,1.346,2.524,3.421h-4.285
			c0,1.223,0.572,1.93,1.705,1.93c0.931,0,1.48-0.718,1.514-1.156H381.912z M380.97,192.157c-0.056-0.909-0.438-1.75-1.638-1.75
			c-0.908,0-1.626,0.842-1.626,1.75H380.97z"/>
		<path fill="#2F2F2F" d="M387.502,194.592h4.083v0.964h-5.171v-8.053h1.088L387.502,194.592L387.502,194.592z"/>
		<path fill="#2F2F2F" d="M397.51,193.716c-0.034,0.281-0.303,1.111-1.043,1.604c-0.269,0.18-0.651,0.403-1.593,0.403
			c-1.649,0-2.625-1.245-2.625-2.939c0-1.817,0.875-3.264,2.815-3.264c1.694,0,2.524,1.346,2.524,3.421h-4.285
			c0,1.223,0.572,1.93,1.705,1.93c0.931,0,1.481-0.718,1.515-1.156H397.51z M396.568,192.157c-0.056-0.909-0.437-1.75-1.638-1.75
			c-0.909,0-1.627,0.842-1.627,1.75H396.568z"/>
		<path fill="#2F2F2F" d="M399.991,190.508v5.048h-0.987v-5.048h-0.808v-0.819h0.808v-1.009c0-0.887,0.561-1.29,1.526-1.29
			c0.146,0,0.292,0.012,0.449,0.022v0.886c-0.123-0.012-0.28-0.022-0.403-0.022c-0.426,0-0.584,0.214-0.584,0.685v0.728h0.987v0.819
			L399.991,190.508L399.991,190.508z"/>
		<path fill="#2F2F2F" d="M402.651,190.508v3.814c0,0.46,0.392,0.46,0.594,0.46h0.348v0.774c-0.359,0.034-0.639,0.079-0.741,0.079
			c-0.976,0-1.189-0.55-1.189-1.257v-3.87h-0.796v-0.819h0.796v-1.637h0.987v1.637h0.942v0.819H402.651z"/>
		<path fill="#2F2F2F" d="M414.172,187.503v5.227c0,1.648-1.032,3.04-3.242,3.04c-2.165,0-3.096-1.391-3.096-2.894v-5.372h1.088
			v5.069c0,1.75,1.065,2.232,2.041,2.232c0.998,0,2.12-0.459,2.12-2.209v-5.092L414.172,187.503L414.172,187.503z"/>
		<path fill="#2F2F2F" d="M420.557,195.556h-0.987v-3.612c0-1.02-0.291-1.536-1.257-1.536c-0.56,0-1.548,0.359-1.548,1.952v3.196
			h-0.987v-5.866h0.931v0.83h0.022c0.213-0.314,0.762-0.998,1.772-0.998c0.909,0,2.052,0.37,2.052,2.041V195.556L420.557,195.556z"
			/>
		<path fill="#2F2F2F" d="M423.23,190.508v3.814c0,0.46,0.392,0.46,0.594,0.46h0.348v0.774c-0.359,0.034-0.639,0.079-0.741,0.079
			c-0.976,0-1.189-0.55-1.189-1.257v-3.87h-0.796v-0.819h0.796v-1.637h0.987v1.637h0.942v0.819H423.23z"/>
		<path fill="#2F2F2F" d="M425.16,188.624v-1.121h0.987v1.121H425.16z M426.147,195.556h-0.987v-5.866h0.987V195.556z"/>
		<path fill="#2F2F2F" d="M428.638,195.556h-0.987v-8.053h0.987V195.556z"/>
	</g>
	<g enable-background="new    ">
		<path fill="#2F2F2F" d="M438.714,194.592h4.083v0.964h-5.17v-8.053h1.088L438.714,194.592L438.714,194.592z"/>
		<path fill="#2F2F2F" d="M443.707,191.474c0.046-1.402,0.977-1.952,2.423-1.952c0.471,0,2.176,0.135,2.176,1.638v3.376
			c0,0.247,0.123,0.348,0.326,0.348c0.089,0,0.213-0.022,0.325-0.046v0.718c-0.168,0.046-0.315,0.113-0.538,0.113
			c-0.875,0-1.01-0.449-1.043-0.897c-0.382,0.415-0.977,0.953-2.121,0.953c-1.077,0-1.839-0.684-1.839-1.694
			c0-0.494,0.146-1.638,1.783-1.839l1.627-0.202c0.235-0.022,0.516-0.113,0.516-0.695c0-0.618-0.449-0.954-1.38-0.954
			c-1.121,0-1.278,0.684-1.346,1.133L443.707,191.474L443.707,191.474z M447.319,192.56c-0.156,0.123-0.403,0.214-1.627,0.37
			c-0.482,0.067-1.257,0.214-1.257,0.954c0,0.639,0.326,1.02,1.065,1.02c0.92,0,1.817-0.594,1.817-1.379L447.319,192.56
			L447.319,192.56z"/>
		<path fill="#2F2F2F" d="M453.805,195.556v-0.852l-0.022-0.022c-0.415,0.684-0.92,1.043-1.862,1.043
			c-0.863,0-1.907-0.415-1.907-1.817v-4.217H451v3.892c0,0.964,0.494,1.29,1.133,1.29c1.245,0,1.615-1.099,1.615-1.952v-3.23h0.987
			v5.866h-0.93V195.556z"/>
		<path fill="#2F2F2F" d="M460.996,195.556h-0.987v-3.612c0-1.02-0.291-1.536-1.257-1.536c-0.56,0-1.547,0.359-1.547,1.952v3.196
			h-0.987v-5.866h0.93v0.83h0.022c0.214-0.314,0.762-0.998,1.772-0.998c0.909,0,2.052,0.37,2.052,2.041L460.996,195.556
			L460.996,195.556z"/>
		<path fill="#2F2F2F" d="M466.124,191.663c-0.122-0.785-0.561-1.257-1.391-1.257c-1.223,0-1.615,1.166-1.615,2.21
			c0,1.01,0.247,2.255,1.604,2.255c0.661,0,1.233-0.494,1.401-1.391h0.954c-0.101,0.931-0.673,2.243-2.39,2.243
			c-1.648,0-2.625-1.245-2.625-2.939c0-1.817,0.876-3.264,2.815-3.264c1.536,0,2.12,1.122,2.199,2.142H466.124z"/>
		<path fill="#2F2F2F" d="M472.845,195.556h-0.987v-3.836c0-0.796-0.224-1.313-1.166-1.313c-0.808,0-1.637,0.471-1.637,1.952v3.196
			h-0.987v-8.053h0.987v2.973h0.022c0.281-0.37,0.775-0.954,1.716-0.954c0.909,0,2.052,0.37,2.052,2.041L472.845,195.556
			L472.845,195.556z"/>
		<path fill="#2F2F2F" d="M474.328,188.624v-1.121h0.987v1.121H474.328z M475.316,195.556h-0.987v-5.866h0.987V195.556z"/>
		<path fill="#2F2F2F" d="M481.576,195.556h-0.987v-3.612c0-1.02-0.292-1.536-1.257-1.536c-0.561,0-1.548,0.359-1.548,1.952v3.196
			h-0.987v-5.866h0.931v0.83h0.022c0.214-0.314,0.763-0.998,1.773-0.998c0.909,0,2.052,0.37,2.052,2.041V195.556z"/>
		<path fill="#2F2F2F" d="M487.904,195.074c0,0.842-0.012,2.949-2.725,2.949c-0.696,0-2.052-0.19-2.243-1.749h0.987
			c0.18,0.931,1.088,0.931,1.324,0.931c1.705,0,1.671-1.368,1.671-2.064v-0.248h-0.022v0.046c-0.259,0.415-0.775,0.785-1.559,0.785
			c-1.997,0-2.579-1.873-2.579-3.275c0-1.649,0.886-2.928,2.444-2.928c1.066,0,1.515,0.662,1.75,0.998h0.022v-0.83h0.93V195.074z
			 M485.358,194.872c0.628,0,1.604-0.416,1.604-1.974c0-0.954-0.156-2.491-1.582-2.491c-1.526,0-1.604,1.447-1.604,2.199
			C483.777,193.896,484.282,194.872,485.358,194.872z"/>
		<path fill="#2F2F2F" d="M490.464,195.556h-1.166v-1.19h1.166V195.556z"/>
		<path fill="#2F2F2F" d="M493.583,195.556h-1.166v-1.19h1.166V195.556z"/>
		<path fill="#2F2F2F" d="M496.703,195.556h-1.166v-1.19h1.166V195.556z"/>
	</g>
	<g>
		<path fill="#2F2F2F" d="M210.078,302.308v2.691h-10.469v-13.748h10.369v2.691h-7.364v2.789h6.481v2.691h-6.481v2.886H210.078
			L210.078,302.308z M221.681,300.088l3.359,4.91h-3.535l-2.945-4.399h-2.376v4.399h-3.024v-13.748h6.283
			c1.747,0,3.104,0.492,4.007,1.395c0.767,0.767,1.178,1.846,1.178,3.142v0.04C224.627,298.045,223.429,299.44,221.681,300.088
			L221.681,300.088z M221.564,295.944c0-1.296-0.903-1.963-2.376-1.963h-3.004v3.947h3.064c1.473,0,2.316-0.786,2.316-1.944V295.944
			L221.564,295.944z M237.98,304.999l-1.257-3.083h-5.813l-1.257,3.083h-3.084l5.891-13.845h2.789l5.891,13.845H237.98
			L237.98,304.999z M233.816,294.787l-1.826,4.457h3.654L233.816,294.787L233.816,294.787z"/>
	</g>
	<g>
		<g>
			<g>
				<g>
					<path fill="#303030" d="M171.397,315.335c-10.054,0-18.234-8.026-18.234-17.891c0-6.992,4.191-13.385,10.677-16.287
						c0.507-0.226,1.105-0.007,1.335,0.49c0.231,0.497,0.007,1.084-0.499,1.31c-5.77,2.581-9.498,8.268-9.498,14.488
						c0,8.774,7.275,15.913,16.218,15.913s16.218-7.139,16.218-15.913c0-6.298-3.794-12.014-9.667-14.561
						c-0.509-0.221-0.739-0.805-0.515-1.305c0.225-0.499,0.821-0.725,1.329-0.505c6.601,2.864,10.868,9.29,10.868,16.371
						C189.631,307.309,181.452,315.335,171.397,315.335z"/>
				</g>
			</g>
			<g>
				<g>
					<path fill="#303030" d="M174.208,281.395c-0.556,0-1.008-0.443-1.008-0.989c0-0.995-0.825-1.805-1.839-1.805
						s-1.839,0.81-1.839,1.805c0,0.546-0.451,0.989-1.008,0.989c-0.556,0-1.008-0.443-1.008-0.989c0-2.086,1.73-3.783,3.856-3.783
						s3.856,1.697,3.856,3.783C175.216,280.953,174.765,281.395,174.208,281.395z"/>
				</g>
			</g>
			<g>
				<g>
					<path fill="#303030" d="M159.215,286.488c-0.258,0-0.517-0.097-0.713-0.29l-2.293-2.25c-0.394-0.386-0.394-1.012,0-1.399
						c0.393-0.387,1.032-0.387,1.425,0l2.293,2.25c0.394,0.386,0.394,1.012,0,1.399
						C159.732,286.391,159.473,286.488,159.215,286.488z"/>
				</g>
			</g>
			<g>
				<g>
					<path fill="#303030" d="M183.48,286.387c-0.258,0-0.516-0.097-0.713-0.29c-0.394-0.386-0.394-1.012,0-1.399l2.078-2.04
						c0.393-0.387,1.032-0.387,1.425,0c0.394,0.386,0.394,1.012,0,1.399l-2.078,2.04C183.995,286.29,183.738,286.387,183.48,286.387
						z"/>
				</g>
			</g>
		</g>
		<g>
			<g>
				<path fill="#303030" d="M171.397,301.702c-2.106,0-3.819-1.681-3.819-3.747s1.713-3.747,3.819-3.747
					c2.107,0,3.819,1.681,3.819,3.747S173.503,301.702,171.397,301.702z M171.397,296.187c-0.994,0-1.803,0.793-1.803,1.769
					c0,0.976,0.809,1.769,1.803,1.769c0.993,0,1.803-0.793,1.803-1.769C173.2,296.98,172.391,296.187,171.397,296.187z"/>
			</g>
		</g>
		<g>
			<g>
				<path fill="#303030" d="M171.486,296.059c-0.556,0-1.008-0.443-1.008-0.989v-5.144c0-0.546,0.451-0.989,1.008-0.989
					c0.556,0,1.008,0.443,1.008,0.989v5.144C172.494,295.616,172.042,296.059,171.486,296.059z"/>
			</g>
		</g>
		<g>
			<g>
				<path fill="#303030" d="M171.486,311.093c-0.267,0-0.525-0.107-0.714-0.289c-0.185-0.186-0.295-0.44-0.295-0.7
					c0-0.262,0.108-0.515,0.295-0.7c0.375-0.364,1.053-0.368,1.427,0c0.185,0.185,0.295,0.44,0.295,0.7
					c0,0.261-0.108,0.515-0.295,0.7C172.01,310.986,171.752,311.093,171.486,311.093z"/>
			</g>
		</g>
		<g>
			<g>
				<path fill="#303030" d="M184.389,298.828c-0.266,0-0.525-0.107-0.714-0.289c-0.185-0.186-0.295-0.44-0.295-0.7
					c0-0.262,0.109-0.515,0.295-0.7c0.375-0.368,1.052-0.368,1.427,0c0.185,0.185,0.295,0.44,0.295,0.7
					c0,0.261-0.108,0.515-0.295,0.7C184.913,298.721,184.655,298.828,184.389,298.828z"/>
			</g>
		</g>
		<g>
			<g>
				<path fill="#303030" d="M158.18,298.828c-0.267,0-0.525-0.107-0.714-0.289c-0.185-0.186-0.295-0.44-0.295-0.7
					c0-0.262,0.108-0.515,0.295-0.7c0.375-0.368,1.052-0.368,1.427,0c0.185,0.185,0.295,0.44,0.295,0.7
					c0,0.261-0.108,0.515-0.295,0.7C158.704,298.721,158.446,298.828,158.18,298.828z"/>
			</g>
		</g>
		<g>
			<g>
				<path fill="#303030" d="M171.486,285.772c-0.267,0-0.525-0.107-0.714-0.289c-0.185-0.186-0.295-0.44-0.295-0.7
					c0-0.262,0.108-0.515,0.295-0.7c0.375-0.364,1.053-0.368,1.427,0c0.185,0.185,0.295,0.44,0.295,0.7
					c0,0.261-0.108,0.515-0.295,0.7C172.01,285.665,171.752,285.772,171.486,285.772z"/>
			</g>
		</g>
		<g>
			<g>
				<path fill="#303030" d="M162.305,307.524c-0.266,0-0.528-0.107-0.714-0.289c-0.19-0.186-0.295-0.44-0.295-0.7
					c0-0.262,0.105-0.515,0.295-0.7c0.375-0.368,1.049-0.368,1.424,0c0.19,0.185,0.299,0.44,0.299,0.7s-0.108,0.515-0.299,0.7
					C162.829,307.417,162.567,307.524,162.305,307.524z"/>
			</g>
		</g>
		<g>
			<g>
				<path fill="#303030" d="M180.265,307.806c-0.262,0-0.524-0.107-0.709-0.293c-0.19-0.182-0.299-0.435-0.299-0.696
					c0-0.262,0.109-0.515,0.299-0.7c0.371-0.368,1.048-0.368,1.424,0c0.19,0.182,0.294,0.44,0.294,0.7
					c0,0.261-0.105,0.515-0.294,0.7C180.793,307.699,180.53,307.806,180.265,307.806z"/>
			</g>
		</g>
		<g>
			<g>
				<path fill="#303030" d="M161.733,289.622c-0.262,0-0.525-0.107-0.714-0.289c-0.185-0.186-0.295-0.443-0.295-0.7
					c0-0.262,0.108-0.518,0.295-0.7c0.379-0.368,1.052-0.368,1.427,0c0.19,0.182,0.295,0.44,0.295,0.7
					c0,0.257-0.105,0.515-0.295,0.696C162.257,289.515,161.998,289.622,161.733,289.622z"/>
			</g>
		</g>
		<g>
			<g>
				<path fill="#303030" d="M180.551,289.622c-0.267,0-0.525-0.107-0.714-0.293c-0.185-0.182-0.294-0.44-0.294-0.696
					c0-0.262,0.109-0.518,0.294-0.7c0.375-0.368,1.052-0.368,1.427,0c0.185,0.185,0.295,0.44,0.295,0.7
					c0,0.257-0.108,0.515-0.295,0.696C181.074,289.515,180.816,289.622,180.551,289.622z"/>
			</g>
		</g>
	</g>
	<g>
		<path fill="#2F2F2F" d="M485.576,310.544c-5.638,0-10.458-3.596-10.458-14.995c0-11.155,4.82-14.75,10.458-14.75
			c5.72,0,10.542,3.596,10.542,14.75C496.118,306.948,491.296,310.544,485.576,310.544L485.576,310.544z M485.576,285.58
			c-4.657,0-4.657,6.986-4.657,9.969c0,3.227,0,10.215,4.657,10.215c4.741,0,4.741-6.988,4.741-10.215
			C490.317,292.566,490.317,285.58,485.576,285.58L485.576,285.58z M513.769,294.485v0.082c3.391,0.776,5.352,3.392,5.352,6.988
			c0,6.006-5.394,8.989-10.705,8.989c-5.515,0-10.868-2.779-10.868-8.949c0-3.636,2.045-6.21,5.393-7.028v-0.082
			c-2.778-0.775-4.208-3.064-4.208-5.883c0-5.148,4.983-7.804,9.642-7.804c7.11,0,9.56,4.904,9.56,7.683
			C517.936,291.3,516.464,293.587,513.769,294.485L513.769,294.485z M508.375,285.169c-2.329,0-4.371,1.431-4.371,3.964
			c0,2.492,2.043,3.759,4.371,3.759c2.369,0,4.29-1.308,4.29-3.759C512.666,287.663,511.971,285.169,508.375,285.169
			L508.375,285.169z M508.415,296.775c-2.819,0-5.065,1.593-5.065,4.535c0,2.941,2.287,4.862,5.065,4.862
			c2.779,0,4.904-1.961,4.904-4.822C513.319,298.612,511.113,296.775,508.415,296.775L508.415,296.775z"/>
	</g>
	<g>
		<g>
			<g>
				<path fill="#303030" d="M358.07,518.37h1.598v-1.377c0-0.607,0.017-1.544,0.515-2.123c0.523-0.613,1.243-1.032,2.48-1.032
					c2.015,0,2.865,0.255,2.865,0.255l-0.401,2.098c0,0-0.666-0.171-1.286-0.171c-0.621,0-1.179,0.198-1.179,0.748v1.6h2.548
					l-0.177,2.05h-2.37v7.121h-2.995v-7.121h-1.598V518.37L358.07,518.37z"/>
			</g>
		</g>
		<g>
			<g>
				<path fill="#303030" d="M548.516,519.137c-0.094-0.46-0.235-0.913-0.417-1.346c-0.18-0.424-0.401-0.833-0.66-1.215
					c-0.256-0.379-0.55-0.736-0.874-1.059c-0.324-0.324-0.68-0.617-1.059-0.873c-0.382-0.259-0.791-0.481-1.217-0.661
					c-0.431-0.182-0.884-0.324-1.344-0.416c-0.471-0.097-0.956-0.147-1.44-0.147c-0.485,0-0.971,0.05-1.442,0.147
					c-0.459,0.093-0.912,0.234-1.344,0.416c-0.425,0.18-0.834,0.401-1.216,0.661c-0.379,0.256-0.735,0.55-1.059,0.873
					c-0.323,0.324-0.617,0.68-0.872,1.059c-0.259,0.382-0.481,0.791-0.66,1.215c-0.182,0.433-0.323,0.886-0.417,1.346
					c-0.097,0.469-0.146,0.955-0.146,1.44c0,0.486,0.049,0.971,0.146,1.442c0.094,0.459,0.235,0.912,0.417,1.344
					c0.179,0.424,0.401,0.834,0.66,1.216c0.256,0.38,0.55,0.735,0.872,1.059c0.324,0.324,0.68,0.617,1.059,0.872
					c0.383,0.259,0.791,0.482,1.216,0.661c0.432,0.182,0.885,0.322,1.344,0.416c0.471,0.098,0.957,0.147,1.442,0.147
					s0.97-0.049,1.44-0.147c0.46-0.094,0.913-0.234,1.344-0.416c0.425-0.179,0.834-0.401,1.217-0.661
					c0.379-0.256,0.735-0.549,1.059-0.872c0.324-0.325,0.618-0.68,0.874-1.059c0.259-0.382,0.481-0.792,0.66-1.216
					c0.182-0.432,0.324-0.886,0.417-1.344c0.097-0.471,0.146-0.957,0.146-1.442C548.661,520.092,548.612,519.607,548.516,519.137
					 M547.614,520.516c-0.088-0.019-2.156-0.464-4.256-0.2c-0.043-0.104-0.087-0.209-0.132-0.315
					c-0.127-0.3-0.264-0.596-0.406-0.887c2.413-0.985,3.394-2.403,3.405-2.42C547.081,517.737,547.6,519.067,547.614,520.516
					 M545.541,515.99c-0.015,0.024-0.886,1.349-3.193,2.214c-1.045-1.92-2.192-3.444-2.285-3.566
					c0.462-0.112,0.944-0.172,1.441-0.172C543.051,514.465,544.464,515.041,545.541,515.99 M540.04,514.642
					c-0.001,0.002-0.002,0.002-0.002,0.002s-0.007,0.002-0.018,0.004C540.027,514.647,540.033,514.646,540.04,514.642
					 M538.896,515.05c0.081,0.109,1.212,1.641,2.269,3.522c-2.934,0.78-5.482,0.749-5.642,0.747
					C535.92,517.425,537.192,515.855,538.896,515.05 M535.392,520.578c0-0.065,0.003-0.128,0.004-0.193
					c0.108,0.003,3.128,0.07,6.276-0.871c0.175,0.343,0.343,0.691,0.495,1.039c-0.08,0.023-0.161,0.047-0.24,0.074
					c-3.299,1.066-4.972,4.034-4.972,4.034s0.002,0.003,0.002,0.003C535.985,523.579,535.392,522.147,535.392,520.578
					 M541.504,526.69c-1.479,0-2.837-0.526-3.893-1.4c0.08,0.065,0.137,0.107,0.137,0.107s1.171-2.556,4.797-3.818
					c0.013-0.005,0.027-0.009,0.041-0.013c0.859,2.236,1.215,4.107,1.305,4.641C543.156,526.518,542.35,526.69,541.504,526.69
					 M544.919,525.647c-0.061-0.368-0.388-2.163-1.19-4.366c1.973-0.315,3.683,0.226,3.809,0.267
					C547.266,523.25,546.292,524.721,544.919,525.647"/>
			</g>
		</g>
		<g>
			<g>
				<path fill="#303030" d="M484.832,521.483l-4.703,2.761v-5.523L484.832,521.483z M489.225,524.043v-5.135
					c0,0,0-2.475-2.475-2.475h-9.412c0,0-2.473,0-2.473,2.475v5.135c0,0,0,2.475,2.473,2.475h9.412
					C486.749,526.518,489.225,526.518,489.225,524.043"/>
			</g>
		</g>
		<g>
			<path fill="#303030" d="M398.846,516.495c-0.51,0.218-1.06,0.364-1.636,0.43c0.589-0.338,1.04-0.874,1.252-1.512
				c-0.55,0.313-1.16,0.541-1.809,0.662c-0.518-0.531-1.259-0.863-2.079-0.863c-1.573,0-2.848,1.225-2.848,2.735
				c0,0.214,0.024,0.423,0.073,0.622c-2.367-0.114-4.467-1.202-5.872-2.858c-0.245,0.406-0.385,0.876-0.385,1.376
				c0,0.949,0.503,1.786,1.267,2.276c-0.467-0.013-0.906-0.137-1.291-0.341v0.034c0,1.326,0.983,2.431,2.286,2.682
				c-0.239,0.065-0.49,0.096-0.752,0.096c-0.183,0-0.363-0.017-0.536-0.049c0.362,1.086,1.415,1.877,2.661,1.898
				c-0.976,0.734-2.204,1.171-3.538,1.171c-0.23,0-0.458-0.012-0.68-0.037c1.261,0.774,2.758,1.228,4.366,1.228
				c5.241,0,8.105-4.167,8.105-7.78c0-0.119-0.002-0.238-0.008-0.354C397.982,517.525,398.465,517.044,398.846,516.495"/>
		</g>
		<g>
			<g>
				<path fill="#303030" d="M571.819,513.545c-3.931,0-7.118,3.187-7.118,7.118c0,2.915,1.752,5.419,4.261,6.519
					c-0.021-0.497-0.003-1.094,0.123-1.635c0.137-0.578,0.916-3.879,0.916-3.879s-0.228-0.454-0.228-1.126
					c0-1.055,0.613-1.843,1.373-1.843c0.647,0,0.959,0.487,0.959,1.069c0,0.651-0.416,1.625-0.628,2.526
					c-0.178,0.755,0.379,1.37,1.123,1.37c1.348,0,2.257-1.731,2.257-3.785c0-1.559-1.05-2.727-2.962-2.727
					c-2.159,0-3.503,1.61-3.503,3.408c0,0.621,0.182,1.058,0.469,1.396c0.132,0.156,0.15,0.219,0.103,0.397
					c-0.033,0.131-0.112,0.447-0.145,0.572c-0.047,0.18-0.194,0.244-0.356,0.177c-0.996-0.406-1.459-1.495-1.459-2.718
					c0-2.022,1.705-4.448,5.087-4.448c2.718,0,4.506,1.967,4.506,4.078c0,2.793-1.553,4.879-3.841,4.879
					c-0.767,0-1.491-0.416-1.738-0.887c0,0-0.414,1.64-0.5,1.956c-0.151,0.55-0.446,1.098-0.717,1.526
					c0.639,0.19,1.317,0.292,2.017,0.292c3.931,0,7.117-3.187,7.117-7.118C578.936,516.732,575.75,513.545,571.819,513.545"/>
			</g>
		</g>
		<g>
			<g>
				<path fill="#303030" d="M448.079,527.138h-2.638v-8.442h2.638V527.138L448.079,527.138z M446.693,517.639h-0.018
					c-0.955,0-1.574-0.646-1.574-1.464c0-0.834,0.638-1.466,1.612-1.466s1.571,0.63,1.591,1.464
					C448.303,516.991,447.684,517.639,446.693,517.639 M458.635,527.138h-2.992v-4.369c0-1.144-0.468-1.925-1.497-1.925
					c-0.787,0-1.225,0.527-1.429,1.035c-0.076,0.182-0.065,0.435-0.065,0.69v4.569h-2.963c0,0,0.038-7.74,0-8.442h2.963v1.325
					c0.175-0.579,1.122-1.406,2.634-1.406c1.875,0,3.347,1.214,3.347,3.829V527.138L458.635,527.138z"/>
			</g>
		</g>
		<g>
			<g>
				<path fill="#303030" d="M511.215,517.472c0.265,0.366,0.397,0.802,0.397,1.313c0,0.525-0.132,0.948-0.401,1.266
					c-0.151,0.179-0.372,0.342-0.665,0.49c0.443,0.161,0.777,0.413,1.005,0.759c0.224,0.345,0.338,0.767,0.338,1.261
					c0,0.51-0.127,0.967-0.387,1.372c-0.164,0.268-0.369,0.494-0.615,0.676c-0.277,0.211-0.603,0.354-0.981,0.433
					c-0.378,0.078-0.786,0.115-1.228,0.115h-3.916v-8.602h4.199C510.022,516.57,510.772,516.876,511.215,517.472 M506.496,518.049
					v1.897h2.112c0.376,0,0.683-0.071,0.92-0.214c0.235-0.142,0.353-0.394,0.353-0.755c0-0.402-0.155-0.666-0.466-0.795
					c-0.269-0.089-0.611-0.134-1.027-0.134L506.496,518.049L506.496,518.049z M506.496,521.37v2.294h2.109
					c0.377,0,0.67-0.05,0.881-0.151c0.382-0.189,0.571-0.545,0.571-1.074c0-0.449-0.183-0.755-0.553-0.923
					c-0.207-0.093-0.496-0.142-0.869-0.146L506.496,521.37L506.496,521.37z M517.144,518.925c0.449,0.199,0.819,0.512,1.109,0.942
					c0.266,0.377,0.437,0.817,0.513,1.315c0.046,0.291,0.064,0.714,0.056,1.262h-4.682c0.028,0.638,0.249,1.085,0.672,1.342
					c0.257,0.16,0.566,0.24,0.927,0.24c0.381,0,0.693-0.098,0.932-0.292c0.132-0.105,0.247-0.251,0.346-0.438h1.716
					c-0.045,0.377-0.252,0.761-0.622,1.151c-0.575,0.617-1.382,0.928-2.417,0.928c-0.856,0-1.611-0.261-2.263-0.782
					c-0.656-0.522-0.98-1.372-0.98-2.546c0-1.103,0.294-1.948,0.883-2.536c0.592-0.588,1.358-0.882,2.298-0.882
					C516.192,518.627,516.695,518.727,517.144,518.925 M514.63,520.363c-0.238,0.243-0.386,0.57-0.448,0.984h2.896
					c-0.031-0.442-0.181-0.776-0.447-1.006c-0.27-0.228-0.601-0.342-0.998-0.342C515.204,519.999,514.868,520.12,514.63,520.363
					 M517.472,516.956h-3.724v1.07h3.724V516.956z"/>
			</g>
		</g>
		<g>
			<g>
				<path fill="#303030" d="M419.939,522.357h2.892c-0.507,1.435-1.882,2.464-3.492,2.453c-1.954-0.014-3.569-1.577-3.645-3.529
					c-0.081-2.093,1.598-3.82,3.672-3.82c0.949,0,1.814,0.362,2.467,0.954c0.155,0.141,0.39,0.142,0.542-0.002l1.062-1
					c0.166-0.156,0.166-0.421,0.001-0.578c-1.035-0.98-2.423-1.592-3.954-1.622c-3.266-0.064-6.018,2.613-6.04,5.88
					c-0.023,3.29,2.637,5.965,5.923,5.965c3.16,0,5.74-2.473,5.913-5.59c0.005-0.039,0.007-1.359,0.007-1.359h-5.348
					c-0.219,0-0.396,0.178-0.396,0.396v1.454C419.542,522.18,419.72,522.357,419.939,522.357z"/>
			</g>
			<g>
				<path fill="#303030" d="M430.188,520.241v-1.421c0-0.192-0.156-0.348-0.348-0.348h-1.196c-0.192,0-0.348,0.156-0.348,0.348
					v1.421h-1.421c-0.192,0-0.348,0.156-0.348,0.348v1.196c0,0.192,0.156,0.348,0.348,0.348h1.421v1.421
					c0,0.192,0.156,0.348,0.348,0.348h1.196c0.192,0,0.348-0.156,0.348-0.348v-1.421h1.421c0.192,0,0.348-0.156,0.348-0.348v-1.196
					c0-0.192-0.156-0.348-0.348-0.348H430.188L430.188,520.241z"/>
			</g>
		</g>
	</g>
	<g enable-background="new    ">
		<path d="M361.178,402.612h-1.144l-2.098-8.053h1.178l1.502,6.55h0.022l1.806-6.55h1.189l1.806,6.55h0.022l1.503-6.55h1.2
			l-2.12,8.053h-1.144l-1.839-6.674h-0.022L361.178,402.612z"/>
		<path d="M373.722,400.772c-0.034,0.281-0.303,1.111-1.043,1.604c-0.269,0.18-0.651,0.403-1.593,0.403
			c-1.649,0-2.625-1.245-2.625-2.939c0-1.817,0.875-3.264,2.815-3.264c1.694,0,2.524,1.346,2.524,3.421h-4.285
			c0,1.223,0.572,1.93,1.705,1.93c0.931,0,1.481-0.718,1.515-1.156H373.722z M372.78,399.214c-0.056-0.909-0.437-1.75-1.638-1.75
			c-0.909,0-1.627,0.842-1.627,1.75H372.78z"/>
		<path d="M378.066,398.53c0.045-1.402,0.976-1.952,2.423-1.952c0.471,0,2.175,0.135,2.175,1.638v3.376
			c0,0.248,0.123,0.348,0.325,0.348c0.089,0,0.213-0.022,0.325-0.046v0.718c-0.168,0.046-0.314,0.113-0.538,0.113
			c-0.875,0-1.009-0.449-1.043-0.897c-0.382,0.415-0.976,0.953-2.12,0.953c-1.077,0-1.839-0.684-1.839-1.694
			c0-0.494,0.146-1.638,1.783-1.839l1.627-0.202c0.236-0.022,0.516-0.113,0.516-0.695c0-0.618-0.449-0.954-1.38-0.954
			c-1.122,0-1.278,0.684-1.346,1.133H378.066z M381.677,399.617c-0.157,0.123-0.404,0.214-1.627,0.37
			c-0.483,0.067-1.257,0.214-1.257,0.954c0,0.639,0.325,1.02,1.066,1.02c0.92,0,1.817-0.594,1.817-1.379V399.617z"/>
		<path d="M385.46,402.612h-0.987v-5.866h0.931v0.976h0.022c0.393-0.684,0.909-1.144,1.649-1.144c0.123,0,0.18,0.012,0.258,0.034
			v1.021h-0.37c-0.92,0-1.502,0.718-1.502,1.569v3.41H385.46z"/>
		<path d="M392.831,400.772c-0.034,0.281-0.303,1.111-1.043,1.604c-0.269,0.18-0.651,0.403-1.593,0.403
			c-1.649,0-2.625-1.245-2.625-2.939c0-1.817,0.875-3.264,2.815-3.264c1.694,0,2.524,1.346,2.524,3.421h-4.285
			c0,1.223,0.572,1.93,1.705,1.93c0.931,0,1.481-0.718,1.515-1.156H392.831z M391.889,399.214c-0.056-0.909-0.437-1.75-1.638-1.75
			c-0.909,0-1.627,0.842-1.627,1.75H391.889z"/>
		<path d="M401.987,402.612H401v-3.836c0-0.796-0.224-1.313-1.166-1.313c-0.808,0-1.637,0.471-1.637,1.952v3.196h-0.987v-8.053
			h0.987v2.973h0.022c0.281-0.37,0.774-0.954,1.716-0.954c0.909,0,2.052,0.37,2.052,2.041L401.987,402.612L401.987,402.612z"/>
		<path d="M403.414,398.53c0.045-1.402,0.976-1.952,2.423-1.952c0.471,0,2.175,0.135,2.175,1.638v3.376
			c0,0.248,0.123,0.348,0.325,0.348c0.089,0,0.213-0.022,0.325-0.046v0.718c-0.168,0.046-0.314,0.113-0.538,0.113
			c-0.875,0-1.009-0.449-1.043-0.897c-0.382,0.415-0.976,0.953-2.12,0.953c-1.077,0-1.839-0.684-1.839-1.694
			c0-0.494,0.146-1.638,1.783-1.839l1.627-0.202c0.236-0.022,0.516-0.113,0.516-0.695c0-0.618-0.449-0.954-1.38-0.954
			c-1.122,0-1.278,0.684-1.346,1.133H403.414z M407.025,399.617c-0.157,0.123-0.404,0.214-1.627,0.37
			c-0.483,0.067-1.257,0.214-1.257,0.954c0,0.639,0.325,1.02,1.066,1.02c0.92,0,1.817-0.594,1.817-1.379V399.617z"/>
		<path d="M409.608,396.746h0.931v0.83h0.022c0.236-0.336,0.685-0.998,1.75-0.998c1.56,0,2.445,1.279,2.445,2.928
			c0,1.401-0.584,3.275-2.58,3.275c-0.785,0-1.301-0.37-1.559-0.785h-0.022v2.939h-0.987L409.608,396.746L409.608,396.746z
			 M412.154,401.929c1.077,0,1.581-0.977,1.581-2.266c0-0.752-0.079-2.199-1.604-2.199c-1.425,0-1.581,1.536-1.581,2.491
			C410.551,401.513,411.526,401.929,412.154,401.929z"/>
		<path d="M415.847,396.746h0.931v0.83h0.022c0.236-0.336,0.685-0.998,1.75-0.998c1.56,0,2.445,1.279,2.445,2.928
			c0,1.401-0.584,3.275-2.58,3.275c-0.785,0-1.301-0.37-1.559-0.785h-0.022v2.939h-0.987L415.847,396.746L415.847,396.746z
			 M418.393,401.929c1.077,0,1.581-0.977,1.581-2.266c0-0.752-0.079-2.199-1.604-2.199c-1.425,0-1.581,1.536-1.581,2.491
			C416.789,401.513,417.765,401.929,418.393,401.929z"/>
		<path d="M425.495,396.746h1.088c-0.685,1.918-1.358,3.837-2.108,5.754c-0.931,2.378-1.032,2.512-2.3,2.512
			c-0.146,0-0.258-0.045-0.415-0.089v-0.897c0.123,0.046,0.325,0.101,0.594,0.101c0.517,0,0.572-0.146,1.043-1.358l-2.176-6.023
			h1.122l1.559,4.778h0.022L425.495,396.746z"/>
		<path d="M431.769,397.565v3.814c0,0.46,0.392,0.46,0.594,0.46h0.348v0.774c-0.359,0.034-0.639,0.079-0.741,0.079
			c-0.976,0-1.189-0.55-1.189-1.257v-3.87h-0.796v-0.819h0.796v-1.637h0.987v1.637h0.942v0.819H431.769z"/>
		<path d="M435.841,396.578c1.873,0,2.725,1.582,2.725,3.096c0,1.514-0.853,3.095-2.725,3.095c-1.873,0-2.726-1.581-2.726-3.095
			C433.116,398.16,433.968,396.578,435.841,396.578z M435.841,401.917c1.413,0,1.705-1.459,1.705-2.243
			c0-0.785-0.292-2.243-1.705-2.243c-1.414,0-1.705,1.459-1.705,2.243C434.136,400.458,434.428,401.917,435.841,401.917z"/>
		<path d="M446.142,398.417c-0.012-0.37-0.146-0.987-1.391-0.987c-0.303,0-1.166,0.101-1.166,0.829c0,0.483,0.303,0.595,1.066,0.786
			l0.987,0.247c1.223,0.303,1.649,0.752,1.649,1.548c0,1.211-0.998,1.94-2.322,1.94c-2.322,0-2.49-1.346-2.524-2.052h0.954
			c0.034,0.46,0.168,1.2,1.559,1.2c0.707,0,1.346-0.281,1.346-0.931c0-0.471-0.325-0.628-1.166-0.842l-1.144-0.281
			c-0.819-0.201-1.358-0.617-1.358-1.425c0-1.29,1.065-1.873,2.221-1.873c2.098,0,2.243,1.548,2.243,1.84L446.142,398.417
			L446.142,398.417z"/>
		<path d="M453.401,400.772c-0.034,0.281-0.303,1.111-1.043,1.604c-0.269,0.18-0.651,0.403-1.593,0.403
			c-1.649,0-2.624-1.245-2.624-2.939c0-1.817,0.875-3.264,2.815-3.264c1.694,0,2.524,1.346,2.524,3.421h-4.285
			c0,1.223,0.572,1.93,1.705,1.93c0.931,0,1.48-0.718,1.514-1.156H453.401z M452.459,399.214c-0.056-0.909-0.438-1.75-1.638-1.75
			c-0.908,0-1.626,0.842-1.626,1.75H452.459z"/>
		<path d="M459.64,400.772c-0.034,0.281-0.303,1.111-1.043,1.604c-0.269,0.18-0.651,0.403-1.593,0.403
			c-1.649,0-2.624-1.245-2.624-2.939c0-1.817,0.875-3.264,2.815-3.264c1.694,0,2.524,1.346,2.524,3.421h-4.285
			c0,1.223,0.572,1.93,1.705,1.93c0.931,0,1.48-0.718,1.514-1.156H459.64z M458.698,399.214c-0.056-0.909-0.438-1.75-1.638-1.75
			c-0.908,0-1.626,0.842-1.626,1.75H458.698z"/>
		<path d="M467.686,396.746h1.088c-0.685,1.918-1.358,3.837-2.108,5.754c-0.931,2.378-1.032,2.512-2.3,2.512
			c-0.146,0-0.258-0.045-0.415-0.089v-0.897c0.123,0.046,0.325,0.101,0.594,0.101c0.516,0,0.572-0.146,1.043-1.358l-2.176-6.023
			h1.122l1.559,4.778h0.022L467.686,396.746z"/>
		<path d="M471.793,396.578c1.874,0,2.726,1.582,2.726,3.096c0,1.514-0.852,3.095-2.726,3.095c-1.873,0-2.725-1.581-2.725-3.095
			C469.068,398.16,469.92,396.578,471.793,396.578z M471.793,401.917c1.414,0,1.705-1.459,1.705-2.243
			c0-0.785-0.291-2.243-1.705-2.243c-1.413,0-1.705,1.459-1.705,2.243C470.088,400.458,470.38,401.917,471.793,401.917z"/>
		<path d="M479.467,402.612v-0.852l-0.022-0.022c-0.416,0.684-0.92,1.043-1.862,1.043c-0.863,0-1.906-0.415-1.906-1.817v-4.217
			h0.987v3.892c0,0.964,0.493,1.29,1.132,1.29c1.245,0,1.615-1.099,1.615-1.952v-3.23h0.987v5.866h-0.93V402.612z"/>
		<path d="M482.128,401.423h1.166v1.099c0,1.526-0.942,1.705-1.166,1.739v-0.517c0.471-0.045,0.595-0.605,0.595-1.132h-0.595
			V401.423z"/>
		<path d="M490.51,396.578c1.873,0,2.726,1.582,2.726,3.096c0,1.514-0.853,3.095-2.726,3.095s-2.726-1.581-2.726-3.095
			C487.784,398.16,488.637,396.578,490.51,396.578z M490.51,401.917c1.413,0,1.705-1.459,1.705-2.243
			c0-0.785-0.292-2.243-1.705-2.243c-1.413,0-1.705,1.459-1.705,2.243C488.804,400.458,489.097,401.917,490.51,401.917z"/>
		<path d="M498.185,402.612v-0.852l-0.022-0.022c-0.415,0.684-0.92,1.043-1.862,1.043c-0.863,0-1.907-0.415-1.907-1.817v-4.217
			h0.987v3.892c0,0.964,0.494,1.29,1.133,1.29c1.245,0,1.615-1.099,1.615-1.952v-3.23h0.987v5.866h-0.93V402.612z"/>
		<path d="M501.72,402.612h-0.987v-5.866h0.93v0.976h0.022c0.393-0.684,0.909-1.144,1.649-1.144c0.123,0,0.18,0.012,0.258,0.034
			v1.021h-0.37c-0.92,0-1.502,0.718-1.502,1.569L501.72,402.612L501.72,402.612z"/>
		<path d="M510.785,398.417c-0.011-0.37-0.146-0.987-1.391-0.987c-0.303,0-1.166,0.101-1.166,0.829c0,0.483,0.303,0.595,1.065,0.786
			l0.987,0.247c1.223,0.303,1.649,0.752,1.649,1.548c0,1.211-0.998,1.94-2.322,1.94c-2.323,0-2.491-1.346-2.524-2.052h0.953
			c0.034,0.46,0.168,1.2,1.559,1.2c0.707,0,1.346-0.281,1.346-0.931c0-0.471-0.326-0.628-1.166-0.842l-1.145-0.281
			c-0.818-0.201-1.357-0.617-1.357-1.425c0-1.29,1.065-1.873,2.221-1.873c2.097,0,2.243,1.548,2.243,1.84L510.785,398.417
			L510.785,398.417z"/>
		<path d="M513.087,395.681v-1.121h0.987v1.121H513.087z M514.074,402.612h-0.987v-5.866h0.987V402.612z"/>
		<path d="M516.767,397.565v3.814c0,0.46,0.392,0.46,0.594,0.46h0.348v0.774c-0.359,0.034-0.639,0.079-0.741,0.079
			c-0.976,0-1.189-0.55-1.189-1.257v-3.87h-0.797v-0.819h0.797v-1.637h0.987v1.637h0.942v0.819H516.767z"/>
		<path d="M523.431,400.772c-0.034,0.281-0.303,1.111-1.043,1.604c-0.269,0.18-0.651,0.403-1.593,0.403
			c-1.648,0-2.624-1.245-2.624-2.939c0-1.817,0.875-3.264,2.814-3.264c1.694,0,2.524,1.346,2.524,3.421h-4.285
			c0,1.223,0.572,1.93,1.705,1.93c0.931,0,1.48-0.718,1.514-1.156H523.431z M522.489,399.214c-0.056-0.909-0.438-1.75-1.638-1.75
			c-0.909,0-1.627,0.842-1.627,1.75H522.489z"/>
		<path d="M527.831,395.681v-1.121h0.987v1.121H527.831z M528.819,402.612h-0.987v-5.866h0.987V402.612z"/>
		<path d="M533.631,398.417c-0.011-0.37-0.146-0.987-1.391-0.987c-0.303,0-1.166,0.101-1.166,0.829c0,0.483,0.303,0.595,1.065,0.786
			l0.987,0.247c1.223,0.303,1.649,0.752,1.649,1.548c0,1.211-0.998,1.94-2.322,1.94c-2.323,0-2.491-1.346-2.524-2.052h0.953
			c0.034,0.46,0.168,1.2,1.559,1.2c0.707,0,1.346-0.281,1.346-0.931c0-0.471-0.326-0.628-1.166-0.842l-1.145-0.281
			c-0.818-0.201-1.357-0.617-1.357-1.425c0-1.29,1.065-1.873,2.221-1.873c2.097,0,2.243,1.548,2.243,1.84L533.631,398.417
			L533.631,398.417z"/>
		<path d="M538.996,398.53c0.046-1.402,0.977-1.952,2.423-1.952c0.471,0,2.176,0.135,2.176,1.638v3.376
			c0,0.248,0.123,0.348,0.326,0.348c0.089,0,0.213-0.022,0.325-0.046v0.718c-0.168,0.046-0.315,0.113-0.538,0.113
			c-0.875,0-1.01-0.449-1.043-0.897c-0.382,0.415-0.977,0.953-2.121,0.953c-1.077,0-1.839-0.684-1.839-1.694
			c0-0.494,0.146-1.638,1.783-1.839l1.627-0.202c0.235-0.022,0.516-0.113,0.516-0.695c0-0.618-0.449-0.954-1.38-0.954
			c-1.121,0-1.278,0.684-1.346,1.133H538.996z M542.608,399.617c-0.156,0.123-0.403,0.214-1.627,0.37
			c-0.482,0.067-1.257,0.214-1.257,0.954c0,0.639,0.326,1.02,1.065,1.02c0.92,0,1.817-0.594,1.817-1.379L542.608,399.617
			L542.608,399.617z"/>
		<path d="M546.277,402.612h-0.987v-8.053h0.987V402.612z"/>
		<path d="M547.759,396.746h0.931v0.83h0.022c0.214-0.314,0.718-0.998,1.773-0.998c1.054,0,1.391,0.639,1.559,0.954
			c0.494-0.55,0.886-0.954,1.795-0.954c0.628,0,1.817,0.326,1.817,1.974v4.06h-0.987v-3.791c0-0.808-0.247-1.358-1.088-1.358
			c-0.83,0-1.379,0.786-1.379,1.57v3.578h-0.987v-4.06c0-0.493-0.19-1.088-0.92-1.088c-0.561,0-1.548,0.359-1.548,1.952v3.196
			h-0.987v-5.866H547.759z"/>
		<path d="M559.495,396.578c1.874,0,2.726,1.582,2.726,3.096c0,1.514-0.852,3.095-2.726,3.095c-1.873,0-2.725-1.581-2.725-3.095
			C556.77,398.16,557.623,396.578,559.495,396.578z M559.495,401.917c1.414,0,1.705-1.459,1.705-2.243
			c0-0.785-0.291-2.243-1.705-2.243c-1.413,0-1.705,1.459-1.705,2.243C557.79,400.458,558.082,401.917,559.495,401.917z"/>
		<path d="M566.676,398.417c-0.012-0.37-0.146-0.987-1.391-0.987c-0.303,0-1.166,0.101-1.166,0.829c0,0.483,0.303,0.595,1.065,0.786
			l0.987,0.247c1.223,0.303,1.649,0.752,1.649,1.548c0,1.211-0.998,1.94-2.323,1.94c-2.322,0-2.49-1.346-2.523-2.052h0.953
			c0.034,0.46,0.168,1.2,1.559,1.2c0.707,0,1.345-0.281,1.345-0.931c0-0.471-0.325-0.628-1.166-0.842l-1.145-0.281
			c-0.818-0.201-1.357-0.617-1.357-1.425c0-1.29,1.065-1.873,2.221-1.873c2.097,0,2.243,1.548,2.243,1.84L566.676,398.417
			L566.676,398.417z"/>
		<path d="M570.167,397.565v3.814c0,0.46,0.393,0.46,0.595,0.46h0.348v0.774c-0.359,0.034-0.639,0.079-0.741,0.079
			c-0.976,0-1.19-0.55-1.19-1.257v-3.87h-0.796v-0.819h0.796v-1.637h0.987v1.637h0.943v0.819H570.167z"/>
		<path d="M576.316,402.612h-0.987v-5.866h0.931v0.976h0.022c0.392-0.684,0.909-1.144,1.648-1.144c0.123,0,0.18,0.012,0.258,0.034
			v1.021h-0.369c-0.92,0-1.503,0.718-1.503,1.569L576.316,402.612L576.316,402.612z"/>
		<path d="M583.687,400.772c-0.033,0.281-0.302,1.111-1.043,1.604c-0.269,0.18-0.651,0.403-1.593,0.403
			c-1.649,0-2.625-1.245-2.625-2.939c0-1.817,0.875-3.264,2.815-3.264c1.694,0,2.523,1.346,2.523,3.421h-4.285
			c0,1.223,0.572,1.93,1.705,1.93c0.931,0,1.481-0.718,1.514-1.156H583.687z M582.745,399.214c-0.056-0.909-0.437-1.75-1.638-1.75
			c-0.909,0-1.627,0.842-1.627,1.75H582.745z"/>
		<path d="M584.911,398.53c0.046-1.402,0.976-1.952,2.423-1.952c0.471,0,2.176,0.135,2.176,1.638v3.376
			c0,0.248,0.123,0.348,0.325,0.348c0.089,0,0.214-0.022,0.326-0.046v0.718c-0.168,0.046-0.315,0.113-0.538,0.113
			c-0.875,0-1.01-0.449-1.044-0.897c-0.381,0.415-0.976,0.953-2.12,0.953c-1.077,0-1.839-0.684-1.839-1.694
			c0-0.494,0.146-1.638,1.783-1.839l1.627-0.202c0.235-0.022,0.516-0.113,0.516-0.695c0-0.618-0.449-0.954-1.38-0.954
			c-1.121,0-1.279,0.684-1.346,1.133H584.911z M588.523,399.617c-0.156,0.123-0.404,0.214-1.627,0.37
			c-0.482,0.067-1.257,0.214-1.257,0.954c0,0.639,0.325,1.02,1.065,1.02c0.92,0,1.817-0.594,1.817-1.379L588.523,399.617
			L588.523,399.617z"/>
		<path d="M596.052,402.612h-0.931v-0.808h-0.022c-0.426,0.796-1.099,0.976-1.671,0.976c-1.997,0-2.579-1.873-2.579-3.275
			c0-1.649,0.886-2.928,2.444-2.928c1.065,0,1.515,0.662,1.75,0.998l0.022-0.079v-2.939h0.987L596.052,402.612L596.052,402.612z
			 M593.45,401.929c0.628,0,1.604-0.416,1.604-1.974c0-0.954-0.157-2.491-1.582-2.491c-1.526,0-1.604,1.447-1.604,2.199
			C591.868,400.952,592.373,401.929,593.45,401.929z"/>
		<path d="M601.09,396.746h1.088c-0.685,1.918-1.358,3.837-2.109,5.754c-0.93,2.378-1.031,2.512-2.299,2.512
			c-0.146,0-0.258-0.045-0.415-0.089v-0.897c0.122,0.046,0.325,0.101,0.594,0.101c0.516,0,0.572-0.146,1.043-1.358l-2.175-6.023
			h1.121l1.56,4.778h0.021L601.09,396.746z"/>
		<path d="M603.324,402.612h-1.166v-1.19h1.166V402.612z"/>
	</g>
	<g enable-background="new    ">
		<path d="M359.809,416.078h-1.088v-8.053h3.623c1.492,0,2.389,0.964,2.389,2.265c0,1.122-0.639,2.39-2.389,2.39h-2.535
			L359.809,416.078L359.809,416.078z M359.809,411.748h2.165c0.976,0,1.638-0.359,1.638-1.447c0-1.02-0.695-1.346-1.593-1.346
			h-2.209L359.809,411.748L359.809,411.748z"/>
		<path d="M366.979,416.078h-0.987v-8.053h0.987V416.078z"/>
		<path d="M373.441,414.238c-0.034,0.281-0.303,1.111-1.043,1.604c-0.269,0.18-0.651,0.403-1.593,0.403
			c-1.649,0-2.625-1.245-2.625-2.939c0-1.817,0.875-3.264,2.815-3.264c1.694,0,2.524,1.346,2.524,3.421h-4.285
			c0,1.223,0.572,1.93,1.705,1.93c0.931,0,1.481-0.718,1.515-1.156H373.441z M372.499,412.68c-0.056-0.909-0.437-1.75-1.638-1.75
			c-0.909,0-1.627,0.842-1.627,1.75H372.499z"/>
		<path d="M374.666,411.996c0.045-1.402,0.976-1.952,2.423-1.952c0.471,0,2.175,0.135,2.175,1.638v3.376
			c0,0.247,0.123,0.348,0.325,0.348c0.089,0,0.213-0.022,0.325-0.046v0.718c-0.168,0.046-0.314,0.113-0.538,0.113
			c-0.875,0-1.009-0.449-1.043-0.897c-0.382,0.415-0.976,0.953-2.12,0.953c-1.077,0-1.839-0.684-1.839-1.694
			c0-0.494,0.146-1.638,1.783-1.839l1.627-0.202c0.236-0.022,0.516-0.113,0.516-0.695c0-0.618-0.449-0.954-1.38-0.954
			c-1.122,0-1.278,0.684-1.346,1.133H374.666z M378.278,413.083c-0.157,0.123-0.404,0.214-1.627,0.37
			c-0.483,0.067-1.257,0.214-1.257,0.954c0,0.639,0.325,1.02,1.066,1.02c0.92,0,1.817-0.594,1.817-1.379V413.083z"/>
		<path d="M384.27,411.883c-0.011-0.37-0.146-0.987-1.391-0.987c-0.303,0-1.166,0.101-1.166,0.829c0,0.483,0.303,0.595,1.065,0.786
			l0.987,0.247c1.223,0.303,1.649,0.752,1.649,1.548c0,1.211-0.998,1.94-2.322,1.94c-2.322,0-2.49-1.346-2.524-2.052h0.954
			c0.034,0.46,0.168,1.2,1.559,1.2c0.707,0,1.346-0.281,1.346-0.931c0-0.471-0.325-0.628-1.166-0.842l-1.144-0.281
			c-0.819-0.201-1.357-0.617-1.357-1.425c0-1.29,1.065-1.873,2.221-1.873c2.098,0,2.243,1.548,2.243,1.84L384.27,411.883
			L384.27,411.883z"/>
		<path d="M391.529,414.238c-0.034,0.281-0.303,1.111-1.043,1.604c-0.269,0.18-0.651,0.403-1.593,0.403
			c-1.649,0-2.625-1.245-2.625-2.939c0-1.817,0.875-3.264,2.815-3.264c1.694,0,2.524,1.346,2.524,3.421h-4.285
			c0,1.223,0.572,1.93,1.705,1.93c0.931,0,1.481-0.718,1.515-1.156H391.529z M390.586,412.68c-0.056-0.909-0.437-1.75-1.638-1.75
			c-0.909,0-1.627,0.842-1.627,1.75H390.586z"/>
		<path d="M399.574,412.185c-0.123-0.785-0.56-1.257-1.391-1.257c-1.223,0-1.615,1.166-1.615,2.21c0,1.01,0.247,2.255,1.604,2.255
			c0.662,0,1.234-0.494,1.402-1.391h0.954c-0.101,0.931-0.673,2.243-2.389,2.243c-1.649,0-2.624-1.245-2.624-2.939
			c0-1.817,0.875-3.264,2.815-3.264c1.536,0,2.12,1.122,2.199,2.142L399.574,412.185L399.574,412.185z"/>
		<path d="M403.906,410.043c1.873,0,2.726,1.582,2.726,3.096c0,1.514-0.853,3.095-2.726,3.095c-1.873,0-2.725-1.581-2.725-3.095
			C401.181,411.625,402.034,410.043,403.906,410.043z M403.906,415.382c1.414,0,1.705-1.459,1.705-2.243
			c0-0.785-0.291-2.243-1.705-2.243c-1.413,0-1.705,1.459-1.705,2.243C402.201,413.924,402.493,415.382,403.906,415.382z"/>
		<path d="M407.757,410.211h0.931v0.83h0.022c0.214-0.314,0.718-0.998,1.772-0.998s1.391,0.639,1.559,0.954
			c0.493-0.55,0.886-0.954,1.795-0.954c0.628,0,1.817,0.326,1.817,1.974v4.06h-0.987v-3.791c0-0.808-0.247-1.358-1.088-1.358
			c-0.83,0-1.38,0.786-1.38,1.57v3.578h-0.987v-4.06c0-0.493-0.19-1.088-0.92-1.088c-0.56,0-1.548,0.359-1.548,1.952v3.196h-0.987
			L407.757,410.211L407.757,410.211z"/>
		<path d="M422.083,414.238c-0.034,0.281-0.303,1.111-1.043,1.604c-0.269,0.18-0.651,0.403-1.593,0.403
			c-1.649,0-2.624-1.245-2.624-2.939c0-1.817,0.875-3.264,2.815-3.264c1.694,0,2.524,1.346,2.524,3.421h-4.285
			c0,1.223,0.572,1.93,1.705,1.93c0.931,0,1.48-0.718,1.514-1.156H422.083z M421.141,412.68c-0.056-0.909-0.438-1.75-1.638-1.75
			c-0.908,0-1.626,0.842-1.626,1.75H421.141z"/>
		<path d="M426.383,416.078v-8.053h0.987v2.927h0.022c0.426-0.617,1.009-0.897,1.694-0.909c1.559,0,2.445,1.279,2.445,2.928
			c0,1.401-0.584,3.275-2.58,3.275c-0.998,0-1.413-0.572-1.615-0.897h-0.022v0.729L426.383,416.078L426.383,416.078z
			 M428.906,410.93c-1.425,0-1.582,1.536-1.582,2.491c0,1.559,0.976,1.974,1.604,1.974c1.077,0,1.582-0.977,1.582-2.266
			C430.511,412.377,430.432,410.93,428.906,410.93z"/>
		<path d="M432.666,411.996c0.046-1.402,0.976-1.952,2.423-1.952c0.471,0,2.176,0.135,2.176,1.638v3.376
			c0,0.247,0.123,0.348,0.325,0.348c0.089,0,0.213-0.022,0.325-0.046v0.718c-0.169,0.046-0.315,0.113-0.538,0.113
			c-0.875,0-1.01-0.449-1.043-0.897c-0.382,0.415-0.976,0.953-2.12,0.953c-1.077,0-1.839-0.684-1.839-1.694
			c0-0.494,0.146-1.638,1.783-1.839l1.627-0.202c0.236-0.022,0.517-0.113,0.517-0.695c0-0.618-0.449-0.954-1.38-0.954
			c-1.122,0-1.278,0.684-1.346,1.133H432.666z M436.278,413.083c-0.156,0.123-0.404,0.214-1.627,0.37
			c-0.483,0.067-1.257,0.214-1.257,0.954c0,0.639,0.325,1.02,1.065,1.02c0.92,0,1.817-0.594,1.817-1.379L436.278,413.083
			L436.278,413.083z"/>
		<path d="M442.607,412.185c-0.123-0.785-0.561-1.257-1.391-1.257c-1.223,0-1.615,1.166-1.615,2.21c0,1.01,0.247,2.255,1.604,2.255
			c0.661,0,1.234-0.494,1.402-1.391h0.954c-0.101,0.931-0.673,2.243-2.389,2.243c-1.649,0-2.625-1.245-2.625-2.939
			c0-1.817,0.875-3.264,2.815-3.264c1.536,0,2.12,1.122,2.199,2.142L442.607,412.185L442.607,412.185z"/>
		<path d="M449.216,416.078h-1.267l-1.828-2.961l-0.819,0.741v2.221h-0.954v-8.053h0.954v4.666l2.524-2.479h1.257l-2.243,2.188
			L449.216,416.078z"/>
		<path d="M454.065,416.078h-0.987v-8.053h0.987V416.078z"/>
		<path d="M455.512,411.996c0.045-1.402,0.976-1.952,2.423-1.952c0.471,0,2.175,0.135,2.175,1.638v3.376
			c0,0.247,0.123,0.348,0.325,0.348c0.089,0,0.213-0.022,0.325-0.046v0.718c-0.168,0.046-0.314,0.113-0.538,0.113
			c-0.875,0-1.009-0.449-1.043-0.897c-0.382,0.415-0.976,0.953-2.12,0.953c-1.077,0-1.839-0.684-1.839-1.694
			c0-0.494,0.146-1.638,1.783-1.839l1.627-0.202c0.236-0.022,0.516-0.113,0.516-0.695c0-0.618-0.449-0.954-1.38-0.954
			c-1.122,0-1.278,0.684-1.346,1.133H455.512z M459.124,413.083c-0.157,0.123-0.404,0.214-1.627,0.37
			c-0.483,0.067-1.257,0.214-1.257,0.954c0,0.639,0.325,1.02,1.066,1.02c0.92,0,1.817-0.594,1.817-1.379V413.083z"/>
		<path d="M462.996,411.031v3.814c0,0.46,0.392,0.46,0.594,0.46h0.348v0.774c-0.359,0.034-0.639,0.079-0.741,0.079
			c-0.976,0-1.189-0.55-1.189-1.257v-3.87h-0.796v-0.819h0.796v-1.637h0.987v1.637h0.942v0.819H462.996z"/>
		<path d="M469.66,414.238c-0.034,0.281-0.303,1.111-1.043,1.604c-0.269,0.18-0.651,0.403-1.593,0.403
			c-1.649,0-2.625-1.245-2.625-2.939c0-1.817,0.875-3.264,2.815-3.264c1.694,0,2.524,1.346,2.524,3.421h-4.284
			c0,1.223,0.572,1.93,1.705,1.93c0.931,0,1.481-0.718,1.515-1.156H469.66z M468.718,412.68c-0.056-0.909-0.437-1.75-1.638-1.75
			c-0.909,0-1.627,0.842-1.627,1.75H468.718z"/>
		<path d="M472.041,416.078h-0.987v-5.866h0.931v0.976h0.022c0.393-0.684,0.909-1.144,1.649-1.144c0.123,0,0.18,0.012,0.258,0.034
			v1.021h-0.37c-0.919,0-1.502,0.718-1.502,1.569L472.041,416.078L472.041,416.078z"/>
		<path d="M477.741,411.996c0.045-1.402,0.976-1.952,2.423-1.952c0.471,0,2.176,0.135,2.176,1.638v3.376
			c0,0.247,0.123,0.348,0.325,0.348c0.089,0,0.214-0.022,0.325-0.046v0.718c-0.168,0.046-0.314,0.113-0.538,0.113
			c-0.875,0-1.009-0.449-1.043-0.897c-0.382,0.415-0.976,0.953-2.12,0.953c-1.077,0-1.84-0.684-1.84-1.694
			c0-0.494,0.147-1.638,1.783-1.839l1.627-0.202c0.236-0.022,0.516-0.113,0.516-0.695c0-0.618-0.449-0.954-1.379-0.954
			c-1.122,0-1.279,0.684-1.346,1.133H477.741z M481.353,413.083c-0.157,0.123-0.404,0.214-1.627,0.37
			c-0.483,0.067-1.257,0.214-1.257,0.954c0,0.639,0.325,1.02,1.065,1.02c0.92,0,1.817-0.594,1.817-1.379L481.353,413.083
			L481.353,413.083z"/>
		<path d="M488.791,416.078h-0.987v-3.612c0-1.02-0.291-1.536-1.257-1.536c-0.56,0-1.547,0.359-1.547,1.952v3.196h-0.987v-5.866
			h0.93v0.83h0.022c0.214-0.314,0.762-0.998,1.772-0.998c0.909,0,2.052,0.37,2.052,2.041L488.791,416.078L488.791,416.078z"/>
		<path d="M495.12,416.078h-0.93v-0.808h-0.022c-0.426,0.796-1.099,0.976-1.671,0.976c-1.997,0-2.58-1.873-2.58-3.275
			c0-1.649,0.886-2.928,2.445-2.928c1.065,0,1.514,0.662,1.75,0.998l0.022-0.079v-2.939h0.987L495.12,416.078L495.12,416.078z
			 M492.518,415.394c0.628,0,1.604-0.416,1.604-1.974c0-0.954-0.156-2.491-1.581-2.491c-1.526,0-1.604,1.447-1.604,2.199
			C490.937,414.417,491.441,415.394,492.518,415.394z"/>
		<path d="M501.752,416.078h-1.02l-1.694-5.866h1.077l1.122,4.61h0.022l1.132-4.61h1.099l1.144,4.61h0.022l1.19-4.61h0.987
			l-1.705,5.866h-1.021l-1.189-4.542h-0.022L501.752,416.078z"/>
		<path d="M512.58,414.238c-0.034,0.281-0.303,1.111-1.044,1.604c-0.269,0.18-0.651,0.403-1.593,0.403
			c-1.649,0-2.625-1.245-2.625-2.939c0-1.817,0.875-3.264,2.815-3.264c1.694,0,2.524,1.346,2.524,3.421h-4.285
			c0,1.223,0.572,1.93,1.705,1.93c0.931,0,1.481-0.718,1.515-1.156H512.58z M511.638,412.68c-0.055-0.909-0.437-1.75-1.638-1.75
			c-0.909,0-1.627,0.842-1.627,1.75H511.638z"/>
		<path d="M513.772,408.025h0.819v2.86h-0.819V408.025z"/>
		<path d="M516.992,416.078h-0.987v-8.053h0.987V416.078z"/>
		<path d="M519.482,416.078h-0.987v-8.053h0.987V416.078z"/>
		<path d="M527.413,411.883c-0.011-0.37-0.146-0.987-1.391-0.987c-0.303,0-1.166,0.101-1.166,0.829c0,0.483,0.303,0.595,1.065,0.786
			l0.987,0.247c1.223,0.303,1.649,0.752,1.649,1.548c0,1.211-0.998,1.94-2.322,1.94c-2.323,0-2.491-1.346-2.524-2.052h0.953
			c0.034,0.46,0.168,1.2,1.56,1.2c0.707,0,1.346-0.281,1.346-0.931c0-0.471-0.326-0.628-1.166-0.842l-1.145-0.281
			c-0.818-0.201-1.357-0.617-1.357-1.425c0-1.29,1.065-1.873,2.221-1.873c2.097,0,2.243,1.548,2.243,1.84L527.413,411.883
			L527.413,411.883z"/>
		<path d="M533.517,416.078v-0.852l-0.022-0.022c-0.416,0.684-0.92,1.043-1.862,1.043c-0.863,0-1.906-0.415-1.906-1.817v-4.217
			h0.987v3.892c0,0.964,0.493,1.29,1.132,1.29c1.245,0,1.615-1.099,1.615-1.952v-3.23h0.987v5.866h-0.93V416.078z"/>
		<path d="M537.054,416.078h-0.987v-5.866h0.93v0.976h0.022c0.393-0.684,0.909-1.144,1.649-1.144c0.122,0,0.18,0.012,0.258,0.034
			v1.021h-0.37c-0.92,0-1.502,0.718-1.502,1.569L537.054,416.078L537.054,416.078z"/>
		<path d="M539.927,410.211h0.931v0.83h0.022c0.235-0.336,0.684-0.998,1.749-0.998c1.56,0,2.445,1.279,2.445,2.928
			c0,1.401-0.583,3.275-2.579,3.275c-0.785,0-1.301-0.37-1.559-0.785h-0.022v2.939h-0.987L539.927,410.211L539.927,410.211z
			 M542.473,415.394c1.077,0,1.581-0.977,1.581-2.266c0-0.752-0.079-2.199-1.604-2.199c-1.425,0-1.581,1.536-1.581,2.491
			C540.869,414.978,541.845,415.394,542.473,415.394z"/>
		<path d="M547.366,416.078h-0.987v-5.866h0.931v0.976h0.022c0.393-0.684,0.909-1.144,1.649-1.144c0.123,0,0.18,0.012,0.258,0.034
			v1.021h-0.37c-0.919,0-1.502,0.718-1.502,1.569L547.366,416.078L547.366,416.078z"/>
		<path d="M550.172,409.146v-1.121h0.987v1.121H550.172z M551.159,416.078h-0.987v-5.866h0.987V416.078z"/>
		<path d="M555.97,411.883c-0.012-0.37-0.146-0.987-1.391-0.987c-0.302,0-1.166,0.101-1.166,0.829c0,0.483,0.303,0.595,1.066,0.786
			l0.987,0.247c1.223,0.303,1.648,0.752,1.648,1.548c0,1.211-0.998,1.94-2.322,1.94c-2.322,0-2.49-1.346-2.524-2.052h0.954
			c0.033,0.46,0.168,1.2,1.559,1.2c0.707,0,1.346-0.281,1.346-0.931c0-0.471-0.325-0.628-1.166-0.842l-1.144-0.281
			c-0.819-0.201-1.358-0.617-1.358-1.425c0-1.29,1.065-1.873,2.221-1.873c2.098,0,2.243,1.548,2.243,1.84L555.97,411.883
			L555.97,411.883z"/>
		<path d="M563.23,414.238c-0.034,0.281-0.303,1.111-1.043,1.604c-0.269,0.18-0.651,0.403-1.593,0.403
			c-1.648,0-2.624-1.245-2.624-2.939c0-1.817,0.875-3.264,2.814-3.264c1.694,0,2.524,1.346,2.524,3.421h-4.285
			c0,1.223,0.572,1.93,1.705,1.93c0.931,0,1.48-0.718,1.514-1.156H563.23z M562.288,412.68c-0.056-0.909-0.438-1.75-1.638-1.75
			c-0.909,0-1.627,0.842-1.627,1.75H562.288z"/>
		<path d="M571.276,410.211h1.088c-0.684,1.918-1.358,3.837-2.109,5.754c-0.93,2.378-1.031,2.512-2.299,2.512
			c-0.146,0-0.258-0.045-0.415-0.089v-0.897c0.122,0.046,0.325,0.101,0.594,0.101c0.516,0,0.572-0.146,1.043-1.358l-2.175-6.023
			h1.121l1.56,4.778h0.022L571.276,410.211z"/>
		<path d="M575.383,410.043c1.873,0,2.726,1.582,2.726,3.096c0,1.514-0.853,3.095-2.726,3.095s-2.725-1.581-2.725-3.095
			C572.658,411.625,573.51,410.043,575.383,410.043z M575.383,415.382c1.414,0,1.705-1.459,1.705-2.243
			c0-0.785-0.291-2.243-1.705-2.243c-1.413,0-1.705,1.459-1.705,2.243C573.678,413.924,573.97,415.382,575.383,415.382z"/>
		<path d="M583.057,416.078v-0.852l-0.022-0.022c-0.416,0.684-0.92,1.043-1.862,1.043c-0.863,0-1.906-0.415-1.906-1.817v-4.217
			h0.986v3.892c0,0.964,0.494,1.29,1.133,1.29c1.245,0,1.615-1.099,1.615-1.952v-3.23h0.987v5.866h-0.93V416.078z"/>
		<path d="M586.022,414.16l-0.269-3.477v-2.658h1.088v2.658l-0.269,3.477H586.022z M586.84,416.078h-1.088v-1.144h1.088V416.078z"/>
	</g>
	<g enable-background="new    ">
		<path fill="#303030" d="M357.81,551.323c0-1.705,1.382-2.962,3.017-2.962c1.618,0,3.001,1.257,3.001,2.962
			c0,1.721-1.382,2.978-3.001,2.978C359.193,554.302,357.81,553.044,357.81,551.323z M360.827,553.806
			c1.343,0,2.404-1.052,2.404-2.482c0-1.406-1.06-2.466-2.404-2.466c-1.359,0-2.42,1.06-2.42,2.466
			C358.407,552.754,359.467,553.806,360.827,553.806z M362.39,551.881c-0.149,0.777-0.738,1.265-1.461,1.265
			c-1.069,0-1.752-0.801-1.752-1.83c0-1.045,0.652-1.815,1.721-1.815c0.754,0,1.375,0.432,1.484,1.233h-0.526
			c-0.094-0.431-0.455-0.714-0.95-0.714c-0.738,0-1.132,0.558-1.132,1.289c0,0.707,0.44,1.32,1.156,1.32
			c0.495,0,0.856-0.306,0.927-0.747L362.39,551.881L362.39,551.881z"/>
		<path fill="#303030" d="M366.238,550.609c0-1.8,1.312-1.98,1.91-1.98c0.959,0,1.728,0.621,1.728,1.65
			c0,0.989-0.652,1.406-1.477,1.846l-0.574,0.314c-0.754,0.416-0.92,0.848-0.95,1.06h3.001v0.652h-3.779
			c0.04-1.147,0.558-1.76,1.296-2.192l0.73-0.424c0.589-0.338,1.014-0.566,1.014-1.289c0-0.44-0.283-0.997-1.092-0.997
			c-1.045,0-1.092,0.974-1.116,1.359L366.238,550.609L366.238,550.609z"/>
		<path fill="#303030" d="M372.444,554.302c-1.587,0-1.894-1.69-1.894-2.837s0.306-2.836,1.894-2.836
			c1.587,0,1.893,1.689,1.893,2.836S374.03,554.302,372.444,554.302z M372.444,549.25c-0.794,0-1.156,0.833-1.156,2.215
			c0,1.383,0.362,2.216,1.156,2.216c0.793,0,1.155-0.833,1.155-2.216C373.599,550.083,373.237,549.25,372.444,549.25z"/>
		<path fill="#303030" d="M376.858,554.152h-0.738v-3.92h-1.289v-0.55c0.896-0.063,1.265-0.15,1.485-1.052h0.542V554.152z"/>
		<path fill="#303030" d="M378.381,548.747h3.819v0.604c-0.55,0.573-1.87,2.333-2.271,4.8h-0.762
			c0.189-1.516,1.194-3.496,2.255-4.73h-3.04L378.381,548.747L378.381,548.747z"/>
		<path fill="#303030" d="M382.466,554.152h-0.817v-0.833h0.817V554.152z"/>
		<path fill="#303030" d="M389.701,554.152h-4.164v-5.64h4.108v0.675h-3.347v1.728h3.088v0.675h-3.088v1.885h3.401L389.701,554.152
			L389.701,554.152z"/>
		<path fill="#303030" d="M391.553,554.152h-0.762v-5.64h2.608c0.927,0,1.854,0.322,1.854,1.516c0,0.833-0.425,1.139-0.786,1.351
			c0.322,0.133,0.644,0.275,0.675,1.06l0.047,1.021c0.007,0.315,0.047,0.431,0.282,0.565v0.126h-0.935
			c-0.11-0.346-0.133-1.202-0.133-1.414c0-0.464-0.094-1.006-1.006-1.006h-1.846V554.152z M391.553,551.08h1.767
			c0.558,0,1.147-0.142,1.147-0.974c0-0.872-0.637-0.943-1.013-0.943h-1.901V551.08z"/>
		<path fill="#303030" d="M397.257,552.51l-0.589,1.641h-0.786l2.122-5.64h0.864l2.043,5.64h-0.833l-0.558-1.641H397.257z
			 M399.243,551.834l-0.833-2.483h-0.016l-0.903,2.483H399.243z"/>
		<path fill="#303030" d="M403.83,548.511h2.286c1.469,0,2.372,1.116,2.372,2.742c0,1.264-0.55,2.899-2.404,2.899h-2.255V548.511z
			 M404.592,553.5h1.477c0.99,0,1.634-0.777,1.634-2.199c0-1.422-0.652-2.136-1.689-2.136h-1.422L404.592,553.5L404.592,553.5z"/>
		<path fill="#303030" d="M412.864,552.863c-0.024,0.196-0.212,0.777-0.731,1.123c-0.189,0.125-0.455,0.283-1.116,0.283
			c-1.155,0-1.838-0.872-1.838-2.059c0-1.272,0.613-2.286,1.972-2.286c1.186,0,1.768,0.944,1.768,2.397h-3.001
			c0,0.856,0.401,1.351,1.194,1.351c0.652,0,1.037-0.502,1.06-0.81L412.864,552.863L412.864,552.863z M412.204,551.771
			c-0.039-0.637-0.306-1.225-1.147-1.225c-0.637,0-1.139,0.589-1.139,1.225H412.204z"/>
		<path fill="#303030" d="M416.076,551.213c-0.007-0.259-0.102-0.691-0.974-0.691c-0.212,0-0.817,0.07-0.817,0.581
			c0,0.338,0.212,0.416,0.746,0.55l0.691,0.173c0.856,0.213,1.155,0.526,1.155,1.084c0,0.849-0.699,1.36-1.627,1.36
			c-1.626,0-1.744-0.943-1.767-1.438h0.668c0.024,0.323,0.118,0.841,1.092,0.841c0.495,0,0.943-0.196,0.943-0.652
			c0-0.329-0.228-0.44-0.817-0.589l-0.801-0.196c-0.574-0.142-0.95-0.432-0.95-0.998c0-0.903,0.747-1.312,1.555-1.312
			c1.469,0,1.571,1.084,1.571,1.289h-0.667V551.213z"/>
		<path fill="#303030" d="M417.685,549.297v-0.786h0.691v0.786H417.685z M418.377,554.152h-0.691v-4.109h0.691V554.152z"/>
		<path fill="#303030" d="M422.823,553.814c0,0.589-0.007,2.066-1.909,2.066c-0.487,0-1.438-0.133-1.571-1.225h0.691
			c0.126,0.652,0.762,0.652,0.927,0.652c1.194,0,1.17-0.959,1.17-1.446v-0.172h-0.016v0.031c-0.18,0.291-0.542,0.55-1.092,0.55
			c-1.398,0-1.807-1.312-1.807-2.294c0-1.156,0.621-2.051,1.713-2.051c0.746,0,1.06,0.464,1.225,0.699h0.016v-0.581h0.652
			L422.823,553.814L422.823,553.814z M421.04,553.673c0.44,0,1.123-0.291,1.123-1.382c0-0.668-0.11-1.744-1.108-1.744
			c-1.069,0-1.123,1.014-1.123,1.54C419.932,552.99,420.285,553.673,421.04,553.673z"/>
		<path fill="#303030" d="M427.127,554.152h-0.691v-2.53c0-0.715-0.204-1.077-0.88-1.077c-0.393,0-1.084,0.252-1.084,1.367v2.239
			h-0.691v-4.109h0.652v0.581h0.016c0.149-0.22,0.534-0.699,1.242-0.699c0.637,0,1.438,0.259,1.438,1.43L427.127,554.152
			L427.127,554.152z"/>
		<path fill="#303030" d="M433.819,550.161c-0.039-0.872-0.762-1.147-1.398-1.147c-0.479,0-1.289,0.133-1.289,0.989
			c0,0.479,0.338,0.637,0.668,0.715l1.611,0.369c0.731,0.173,1.281,0.613,1.281,1.508c0,1.335-1.242,1.705-2.208,1.705
			c-1.045,0-1.454-0.315-1.705-0.542c-0.479-0.431-0.574-0.904-0.574-1.43h0.715c0,1.021,0.833,1.32,1.555,1.32
			c0.55,0,1.477-0.142,1.477-0.95c0-0.589-0.275-0.777-1.202-0.997l-1.155-0.267c-0.369-0.086-1.202-0.345-1.202-1.328
			c0-0.88,0.574-1.744,1.94-1.744c1.972,0,2.169,1.179,2.2,1.8H433.819L433.819,550.161z"/>
		<path fill="#303030" d="M436.419,550.617v2.671c0,0.322,0.275,0.322,0.416,0.322h0.243v0.542
			c-0.252,0.023-0.448,0.055-0.518,0.055c-0.684,0-0.833-0.385-0.833-0.88v-2.71h-0.558v-0.574h0.558v-1.147h0.691v1.147h0.66v0.574
			H436.419z"/>
		<path fill="#303030" d="M440.433,554.152v-0.598l-0.016-0.016c-0.291,0.479-0.644,0.731-1.305,0.731
			c-0.605,0-1.335-0.291-1.335-1.273v-2.953h0.691v2.727c0,0.675,0.346,0.903,0.793,0.903c0.872,0,1.132-0.77,1.132-1.367v-2.262
			h0.691v4.109L440.433,554.152L440.433,554.152z"/>
		<path fill="#303030" d="M445.53,554.152h-0.652v-0.566h-0.016c-0.299,0.558-0.77,0.684-1.17,0.684
			c-1.398,0-1.807-1.312-1.807-2.294c0-1.156,0.621-2.051,1.713-2.051c0.746,0,1.06,0.464,1.225,0.699l0.016-0.055v-2.058h0.691
			L445.53,554.152L445.53,554.152z M443.708,553.673c0.44,0,1.123-0.291,1.123-1.382c0-0.668-0.11-1.744-1.108-1.744
			c-1.069,0-1.123,1.014-1.123,1.54C442.6,552.99,442.954,553.673,443.708,553.673z"/>
		<path fill="#303030" d="M446.504,549.297v-0.786h0.691v0.786H446.504z M447.195,554.152h-0.691v-4.109h0.691V554.152z"/>
		<path fill="#303030" d="M449.905,549.925c1.312,0,1.909,1.108,1.909,2.169c0,1.06-0.597,2.168-1.909,2.168s-1.91-1.108-1.91-2.168
			C447.995,551.034,448.593,549.925,449.905,549.925z M449.905,553.664c0.99,0,1.194-1.021,1.194-1.57
			c0-0.55-0.204-1.571-1.194-1.571s-1.194,1.021-1.194,1.571C448.711,552.644,448.915,553.664,449.905,553.664z"/>
		<path fill="#303030" d="M453.275,554.152h-0.817v-0.833h0.817V554.152z"/>
		<path fill="#303030" d="M456.762,552.51l-0.589,1.641h-0.786l2.122-5.64h0.864l2.043,5.64h-0.833l-0.558-1.641H456.762z
			 M458.75,551.834l-0.833-2.483h-0.016l-0.903,2.483H458.75z"/>
		<path fill="#303030" d="M464.374,554.152h-0.691v-2.53c0-0.715-0.204-1.077-0.88-1.077c-0.393,0-1.084,0.252-1.084,1.367v2.239
			h-0.691v-4.109h0.652v0.581h0.016c0.149-0.22,0.534-0.699,1.242-0.699c0.637,0,1.438,0.259,1.438,1.43L464.374,554.152
			L464.374,554.152z"/>
		<path fill="#303030" d="M468.544,554.152h-0.762v-5.64h0.762V554.152z"/>
		<path fill="#303030" d="M473.108,554.152h-0.691v-2.53c0-0.715-0.204-1.077-0.88-1.077c-0.393,0-1.084,0.252-1.084,1.367v2.239
			h-0.691v-4.109h0.652v0.581h0.016c0.149-0.22,0.534-0.699,1.242-0.699c0.637,0,1.437,0.259,1.437,1.43V554.152z"/>
		<path fill="#303030" d="M474.145,549.297v-0.786h0.691v0.786H474.145z M474.836,554.152h-0.691v-4.109h0.691V554.152z"/>
		<path fill="#303030" d="M476.721,550.617v2.671c0,0.322,0.275,0.322,0.416,0.322h0.243v0.542
			c-0.252,0.023-0.448,0.055-0.518,0.055c-0.684,0-0.833-0.385-0.833-0.88v-2.71h-0.558v-0.574h0.558v-1.147h0.691v1.147h0.66v0.574
			H476.721z"/>
		<path fill="#303030" d="M478.072,549.297v-0.786h0.691v0.786H478.072z M478.763,554.152h-0.691v-4.109h0.691V554.152z"/>
		<path fill="#303030" d="M479.776,551.292c0.031-0.982,0.684-1.367,1.698-1.367c0.329,0,1.524,0.094,1.524,1.147v2.365
			c0,0.172,0.086,0.243,0.228,0.243c0.063,0,0.149-0.017,0.228-0.031v0.503c-0.118,0.031-0.22,0.079-0.377,0.079
			c-0.613,0-0.707-0.315-0.731-0.628c-0.267,0.291-0.683,0.668-1.485,0.668c-0.754,0-1.288-0.479-1.288-1.187
			c0-0.345,0.102-1.147,1.249-1.289l1.139-0.142c0.165-0.016,0.362-0.079,0.362-0.487c0-0.432-0.315-0.668-0.966-0.668
			c-0.786,0-0.896,0.479-0.943,0.793L479.776,551.292L479.776,551.292z M482.306,552.054c-0.11,0.086-0.283,0.15-1.139,0.259
			c-0.338,0.047-0.88,0.149-0.88,0.668c0,0.448,0.228,0.714,0.746,0.714c0.644,0,1.273-0.416,1.273-0.966L482.306,552.054
			L482.306,552.054z"/>
		<path fill="#303030" d="M485.016,550.617v2.671c0,0.322,0.275,0.322,0.416,0.322h0.243v0.542
			c-0.252,0.023-0.448,0.055-0.518,0.055c-0.684,0-0.834-0.385-0.834-0.88v-2.71h-0.558v-0.574h0.558v-1.147h0.692v1.147h0.66v0.574
			H485.016z"/>
		<path fill="#303030" d="M486.366,549.297v-0.786h0.692v0.786H486.366z M487.057,554.152h-0.692v-4.109h0.692V554.152z"/>
		<path fill="#303030" d="M490.694,550.043h0.754l-1.564,4.109h-0.739l-1.501-4.109h0.801l1.069,3.347h0.016L490.694,550.043z"/>
		<path fill="#303030" d="M495.313,552.863c-0.024,0.196-0.213,0.777-0.731,1.123c-0.19,0.125-0.456,0.283-1.116,0.283
			c-1.156,0-1.839-0.872-1.839-2.059c0-1.272,0.613-2.286,1.973-2.286c1.186,0,1.768,0.944,1.768,2.397h-3.001
			c0,0.856,0.401,1.351,1.194,1.351c0.652,0,1.037-0.502,1.06-0.81L495.313,552.863L495.313,552.863z M494.653,551.771
			c-0.039-0.637-0.306-1.225-1.147-1.225c-0.637,0-1.139,0.589-1.139,1.225H494.653z"/>
		<path fill="#303030" d="M500.049,549.925c1.312,0,1.91,1.108,1.91,2.169c0,1.06-0.598,2.168-1.91,2.168
			c-1.312,0-1.91-1.108-1.91-2.168C498.139,551.034,498.737,549.925,500.049,549.925z M500.049,553.664
			c0.99,0,1.194-1.021,1.194-1.57c0-0.55-0.204-1.571-1.194-1.571s-1.194,1.021-1.194,1.571
			C498.854,552.644,499.058,553.664,500.049,553.664z"/>
		<path fill="#303030" d="M503.599,550.617v3.535h-0.691v-3.535h-0.566v-0.574h0.566v-0.707c0-0.62,0.392-0.903,1.068-0.903
			c0.103,0,0.204,0.007,0.315,0.016v0.621c-0.086-0.008-0.196-0.016-0.283-0.016c-0.298,0-0.408,0.149-0.408,0.478v0.511h0.691
			v0.574H503.599z"/>
		<path fill="#303030" d="M509.679,551.426c-0.086-0.55-0.393-0.88-0.974-0.88c-0.856,0-1.132,0.817-1.132,1.548
			c0,0.707,0.173,1.579,1.123,1.579c0.464,0,0.864-0.345,0.983-0.974h0.668c-0.07,0.652-0.471,1.571-1.673,1.571
			c-1.156,0-1.838-0.872-1.838-2.059c0-1.272,0.613-2.286,1.972-2.286c1.077,0,1.485,0.786,1.54,1.501L509.679,551.426
			L509.679,551.426z"/>
		<path fill="#303030" d="M511.822,554.152h-0.691v-4.109h0.652v0.684h0.016c0.275-0.479,0.637-0.802,1.156-0.802
			c0.086,0,0.125,0.008,0.18,0.023v0.715h-0.259c-0.644,0-1.053,0.503-1.053,1.1L511.822,554.152L511.822,554.152z"/>
		<path fill="#303030" d="M516.984,552.863c-0.023,0.196-0.212,0.777-0.731,1.123c-0.189,0.125-0.455,0.283-1.116,0.283
			c-1.155,0-1.838-0.872-1.838-2.059c0-1.272,0.612-2.286,1.972-2.286c1.187,0,1.768,0.944,1.768,2.397h-3.001
			c0,0.856,0.4,1.351,1.194,1.351c0.651,0,1.037-0.502,1.06-0.81L516.984,552.863L516.984,552.863z M516.324,551.771
			c-0.04-0.637-0.306-1.225-1.147-1.225c-0.637,0-1.139,0.589-1.139,1.225H516.324z"/>
		<path fill="#303030" d="M517.839,551.292c0.031-0.982,0.683-1.367,1.697-1.367c0.329,0,1.524,0.094,1.524,1.147v2.365
			c0,0.172,0.086,0.243,0.228,0.243c0.063,0,0.15-0.017,0.228-0.031v0.503c-0.118,0.031-0.22,0.079-0.377,0.079
			c-0.613,0-0.707-0.315-0.731-0.628c-0.267,0.291-0.684,0.668-1.485,0.668c-0.754,0-1.289-0.479-1.289-1.187
			c0-0.345,0.102-1.147,1.249-1.289l1.14-0.142c0.165-0.016,0.362-0.079,0.362-0.487c0-0.432-0.315-0.668-0.967-0.668
			c-0.786,0-0.896,0.479-0.943,0.793L517.839,551.292L517.839,551.292z M520.369,552.054c-0.11,0.086-0.283,0.15-1.139,0.259
			c-0.338,0.047-0.88,0.149-0.88,0.668c0,0.448,0.227,0.714,0.746,0.714c0.644,0,1.272-0.416,1.272-0.966L520.369,552.054
			L520.369,552.054z"/>
		<path fill="#303030" d="M523.078,550.617v2.671c0,0.322,0.275,0.322,0.416,0.322h0.243v0.542
			c-0.252,0.023-0.448,0.055-0.518,0.055c-0.684,0-0.833-0.385-0.833-0.88v-2.71h-0.558v-0.574h0.558v-1.147h0.691v1.147h0.66v0.574
			H523.078z"/>
		<path fill="#303030" d="M524.429,549.297v-0.786h0.692v0.786H524.429z M525.121,554.152h-0.692v-4.109h0.692V554.152z"/>
		<path fill="#303030" d="M528.758,550.043h0.754l-1.564,4.109h-0.739l-1.501-4.109h0.801l1.069,3.347h0.016L528.758,550.043z"/>
		<path fill="#303030" d="M533.376,552.863c-0.024,0.196-0.213,0.777-0.731,1.123c-0.19,0.125-0.456,0.283-1.116,0.283
			c-1.156,0-1.839-0.872-1.839-2.059c0-1.272,0.613-2.286,1.973-2.286c1.186,0,1.768,0.944,1.768,2.397h-3.001
			c0,0.856,0.401,1.351,1.194,1.351c0.652,0,1.037-0.502,1.06-0.81L533.376,552.863L533.376,552.863z M532.717,551.771
			c-0.039-0.637-0.306-1.225-1.147-1.225c-0.637,0-1.139,0.589-1.139,1.225H532.717z"/>
		<path fill="#303030" d="M536.015,552.329h-1.925v-0.707h1.925V552.329z"/>
		<path fill="#303030" d="M540.359,552.863c-0.024,0.196-0.213,0.777-0.731,1.123c-0.19,0.125-0.456,0.283-1.116,0.283
			c-1.156,0-1.839-0.872-1.839-2.059c0-1.272,0.613-2.286,1.973-2.286c1.186,0,1.768,0.944,1.768,2.397h-3.001
			c0,0.856,0.401,1.351,1.194,1.351c0.652,0,1.037-0.502,1.06-0.81L540.359,552.863L540.359,552.863z M539.699,551.771
			c-0.039-0.637-0.306-1.225-1.147-1.225c-0.637,0-1.139,0.589-1.139,1.225H539.699z"/>
		<path fill="#303030" d="M542.023,554.152h-0.691v-4.109h0.652v0.684H542c0.275-0.479,0.637-0.802,1.156-0.802
			c0.086,0,0.125,0.008,0.18,0.023v0.715h-0.259c-0.644,0-1.053,0.503-1.053,1.1L542.023,554.152L542.023,554.152z"/>
		<path fill="#303030" d="M543.752,551.292c0.031-0.982,0.683-1.367,1.697-1.367c0.329,0,1.524,0.094,1.524,1.147v2.365
			c0,0.172,0.086,0.243,0.228,0.243c0.063,0,0.15-0.017,0.228-0.031v0.503c-0.118,0.031-0.22,0.079-0.377,0.079
			c-0.613,0-0.707-0.315-0.731-0.628c-0.267,0.291-0.684,0.668-1.485,0.668c-0.754,0-1.289-0.479-1.289-1.187
			c0-0.345,0.102-1.147,1.249-1.289l1.14-0.142c0.165-0.016,0.362-0.079,0.362-0.487c0-0.432-0.315-0.668-0.967-0.668
			c-0.786,0-0.896,0.479-0.943,0.793L543.752,551.292L543.752,551.292z M546.281,552.054c-0.11,0.086-0.283,0.15-1.139,0.259
			c-0.338,0.047-0.88,0.149-0.88,0.668c0,0.448,0.227,0.714,0.746,0.714c0.644,0,1.272-0.416,1.272-0.966L546.281,552.054
			L546.281,552.054z"/>
		<path fill="#303030" d="M549.132,554.152h-0.817v-0.833h0.817V554.152z"/>
		<path fill="#303030" d="M552.895,551.426c-0.086-0.55-0.393-0.88-0.974-0.88c-0.856,0-1.132,0.817-1.132,1.548
			c0,0.707,0.173,1.579,1.123,1.579c0.464,0,0.864-0.345,0.983-0.974h0.668c-0.07,0.652-0.471,1.571-1.673,1.571
			c-1.156,0-1.839-0.872-1.839-2.059c0-1.272,0.613-2.286,1.972-2.286c1.077,0,1.485,0.786,1.54,1.501L552.895,551.426
			L552.895,551.426z"/>
		<path fill="#303030" d="M555.927,549.925c1.312,0,1.91,1.108,1.91,2.169c0,1.06-0.598,2.168-1.91,2.168s-1.91-1.108-1.91-2.168
			C554.017,551.034,554.615,549.925,555.927,549.925z M555.927,553.664c0.99,0,1.194-1.021,1.194-1.57
			c0-0.55-0.204-1.571-1.194-1.571s-1.194,1.021-1.194,1.571C554.732,552.644,554.936,553.664,555.927,553.664z"/>
		<path fill="#303030" d="M558.62,550.043h0.652v0.581h0.017c0.149-0.22,0.502-0.699,1.241-0.699c0.739,0,0.974,0.448,1.092,0.668
			c0.346-0.385,0.621-0.668,1.257-0.668c0.44,0,1.272,0.228,1.272,1.383v2.844h-0.691v-2.655c0-0.566-0.173-0.95-0.762-0.95
			c-0.581,0-0.966,0.55-0.966,1.1v2.506h-0.691v-2.844c0-0.346-0.133-0.762-0.644-0.762c-0.393,0-1.084,0.252-1.084,1.367v2.239
			h-0.692V550.043L558.62,550.043z"/>
		<path fill="#303030" d="M506.599,555.134v-0.392h58.054v0.392H506.599z"/>
	</g>
	<g>
		<path fill="#002E04" d="M767.556,292.748c-0.753,0-2.024,0.21-2.024,1.555c0,0.753,0.531,1,1.05,1.123l2.53,0.581
			c1.148,0.271,2.011,0.961,2.011,2.369c0,2.098-1.949,2.679-3.469,2.679c-1.641,0-2.282-0.495-2.677-0.853
			c-0.753-0.678-0.901-1.42-0.901-2.246h1.123c0,1.604,1.31,2.074,2.444,2.074c0.864,0,2.321-0.224,2.321-1.495
			c0-0.925-0.431-1.221-1.89-1.568l-1.815-0.418c-0.579-0.137-1.888-0.543-1.888-2.086c0-1.383,0.901-2.741,3.049-2.741
			c3.098,0,3.405,1.851,3.456,2.826h-1.123C769.693,293.179,768.556,292.748,767.556,292.748L767.556,292.748z M779.555,299.759
			v1.061h-6.541v-8.862h6.455v1.061h-5.258v2.716h4.852v1.061h-4.852v2.963L779.555,299.759L779.555,299.759z M785.109,292.784
			c-1.607,0-2.901,1.185-2.901,3.517c0,2.086,0.739,3.69,2.938,3.69c0.776,0,2.122-0.37,2.529-2.431h1.161
			c-0.495,3.346-3.208,3.494-3.875,3.494c-2.013,0-3.987-1.31-3.987-4.715c0-2.729,1.555-4.616,4.135-4.616
			c2.282,0,3.468,1.42,3.641,2.9h-1.16C787.257,293.07,785.961,292.784,785.109,292.784L785.109,292.784z"/>
	</g>
	<g>
		<path fill="#2F2F2F" d="M724.202,277.299h-4.916c-0.691,1.927-1.963,3.612-3.818,5.057c-1.855,1.444-3.573,2.426-5.154,2.944
			v5.498c3.006-0.992,5.615-2.523,7.828-4.592v22.835h6.06V277.299L724.202,277.299z"/>
		<path fill="#2F2F2F" d="M739.142,306.5c1.887,1.65,4.266,2.474,7.133,2.474c3.025,0,5.556-0.98,7.587-2.939
			c2.031-1.959,3.047-4.331,3.047-7.111c0-1.916-0.544-3.551-1.632-4.907c-1.088-1.354-2.539-2.226-4.354-2.615
			c3.04-1.657,4.56-3.875,4.56-6.658c0-1.959-0.742-3.717-2.226-5.273c-1.801-1.903-4.194-2.854-7.176-2.854
			c-1.743,0-3.317,0.328-4.724,0.983c-1.405,0.657-2.5,1.558-3.285,2.703c-0.785,1.145-1.372,2.676-1.761,4.592l5.599,0.951
			c0.157-1.383,0.605-2.435,1.34-3.155c0.735-0.72,1.621-1.08,2.658-1.08c1.052,0,1.895,0.317,2.528,0.951
			c0.634,0.634,0.951,1.484,0.951,2.55c0,1.253-0.432,2.26-1.296,3.016c-0.864,0.756-2.118,1.113-3.76,1.07l-0.67,4.949
			c1.08-0.303,2.01-0.454,2.788-0.454c1.181,0,2.183,0.447,3.004,1.342c0.823,0.893,1.234,2.103,1.234,3.63
			c0,1.614-0.43,2.896-1.288,3.847c-0.857,0.953-1.913,1.428-3.166,1.428c-1.167,0-2.161-0.396-2.982-1.189
			c-0.821-0.792-1.327-1.94-1.515-3.438l-5.878,0.713C736.16,302.693,737.255,304.85,739.142,306.5L739.142,306.5z"/>
	</g>
	<g opacity="0.15">
		<defs>
			<rect id="SVGID_2_" y="0" opacity="0.15" width="942" height="607"/>
		</defs>
		<clipPath id="SVGID_3_">
			<use xlink:href="#SVGID_2_"  overflow="visible"/>
		</clipPath>
		<g clip-path="url(#SVGID_3_)">
			<g>
				<g>
					<path fill="#303030" d="M621.827,10.195l3.983,4.374l-16.846,14.906c-1.323-1.814-2.203-3.866-2.639-6.154
						c-0.435-2.287-0.422-5.845,0.041-10.672c0.365-3.894,0.473-6.411,0.323-7.549c-0.224-1.557-0.768-2.81-1.633-3.76
						c-0.957-1.05-1.98-1.602-3.069-1.658c-1.09-0.054-2.142,0.367-3.157,1.265c-1.004,0.888-1.532,1.891-1.586,3.007
						c-0.054,1.117,0.5,2.403,1.659,3.858l-5.216,3.768c-2.075-2.844-2.873-5.496-2.397-7.956c0.478-2.46,1.845-4.689,4.103-6.687
						c2.474-2.189,5.013-3.256,7.617-3.2c2.604,0.056,4.792,1.056,6.562,3c1.008,1.106,1.764,2.338,2.269,3.696
						c0.506,1.358,0.819,2.973,0.937,4.845c0.08,1.241-0.018,3.213-0.293,5.919s-0.412,4.46-0.409,5.264
						c0.002,0.805,0.071,1.531,0.207,2.177L621.827,10.195z"/>
				</g>
				<g>
					<path fill="#303030" d="M616.091-21.376c2.429-2.149,5.1-2.979,8.015-2.492c3.461,0.569,7.314,3.182,11.556,7.84
						c4.233,4.648,6.453,8.715,6.662,12.201c0.17,2.876-0.96,5.389-3.389,7.538c-2.44,2.159-5.244,2.981-8.411,2.464
						c-3.168-0.516-6.897-3.131-11.191-7.847c-4.212-4.625-6.423-8.68-6.632-12.167C612.532-16.714,613.662-19.227,616.091-21.376z
						 M619.647-17.471c-0.582,0.515-0.935,1.156-1.06,1.922c-0.125,0.767,0.114,1.731,0.717,2.891
						c0.778,1.511,2.48,3.707,5.105,6.589c2.625,2.882,4.576,4.732,5.854,5.548c1.278,0.816,2.305,1.203,3.081,1.162
						c0.776-0.041,1.455-0.319,2.037-0.833c0.581-0.514,0.934-1.155,1.06-1.922c0.125-0.766-0.114-1.73-0.718-2.89
						c-0.768-1.499-2.464-3.69-5.089-6.572c-2.625-2.882-4.576-4.731-5.855-5.547c-1.278-0.816-2.307-1.206-3.089-1.171
						C620.909-18.26,620.228-17.986,619.647-17.471z"/>
				</g>
				<g>
					<path fill="#303030" d="M649.65,53.887l-5.223,3.743l-14.203-19.308c-0.621,3.118-1.918,6.024-3.891,8.719l-3.42-4.649
						c1.041-1.414,1.912-3.305,2.612-5.673c0.7-2.367,0.749-4.578,0.145-6.633l4.238-3.037L649.65,53.887z"/>
				</g>
				<g>
					<path fill="#303030" d="M654.51,40.964l4.654-4.17c0.866,0.92,1.738,1.437,2.616,1.55c0.878,0.113,1.745-0.137,2.599-0.749
						c1.078-0.773,1.638-1.916,1.678-3.43s-0.961-3.878-3.003-7.092c-0.214,2.436-1.306,4.361-3.276,5.773
						c-2.144,1.537-4.59,2.05-7.339,1.542c-2.749-0.508-5.08-2.062-6.994-4.664c-1.994-2.71-2.781-5.483-2.359-8.319
						c0.421-2.836,1.902-5.164,4.442-6.985c2.763-1.98,5.803-2.557,9.117-1.731c3.314,0.827,6.738,3.641,10.269,8.442
						c3.594,4.886,5.265,9.073,5.009,12.559c-0.255,3.487-1.863,6.292-4.825,8.414c-2.131,1.527-4.263,2.206-6.394,2.035
						C658.575,43.969,656.51,42.911,654.51,40.964z M658.098,21.298c-1.216-1.653-2.547-2.658-3.991-3.015
						c-1.445-0.356-2.676-0.17-3.692,0.558c-0.967,0.693-1.495,1.641-1.583,2.847s0.494,2.658,1.745,4.36
						c1.27,1.726,2.548,2.745,3.838,3.055c1.289,0.311,2.453,0.094,3.494-0.653c1.003-0.72,1.564-1.714,1.679-2.985
						C659.703,24.194,659.206,22.805,658.098,21.298z"/>
				</g>
				<g>
					<path fill="#303030" d="M672.723,92.242l-5.601,3.166l-11.987-20.724c-0.96,3.035-2.568,5.788-4.825,8.258l-2.886-4.99
						c1.19-1.295,2.263-3.084,3.219-5.364c0.955-2.28,1.247-4.475,0.873-6.583l4.544-2.569L672.723,92.242z"/>
				</g>
				<g>
					<path fill="#303030" d="M678.543,68.412c-1.796,0.219-3.326-0.011-4.592-0.689c-1.266-0.678-2.26-1.644-2.985-2.896
						c-1.238-2.139-1.5-4.337-0.785-6.594c0.714-2.256,2.473-4.177,5.277-5.762c2.777-1.57,5.338-2.091,7.68-1.563
						c2.342,0.529,4.132,1.863,5.37,4.002c0.77,1.33,1.102,2.714,0.998,4.149c-0.104,1.435-0.635,2.788-1.595,4.056
						c1.991-0.277,3.763-0.041,5.316,0.709c1.553,0.749,2.794,1.926,3.722,3.531c1.532,2.649,1.917,5.287,1.154,7.917
						c-0.762,2.63-2.572,4.752-5.429,6.367c-2.659,1.502-5.267,2.068-7.827,1.697c-3.022-0.438-5.348-2.066-6.978-4.884
						c-0.898-1.553-1.331-3.199-1.297-4.941C676.605,71.771,677.262,70.071,678.543,68.412z M676.495,62.221
						c0.635,1.096,1.444,1.772,2.43,2.028c0.986,0.257,2.003,0.088,3.054-0.506c1.063-0.601,1.734-1.392,2.014-2.372
						c0.279-0.98,0.102-2.019-0.532-3.114c-0.596-1.03-1.389-1.677-2.378-1.94c-0.99-0.263-2.003-0.101-3.039,0.484
						c-1.077,0.609-1.752,1.406-2.029,2.392C675.739,60.181,675.899,61.19,676.495,62.221z M683.086,74.803
						c0.875,1.514,1.953,2.47,3.235,2.871c1.281,0.402,2.513,0.268,3.696-0.401c1.156-0.653,1.877-1.602,2.163-2.846
						c0.286-1.243-0.016-2.635-0.907-4.175c-0.777-1.344-1.787-2.206-3.03-2.585c-1.242-0.379-2.455-0.235-3.638,0.433
						c-1.369,0.774-2.121,1.814-2.256,3.119C682.214,72.526,682.459,73.72,683.086,74.803z"/>
				</g>
				<g>
					<path fill="#303030" d="M692.184,133.726l-5.925,2.521l-9.511-21.944c-1.303,2.91-3.217,5.467-5.742,7.67l-2.291-5.284
						c1.331-1.155,2.603-2.813,3.815-4.973c1.212-2.16,1.755-4.309,1.627-6.447l4.808-2.045L692.184,133.726z"/>
				</g>
				<g>
					<path fill="#303030" d="M692.087,104.684l-2.344-5.408l20.267-8.621l1.832,4.227c-0.972,2.328-1.668,5.372-2.086,9.134
						c-0.418,3.761-0.342,7.537,0.227,11.328c0.569,3.791,1.442,7.024,2.617,9.697l-5.715,2.431
						c-1.722-4.241-2.696-8.899-2.922-13.973c-0.226-5.074,0.308-9.923,1.6-14.547L692.087,104.684z"/>
				</g>
				<g>
					<path fill="#303030" d="M706.921,176.311l-6.152,1.913l-7.182-22.798c-1.597,2.766-3.765,5.118-6.503,7.057l-1.729-5.49
						c1.443-1.016,2.878-2.538,4.307-4.566c1.429-2.028,2.19-4.112,2.285-6.254l4.992-1.553L706.921,176.311z"/>
				</g>
				<g>
					<path fill="#303030" d="M731.207,142.591l-5.751,2.498c-0.526-1.16-1.186-1.932-1.98-2.315
						c-0.794-0.383-1.68-0.423-2.658-0.119c-1.3,0.404-2.216,1.32-2.753,2.747c-0.536,1.427-0.348,3.993,0.562,7.697
						c0.972-2.256,2.597-3.738,4.874-4.447c2.569-0.799,5.072-0.522,7.51,0.832c2.437,1.354,4.136,3.552,5.094,6.594
						c1.018,3.229,0.87,6.119-0.441,8.67c-1.311,2.551-3.479,4.297-6.5,5.237c-3.24,1.008-6.294,0.598-9.161-1.228
						c-2.867-1.826-5.189-5.56-6.966-11.2c-1.822-5.784-2.049-10.291-0.679-13.522c1.37-3.231,3.792-5.387,7.266-6.467
						c2.437-0.758,4.667-0.715,6.688,0.13C728.332,138.541,729.964,140.173,731.207,142.591z M721.418,160.126
						c0.619,1.966,1.557,3.341,2.814,4.124c1.256,0.784,2.476,0.991,3.658,0.623c1.139-0.354,1.949-1.087,2.433-2.198
						c0.483-1.111,0.411-2.665-0.218-4.66c-0.647-2.053-1.529-3.429-2.647-4.129c-1.118-0.7-2.291-0.86-3.516-0.478
						c-1.182,0.368-2.039,1.135-2.569,2.3C720.841,156.873,720.857,158.346,721.418,160.126z"/>
				</g>
				<g>
					<path fill="#303030" d="M717.156,220.372l-6.313,1.296l-4.816-23.408c-1.87,2.596-4.265,4.723-7.186,6.382l-1.16-5.637
						c1.538-0.868,3.121-2.242,4.748-4.119c1.628-1.878,2.597-3.877,2.91-6l5.122-1.051L717.156,220.372z"/>
				</g>
				<g>
					<path fill="#303030" d="M726.767,209.714l6.159-1.933c0.467,1.363,1.227,2.363,2.279,2.999c1.052,0.636,2.154,0.836,3.308,0.6
						c1.318-0.271,2.326-1.026,3.022-2.267c0.697-1.241,0.827-2.923,0.391-5.045c-0.409-1.989-1.169-3.388-2.28-4.197
						c-1.111-0.809-2.393-1.064-3.845-0.766c-1.813,0.372-3.275,1.494-4.389,3.366l-5.272,0.322l-0.235-17.529l16.692-3.426
						l1.196,5.813l-11.907,2.444l0.144,5.707c1.265-0.982,2.632-1.623,4.1-1.925c2.8-0.575,5.381-0.06,7.74,1.545
						c2.359,1.604,3.868,4.006,4.526,7.203c0.549,2.667,0.252,5.208-0.89,7.624c-1.554,3.299-4.232,5.338-8.037,6.119
						c-3.041,0.624-5.684,0.33-7.932-0.883C729.289,214.272,727.699,212.349,726.767,209.714z"/>
				</g>
				<g>
					<path fill="#303030" d="M722.817,265.167l-6.405,0.704l-2.55-23.763c-2.11,2.411-4.696,4.307-7.762,5.689l-0.614-5.722
						c1.614-0.722,3.32-1.943,5.12-3.662c1.799-1.719,2.956-3.62,3.47-5.706l5.197-0.571L722.817,265.167z"/>
				</g>
				<g>
					<path fill="#303030" d="M746.776,262.532l-0.71-6.62l-13.677,1.504l-0.592-5.52l12.255-22.485l5.379-0.592l2.24,20.869
						l4.148-0.456l0.595,5.542l-4.148,0.456l0.711,6.62L746.776,262.532z M745.471,250.37l-1.207-11.242l-6.475,12.087
						L745.471,250.37z"/>
				</g>
			</g>
			<g>
				<g>
					<path fill="#303030" d="M719.146,355.295l-6.387-0.786l3.15-23.729c-2.619,1.864-5.58,3.117-8.884,3.757l0.758-5.714
						c1.738-0.333,3.684-1.129,5.838-2.39c2.154-1.261,3.727-2.847,4.72-4.759l5.182,0.637L719.146,355.295z"/>
				</g>
				<g>
					<path fill="#303030" d="M752.859,353.5l-0.776,5.848l-22.388-2.755c0.536-2.181,1.542-4.186,3.017-6.017
						c1.474-1.83,4.217-4.161,8.227-6.992c3.23-2.29,5.233-3.865,6.01-4.726c1.051-1.192,1.661-2.422,1.829-3.692
						c0.186-1.404-0.053-2.53-0.718-3.379c-0.665-0.848-1.672-1.356-3.02-1.522c-1.333-0.164-2.447,0.101-3.339,0.796
						c-0.893,0.695-1.522,1.953-1.888,3.775l-6.28-1.41c0.839-3.419,2.358-5.76,4.559-7.022c2.2-1.263,4.8-1.71,7.8-1.34
						c3.288,0.405,5.755,1.596,7.402,3.575c1.646,1.979,2.298,4.268,1.953,6.867c-0.196,1.479-0.652,2.854-1.368,4.124
						c-0.715,1.271-1.754,2.566-3.115,3.886c-0.902,0.876-2.481,2.101-4.738,3.676c-2.258,1.574-3.695,2.627-4.312,3.159
						c-0.617,0.531-1.13,1.06-1.539,1.586L752.859,353.5z"/>
				</g>
				<g>
					<path fill="#303030" d="M710.252,399.666l-6.278-1.384l5.437-23.337c-2.786,1.61-5.854,2.578-9.203,2.905l1.309-5.62
						c1.761-0.167,3.775-0.778,6.04-1.83c2.265-1.053,3.985-2.485,5.159-4.295l5.093,1.123L710.252,399.666z"/>
				</g>
				<g>
					<path fill="#303030" d="M734.963,405.115l-6.278-1.384l5.437-23.337c-2.786,1.61-5.854,2.578-9.203,2.905l1.309-5.619
						c1.761-0.167,3.775-0.778,6.04-1.83c2.265-1.053,3.985-2.485,5.159-4.295l5.093,1.123L734.963,405.115z"/>
				</g>
				<g>
					<path fill="#303030" d="M696.55,443.08l-6.095-2.014l7.845-22.675c-2.938,1.319-6.089,1.972-9.452,1.958l1.889-5.46
						c1.769,0.011,3.834-0.391,6.196-1.209c2.362-0.818,4.22-2.069,5.577-3.752l4.945,1.635L696.55,443.08z"/>
				</g>
				<g>
					<path fill="#303030" d="M728.607,418.555c3.08,1.018,5.112,2.899,6.097,5.642c1.179,3.253,0.739,7.856-1.32,13.808
						c-2.055,5.939-4.572,9.862-7.553,11.772c-2.462,1.573-5.233,1.849-8.313,0.832c-3.095-1.023-5.183-3.021-6.265-5.996
						c-1.082-2.974-0.581-7.473,1.504-13.497c2.044-5.91,4.557-9.819,7.538-11.729C722.756,417.813,725.526,417.536,728.607,418.555
						z M726.881,423.543c-0.738-0.243-1.476-0.229-2.214,0.043c-0.739,0.273-1.476,0.956-2.208,2.05
						c-0.958,1.417-2.074,3.967-3.348,7.65c-1.274,3.682-1.962,6.275-2.062,7.777c-0.101,1.502,0.055,2.575,0.469,3.221
						c0.413,0.646,0.989,1.09,1.726,1.334c0.738,0.243,1.476,0.229,2.215-0.044c0.739-0.272,1.475-0.956,2.208-2.05
						c0.953-1.403,2.066-3.946,3.34-7.629c1.274-3.682,1.961-6.275,2.062-7.777c0.1-1.502-0.054-2.579-0.466-3.231
						C728.192,424.235,727.618,423.787,726.881,423.543z"/>
				</g>
				<g>
					<path fill="#303030" d="M687.002,451.67c2.993,1.242,4.877,3.267,5.652,6.076c0.929,3.331,0.144,7.891-2.359,13.679
						c-2.496,5.774-5.302,9.504-8.418,11.191c-2.573,1.388-5.356,1.462-8.349,0.221c-3.008-1.248-4.938-3.394-5.792-6.441
						c-0.854-3.046-0.015-7.498,2.517-13.355c2.484-5.747,5.284-9.462,8.4-11.149C681.225,450.502,684.009,450.429,687.002,451.67z
						 M684.906,456.521c-0.717-0.297-1.454-0.337-2.211-0.119c-0.758,0.217-1.543,0.846-2.355,1.883
						c-1.063,1.344-2.366,3.806-3.915,7.387c-1.548,3.581-2.429,6.117-2.643,7.608c-0.214,1.491-0.139,2.574,0.224,3.247
						c0.363,0.675,0.904,1.161,1.62,1.458c0.717,0.297,1.454,0.337,2.211,0.119c0.757-0.218,1.542-0.846,2.355-1.884
						c1.056-1.329,2.357-3.785,3.905-7.365c1.548-3.582,2.429-6.117,2.642-7.608c0.213-1.491,0.14-2.576-0.22-3.258
						C686.16,457.308,685.622,456.819,684.906,456.521z"/>
				</g>
				<g>
					<path fill="#303030" d="M692.619,481.815l6.004,1.753c-0.358,1.211-0.361,2.216-0.011,3.016c0.349,0.799,1.009,1.4,1.98,1.803
						c1.223,0.507,2.503,0.384,3.84-0.371c1.337-0.755,2.881-2.832,4.632-6.23c-2.228,1.09-4.459,1.171-6.694,0.244
						c-2.432-1.008-4.128-2.805-5.091-5.389c-0.963-2.584-0.802-5.361,0.482-8.332c1.338-3.095,3.348-5.204,6.029-6.326
						c2.681-1.123,5.462-1.087,8.343,0.108c3.134,1.3,5.188,3.563,6.163,6.791c0.975,3.227,0.277,7.583-2.093,13.065
						c-2.412,5.579-5.199,9.171-8.361,10.772c-3.162,1.602-6.423,1.707-9.781,0.314c-2.417-1.003-4.096-2.448-5.037-4.336
						C692.083,486.811,691.948,484.517,692.619,481.815z M711.552,474.593c0.816-1.888,1.009-3.534,0.581-4.94
						c-0.428-1.405-1.219-2.347-2.371-2.825c-1.097-0.455-2.191-0.405-3.283,0.148c-1.093,0.554-2.059,1.802-2.899,3.745
						c-0.852,1.971-1.084,3.581-0.696,4.83c0.388,1.25,1.172,2.119,2.352,2.608c1.138,0.473,2.289,0.426,3.454-0.139
						C709.854,477.457,710.808,476.314,711.552,474.593z"/>
				</g>
				<g>
					<path fill="#303030" d="M668.209,492.848c2.813,1.596,4.428,3.836,4.845,6.72c0.506,3.421-0.844,7.854-4.049,13.299
						c-3.197,5.432-6.446,8.796-9.746,10.093c-2.725,1.067-5.494,0.802-8.307-0.794c-2.827-1.604-4.473-3.97-4.939-7.099
						c-0.466-3.129,0.923-7.448,4.166-12.959c3.181-5.405,6.423-8.756,9.723-10.053
						C662.626,490.987,665.396,491.252,668.209,492.848z M665.524,497.411c-0.674-0.382-1.4-0.511-2.178-0.386
						c-0.778,0.125-1.635,0.653-2.571,1.585c-1.221,1.206-2.822,3.493-4.805,6.862c-1.982,3.368-3.174,5.78-3.571,7.235
						c-0.398,1.455-0.459,2.539-0.183,3.253c0.275,0.714,0.75,1.262,1.424,1.644c0.674,0.382,1.399,0.511,2.177,0.386
						c0.778-0.125,1.635-0.653,2.571-1.585c1.213-1.193,2.811-3.473,4.794-6.842c1.983-3.369,3.173-5.78,3.572-7.235
						c0.398-1.455,0.461-2.542,0.189-3.262C666.669,498.344,666.197,497.794,665.524,497.411z"/>
				</g>
				<g>
					<path fill="#303030" d="M679.876,517.258c-1.086-1.417-1.647-2.837-1.682-4.259c-0.035-1.421,0.316-2.76,1.054-4.013
						c1.26-2.141,3.057-3.481,5.393-4.02c2.335-0.54,4.896-0.018,7.682,1.563c2.76,1.566,4.492,3.48,5.196,5.743
						c0.703,2.262,0.425,4.464-0.836,6.605c-0.784,1.332-1.831,2.318-3.142,2.959c-1.311,0.64-2.762,0.876-4.353,0.705
						c1.234,1.554,1.91,3.183,2.027,4.886c0.117,1.703-0.298,3.358-1.243,4.963c-1.561,2.65-3.684,4.319-6.37,5.007
						c-2.687,0.688-5.45,0.226-8.289-1.384c-2.642-1.499-4.438-3.431-5.387-5.799c-1.121-2.795-0.852-5.604,0.808-8.423
						c0.915-1.553,2.143-2.759,3.688-3.616C675.966,517.316,677.785,517.011,679.876,517.258z M684.288,512.367
						c-0.646,1.097-0.836,2.13-0.569,3.1c0.266,0.97,0.92,1.75,1.964,2.342c1.057,0.599,2.085,0.769,3.083,0.508
						c0.999-0.26,1.822-0.939,2.467-2.036c0.607-1.031,0.779-2.035,0.517-3.011c-0.262-0.976-0.908-1.756-1.938-2.341
						c-1.07-0.607-2.106-0.777-3.109-0.51C685.7,510.686,684.895,511.336,684.288,512.367z M676.533,524.374
						c-0.891,1.515-1.194,2.919-0.907,4.213c0.286,1.295,1.017,2.276,2.193,2.943c1.149,0.652,2.341,0.784,3.574,0.394
						c1.233-0.388,2.303-1.353,3.21-2.894c0.792-1.344,1.045-2.642,0.759-3.893c-0.286-1.25-1.016-2.21-2.192-2.876
						c-1.361-0.772-2.647-0.884-3.86-0.335C678.097,522.474,677.171,523.29,676.533,524.374z"/>
				</g>
				<g>
					<path fill="#303030" d="M645.195,531.092c2.614,1.896,3.965,4.301,4.052,7.214c0.116,3.458-1.726,7.718-5.524,12.781
						c-3.789,5.051-7.395,8.04-10.82,8.968c-2.826,0.762-5.547,0.195-8.161-1.7c-2.626-1.905-3.994-4.439-4.103-7.602
						c-0.11-3.163,1.758-7.306,5.602-12.43c3.771-5.027,7.368-8.003,10.793-8.932C639.861,528.63,642.581,529.196,645.195,531.092z
						 M642.012,535.336c-0.625-0.454-1.332-0.661-2.119-0.622c-0.787,0.038-1.699,0.469-2.733,1.293
						c-1.349,1.065-3.198,3.164-5.548,6.297c-2.35,3.132-3.805,5.4-4.365,6.803c-0.56,1.403-0.743,2.475-0.549,3.215
						c0.193,0.74,0.602,1.338,1.228,1.791c0.626,0.454,1.332,0.661,2.119,0.623c0.786-0.039,1.697-0.47,2.733-1.294
						c1.339-1.053,3.184-3.146,5.534-6.279c2.35-3.132,3.805-5.4,4.365-6.803c0.56-1.403,0.745-2.478,0.557-3.224
						C643.045,536.39,642.638,535.79,642.012,535.336z"/>
				</g>
				<g>
					<path fill="#303030" d="M654.971,546.253l3.566-4.754l17.689,12.829l-2.787,3.716c-2.526,0.361-5.541,1.324-9.045,2.888
						c-3.504,1.564-6.774,3.556-9.81,5.975c-3.037,2.418-5.433,4.81-7.187,7.174l-4.988-3.618c2.854-3.629,6.448-6.834,10.78-9.616
						c4.333-2.782,8.848-4.803,13.545-6.064L654.971,546.253z"/>
				</g>
				<g>
					<path fill="#303030" d="M618.48,566.519c2.408,2.143,3.509,4.669,3.304,7.577c-0.234,3.454-2.493,7.516-6.78,12.185
						c-4.276,4.659-8.164,7.282-11.663,7.871c-2.887,0.483-5.535-0.347-7.943-2.49c-2.42-2.153-3.524-4.809-3.314-7.969
						c0.21-3.16,2.484-7.103,6.822-11.828c4.255-4.636,8.133-7.248,11.632-7.838C613.424,563.546,616.072,564.376,618.48,566.519z
						 M614.888,570.432c-0.576-0.513-1.258-0.789-2.044-0.827c-0.787-0.039-1.736,0.302-2.848,1.021
						c-1.449,0.928-3.498,2.838-6.151,5.727c-2.652,2.889-4.327,5.004-5.025,6.347c-0.698,1.342-0.989,2.391-0.871,3.146
						c0.117,0.756,0.465,1.391,1.042,1.903c0.576,0.513,1.258,0.789,2.044,0.827c0.786,0.038,1.735-0.302,2.848-1.021
						c1.438-0.918,3.483-2.821,6.135-5.71c2.652-2.889,4.327-5.005,5.025-6.347c0.698-1.342,0.991-2.394,0.878-3.155
						C615.808,571.582,615.464,570.946,614.888,570.432z"/>
				</g>
				<g>
					<path fill="#303030" d="M641.617,598.243l-5.076-3.6c0.75-1.041,1.094-1.997,1.03-2.867c-0.064-0.87-0.475-1.643-1.232-2.317
						c-1.006-0.896-2.268-1.204-3.786-0.927c-1.518,0.277-3.667,1.751-6.449,4.424c2.462-0.332,4.575,0.286,6.338,1.855
						c1.99,1.771,3.006,4.037,3.047,6.8c0.041,2.763-1.027,5.331-3.206,7.706c-2.313,2.519-4.915,3.876-7.805,4.071
						c-2.891,0.195-5.506-0.749-7.846-2.831c-2.51-2.233-3.687-5.035-3.531-8.405c0.157-3.371,2.254-7.256,6.294-11.657
						c4.142-4.513,7.971-7.016,11.485-7.51c3.514-0.494,6.617,0.456,9.308,2.85c1.888,1.68,2.97,3.594,3.247,5.743
						C643.714,593.727,643.108,595.948,641.617,598.243z M621.362,598.927c-1.408,1.535-2.139,3.036-2.193,4.503
						s0.378,2.609,1.293,3.424c0.882,0.785,1.93,1.097,3.145,0.938c1.214-0.16,2.536-1.018,3.965-2.575
						c1.47-1.601,2.231-3.055,2.281-4.363c0.05-1.309-0.399-2.385-1.349-3.23c-0.916-0.815-2.017-1.149-3.303-1.001
						S622.636,597.539,621.362,598.927z"/>
				</g>
				<g>
					<path fill="#303030" d="M587.186,599.499c2.199,2.351,3.062,4.967,2.588,7.847c-0.552,3.42-3.176,7.265-7.874,11.533
						c-4.687,4.258-8.798,6.525-12.335,6.798c-2.919,0.222-5.477-0.842-7.676-3.193c-2.209-2.362-3.064-5.107-2.563-8.237
						c0.5-3.129,3.128-6.854,7.882-11.174c4.664-4.238,8.764-6.494,12.301-6.767C582.428,596.084,584.987,597.148,587.186,599.499z
						 M583.248,603.077c-0.526-0.563-1.18-0.899-1.958-1.008c-0.779-0.109-1.756,0.145-2.929,0.763
						c-1.528,0.796-3.744,2.514-6.65,5.155s-4.77,4.598-5.588,5.873c-0.819,1.275-1.205,2.293-1.157,3.058
						c0.047,0.763,0.334,1.427,0.861,1.989c0.527,0.563,1.179,0.899,1.958,1.007c0.779,0.109,1.756-0.145,2.929-0.763
						c1.516-0.785,3.727-2.498,6.634-5.139c2.906-2.641,4.769-4.599,5.588-5.873c0.819-1.275,1.207-2.296,1.165-3.065
						C584.059,604.305,583.775,603.639,583.248,603.077z"/>
				</g>
			</g>
		</g>
	</g>
</g>
</svg>
