<?xml version="1.0" encoding="utf-8"?>
<!-- Generator: Adobe Illustrator 17.0.0, SVG Export Plug-In . SVG Version: 6.00 Build 0)  -->
<!DOCTYPE svg PUBLIC "-//W3C//DTD SVG 1.1//EN" "http://www.w3.org/Graphics/SVG/1.1/DTD/svg11.dtd">
<svg version="1.1" id="Layer_1" xmlns="http://www.w3.org/2000/svg" xmlns:xlink="http://www.w3.org/1999/xlink" x="0px" y="0px"
	 width="35px" height="70px" viewBox="0 0 35 70" enable-background="new 0 0 35 70" xml:space="preserve">
<g>
	<path fill="#E4405F" d="M17.226,2c8.547,0,15.5,6.953,15.5,15.5S25.773,33,17.226,33c-8.547,0-15.5-6.953-15.5-15.5
		S8.679,2,17.226,2 M17.226,0c-9.665,0-17.5,7.835-17.5,17.5S7.561,35,17.226,35s17.5-7.835,17.5-17.5S26.891,0,17.226,0L17.226,0z"
		/>
</g>
<g>
	<path fill-rule="evenodd" clip-rule="evenodd" fill="#E4405F" d="M17.863,69c-9.098,0-16.5-7.402-16.5-16.5S8.765,36,17.863,36
		s16.5,7.402,16.5,16.5S26.961,69,17.863,69z"/>
	<path fill="#E4405F" d="M17.863,37c8.547,0,15.5,6.953,15.5,15.5S26.41,68,17.863,68c-8.547,0-15.5-6.953-15.5-15.5
		S9.316,37,17.863,37 M17.863,35c-9.665,0-17.5,7.835-17.5,17.5S8.198,70,17.863,70s17.5-7.835,17.5-17.5S27.528,35,17.863,35
		L17.863,35z"/>
</g>
<g>
	<path fill="#E4405F" d="M25.726,12.131c0,3.579,0,7.158,0,10.737c-0.011,0.042-0.026,0.084-0.031,0.127
		c-0.191,1.74-1.533,2.985-3.269,2.99c-3.471,0.011-6.942,0.011-10.413,0c-1.86-0.006-3.282-1.451-3.284-3.309
		c-0.004-3.452-0.002-6.904,0.001-10.357c0-0.22,0.015-0.444,0.059-0.659c0.323-1.575,1.626-2.643,3.244-2.65
		c1.72-0.008,3.44-0.002,5.159-0.002c1.732,0,3.465-0.004,5.197,0.002c1.534,0.005,2.808,0.969,3.203,2.416
		C25.655,11.657,25.682,11.896,25.726,12.131z M21.562,15.766c0.687,2.302,0.182,4.219-1.807,5.606
		c-1.557,1.085-3.62,1.024-5.169-0.051c-0.785-0.545-1.357-1.262-1.699-2.154c-0.432-1.127-0.414-2.259,0.018-3.395
		c-0.847,0-1.677,0-2.514,0c-0.004,0.064-0.011,0.114-0.011,0.163c0,2.244-0.004,4.488,0.002,6.732
		c0.003,0.975,0.707,1.67,1.682,1.671c3.432,0.003,6.865,0.002,10.297,0c0.994-0.001,1.695-0.705,1.695-1.698
		c0.001-2.225,0-4.45,0-6.675c0-0.066,0-0.132,0-0.199C23.204,15.766,22.384,15.766,21.562,15.766z M20.207,17.51
		c0.022-1.608-1.31-2.972-2.926-2.997c-1.65-0.025-3.029,1.29-3.05,2.909c-0.022,1.68,1.279,3.038,2.933,3.061
		C18.839,20.506,20.184,19.193,20.207,17.51z M20.876,13.833c0.964,0,1.908,0,2.857,0c0-0.963,0-1.912,0-2.856
		c-0.96,0-1.905,0-2.857,0C20.876,11.934,20.876,12.874,20.876,13.833z"/>
</g>
<g>
	<path fill="#FFFFFF" d="M26.363,47.131c0,3.579,0,7.158,0,10.737c-0.011,0.042-0.026,0.084-0.031,0.127
		c-0.191,1.74-1.533,2.985-3.269,2.99c-3.471,0.011-6.942,0.011-10.413,0c-1.86-0.006-3.282-1.451-3.284-3.309
		c-0.004-3.452-0.002-6.904,0.001-10.357c0-0.22,0.015-0.444,0.059-0.659c0.323-1.575,1.626-2.643,3.244-2.65
		c1.72-0.008,3.44-0.002,5.159-0.002c1.732,0,3.465-0.004,5.197,0.002c1.534,0.005,2.808,0.969,3.203,2.416
		C26.292,46.657,26.319,46.896,26.363,47.131z M22.199,50.766c0.687,2.302,0.182,4.219-1.807,5.606
		c-1.557,1.085-3.62,1.024-5.169-0.051c-0.785-0.545-1.357-1.262-1.699-2.154c-0.432-1.127-0.414-2.259,0.018-3.395
		c-0.847,0-1.677,0-2.514,0c-0.004,0.064-0.011,0.114-0.011,0.163c0,2.244-0.004,4.488,0.002,6.732
		c0.003,0.975,0.707,1.67,1.682,1.671c3.432,0.003,6.865,0.002,10.297,0c0.994-0.001,1.695-0.705,1.695-1.698
		c0.001-2.225,0-4.45,0-6.675c0-0.066,0-0.132,0-0.199C23.841,50.766,23.021,50.766,22.199,50.766z M20.844,52.51
		c0.022-1.608-1.31-2.972-2.926-2.997c-1.65-0.025-3.029,1.29-3.05,2.909c-0.022,1.68,1.279,3.038,2.933,3.061
		C19.476,55.506,20.821,54.193,20.844,52.51z M21.513,48.833c0.964,0,1.908,0,2.857,0c0-0.963,0-1.912,0-2.856
		c-0.96,0-1.905,0-2.857,0C21.513,46.934,21.513,47.873,21.513,48.833z"/>
</g>
</svg>
