<?xml version="1.0" encoding="utf-8"?>
<!-- Generator: Adobe Illustrator 17.0.0, SVG Export Plug-In . SVG Version: 6.00 Build 0)  -->
<!DOCTYPE svg PUBLIC "-//W3C//DTD SVG 1.1//EN" "http://www.w3.org/Graphics/SVG/1.1/DTD/svg11.dtd">
<svg version="1.1" id="Layer_1" xmlns="http://www.w3.org/2000/svg" xmlns:xlink="http://www.w3.org/1999/xlink" x="0px" y="0px"
	 width="157px" height="56px" viewBox="0 0 157 56" enable-background="new 0 0 157 56" xml:space="preserve">
<g>
	<g>
		<path fill="#FFFFFF" d="M85.091,36.746v4.869H66.14V16.728h18.773v4.871H71.579v5.049h11.734v4.872H71.579v5.227h13.512V36.746z
			 M106.102,32.728l6.079,8.888h-6.398l-5.333-7.962h-4.303v7.962h-5.476V16.728h11.38c3.163,0,5.616,0.888,7.251,2.522
			c1.387,1.39,2.133,3.343,2.133,5.69v0.072C111.435,29.029,109.267,31.554,106.102,32.728L106.102,32.728z M105.89,25.224
			c0-2.346-1.638-3.554-4.304-3.554h-5.439v7.146h5.546c2.667,0,4.197-1.422,4.197-3.521L105.89,25.224L105.89,25.224z
			 M135.611,41.615l-2.277-5.581h-10.523l-2.276,5.581h-5.583L125.62,16.55h5.049l10.667,25.065L135.611,41.615L135.611,41.615z
			 M128.072,23.128l-3.306,8.07h6.612L128.072,23.128L128.072,23.128z"/>
	</g>
	<g>
		<g>
			<g>
				<path fill="#FFFFFF" d="M25.884,54.895c-13.422,0-24.342-11.048-24.342-24.628c0-9.625,5.595-18.425,14.254-22.421
					c0.676-0.311,1.475-0.01,1.783,0.675c0.309,0.685,0.01,1.491-0.666,1.803c-7.702,3.554-12.68,11.381-12.68,19.943
					c0,12.078,9.713,21.905,21.651,21.905s21.65-9.827,21.65-21.905c0-8.67-5.065-16.538-12.905-20.046
					c-0.68-0.304-0.987-1.106-0.688-1.795c0.301-0.688,1.096-0.999,1.775-0.694c8.813,3.941,14.508,12.787,14.508,22.535
					C50.226,43.847,39.306,54.895,25.884,54.895z"/>
			</g>
			<g>
				<path fill="#FFFFFF" d="M29.636,8.176c-0.743,0-1.346-0.61-1.346-1.361c0-1.37-1.102-2.485-2.456-2.485
					s-2.456,1.115-2.456,2.485c0,0.751-0.602,1.361-1.345,1.361s-1.347-0.61-1.347-1.361c0-2.873,2.311-5.209,5.148-5.209
					c2.839,0,5.148,2.336,5.148,5.209C30.982,7.565,30.38,8.176,29.636,8.176z"/>
			</g>
			<g>
				<path fill="#FFFFFF" d="M9.622,15.186c-0.345,0-0.688-0.133-0.952-0.399L5.609,11.69c-0.525-0.531-0.525-1.394,0-1.926
					c0.526-0.531,1.378-0.531,1.903,0l3.061,3.098c0.526,0.531,0.526,1.394,0,1.925C10.311,15.053,9.966,15.186,9.622,15.186z"/>
			</g>
			<g>
				<path fill="#FFFFFF" d="M42.014,15.047c-0.344,0-0.689-0.134-0.952-0.399c-0.526-0.532-0.526-1.394,0-1.925l2.773-2.808
					c0.526-0.532,1.379-0.532,1.904,0c0.525,0.531,0.525,1.394,0,1.925l-2.774,2.808C42.703,14.913,42.358,15.047,42.014,15.047z"/>
			</g>
		</g>
		<g>
			<path fill="#FFFFFF" d="M25.884,36.13c-2.812,0-5.099-2.313-5.099-5.157c0-2.845,2.287-5.158,5.099-5.158
				c2.811,0,5.098,2.313,5.098,5.158C30.982,33.816,28.695,36.13,25.884,36.13z M25.884,28.537c-1.328,0-2.407,1.092-2.407,2.436
				c0,1.342,1.079,2.434,2.407,2.434c1.327,0,2.406-1.092,2.406-2.434C28.291,29.629,27.21,28.537,25.884,28.537z"/>
		</g>
		<g>
			<path fill="#FFFFFF" d="M26.003,28.36c-0.744,0-1.347-0.609-1.347-1.361v-7.08c0-0.753,0.603-1.362,1.347-1.362
				c0.743,0,1.345,0.609,1.345,1.362v7.08C27.349,27.75,26.746,28.36,26.003,28.36z"/>
		</g>
		<g>
			<path fill="#FFFFFF" d="M26.003,49.057c-0.356,0-0.701-0.147-0.954-0.398c-0.248-0.255-0.393-0.604-0.393-0.964
				s0.146-0.708,0.393-0.963c0.501-0.502,1.405-0.508,1.905,0c0.248,0.255,0.394,0.604,0.394,0.963s-0.146,0.709-0.394,0.964
				C26.702,48.909,26.358,49.057,26.003,49.057z"/>
		</g>
		<g>
			<path fill="#FFFFFF" d="M43.229,32.173c-0.356,0-0.701-0.147-0.954-0.397c-0.248-0.256-0.393-0.604-0.393-0.964
				s0.145-0.708,0.393-0.964c0.501-0.507,1.406-0.507,1.906,0c0.249,0.256,0.393,0.604,0.393,0.964s-0.144,0.708-0.393,0.964
				C43.927,32.025,43.583,32.173,43.229,32.173z"/>
		</g>
		<g>
			<path fill="#FFFFFF" d="M8.239,32.173c-0.355,0-0.7-0.147-0.952-0.397c-0.248-0.256-0.393-0.604-0.393-0.964
				s0.145-0.708,0.393-0.964c0.5-0.507,1.405-0.507,1.905,0c0.248,0.256,0.393,0.604,0.393,0.964s-0.146,0.708-0.393,0.964
				C8.938,32.025,8.594,32.173,8.239,32.173z"/>
		</g>
		<g>
			<path fill="#FFFFFF" d="M26.003,14.2c-0.356,0-0.701-0.147-0.954-0.397c-0.248-0.256-0.393-0.605-0.393-0.964
				s0.146-0.708,0.393-0.965c0.501-0.501,1.405-0.506,1.905,0c0.248,0.257,0.394,0.605,0.394,0.965c0,0.358-0.146,0.708-0.394,0.964
				C26.702,14.053,26.358,14.2,26.003,14.2z"/>
		</g>
		<g>
			<path fill="#FFFFFF" d="M13.746,44.143c-0.356,0-0.705-0.145-0.953-0.396C12.54,43.49,12.4,43.143,12.4,42.783
				s0.139-0.707,0.393-0.965c0.5-0.505,1.399-0.505,1.899,0c0.253,0.257,0.399,0.605,0.399,0.965s-0.146,0.707-0.399,0.964
				C14.445,43.998,14.096,44.143,13.746,44.143z"/>
		</g>
		<g>
			<path fill="#FFFFFF" d="M37.721,44.53c-0.35,0-0.7-0.146-0.947-0.403c-0.253-0.25-0.398-0.599-0.398-0.957
				c0-0.36,0.146-0.709,0.398-0.965c0.495-0.507,1.399-0.507,1.901,0c0.252,0.25,0.392,0.604,0.392,0.965
				c0,0.358-0.14,0.707-0.392,0.963C38.427,44.384,38.077,44.53,37.721,44.53z"/>
		</g>
		<g>
			<path fill="#FFFFFF" d="M12.981,19.5c-0.35,0-0.699-0.148-0.953-0.398c-0.248-0.256-0.393-0.609-0.393-0.964
				c0-0.359,0.145-0.714,0.393-0.964c0.506-0.507,1.405-0.507,1.905,0c0.253,0.25,0.394,0.604,0.394,0.964
				c0,0.354-0.141,0.708-0.394,0.959C13.681,19.352,13.337,19.5,12.981,19.5z"/>
		</g>
		<g>
			<path fill="#FFFFFF" d="M38.104,19.5c-0.354,0-0.7-0.148-0.952-0.403c-0.248-0.251-0.394-0.604-0.394-0.959
				c0-0.359,0.146-0.714,0.394-0.964c0.5-0.507,1.405-0.507,1.906,0c0.246,0.256,0.393,0.604,0.393,0.964
				c0,0.354-0.146,0.708-0.393,0.959C38.803,19.352,38.459,19.5,38.104,19.5z"/>
		</g>
	</g>
	<g>
		<path fill="#FFFFFF" d="M140.936,6.699h3.045v7.52h-1.613V8.13h-1.432L140.936,6.699L140.936,6.699z"/>
		<path fill="#FFFFFF" d="M145.814,14.03c-0.183-0.183-0.274-0.407-0.274-0.672s0.092-0.489,0.274-0.672
			c0.183-0.183,0.406-0.274,0.672-0.274s0.489,0.091,0.673,0.274c0.183,0.183,0.274,0.407,0.274,0.672
			c0,0.266-0.092,0.49-0.274,0.672c-0.184,0.183-0.407,0.274-0.673,0.274S145.997,14.213,145.814,14.03z"/>
		<path fill="#FFFFFF" d="M151.747,14.305c-1.04,0-1.817-0.353-2.334-1.06c-0.517-0.706-0.774-1.649-0.774-2.829
			s0.258-2.123,0.774-2.829s1.294-1.06,2.334-1.06s1.818,0.353,2.335,1.06s0.774,1.649,0.774,2.829s-0.258,2.123-0.774,2.829
			C153.565,13.952,152.787,14.305,151.747,14.305z M150.64,8.604c-0.237,0.459-0.355,1.065-0.355,1.818s0.118,1.359,0.355,1.818
			c0.236,0.459,0.605,0.688,1.107,0.688s0.872-0.229,1.108-0.688s0.355-1.065,0.355-1.818s-0.119-1.359-0.355-1.818
			s-0.606-0.688-1.108-0.688S150.876,8.145,150.64,8.604z"/>
	</g>
</g>
</svg>
