<?xml version="1.0" encoding="utf-8"?>
<!-- Generator: Adobe Illustrator 17.0.0, SVG Export Plug-In . SVG Version: 6.00 Build 0)  -->
<!DOCTYPE svg PUBLIC "-//W3C//DTD SVG 1.1//EN" "http://www.w3.org/Graphics/SVG/1.1/DTD/svg11.dtd">
<svg version="1.1" fill="rgba(0,0,0,0.2)" id="Layer_1" xmlns="http://www.w3.org/2000/svg" xmlns:xlink="http://www.w3.org/1999/xlink" x="0px" y="0px"
	 width="2000px" height="2000px" viewBox="0 0 2000 2000" enable-background="new 0 0 2000 2000" xml:space="preserve">
<g>
	<g>
		<path d="M1904.288,952.95c6.829,0.002,12.167,2.44,16.012,7.313c4.583,5.772,6.874,15.343,6.87,28.71
			c-0.003,13.337-2.313,22.923-6.932,28.755c-3.816,4.809-9.139,7.212-15.967,7.211c-6.861-0.002-12.391-2.64-16.589-7.914
			c-4.199-5.273-6.297-14.676-6.294-28.205c0.003-13.273,2.314-22.826,6.931-28.66
			C1892.136,955.352,1897.459,952.948,1904.288,952.95z M1904.285,964.155c-1.635,0-3.094,0.52-4.377,1.562
			c-1.283,1.042-2.277,2.909-2.982,5.602c-0.932,3.495-1.397,9.377-1.399,17.648c-0.002,8.272,0.413,13.955,1.247,17.048
			c0.832,3.095,1.882,5.153,3.149,6.179c1.265,1.026,2.717,1.54,4.351,1.54c1.635,0,3.094-0.52,4.377-1.562
			c1.283-1.042,2.276-2.909,2.982-5.602c0.931-3.463,1.398-9.33,1.4-17.601c0.001-8.271-0.415-13.954-1.247-17.049
			c-0.834-3.093-1.883-5.162-3.148-6.204C1907.37,964.677,1905.92,964.155,1904.285,964.155z"/>
	</g>
	<g>
		<path d="M1962.915,952.962c6.829,0.002,12.167,2.44,16.012,7.313c4.583,5.772,6.874,15.343,6.87,28.71
			c-0.003,13.337-2.313,22.923-6.932,28.755c-3.816,4.809-9.139,7.212-15.967,7.211c-6.861-0.001-12.391-2.639-16.589-7.914
			c-4.199-5.274-6.297-14.676-6.294-28.206c0.003-13.273,2.314-22.826,6.931-28.66
			C1950.763,955.365,1956.085,952.961,1962.915,952.962z M1962.912,964.167c-1.635,0-3.094,0.52-4.377,1.562
			c-1.283,1.042-2.277,2.909-2.982,5.602c-0.932,3.495-1.397,9.377-1.399,17.648s0.413,13.955,1.247,17.048
			c0.833,3.094,1.882,5.153,3.149,6.179c1.265,1.026,2.717,1.54,4.351,1.54c1.635,0,3.094-0.52,4.377-1.562
			c1.282-1.041,2.276-2.909,2.982-5.602c0.931-3.463,1.398-9.33,1.4-17.601c0.001-8.271-0.415-13.954-1.247-17.049
			c-0.834-3.093-1.883-5.162-3.148-6.204C1965.997,964.689,1964.547,964.168,1962.912,964.167z"/>
	</g>
	<g>
		<path d="M1877.871,1100.85l13.528-0.469c0.176,3.065,1.146,5.55,2.911,7.454c1.765,1.905,3.881,2.941,6.344,3.11
			c2.814,0.192,5.275-0.787,7.384-2.938c2.107-2.152,3.32-5.533,3.637-10.14c0.297-4.317-0.448-7.622-2.236-9.914
			c-1.786-2.291-4.231-3.544-7.333-3.756c-3.871-0.267-7.459,1.207-10.765,4.418l-10.829-2.334l9.421-36.133l35.649,2.448
			l-0.866,12.618l-25.43-1.745l-2.932,11.801c3.11-1.296,6.23-1.838,9.367-1.622c5.98,0.41,10.9,2.934,14.761,7.57
			c3.857,4.636,5.551,10.424,5.074,17.364c-0.397,5.79-2.433,10.84-6.104,15.151c-5.001,5.892-11.563,8.558-19.687,8.001
			c-6.494-0.446-11.667-2.554-15.522-6.321C1880.391,1111.643,1878.267,1106.79,1877.871,1100.85z"/>
	</g>
	<g>
		<path d="M1936.335,1106.697l13.148-0.545c0.136,2.678,0.834,4.702,2.088,6.073c1.257,1.371,2.988,2.133,5.196,2.284
			c2.781,0.191,5.235-0.925,7.363-3.35c2.127-2.424,3.739-7.649,4.836-15.673c-3.66,3.702-8.034,5.378-13.12,5.028
			c-5.534-0.38-10.162-2.842-13.882-7.389c-3.721-4.546-5.346-10.24-4.876-17.086c0.49-7.133,3.003-12.735,7.542-16.812
			c4.537-4.074,10.084-5.888,16.642-5.436c7.133,0.49,12.796,3.65,16.992,9.483c4.195,5.832,5.858,15.064,4.991,27.699
			c-0.884,12.858-3.905,21.971-9.061,27.337c-5.156,5.367-11.558,7.786-19.201,7.262c-5.504-0.378-9.848-2.149-13.037-5.307
			C1938.767,1117.107,1936.894,1112.583,1936.335,1106.697z M1968.87,1079.332c0.299-4.35-0.469-7.793-2.302-10.328
			c-1.835-2.537-4.063-3.895-6.687-4.075c-2.495-0.172-4.635,0.67-6.416,2.523c-1.782,1.853-2.827,5.02-3.134,9.497
			c-0.313,4.542,0.353,7.938,2,10.189c1.644,2.25,3.812,3.468,6.497,3.652c2.591,0.177,4.844-0.697,6.761-2.622
			C1967.506,1086.246,1968.599,1083.299,1968.87,1079.332z"/>
	</g>
	<g>
		<path d="M1861.245,1191.989l13.508,0.888c-0.133,3.069,0.585,5.636,2.149,7.707c1.565,2.071,3.564,3.315,5.998,3.73
			c2.78,0.474,5.329-0.254,7.642-2.185s3.856-5.172,4.633-9.723c0.727-4.267,0.316-7.629-1.231-10.089
			c-1.548-2.459-3.856-3.95-6.921-4.472c-3.823-0.652-7.541,0.455-11.151,3.319l-10.542-3.406l12.991-35.007l35.223,6.003
			l-2.125,12.468l-25.125-4.282l-4.099,11.447c3.224-0.978,6.385-1.203,9.482-0.676c5.91,1.007,10.552,4.01,13.929,9.008
			c3.375,4.997,4.479,10.926,3.31,17.783c-0.976,5.722-3.505,10.543-7.588,14.465c-5.564,5.36-12.36,7.356-20.387,5.987
			c-6.416-1.094-11.353-3.707-14.811-7.841C1862.671,1202.982,1861.042,1197.938,1861.245,1191.989z"/>
	</g>
	<g>
		<path d="M1933.62,1184.129c-3.198-2.041-5.362-4.466-6.492-7.277c-1.131-2.811-1.438-5.733-0.921-8.767
			c0.884-5.184,3.422-9.156,7.618-11.923c4.194-2.765,9.627-3.579,16.295-2.443c6.604,1.126,11.445,3.69,14.519,7.694
			c3.073,4.004,4.169,8.599,3.285,13.78c-0.55,3.224-1.875,5.948-3.979,8.176c-2.104,2.228-4.785,3.746-8.046,4.556
			c3.593,2.206,6.137,4.965,7.638,8.278c1.501,3.313,1.921,6.912,1.258,10.799c-1.094,6.416-4.029,11.283-8.806,14.597
			c-4.777,3.317-10.563,4.395-17.357,3.238c-6.319-1.077-11.3-3.634-14.937-7.668c-4.294-4.764-5.857-10.56-4.694-17.387
			c0.641-3.76,2.161-7.053,4.563-9.881C1925.961,1187.076,1929.314,1185.154,1933.62,1184.129z M1932.348,1200.743
			c-0.625,3.666-0.172,6.687,1.358,9.061c1.53,2.375,3.702,3.801,6.515,4.281c2.749,0.469,5.193-0.131,7.331-1.8
			c2.139-1.668,3.525-4.367,4.161-8.097c0.554-3.254,0.082-6.025-1.412-8.313c-1.497-2.287-3.651-3.671-6.465-4.151
			c-3.256-0.555-5.873,0.154-7.852,2.126C1934.006,1195.823,1932.794,1198.12,1932.348,1200.743z M1938.655,1171.183
			c-0.453,2.655-0.055,4.852,1.194,6.593c1.248,1.741,3.118,2.824,5.616,3.249c2.527,0.432,4.679,0.026,6.451-1.216
			c1.772-1.242,2.887-3.191,3.339-5.846c0.426-2.496,0.016-4.623-1.228-6.38c-1.247-1.757-3.103-2.846-5.567-3.266
			c-2.56-0.436-4.728-0.025-6.502,1.232C1940.181,1166.808,1939.081,1168.686,1938.655,1171.183z"/>
	</g>
	<g>
		<path d="M1836.719,1279.283l13.28,2.626c-0.527,3.025-0.149,5.665,1.135,7.922c1.284,2.257,3.106,3.748,5.468,4.474
			c2.695,0.83,5.316,0.436,7.859-1.179c2.543-1.616,4.492-4.632,5.85-9.045c1.272-4.137,1.301-7.524,0.082-10.163
			c-1.218-2.639-3.311-4.416-6.284-5.329c-3.709-1.141-7.537-0.522-11.486,1.85l-10.015-4.74l17.405-33.036l34.153,10.505
			l-3.718,12.089l-24.363-7.494l-5.542,10.824c3.323-0.555,6.487-0.37,9.491,0.554c5.729,1.762,9.944,5.34,12.648,10.733
			c2.7,5.393,3.027,11.414,0.982,18.064c-1.706,5.548-4.836,10.002-9.393,13.363c-6.211,4.598-13.208,5.697-20.992,3.304
			c-6.22-1.914-10.778-5.144-13.672-9.691C1836.713,1290.368,1835.751,1285.157,1836.719,1279.283z"/>
	</g>
	<g>
		<path d="M1903.997,1259.322l3.69-11.996l44.174,13.586l-2.884,9.378c-4.75,2.464-10.04,6.472-15.874,12.023
			c-5.834,5.551-10.899,11.801-15.2,18.746c-4.3,6.946-7.348,13.396-9.147,19.35l-12.456-3.831
			c3.079-9.25,7.925-18.159,14.534-26.725s14.123-15.732,22.536-21.497L1903.997,1259.322z"/>
	</g>
	<g>
		<path d="M1802.399,1367.191l12.984,3.828c-0.802,2.965-0.666,5.628,0.407,7.992c1.071,2.365,2.75,4.016,5.033,4.954
			c2.61,1.073,5.254,0.921,7.935-0.455c2.68-1.376,4.897-4.199,6.652-8.472c1.646-4.003,1.982-7.374,1.012-10.112
			c-0.972-2.739-2.895-4.699-5.77-5.882c-3.588-1.474-7.458-1.21-11.607,0.794l-9.539-5.637l20.352-31.306l33.049,13.581
			l-4.808,11.698l-23.574-9.688l-6.509,10.27c3.36-0.248,6.493,0.226,9.398,1.42c5.544,2.278,9.417,6.227,11.614,11.843
			c2.196,5.616,1.973,11.643-0.671,18.077c-2.206,5.367-5.731,9.517-10.574,12.447c-6.606,4.011-13.673,4.468-21.204,1.372
			c-6.021-2.475-10.263-6.106-12.73-10.899C1801.38,1378.229,1800.898,1372.952,1802.399,1367.191z"/>
	</g>
	<g>
		<path d="M1912.135,1374.334l-12.647-3.637c0.729-2.613,0.712-4.767-0.046-6.466c-0.759-1.698-2.132-2.955-4.118-3.772
			c-2.639-1.085-5.356-0.815-8.155,0.807c-2.798,1.623-5.978,6.089-9.534,13.395c4.625-2.396,9.251-2.644,13.876-0.745
			c5.218,2.145,8.871,5.97,10.961,11.472c2.088,5.504,1.842,11.397-0.742,17.685c-2.741,6.673-6.898,11.22-12.47,13.644
			c-5.573,2.425-11.427,2.376-17.565-0.148c-6.583-2.705-10.943-7.486-13.082-14.344c-2.138-6.858-0.812-16.113,3.977-27.769
			c4.91-11.949,10.659-19.656,17.247-23.119c6.587-3.463,13.41-3.743,20.467-0.843c4.951,2.034,8.48,5.106,10.59,9.212
			C1913,1363.817,1913.414,1368.693,1912.135,1374.334z M1872.597,1389.958c-1.67,4.063-2.024,7.583-1.065,10.558
			c0.96,2.977,2.642,4.959,5.042,5.946c2.313,0.951,4.613,0.837,6.897-0.338c2.285-1.175,4.275-3.822,5.97-7.944
			c1.741-4.239,2.19-7.688,1.338-10.343c-0.851-2.653-2.52-4.493-5.011-5.518c-2.402-0.987-4.82-0.879-7.254,0.32
			C1876.079,1383.841,1874.108,1386.281,1872.597,1389.958z"/>
	</g>
	<g>
		<path d="M1759.667,1447.699l12.413,5.397c-1.16,2.842-1.353,5.502-0.578,7.98c0.775,2.478,2.236,4.324,4.386,5.537
			c2.458,1.385,5.102,1.56,7.932,0.522c2.828-1.036,5.375-3.565,7.643-7.586c2.126-3.771,2.874-7.074,2.248-9.911
			c-0.628-2.838-2.297-5.021-5.006-6.546c-3.38-1.905-7.25-2.119-11.615-0.643l-8.771-6.766l24.049-28.561l31.124,17.544
			l-6.209,11.017l-22.202-12.515l-7.721,9.393c3.364,0.167,6.415,1.021,9.152,2.564c5.222,2.942,8.578,7.336,10.067,13.182
			c1.489,5.845,0.527,11.796-2.89,17.855c-2.849,5.055-6.857,8.74-12.026,11.053c-7.047,3.168-14.117,2.752-21.211-1.246
			c-5.669-3.196-9.435-7.323-11.292-12.382C1757.298,1458.526,1757.467,1453.232,1759.667,1447.699z"/>
	</g>
	<g>
		<path d="M1810.737,1476.485l12.414,5.397c-1.161,2.842-1.354,5.501-0.58,7.98c0.774,2.479,2.236,4.324,4.388,5.536
			c2.457,1.385,5.099,1.56,7.93,0.523c2.828-1.036,5.377-3.564,7.644-7.586c2.125-3.77,2.873-7.076,2.247-9.912
			c-0.629-2.837-2.297-5.02-5.006-6.546c-3.379-1.903-7.251-2.118-11.616-0.643l-8.771-6.766l24.048-28.561l31.125,17.543
			l-6.21,11.018l-22.203-12.514l-7.722,9.393c3.365,0.167,6.415,1.022,9.152,2.565c5.222,2.942,8.578,7.336,10.069,13.181
			c1.488,5.844,0.526,11.797-2.89,17.855c-2.85,5.057-6.858,8.74-12.024,11.052c-7.048,3.167-14.118,2.752-21.211-1.246
			c-5.671-3.195-9.435-7.323-11.293-12.382C1808.37,1487.312,1808.538,1482.017,1810.737,1476.485z"/>
	</g>
	<g>
		<path d="M1708.335,1525.081l11.858,6.529c-1.421,2.723-1.86,5.353-1.319,7.894s1.824,4.513,3.853,5.921
			c2.318,1.608,4.934,2.026,7.849,1.258c2.913-0.769,5.687-3.049,8.317-6.843c2.468-3.557,3.519-6.776,3.16-9.659
			c-0.36-2.884-1.819-5.213-4.373-6.984c-3.188-2.212-7.022-2.784-11.508-1.721l-8.103-7.552l26.604-26.204l29.358,20.366
			l-7.21,10.393l-20.942-14.526l-8.564,8.632c3.335,0.48,6.292,1.614,8.875,3.406c4.925,3.417,7.857,8.105,8.798,14.063
			c0.938,5.958-0.573,11.797-4.539,17.514c-3.308,4.769-7.642,8.063-13.002,9.885c-7.313,2.497-14.314,1.426-21.005-3.217
			c-5.347-3.709-8.711-8.169-10.091-13.379C1704.968,1535.644,1705.629,1530.387,1708.335,1525.081z"/>
	</g>
	<g>
		<path d="M1767.787,1588.389l8.086-11.656l-23.708-16.446l6.743-9.721l50.651-19.354l9.325,6.469l-25.49,36.749l7.19,4.987
			l-6.77,9.761l-7.192-4.988l-8.086,11.656L1767.787,1588.389z M1782.644,1566.971l13.733-19.797l-27.049,10.559L1782.644,1566.971z
			"/>
	</g>
	<g>
		<path d="M1650.376,1596.039l10.91,8.016c-1.763,2.515-2.54,5.066-2.335,7.654c0.205,2.589,1.222,4.714,3.05,6.372
			c2.09,1.896,4.628,2.652,7.616,2.27c2.988-0.385,6.034-2.285,9.136-5.705c2.909-3.205,4.372-6.261,4.39-9.166
			c0.018-2.906-1.125-5.404-3.428-7.494c-2.872-2.607-6.602-3.674-11.186-3.201l-7.053-8.545l29.784-22.519l26.461,24.01
			l-8.499,9.367l-18.875-17.127l-9.613,7.445c3.244,0.909,6.029,2.419,8.356,4.531c4.438,4.028,6.738,9.059,6.895,15.087
			c0.155,6.028-2.102,11.621-6.777,16.772c-3.899,4.298-8.626,7.001-14.178,8.11c-7.574,1.524-14.377-0.448-20.407-5.921
			c-4.821-4.375-7.576-9.232-8.267-14.578C1645.666,1606.073,1647.006,1600.946,1650.376,1596.039z"/>
	</g>
	<g>
		<path d="M1693.684,1634.556l10.753,7.615c-1.933,2.749-2.814,5.391-2.645,7.923c0.167,2.535,1.214,4.674,3.136,6.419
			c2.065,1.874,4.516,2.668,7.351,2.382c2.834-0.284,5.457-1.757,7.871-4.416c2.282-2.516,3.416-5.124,3.398-7.825
			c-0.018-2.698-1.001-4.932-2.946-6.698c-1.282-1.165-3.042-2.304-5.275-3.421l8.504-7.153c2.644,2.526,5.24,3.814,7.797,3.86
			c2.555,0.046,4.77-0.964,6.645-3.03c1.594-1.755,2.341-3.633,2.245-5.625c-0.097-1.992-1.012-3.773-2.745-5.347
			c-1.709-1.552-3.708-2.283-5.995-2.194c-2.288,0.088-4.599,1.152-6.926,3.195l-7.803-9.937c3.507-2.576,6.763-4.223,9.771-4.935
			c3.005-0.714,6.156-0.559,9.452,0.462c3.295,1.02,6.378,2.833,9.251,5.44c4.914,4.46,7.434,9.602,7.557,15.429
			c0.119,4.783-1.287,8.79-4.216,12.019c-4.158,4.581-9.98,5.965-17.467,4.15c2.409,3.354,3.497,6.962,3.265,10.818
			c-0.231,3.859-1.781,7.367-4.647,10.524c-4.158,4.582-9.376,6.97-15.652,7.161c-6.277,0.192-11.909-1.976-16.895-6.499
			c-4.725-4.288-7.409-9.201-8.052-14.741C1688.774,1644.593,1690.197,1639.4,1693.684,1634.556z"/>
	</g>
	<g>
		<path d="M1583.399,1660.766l10.281,8.806c-1.943,2.375-2.909,4.861-2.898,7.458c0.013,2.597,0.868,4.79,2.568,6.58
			c1.941,2.045,4.417,2.99,7.427,2.829c3.008-0.16,6.189-1.829,9.536-5.008c3.138-2.979,4.825-5.917,5.058-8.813
			c0.233-2.898-0.72-5.474-2.86-7.73c-2.67-2.814-6.31-4.154-10.915-4.025l-6.398-9.044l31.379-20.238l24.6,25.914l-9.172,8.707
			l-17.547-18.483l-10.142,6.709c3.168,1.148,5.833,2.861,7.996,5.142c4.127,4.347,6.044,9.535,5.752,15.558
			c-0.293,6.025-2.962,11.431-8.009,16.221c-4.209,3.995-9.121,6.34-14.741,7.032c-7.668,0.956-14.304-1.518-19.911-7.425
			c-4.479-4.72-6.865-9.772-7.157-15.152C1577.956,1670.419,1579.673,1665.409,1583.399,1660.766z"/>
	</g>
	<g>
		<path d="M1651.002,1740.085l-9.103,8.641l-32.61-34.354c3.793-2.895,8.115-4.874,12.962-5.937
			c4.845-1.065,12.42-1.271,22.72-0.616c8.309,0.51,13.671,0.571,16.085,0.182c3.303-0.573,5.942-1.797,7.918-3.672
			c2.186-2.075,3.308-4.257,3.367-6.546c0.06-2.288-0.893-4.467-2.856-6.536c-1.943-2.047-4.104-3.091-6.483-3.129
			c-2.381-0.039-5.088,1.205-8.126,3.733l-8.292-10.692c5.945-4.539,11.549-6.388,16.811-5.548
			c5.263,0.84,10.078,3.561,14.448,8.165c4.79,5.046,7.192,10.3,7.21,15.766c0.017,5.465-1.998,10.119-6.044,13.959
			c-2.302,2.185-4.886,3.853-7.749,5.002c-2.866,1.151-6.287,1.912-10.265,2.284c-2.639,0.249-6.843,0.172-12.613-0.226
			c-5.772-0.399-9.517-0.571-11.23-0.514c-1.713,0.058-3.254,0.249-4.623,0.577L1651.002,1740.085z"/>
	</g>
	<g>
		<path d="M1510.236,1720.426l9.617,9.527c-2.112,2.228-3.255,4.638-3.431,7.229c-0.177,2.59,0.519,4.84,2.083,6.749
			c1.79,2.182,4.189,3.302,7.204,3.361c3.012,0.058,6.303-1.376,9.873-4.305c3.348-2.743,5.24-5.554,5.685-8.425
			c0.445-2.871-0.321-5.51-2.293-7.915c-2.46-3-5.992-4.601-10.597-4.807l-5.725-9.484l32.763-17.913l22.657,27.628l-9.78,8.019
			l-16.162-19.707l-10.602,5.957c3.077,1.376,5.611,3.276,7.603,5.707c3.802,4.635,5.338,9.946,4.611,15.935
			c-0.73,5.986-3.784,11.187-9.162,15.598c-4.487,3.681-9.559,5.662-15.212,5.946c-7.718,0.398-14.157-2.55-19.32-8.846
			c-4.128-5.032-6.142-10.242-6.04-15.632C1504.105,1729.661,1506.182,1724.786,1510.236,1720.426z"/>
	</g>
	<g>
		<path d="M1555.199,1803.843l-8.569-10.449l39.378-32.294c-6.701-0.89-13.031-3.224-18.988-7.003l9.481-7.776
			c3.13,1.994,7.25,3.569,12.364,4.724c5.114,1.156,9.819,0.966,14.117-0.57l6.953,8.48L1555.199,1803.843z"/>
	</g>
	<g>
		<path d="M1435.07,1764.251l7.749,11.101c-2.478,1.812-4.036,3.978-4.676,6.495c-0.64,2.517-0.36,4.854,0.837,7.014
			c1.367,2.468,3.528,4.001,6.481,4.6c2.951,0.601,6.447-0.219,10.486-2.458c3.783-2.098,6.153-4.52,7.105-7.265
			c0.952-2.746,0.675-5.479-0.832-8.198c-1.882-3.394-5.067-5.605-9.562-6.632l-3.927-10.36l35.45-11.732l17.322,31.25
			l-11.062,6.133l-12.356-22.292l-11.498,3.956c2.777,1.903,4.93,4.231,6.452,6.98c2.906,5.242,3.463,10.744,1.671,16.503
			c-1.793,5.76-5.731,10.326-11.816,13.698c-5.075,2.813-10.42,3.852-16.032,3.115c-7.663-0.994-13.469-5.054-17.416-12.176
			c-3.155-5.692-4.199-11.18-3.134-16.463C1427.379,1772.234,1430.298,1767.813,1435.07,1764.251z"/>
	</g>
	<g>
		<path d="M1520.53,1809.81c3.312,5.972,3.768,11.821,1.371,17.549c-2.826,6.808-10.083,13.451-21.776,19.933
			c-11.665,6.466-21.168,9.095-28.51,7.887c-6.057-1.008-10.738-4.494-14.048-10.467c-3.327-6.002-3.703-12.117-1.125-18.345
			c2.575-6.23,9.78-12.625,21.613-19.185c11.608-6.436,21.082-9.048,28.426-7.84
			C1512.535,1800.347,1517.218,1803.836,1520.53,1809.81z M1510.729,1815.241c-0.792-1.43-1.957-2.453-3.487-3.069
			c-1.534-0.617-3.648-0.581-6.346,0.107c-3.508,0.881-8.877,3.326-16.113,7.336c-7.233,4.01-12.002,7.13-14.303,9.359
			c-2.304,2.229-3.595,4.145-3.878,5.75c-0.282,1.605-0.027,3.123,0.765,4.553c0.792,1.43,1.954,2.453,3.487,3.069
			c1.533,0.617,3.648,0.581,6.346-0.107c3.479-0.865,8.835-3.305,16.069-7.314c7.235-4.011,12.001-7.129,14.305-9.356
			c2.3-2.229,3.601-4.15,3.897-5.764C1511.77,1818.193,1511.522,1816.671,1510.729,1815.241z"/>
	</g>
	<g>
		<path d="M1346.293,1838.269l12.95-5.792l-11.782-26.341l10.8-4.83l53.359,9.641l4.633,10.36l-40.827,18.261l3.573,7.988
			l-10.843,4.85l-3.573-7.989l-12.95,5.793L1346.293,1838.269z M1370.087,1827.625l21.994-9.837l-28.611-4.958L1370.087,1827.625z"
			/>
	</g>
	<g>
		<path d="M1374.411,1861.206l6.659,11.353c-2.3,1.38-3.759,2.945-4.379,4.698c-0.621,1.751-0.48,3.639,0.424,5.657
			c1.139,2.547,3.278,4.189,6.418,4.927c3.141,0.737,8.509-0.294,16.106-3.095c-4.987-1.492-8.521-4.564-10.602-9.218
			c-2.265-5.063-2.266-10.307-0.001-15.727s6.528-9.53,12.791-12.332c6.527-2.919,12.654-3.334,18.385-1.242
			c5.729,2.091,9.937,6.137,12.62,12.136c2.919,6.526,2.789,13.01-0.388,19.455c-3.177,6.442-10.546,12.25-22.106,17.421
			c-11.766,5.263-21.229,6.878-28.391,4.847c-7.159-2.031-12.304-6.544-15.432-13.537c-2.251-5.035-2.732-9.701-1.441-14.002
			C1366.365,1868.246,1369.476,1864.467,1374.411,1861.206z M1413.853,1877.071c3.98-1.78,6.66-4.075,8.036-6.887
			c1.377-2.811,1.529-5.417,0.456-7.816c-1.021-2.281-2.77-3.774-5.243-4.477s-5.76-0.137-9.858,1.695
			c-4.155,1.859-6.841,4.044-8.053,6.553c-1.215,2.51-1.271,4.993-0.171,7.452c1.061,2.37,2.89,3.948,5.49,4.734
			C1407.111,1879.113,1410.224,1878.694,1413.853,1877.071z"/>
	</g>
	<g>
		<path d="M1256.862,1868.724l13.55-4.202l-8.546-27.561l11.301-3.504l51.823,15.953l3.362,10.84l-42.721,13.248l2.593,8.359
			l-11.347,3.519l-2.594-8.359l-13.55,4.202L1256.862,1868.724z M1281.758,1861.005l23.013-7.137l-27.812-8.343L1281.758,1861.005z"
			/>
	</g>
	<g>
		<path d="M1306.146,1899.217c0.373-3.775,1.558-6.804,3.552-9.083c1.993-2.28,4.463-3.877,7.402-4.788
			c5.021-1.557,9.716-1.09,14.078,1.4c4.364,2.491,7.548,6.965,9.552,13.427c1.984,6.399,1.887,11.877-0.294,16.43
			c-2.18,4.553-5.78,7.608-10.802,9.165c-3.124,0.969-6.154,1.018-9.093,0.15c-2.938-0.868-5.505-2.571-7.703-5.113
			c-0.343,4.201-1.65,7.72-3.927,10.558c-2.275,2.838-5.296,4.839-9.063,6.006c-6.218,1.928-11.885,1.512-17.003-1.248
			c-5.119-2.76-8.699-7.432-10.74-14.015c-1.899-6.125-1.875-11.723,0.078-16.791c2.306-5.986,6.767-10.004,13.38-12.056
			c3.645-1.13,7.27-1.264,10.878-0.4C1300.054,1893.721,1303.286,1895.841,1306.146,1899.217z M1290.754,1905.6
			c-3.553,1.103-6.042,2.873-7.467,5.312c-1.426,2.438-1.715,5.021-0.87,7.747c0.826,2.664,2.467,4.571,4.921,5.724
			c2.455,1.152,5.49,1.167,9.104,0.047c3.154-0.979,5.412-2.651,6.776-5.021c1.361-2.371,1.622-4.917,0.777-7.643
			c-0.979-3.154-2.795-5.168-5.448-6.04C1295.892,1904.854,1293.297,1904.812,1290.754,1905.6z M1319.97,1897.85
			c-2.572,0.797-4.354,2.145-5.34,4.048c-0.989,1.9-1.107,4.061-0.356,6.48c0.759,2.449,2.095,4.183,4.005,5.202
			s4.152,1.13,6.725,0.332c2.418-0.75,4.129-2.078,5.134-3.983c1.004-1.906,1.136-4.053,0.394-6.441
			c-0.77-2.481-2.116-4.228-4.042-5.241C1324.562,1897.232,1322.389,1897.1,1319.97,1897.85z"/>
	</g>
	<g>
		<path d="M1162.647,1891.47l13.833-3.141l-6.388-28.137l11.537-2.619l50.431,19.913l2.513,11.066l-43.613,9.902l1.938,8.534
			l-11.583,2.63l-1.937-8.535l-13.833,3.141L1162.647,1891.47z M1188.063,1885.701l23.495-5.334l-27.083-10.47L1188.063,1885.701z"
			/>
	</g>
	<g>
		<path d="M1225.33,1910.184l12.238-2.778l10.233,45.066l-9.567,2.172c-4.503-2.891-10.612-5.481-18.333-7.772
			c-7.719-2.291-15.661-3.568-23.826-3.837c-8.164-0.267-15.275,0.304-21.333,1.713l-2.885-12.708
			c9.551-1.939,19.688-2.178,30.409-0.717c10.721,1.463,20.676,4.403,29.866,8.826L1225.33,1910.184z"/>
	</g>
	<g>
		<path d="M1069.1,1904.052l14.121-1.363l-2.773-28.721l11.775-1.137l47.507,26.143l1.092,11.297l-44.518,4.297l0.841,8.713
			l-11.824,1.142l-0.841-8.713l-14.121,1.363L1069.1,1904.052z M1095.047,1901.548l23.98-2.314l-25.538-13.818L1095.047,1901.548z"
			/>
	</g>
	<g>
		<path d="M1129.577,1976.493l-2.693-12.881c2.65-0.578,4.548-1.6,5.697-3.062c1.146-1.465,1.617-3.265,1.411-5.403
			c-0.274-2.841-1.783-5.117-4.525-6.835c-2.743-1.715-8.176-2.439-16.3-2.171c4.28,2.969,6.662,6.942,7.144,11.92
			c0.542,5.615-1.132,10.633-5.023,15.052s-9.219,6.955-15.983,7.608c-7.181,0.692-13.146-0.857-17.892-4.651
			c-4.746-3.794-7.438-8.993-8.076-15.599c-0.684-7.085,1.507-13.176,6.571-18.27c5.063-5.097,13.866-8.249,26.409-9.459
			c12.859-1.241,22.361,0.24,28.5,4.448c6.139,4.206,9.577,10.106,10.309,17.702c0.515,5.329-0.552,9.884-3.197,13.668
			C1139.283,1972.344,1135.164,1974.987,1129.577,1976.493z M1097.291,1948.833c-4.373,0.422-7.65,1.753-9.833,3.993
			c-2.184,2.24-3.15,4.652-2.901,7.238c0.24,2.489,1.413,4.469,3.519,5.939c2.107,1.472,5.379,1.994,9.815,1.565
			c4.563-0.44,7.818-1.657,9.77-3.649c1.949-1.991,2.796-4.327,2.538-7.008c-0.25-2.585-1.475-4.673-3.673-6.265
			C1104.325,1949.055,1101.247,1948.452,1097.291,1948.833z"/>
	</g>
	<g>
		<path d="M974.745,1906.291l14.185-0.151l-0.308-28.851l11.829-0.126l45.094,30.104l0.122,11.349l-44.72,0.477l0.094,8.752
			l-11.877,0.127l-0.094-8.752l-14.185,0.151L974.745,1906.291z M1000.806,1906.013l24.091-0.258l-24.265-15.946L1000.806,1906.013z
			"/>
	</g>
	<g>
		<path d="M993.217,1938.417l1.539,13.449c-3.042,0.417-5.441,1.58-7.2,3.491c-1.759,1.91-2.626,4.099-2.599,6.568
			c0.029,2.82,1.201,5.196,3.516,7.128c2.313,1.931,5.777,2.871,10.393,2.822c4.328-0.046,7.563-1.052,9.706-3.013
			c2.143-1.964,3.198-4.5,3.164-7.609c-0.042-3.88-1.793-7.339-5.256-10.379l1.469-10.981l36.763,6.532l0.383,35.728l-12.646,0.135
			l-0.273-25.485l-11.995-1.987c1.538,2.996,2.325,6.066,2.358,9.208c0.063,5.995-2.063,11.098-6.377,15.313
			c-4.315,4.213-9.95,6.359-16.906,6.433c-5.803,0.062-10.997-1.565-15.586-4.884c-6.269-4.519-9.446-10.848-9.532-18.99
			c-0.07-6.508,1.62-11.832,5.071-15.973C982.659,1941.784,987.329,1939.282,993.217,1938.417z"/>
	</g>
	<g>
		<path d="M879.752,1898.948l14.114,1.438l2.923-28.706l11.771,1.199l41.444,34.964l-1.149,11.291l-44.494-4.531l-0.887,8.708
			l-11.818-1.203l0.887-8.707l-14.114-1.438L879.752,1898.948z M905.683,1901.589l23.97,2.442l-22.326-18.565L905.683,1901.589z"/>
	</g>
	<g>
		<path d="M873.812,1957.275l14.114,1.438l2.925-28.705l11.77,1.197l41.443,34.964l-1.15,11.292l-44.494-4.531l-0.887,8.707
			l-11.818-1.202l0.887-8.707l-14.114-1.438L873.812,1957.275z M899.743,1959.917l23.969,2.442l-22.326-18.565L899.743,1959.917z"/>
	</g>
	<g>
		<path d="M786.662,1878.776l13.824,3.189l6.484-28.117l11.528,2.658l36.755,39.864l-2.55,11.059l-43.581-10.05l-1.966,8.529
			l-11.576-2.669l1.966-8.529l-13.823-3.188L786.662,1878.776z M812.06,1884.633l23.478,5.414l-19.836-21.207L812.06,1884.633z"/>
	</g>
	<g>
		<path d="M797.78,1913.821l-1.394,13.104c-3.343-0.344-6.078,0.177-8.207,1.561c-2.128,1.385-3.485,3.342-4.068,5.872
			c-0.627,2.719-0.125,5.245,1.509,7.579c1.635,2.333,4.201,3.904,7.699,4.711c3.312,0.763,6.141,0.478,8.488-0.855
			c2.348-1.335,3.816-3.282,4.406-5.844c0.39-1.687,0.527-3.778,0.411-6.272l10.395,3.928c-0.915,3.54-0.769,6.436,0.438,8.688
			c1.208,2.254,3.171,3.693,5.889,4.319c2.312,0.532,4.313,0.271,6.005-0.786c1.692-1.059,2.801-2.727,3.326-5.008
			c0.519-2.25,0.181-4.351-1.014-6.304c-1.197-1.953-3.252-3.448-6.173-4.483l4.86-11.661c3.96,1.801,6.987,3.84,9.078,6.115
			c2.091,2.274,3.496,5.1,4.215,8.474c0.718,3.374,0.642,6.95-0.231,10.731c-1.49,6.467-4.747,11.177-9.773,14.132
			c-4.116,2.439-8.299,3.169-12.547,2.189c-6.029-1.391-10.081-5.797-12.153-13.216c-1.751,3.743-4.368,6.453-7.847,8.135
			c-3.482,1.681-7.3,2.044-11.453,1.086c-6.031-1.391-10.662-4.778-13.894-10.163c-3.233-5.385-4.093-11.356-2.58-17.917
			c1.434-6.218,4.41-10.961,8.931-14.227C786.623,1914.439,791.848,1913.145,797.78,1913.821z"/>
	</g>
	<g>
		<path d="M695.922,1851.766l13.397,4.661l9.482-27.25l11.173,3.887l32.233,43.598l-3.73,10.719l-42.239-14.698l-2.876,8.266
			l-11.218-3.903l2.876-8.266l-13.397-4.662L695.922,1851.766z M720.536,1860.33l22.756,7.918l-17.431-23.224L720.536,1860.33z"/>
	</g>
	<g>
		<path d="M682.22,1929.336l-11.853-4.123l15.566-44.736c4.312,2.044,8.054,4.975,11.223,8.792s6.826,10.453,10.972,19.906
			c3.356,7.617,5.764,12.408,7.218,14.375c2.023,2.671,4.321,4.456,6.895,5.352c2.846,0.99,5.3,0.987,7.36-0.011
			c2.062-0.997,3.561-2.844,4.499-5.536c0.926-2.666,0.861-5.064-0.196-7.198c-1.057-2.133-3.405-3.967-7.045-5.505l5.696-12.275
			c6.76,3.202,10.975,7.332,12.643,12.393c1.667,5.06,1.459,10.589-0.628,16.584c-2.286,6.57-5.853,11.116-10.702,13.638
			c-4.85,2.52-9.907,2.866-15.176,1.032c-2.998-1.043-5.664-2.573-8-4.591c-2.337-2.019-4.582-4.709-6.737-8.073
			c-1.432-2.229-3.294-6-5.586-11.313c-2.294-5.313-3.857-8.718-4.695-10.214c-0.836-1.496-1.716-2.778-2.634-3.842L682.22,1929.336
			z"/>
	</g>
	<g>
		<path d="M609.198,1813.521l12.73,6.257l12.728-25.893l10.617,5.219l26.688,47.196l-5.006,10.185l-40.136-19.728l-3.859,7.854
			l-10.66-5.24l3.861-7.853l-12.73-6.258L609.198,1813.521z M632.588,1825.018l21.621,10.628l-14.473-25.171L632.588,1825.018z"/>
	</g>
	<g>
		<path d="M579.773,1873.385l5.96-12.128l45.702,22.464c-1.965-6.467-2.462-13.194-1.491-20.184l11.005,5.409
			c-0.521,3.674-0.247,8.076,0.82,13.21c1.068,5.133,3.189,9.336,6.366,12.612l-4.836,9.84L579.773,1873.385z"/>
	</g>
	<g>
		<path d="M523.629,1772.881l12.131,7.356l14.961-24.673l10.116,6.134l22.426,49.366l-5.885,9.705l-38.242-23.189l-4.538,7.484
			l-10.156-6.158l4.538-7.484l-12.131-7.354L523.629,1772.881z M545.916,1786.396l20.601,12.492l-12.199-26.351L545.916,1786.396z"
			/>
	</g>
	<g>
		<path d="M555.658,1856.591c-3.54,5.84-8.393,9.14-14.554,9.903c-7.311,0.929-16.683-2.073-28.115-9.006
			c-11.403-6.915-18.403-13.859-20.999-20.832c-2.135-5.756-1.431-11.554,2.109-17.392c3.558-5.866,8.68-9.228,15.367-10.085
			c6.686-0.856,15.813,2.221,27.383,9.236c11.35,6.883,18.32,13.81,20.918,20.783
			C559.902,1844.953,559.198,1850.751,555.658,1856.591z M546.077,1850.78c0.847-1.397,1.158-2.916,0.932-4.552
			c-0.226-1.638-1.308-3.456-3.246-5.455c-2.506-2.608-7.295-6.054-14.367-10.343c-7.073-4.289-12.147-6.88-15.226-7.771
			c-3.078-0.892-5.383-1.062-6.917-0.51c-1.533,0.551-2.725,1.525-3.572,2.924c-0.848,1.398-1.16,2.915-0.934,4.553
			s1.308,3.454,3.244,5.454c2.479,2.591,7.254,6.031,14.327,10.319c7.073,4.288,12.148,6.878,15.227,7.77s5.392,1.065,6.938,0.522
			C544.029,1853.147,545.23,1852.179,546.077,1850.78z"/>
	</g>
	<g>
		<path d="M476.373,1709.456l-6.651,11.374c-2.908-1.687-5.615-2.335-8.124-1.947c-2.51,0.388-4.55,1.616-6.122,3.685
			c-1.687,2.22-2.267,4.73-1.735,7.529c0.532,2.799,2.226,5.285,5.085,7.458c2.705,2.056,5.402,2.957,8.091,2.704
			c2.689-0.251,4.826-1.425,6.418-3.518c1.048-1.379,2.031-3.229,2.949-5.551l7.865,7.851c-2.287,2.852-3.344,5.552-3.167,8.104
			c0.176,2.549,1.375,4.669,3.595,6.356c1.888,1.434,3.821,2.019,5.798,1.75c1.977-0.271,3.674-1.337,5.089-3.2
			c1.397-1.838,1.952-3.892,1.665-6.164c-0.287-2.272-1.549-4.48-3.786-6.622l9.221-8.636c2.871,3.269,4.792,6.37,5.764,9.304
			c0.973,2.932,1.093,6.084,0.362,9.456c-0.73,3.371-2.268,6.602-4.615,9.689c-4.017,5.284-8.92,8.24-14.714,8.871
			c-4.755,0.533-8.868-0.518-12.34-3.156c-4.927-3.743-6.811-9.426-5.652-17.04c-3.134,2.692-6.633,4.089-10.496,4.193
			c-3.864,0.104-7.494-1.135-10.89-3.713c-4.926-3.744-7.758-8.736-8.493-14.973c-0.737-6.237,0.932-12.035,5.006-17.395
			c3.86-5.081,8.522-8.182,13.986-9.304C465.947,1705.436,471.243,1706.403,476.373,1709.456z"/>
	</g>
	<g>
		<path d="M438.519,1755.29l-6.768,11.287c-2.313-1.354-4.387-1.884-6.223-1.587c-1.835,0.297-3.422,1.324-4.76,3.086
			c-1.688,2.221-2.103,4.885-1.243,7.995c0.858,3.107,4.341,7.323,10.442,12.648c-1.084-5.093-0.084-9.667,3.001-13.727
			c3.357-4.415,7.954-6.932,13.796-7.544c5.844-0.614,11.494,1.155,16.956,5.307c5.69,4.325,8.995,9.503,9.91,15.533
			c0.913,6.029-0.618,11.66-4.595,16.894c-4.325,5.692-10.076,8.689-17.254,8.994c-7.178,0.303-15.807-3.375-25.889-11.038
			c-10.262-7.798-16.219-15.326-17.872-22.58c-1.652-7.259-0.161-13.936,4.476-20.036c3.337-4.39,7.201-7.051,11.592-7.981
			C428.481,1751.609,433.29,1752.526,438.519,1755.29z M443.52,1797.508c3.471,2.638,6.77,3.886,9.897,3.746
			c3.127-0.14,5.485-1.257,7.075-3.35c1.513-1.992,1.985-4.239,1.415-6.748c-0.571-2.508-2.644-5.12-6.218-7.835
			c-3.624-2.754-6.829-4.063-9.612-3.922c-2.784,0.138-4.99,1.281-6.619,3.424c-1.571,2.068-2.079,4.432-1.521,7.09
			C438.493,1792.571,440.355,1795.102,443.52,1797.508z"/>
	</g>
	<g>
		<path d="M405.515,1649.495l-7.535,10.808c-2.764-1.912-5.411-2.774-7.943-2.588c-2.532,0.186-4.663,1.249-6.395,3.186
			c-1.86,2.079-2.636,4.533-2.331,7.367c0.308,2.832,1.797,5.444,4.475,7.838c2.533,2.265,5.151,3.379,7.85,3.342
			c2.701-0.037,4.927-1.036,6.679-2.996c1.155-1.291,2.282-3.058,3.382-5.299l7.217,8.453c-2.508,2.662-3.776,5.269-3.805,7.825
			c-0.026,2.555,0.999,4.762,3.078,6.621c1.769,1.581,3.647,2.315,5.641,2.205c1.993-0.112,3.768-1.039,5.327-2.783
			c1.538-1.723,2.256-3.727,2.151-6.014s-1.187-4.588-3.247-6.903l9.88-7.874c2.601,3.488,4.27,6.731,5.005,9.731
			c0.735,3.002,0.605,6.155-0.391,9.457c-0.997,3.303-2.787,6.399-5.373,9.29c-4.423,4.947-9.547,7.504-15.375,7.671
			c-4.781,0.153-8.799-1.224-12.048-4.13c-4.613-4.124-6.038-9.937-4.277-17.437c-3.338,2.434-6.939,3.547-10.798,3.344
			c-3.859-0.205-7.379-1.729-10.558-4.569c-4.612-4.125-7.038-9.325-7.274-15.602c-0.238-6.275,1.888-11.924,6.376-16.942
			c4.252-4.757,9.146-7.477,14.683-8.16C395.442,1644.658,400.645,1646.043,405.515,1649.495z"/>
	</g>
	<g>
		<path d="M372.801,1715.083c3.428-1.621,6.634-2.163,9.616-1.626c2.981,0.536,5.62,1.832,7.915,3.883
			c3.919,3.505,5.934,7.769,6.046,12.791c0.11,5.022-2.09,10.057-6.599,15.1c-4.466,4.994-9.212,7.729-14.237,8.203
			c-5.026,0.474-9.497-1.042-13.417-4.547c-2.437-2.18-4.041-4.752-4.809-7.717c-0.768-2.967-0.628-6.045,0.42-9.237
			c-3.778,1.869-7.47,2.558-11.071,2.067c-3.604-0.492-6.875-2.053-9.814-4.68c-4.854-4.339-7.412-9.413-7.68-15.22
			c-0.268-5.81,1.896-11.282,6.49-16.42c4.275-4.78,9.087-7.639,14.439-8.573c6.318-1.103,12.059,0.654,17.221,5.272
			c2.845,2.542,4.826,5.581,5.942,9.118C374.378,1707.031,374.225,1710.893,372.801,1715.083z M359.408,1705.171
			c-2.773-2.48-5.571-3.702-8.395-3.669c-2.825,0.031-5.188,1.113-7.091,3.239c-1.859,2.079-2.65,4.469-2.375,7.166
			c0.276,2.698,1.823,5.308,4.643,7.829c2.462,2.201,5.06,3.276,7.792,3.226c2.733-0.051,5.052-1.14,6.954-3.267
			c2.201-2.463,2.992-5.056,2.374-7.779C362.692,1709.193,361.391,1706.945,359.408,1705.171z M381.088,1726.234
			c-2.006-1.795-4.08-2.627-6.22-2.496c-2.137,0.13-4.051,1.14-5.738,3.029c-1.709,1.911-2.51,3.949-2.4,6.111
			c0.109,2.162,1.168,4.14,3.176,5.936c1.888,1.689,3.906,2.472,6.058,2.352c2.15-0.121,4.059-1.112,5.725-2.977
			c1.73-1.937,2.536-3.991,2.414-6.162C383.98,1729.853,382.974,1727.922,381.088,1726.234z"/>
	</g>
	<g>
		<path d="M340.373,1584.754l-8.873,9.741c-2.493-2.255-5.007-3.452-7.542-3.596s-4.787,0.633-6.755,2.328
			c-2.114,1.821-3.201,4.155-3.266,7.005c-0.064,2.846,1.076,5.632,3.421,8.352c2.219,2.575,4.668,4.017,7.351,4.331
			c2.683,0.312,5.019-0.389,7.011-2.105c1.312-1.13,2.658-2.734,4.041-4.814l6.06,9.316c-2.832,2.312-4.426,4.735-4.784,7.266
			c-0.359,2.531,0.373,4.853,2.193,6.966c1.548,1.797,3.319,2.77,5.307,2.918c1.99,0.146,3.872-0.543,5.645-2.07
			c1.748-1.507,2.719-3.402,2.91-5.683c0.191-2.282-0.582-4.703-2.324-7.265l10.816-6.528c2.127,3.795,3.362,7.227,3.703,10.299
			c0.34,3.071-0.197,6.18-1.612,9.325c-1.416,3.146-3.594,5.983-6.533,8.516c-5.026,4.333-10.439,6.205-16.237,5.616
			c-4.763-0.468-8.567-2.353-11.413-5.655c-4.04-4.688-4.701-10.636-1.982-17.844c-3.625,1.98-7.339,2.62-11.14,1.919
			c-3.802-0.704-7.094-2.669-9.877-5.9c-4.04-4.687-5.771-10.157-5.192-16.411c0.579-6.254,3.418-11.58,8.517-15.975
			c4.834-4.165,10.038-6.228,15.616-6.189C331.012,1578.655,335.989,1580.699,340.373,1584.754z"/>
	</g>
	<g>
		<path d="M320.586,1652.34l8.194,9.508l-35.011,30.17l-6.403-7.431c0.441-5.332-0.136-11.945-1.733-19.838
			c-1.596-7.893-4.19-15.509-7.783-22.845c-3.595-7.338-7.433-13.351-11.517-18.04l9.873-8.509
			c6.192,7.53,11.156,16.373,14.892,26.527s5.805,20.328,6.209,30.52L320.586,1652.34z"/>
	</g>
	<g>
		<path d="M281.779,1513.02l-9.69,8.93c-2.285-2.464-4.687-3.875-7.198-4.239c-2.514-0.363-4.824,0.212-6.932,1.729
			c-2.264,1.629-3.552,3.86-3.865,6.691c-0.312,2.832,0.581,5.705,2.679,8.62c1.984,2.757,4.299,4.409,6.943,4.955
			c2.645,0.545,5.033,0.051,7.166-1.484c1.406-1.012,2.888-2.491,4.446-4.442l5.223,9.809c-3.021,2.058-4.822,4.331-5.401,6.82
			c-0.578,2.49-0.052,4.866,1.577,7.13c1.385,1.927,3.062,3.048,5.03,3.37c1.968,0.319,3.904-0.202,5.803-1.569
			c1.873-1.349,3.005-3.151,3.397-5.407c0.391-2.255-0.17-4.736-1.681-7.439l11.346-5.559c1.788,3.966,2.717,7.494,2.789,10.583
			c0.069,3.089-0.737,6.137-2.422,9.147c-1.685,3.011-4.102,5.649-7.25,7.914c-5.388,3.877-10.942,5.269-16.667,4.175
			c-4.703-0.883-8.327-3.093-10.875-6.63c-3.614-5.022-3.752-11.005-0.415-17.949c-3.786,1.657-7.54,1.969-11.264,0.937
			c-3.727-1.033-6.834-3.279-9.324-6.739c-3.614-5.022-4.86-10.623-3.738-16.802c1.122-6.179,4.416-11.235,9.879-15.168
			c5.178-3.728,10.543-5.327,16.097-4.801C272.986,1506.126,277.768,1508.6,281.779,1513.02z"/>
	</g>
	<g>
		<path d="M216.817,1602.312l9.774-8.811c1.834,1.999,3.671,3.125,5.514,3.38c1.842,0.255,3.636-0.245,5.378-1.499
			c2.316-1.668,3.524-4.117,3.627-7.35s-2.008-8.293-6.329-15.175c-0.41,5.192-2.645,9.25-6.704,12.173
			c-4.58,3.295-9.757,4.375-15.532,3.238c-5.775-1.138-10.647-4.462-14.618-9.979c-4.214-5.854-5.876-11.788-4.988-17.798
			c0.888-6.012,4.025-10.954,9.411-14.831c5.777-4.158,12.141-5.331,19.092-3.52c6.951,1.811,14.107,7.829,21.467,18.055
			c7.547,10.486,11.048,19.44,10.505,26.861c-0.543,7.421-3.912,13.362-10.106,17.818c-4.346,3.127-8.818,4.499-13.418,4.117
			C225.288,1608.608,220.931,1606.381,216.817,1602.312z M224.46,1560.493c-2.565-3.565-5.365-5.728-8.4-6.486
			c-3.034-0.757-5.605-0.38-7.713,1.138c-2.03,1.461-3.15,3.473-3.36,6.032c-0.21,2.56,0.985,5.65,3.589,9.269
			c2.678,3.721,5.367,5.921,8.07,6.604c2.703,0.682,5.146,0.236,7.332-1.336c2.107-1.518,3.296-3.628,3.564-6.328
			C227.81,1566.682,226.782,1563.719,224.46,1560.493z"/>
	</g>
	<g>
		<path d="M232.837,1435.206l-10.483,7.981c-2.045-2.666-4.303-4.298-6.77-4.895c-2.468-0.598-4.822-0.24-7.063,1.072
			c-2.408,1.41-3.898,3.509-4.474,6.3c-0.576,2.788,0.043,5.733,1.859,8.832c1.718,2.931,3.868,4.793,6.449,5.585
			c2.581,0.79,5.007,0.522,7.274-0.807c1.494-0.876,3.107-2.212,4.843-4.007l4.28,10.257c-3.204,1.765-5.208,3.858-6.017,6.283
			c-0.809,2.425-0.509,4.841,0.9,7.247c1.199,2.047,2.765,3.322,4.694,3.827c1.932,0.502,3.906,0.163,5.925-1.019
			c1.993-1.166,3.288-2.855,3.889-5.063c0.6-2.211,0.275-4.732-0.976-7.565l11.814-4.472c1.407,4.116,2.004,7.716,1.785,10.799
			c-0.219,3.081-1.31,6.042-3.269,8.882c-1.96,2.837-4.611,5.238-7.959,7.199c-5.726,3.354-11.388,4.219-16.985,2.593
			c-4.6-1.318-8.002-3.857-10.205-7.62c-3.128-5.338-2.706-11.309,1.268-17.909c-3.923,1.296-7.689,1.255-11.303-0.122
			c-3.612-1.375-6.495-3.904-8.65-7.582c-3.128-5.34-3.844-11.032-2.147-17.08c1.696-6.048,5.449-10.772,11.258-14.176
			c5.505-3.226,10.996-4.316,16.476-3.271C224.73,1427.518,229.258,1430.428,232.837,1435.206z"/>
	</g>
	<g>
		<path d="M181.381,1464.685l-10.912,8.011c-1.872-2.433-4.072-3.939-6.604-4.519c-2.531-0.58-4.862-0.245-6.992,1.004
			c-2.434,1.425-3.915,3.621-4.445,6.588c-0.527,2.966,0.374,6.441,2.709,10.426c2.187,3.733,4.664,6.045,7.433,6.931
			c2.769,0.886,5.494,0.544,8.176-1.027c3.348-1.961,5.481-5.199,6.402-9.716l10.262-4.174l12.574,35.158l-30.829,18.063
			l-6.393-10.911l21.99-12.885l-4.228-11.401c-1.839,2.824-4.112,5.03-6.824,6.617c-5.173,3.031-10.659,3.719-16.46,2.064
			c-5.801-1.655-10.46-5.484-13.977-11.486c-2.933-5.006-4.1-10.325-3.496-15.954c0.814-7.685,4.731-13.584,11.757-17.7
			c5.616-3.29,11.077-4.466,16.384-3.525C173.216,1457.188,177.707,1460.001,181.381,1464.685z"/>
	</g>
	<g>
		<path d="M191.486,1353.371l-11.436,6.547c-1.679-2.912-3.704-4.824-6.073-5.737c-2.368-0.915-4.749-0.867-7.141,0.142
			c-2.57,1.084-4.323,2.971-5.258,5.662c-0.935,2.69-0.705,5.69,0.69,8.998c1.319,3.131,3.208,5.258,5.665,6.38
			c2.456,1.121,4.896,1.172,7.317,0.15c1.595-0.672,3.37-1.787,5.323-3.342l2.906,10.726c-3.404,1.333-5.667,3.146-6.784,5.446
			c-1.12,2.298-1.136,4.731-0.053,7.303c0.921,2.185,2.307,3.653,4.155,4.406c1.849,0.751,3.851,0.672,6.006-0.237
			c2.128-0.896,3.633-2.402,4.516-4.515c0.884-2.113,0.891-4.655,0.02-7.628l12.299-2.89c0.858,4.264,0.979,7.912,0.358,10.938
			c-0.619,3.028-2.086,5.82-4.398,8.379c-2.313,2.56-5.257,4.593-8.832,6.1c-6.113,2.578-11.84,2.697-17.178,0.355
			c-4.387-1.907-7.43-4.869-9.124-8.887c-2.404-5.702-1.205-11.564,3.594-17.591c-4.059,0.772-7.787,0.24-11.189-1.596
			c-3.401-1.835-5.931-4.719-7.587-8.648c-2.404-5.701-2.372-11.439,0.1-17.213c2.471-5.774,6.808-9.97,13.011-12.585
			c5.879-2.478,11.466-2.844,16.762-1.095C184.451,1344.688,188.561,1348.167,191.486,1353.371z"/>
	</g>
	<g>
		<path d="M105.341,1369.401l5.513,13.072l26.586-11.214l4.597,10.898l-10.782,53.139l-10.457,4.409l-17.38-41.207l-8.064,3.401
			l-4.615-10.944l8.064-3.4l-5.513-13.072L105.341,1369.401z M115.472,1393.417l9.361,22.198l5.569-28.496L115.472,1393.417z"/>
	</g>
	<g>
		<path d="M156.187,1265.357l-11.631,5.476c-1.408-2.962-3.228-4.978-5.462-6.052c-2.232-1.073-4.552-1.213-6.957-0.417
			c-2.583,0.853-4.436,2.554-5.554,5.098c-1.119,2.544-1.129,5.479-0.029,8.806c1.04,3.147,2.712,5.364,5.014,6.647
			c2.301,1.279,4.67,1.52,7.104,0.714c1.604-0.53,3.416-1.477,5.438-2.835l1.991,10.656c-3.415,1.03-5.755,2.62-7.022,4.769
			c-1.267,2.148-1.473,4.515-0.618,7.099c0.727,2.196,1.959,3.732,3.697,4.608c1.739,0.875,3.693,0.954,5.86,0.237
			c2.139-0.706,3.72-2.053,4.743-4.038c1.023-1.986,1.228-4.459,0.612-7.418l12.186-1.853c0.504,4.214,0.337,7.771-0.5,10.667
			c-0.839,2.895-2.482,5.497-4.932,7.807c-2.45,2.31-5.47,4.057-9.064,5.245c-6.146,2.032-11.725,1.701-16.732-0.99
			c-4.118-2.196-6.848-5.315-8.183-9.354c-1.894-5.731-0.273-11.342,4.862-16.828c-4.007,0.437-7.592-0.373-10.758-2.422
			c-3.165-2.051-5.401-5.051-6.707-9c-1.894-5.731-1.415-11.311,1.437-16.733c2.852-5.422,7.397-9.166,13.633-11.227
			c5.909-1.954,11.373-1.875,16.387,0.241C150.02,1256.367,153.746,1260.068,156.187,1265.357z"/>
	</g>
	<g>
		<path d="M101.878,1283.312l-11.631,5.477c-1.406-2.962-3.228-4.98-5.461-6.052c-2.232-1.073-4.552-1.214-6.957-0.417
			c-2.585,0.853-4.436,2.553-5.554,5.098c-1.12,2.544-1.129,5.479-0.029,8.806c1.04,3.147,2.712,5.363,5.014,6.645
			c2.302,1.28,4.67,1.521,7.105,0.715c1.604-0.53,3.416-1.476,5.438-2.836l1.991,10.658c-3.415,1.03-5.755,2.62-7.022,4.769
			c-1.267,2.148-1.473,4.515-0.618,7.098c0.727,2.196,1.959,3.732,3.697,4.608c1.739,0.875,3.692,0.953,5.86,0.237
			c2.138-0.707,3.72-2.054,4.743-4.038c1.022-1.986,1.228-4.459,0.612-7.418l12.186-1.854c0.503,4.215,0.336,7.771-0.501,10.668
			c-0.838,2.896-2.482,5.498-4.931,7.806c-2.45,2.309-5.47,4.057-9.064,5.245c-6.147,2.033-11.726,1.702-16.733-0.991
			c-4.119-2.196-6.847-5.313-8.181-9.353c-1.894-5.731-0.273-11.342,4.862-16.828c-4.006,0.436-7.593-0.373-10.759-2.423
			c-3.164-2.052-5.399-5.052-6.706-9c-1.895-5.732-1.416-11.311,1.436-16.734s7.396-9.165,13.633-11.227
			c5.909-1.954,11.371-1.874,16.387,0.241C95.71,1274.322,99.437,1278.023,101.878,1283.312z"/>
	</g>
	<g>
		<path d="M136.135,1175.376l-12.406,4.435c-1.143-3.159-2.801-5.397-4.972-6.713c-2.172-1.317-4.524-1.688-7.057-1.115
			c-2.721,0.615-4.777,2.165-6.171,4.649c-1.393,2.485-1.693,5.479-0.901,8.981c0.75,3.313,2.235,5.739,4.457,7.275
			c2.222,1.536,4.614,2.013,7.179,1.433c1.688-0.382,3.631-1.166,5.827-2.354l0.976,11.069c-3.585,0.714-6.131,2.103-7.635,4.17
			c-1.505,2.066-1.95,4.458-1.334,7.18c0.523,2.313,1.629,4.003,3.316,5.067c1.687,1.063,3.672,1.338,5.955,0.82
			c2.252-0.509,3.997-1.727,5.238-3.651c1.24-1.924,1.694-4.426,1.358-7.506l12.615-0.686c0.097,4.35-0.425,7.961-1.565,10.834
			c-1.142,2.87-3.076,5.362-5.803,7.477c-2.726,2.113-5.98,3.597-9.765,4.454c-6.473,1.466-12.13,0.576-16.975-2.666
			c-3.985-2.648-6.459-6.099-7.422-10.352c-1.367-6.035,0.844-11.599,6.627-16.687c-4.132,0.047-7.71-1.131-10.736-3.535
			c-3.026-2.406-5.01-5.688-5.951-9.847c-1.367-6.035-0.326-11.678,3.121-16.929c3.445-5.251,8.452-8.619,15.019-10.106
			c6.223-1.408,11.787-0.786,16.694,1.867C130.734,1165.597,134.169,1169.74,136.135,1175.376z"/>
	</g>
	<g>
		<path d="M32.613,1192.5l-2.772-12.242l46.201-10.458c0.546,4.74,0.039,9.466-1.525,14.175c-1.563,4.71-5.259,11.324-11.089,19.843
			c-4.688,6.88-7.482,11.458-8.38,13.731c-1.198,3.131-1.496,6.023-0.895,8.683c0.665,2.939,1.967,5.021,3.903,6.242
			c1.937,1.22,4.296,1.518,7.079,0.888c2.752-0.623,4.754-1.946,6.004-3.972c1.251-2.026,1.567-4.989,0.946-8.892l13.43-1.66
			c0.861,7.43-0.416,13.192-3.827,17.285c-3.412,4.092-8.215,6.839-14.406,8.241c-6.784,1.537-12.531,0.913-17.237-1.868
			c-4.706-2.78-7.675-6.892-8.905-12.332c-0.7-3.097-0.813-6.169-0.337-9.219c0.478-3.049,1.572-6.379,3.286-9.988
			c1.135-2.394,3.35-5.97,6.645-10.726c3.295-4.758,5.356-7.887,6.183-9.389c0.827-1.502,1.45-2.925,1.869-4.269L32.613,1192.5z"/>
	</g>
	<g>
		<path d="M122.549,1082.691l-12.846,2.937c-0.76-3.273-2.142-5.692-4.142-7.256c-2-1.563-4.292-2.211-6.875-1.942
			c-2.774,0.291-4.999,1.586-6.677,3.89c-1.676,2.303-2.33,5.24-1.957,8.812c0.353,3.38,1.541,5.962,3.565,7.75
			c2.025,1.787,4.344,2.545,6.959,2.273c1.722-0.181,3.743-0.729,6.065-1.65l-0.338,11.109c-3.645,0.283-6.336,1.363-8.075,3.235
			c-1.738,1.874-2.462,4.199-2.172,6.974c0.247,2.358,1.144,4.167,2.694,5.423c1.55,1.256,3.489,1.765,5.816,1.521
			c2.296-0.24,4.173-1.241,5.634-3.006c1.459-1.764,2.205-4.195,2.236-7.293l12.607,0.809c-0.418,4.331-1.363,7.855-2.837,10.573
			c-1.472,2.716-3.688,4.962-6.645,6.737c-2.957,1.774-6.366,2.865-10.224,3.267c-6.601,0.69-12.114-0.861-16.54-4.653
			c-3.643-3.103-5.692-6.819-6.146-11.157c-0.643-6.154,2.21-11.417,8.554-15.786c-4.108-0.441-7.522-2.036-10.243-4.78
			c-2.721-2.745-4.301-6.24-4.745-10.48c-0.643-6.154,1.058-11.635,5.099-16.441c4.043-4.807,9.414-7.56,16.109-8.259
			c6.346-0.662,11.798,0.614,16.357,3.828C118.342,1072.339,121.263,1076.859,122.549,1082.691z"/>
	</g>
	<g>
		<path d="M27.425,1073.817l13.44-1.403l5.29,50.653c4.431-5.103,9.863-9.105,16.297-12.002l1.273,12.197
			c-3.387,1.514-6.971,4.09-10.75,7.724c-3.779,3.634-6.21,7.667-7.295,12.102l-10.905,1.14L27.425,1073.817z"/>
	</g>
	<g>
		<path d="M117.028,994.16l-13.107,1.342c-0.355-3.342-1.429-5.911-3.222-7.707c-1.794-1.797-3.99-2.721-6.585-2.769
			c-2.789-0.053-5.156,0.962-7.103,3.041c-1.946,2.08-2.955,4.915-3.022,8.505c-0.063,3.397,0.8,6.106,2.589,8.129
			c1.791,2.021,3.999,3.057,6.628,3.105c1.731,0.032,3.805-0.265,6.222-0.893l-1.697,10.982c-3.652-0.163-6.456,0.576-8.41,2.224
			c-1.955,1.646-2.957,3.865-3.011,6.652c-0.044,2.372,0.625,4.276,2.009,5.713c1.385,1.437,3.246,2.178,5.585,2.221
			c2.308,0.043,4.293-0.722,5.959-2.294c1.665-1.573,2.702-3.894,3.112-6.964l12.412,2.35c-0.945,4.246-2.315,7.629-4.11,10.144
			c-1.795,2.515-4.269,4.473-7.421,5.873c-3.153,1.398-6.668,2.063-10.546,1.991c-6.635-0.125-11.917-2.34-15.844-6.647
			c-3.236-3.523-4.814-7.465-4.734-11.824c0.116-6.187,3.59-11.06,10.422-14.618c-4.022-0.94-7.214-2.942-9.578-5.999
			c-2.364-3.06-3.506-6.72-3.425-10.983c0.116-6.186,2.475-11.417,7.076-15.69c4.602-4.274,10.269-6.35,17-6.223
			c6.379,0.119,11.632,2.054,15.764,5.803S116.465,988.217,117.028,994.16z"/>
	</g>
	<g>
		<path d="M34.119,1044.696c-6.828-0.128-12.119-2.664-15.873-7.608c-4.476-5.855-6.588-15.465-6.338-28.833
			c0.25-13.334,2.737-22.875,7.462-28.622c3.905-4.736,9.27-7.041,16.098-6.912c6.859,0.129,12.339,2.868,16.44,8.22
			c4.101,5.351,6.024,14.789,5.77,28.316c-0.249,13.271-2.734,22.778-7.46,28.525C46.311,1042.52,40.946,1044.825,34.119,1044.696z
			 M34.328,1033.493c1.635,0.03,3.104-0.464,4.405-1.481c1.302-1.018,2.33-2.866,3.086-5.545c0.996-3.477,1.57-9.351,1.725-17.619
			c0.155-8.27-0.155-13.959-0.931-17.067c-0.775-3.109-1.786-5.188-3.034-6.237c-1.247-1.05-2.688-1.59-4.323-1.62
			c-1.635-0.03-3.103,0.463-4.404,1.48c-1.301,1.018-2.329,2.866-3.086,5.547c-0.994,3.444-1.568,9.301-1.723,17.571
			c-0.155,8.27,0.156,13.958,0.931,17.067c0.776,3.108,1.787,5.195,3.033,6.262C31.253,1032.913,32.693,1033.463,34.328,1033.493z"
			/>
	</g>
	<g>
		<path d="M77.075,889.862l1.289-12.484l47.117,4.864c-0.997,4.667-2.989,8.981-5.978,12.944
			c-2.987,3.961-8.604,9.046-16.851,15.252c-6.642,5.02-10.752,8.463-12.331,10.33c-2.135,2.583-3.346,5.23-3.625,7.941
			c-0.309,2.997,0.258,5.384,1.702,7.16s3.585,2.813,6.424,3.105c2.806,0.289,5.125-0.325,6.958-1.843
			c1.833-1.521,3.08-4.227,3.74-8.122l13.256,2.722c-1.561,7.314-4.613,12.367-9.155,15.153c-4.542,2.786-9.97,3.853-16.283,3.202
			c-6.919-0.715-12.165-3.142-15.733-7.28c-3.568-4.14-5.067-8.983-4.495-14.532c0.327-3.157,1.204-6.105,2.628-8.843
			c1.428-2.736,3.529-5.541,6.308-8.413c1.841-1.905,5.082-4.584,9.724-8.036c4.643-3.453,7.598-5.758,8.859-6.917
			c1.265-1.159,2.31-2.308,3.135-3.446L77.075,889.862z"/>
	</g>
	<g>
		<path d="M63.483,892.228l-13.159,0.092c-0.044-2.681-0.673-4.728-1.879-6.142c-1.207-1.414-2.913-2.233-5.112-2.462
			c-2.774-0.286-5.265,0.746-7.475,3.096c-2.208,2.351-3.999,7.516-5.372,15.496c3.785-3.573,8.214-5.098,13.284-4.574
			c5.518,0.569,10.057,3.19,13.619,7.858c3.561,4.671,4.992,10.418,4.286,17.242c-0.734,7.111-3.438,12.626-8.114,16.542
			c-4.675,3.917-10.281,5.538-16.818,4.862c-7.111-0.733-12.662-4.088-16.655-10.06c-3.991-5.972-5.338-15.256-4.037-27.853
			c1.324-12.818,4.655-21.821,9.992-27.008c5.338-5.187,11.818-7.385,19.44-6.598c5.485,0.566,9.767,2.484,12.846,5.751
			C61.406,881.74,63.126,886.324,63.483,892.228z M30.027,918.455c-0.447,4.337,0.201,7.805,1.948,10.401
			c1.746,2.598,3.927,4.031,6.542,4.302c2.487,0.256,4.653-0.511,6.498-2.302c1.846-1.791,2.998-4.921,3.459-9.385
			c0.468-4.528-0.082-7.944-1.649-10.249c-1.566-2.307-3.69-3.596-6.368-3.872c-2.583-0.268-4.865,0.528-6.846,2.387
			C31.63,911.595,30.436,914.502,30.027,918.455z"/>
	</g>
	<g>
		<path d="M93.84,793.547l2.982-12.191l46.012,11.25c-1.625,4.486-4.188,8.488-7.688,12.006c-3.5,3.517-9.758,7.787-18.775,12.809
			c-7.263,4.065-11.805,6.916-13.625,8.55c-2.468,2.268-4.026,4.726-4.674,7.372c-0.716,2.927-0.479,5.37,0.708,7.326
			c1.189,1.957,3.168,3.275,5.939,3.952c2.74,0.67,5.123,0.378,7.145-0.877c2.023-1.254,3.627-3.766,4.814-7.536l12.758,4.507
			c-2.544,7.033-6.257,11.621-11.137,13.762c-4.88,2.14-10.402,2.456-16.569,0.948c-6.757-1.651-11.621-4.773-14.592-9.359
			c-2.97-4.588-3.793-9.591-2.468-15.01c0.754-3.083,2.025-5.884,3.811-8.399c1.788-2.516,4.254-5.008,7.398-7.474
			c2.084-1.637,5.661-3.848,10.73-6.634c5.072-2.787,8.312-4.668,9.721-5.644c1.411-0.976,2.603-1.971,3.576-2.986L93.84,793.547z"
			/>
	</g>
	<g>
		<path d="M63.912,812.464c3.045,2.262,5.031,4.836,5.958,7.721c0.928,2.883,1.027,5.82,0.296,8.81
			c-1.249,5.106-4.063,8.891-8.443,11.351s-9.856,2.888-16.427,1.28c-6.508-1.591-11.153-4.492-13.936-8.704
			c-2.782-4.213-3.549-8.871-2.3-13.979c0.776-3.177,2.293-5.801,4.549-7.873c2.257-2.072,5.038-3.396,8.348-3.974
			c-3.425-2.455-5.77-5.388-7.032-8.798c-1.261-3.411-1.424-7.031-0.487-10.861c1.545-6.322,4.819-10.968,9.818-13.936
			c5-2.969,10.848-3.636,17.543-1.999c6.229,1.523,11.014,4.427,14.356,8.709c3.945,5.057,5.095,10.948,3.45,17.675
			c-0.906,3.706-2.655,6.883-5.252,9.533C71.758,810.068,68.277,811.75,63.912,812.464z M57.97,825.021
			c0.639-2.616,0.398-4.837-0.723-6.662c-1.121-1.825-2.912-3.039-5.372-3.64c-2.491-0.609-4.666-0.357-6.521,0.758
			c-1.856,1.112-3.105,2.979-3.745,5.594c-0.601,2.46-0.343,4.61,0.774,6.451c1.118,1.841,2.891,3.058,5.32,3.652
			c2.521,0.616,4.714,0.36,6.574-0.77C56.137,829.276,57.369,827.481,57.97,825.021z M66.357,795.983
			c0.883-3.612,0.645-6.657-0.712-9.135c-1.358-2.478-3.422-4.055-6.194-4.731c-2.709-0.663-5.191-0.237-7.44,1.274
			c-2.251,1.513-3.826,4.105-4.724,7.78c-0.784,3.207-0.511,6.006,0.819,8.394c1.33,2.388,3.381,3.92,6.153,4.599
			c3.208,0.784,5.868,0.263,7.981-1.562C64.352,800.773,65.726,798.568,66.357,795.983z"/>
	</g>
	<g>
		<path d="M119.444,701.681l3.958-11.913l44.955,14.936c-1.982,4.341-4.86,8.123-8.635,11.347
			c-3.774,3.222-10.357,6.972-19.753,11.25c-7.568,3.464-12.327,5.938-14.273,7.42c-2.644,2.061-4.397,4.384-5.255,6.971
			c-0.95,2.859-0.911,5.313,0.113,7.36c1.027,2.047,2.893,3.521,5.602,4.42c2.676,0.89,5.075,0.791,7.192-0.296
			c2.12-1.088,3.92-3.461,5.408-7.122l12.354,5.523c-3.105,6.806-7.177,11.077-12.215,12.816
			c-5.037,1.739-10.567,1.607-16.592-0.395c-6.603-2.192-11.199-5.696-13.789-10.511c-2.59-4.814-3.006-9.867-1.247-15.16
			c1-3.013,2.493-5.701,4.478-8.064c1.985-2.365,4.645-4.648,7.977-6.852c2.209-1.463,5.953-3.377,11.233-5.744
			c5.28-2.368,8.664-3.98,10.147-4.838c1.484-0.858,2.753-1.756,3.807-2.688L119.444,701.681z"/>
	</g>
	<g>
		<path d="M93.104,739.756l-3.958,11.913l-43.858-14.572l3.093-9.31c4.804-2.357,10.184-6.246,16.14-11.666
			c5.957-5.421,11.162-11.555,15.616-18.401c4.454-6.849,7.647-13.228,9.577-19.142l12.368,4.109
			c-3.285,9.18-8.328,17.977-15.128,26.392c-6.8,8.416-14.47,15.412-23.013,20.987L93.104,739.756z"/>
	</g>
	<g>
		<path d="M155.053,610.561l4.442-11.74l44.305,16.763c-2.159,4.256-5.189,7.918-9.092,10.983
			c-3.902,3.065-10.635,6.544-20.196,10.433c-7.706,3.152-12.561,5.429-14.564,6.83c-2.726,1.95-4.571,4.2-5.536,6.749
			c-1.066,2.819-1.129,5.271-0.189,7.358c0.942,2.088,2.746,3.636,5.415,4.646c2.639,0.999,5.039,0.998,7.199-0.002
			c2.161-1,4.06-3.298,5.694-6.895l12.117,6.025c-3.382,6.673-7.624,10.774-12.73,12.306c-5.104,1.53-10.626,1.174-16.561-1.073
			c-6.507-2.462-10.957-6.151-13.346-11.066c-2.39-4.915-2.599-9.982-0.625-15.199c1.123-2.969,2.725-5.595,4.805-7.874
			c2.08-2.282,4.831-4.455,8.251-6.52c2.268-1.372,6.087-3.13,11.459-5.279c5.374-2.149,8.819-3.622,10.336-4.418
			c1.519-0.797,2.823-1.641,3.914-2.529L155.053,610.561z"/>
	</g>
	<g>
		<path d="M85.684,627.816l12.746,3.28c-0.653,2.632-0.577,4.786,0.228,6.462c0.806,1.676,2.213,2.894,4.223,3.654
			c2.67,1.011,5.38,0.664,8.131-1.038c2.753-1.702,5.805-6.254,9.153-13.659c-4.556,2.526-9.171,2.906-13.85,1.136
			c-5.278-1.997-9.038-5.717-11.281-11.158c-2.242-5.441-2.162-11.342,0.244-17.699c2.553-6.747,6.581-11.411,12.081-13.989
			c5.501-2.582,11.356-2.697,17.563-0.349c6.657,2.519,11.152,7.176,13.482,13.971c2.331,6.795,1.268,16.085-3.193,27.87
			c-4.572,12.084-10.102,19.95-16.589,23.597c-6.488,3.646-13.301,4.121-20.437,1.421c-5.008-1.895-8.623-4.864-10.846-8.912
			C85.116,638.355,84.564,633.493,85.684,627.816z M124.769,611.084c1.555-4.107,1.81-7.636,0.766-10.585
			c-1.042-2.949-2.78-4.884-5.208-5.802c-2.339-0.886-4.634-0.708-6.887,0.531c-2.252,1.239-4.165,3.941-5.742,8.109
			c-1.622,4.289-1.97,7.747-1.046,10.377c0.925,2.629,2.646,4.42,5.166,5.373c2.428,0.92,4.844,0.744,7.243-0.523
			C121.459,617.296,123.362,614.802,124.769,611.084z"/>
	</g>
	<g>
		<path d="M201.946,522.252l5.979-11.037l41.651,22.561c-2.71,3.929-6.205,7.149-10.484,9.663
			c-4.277,2.513-11.415,5.056-21.413,7.625c-8.06,2.089-13.175,3.692-15.35,4.811c-2.963,1.568-5.094,3.549-6.392,5.945
			c-1.436,2.649-1.826,5.073-1.174,7.267c0.653,2.194,2.232,3.972,4.742,5.331c2.481,1.344,4.859,1.665,7.134,0.965
			c2.275-0.7,4.465-2.722,6.568-6.067l11.199,7.596c-4.246,6.158-9.003,9.655-14.266,10.485c-5.264,0.831-10.686-0.264-16.268-3.287
			c-6.117-3.314-10.03-7.566-11.74-12.758c-1.708-5.191-1.235-10.24,1.422-15.146c1.512-2.791,3.452-5.177,5.818-7.157
			c2.368-1.98,5.386-3.765,9.052-5.353c2.43-1.055,6.451-2.285,12.064-3.693c5.613-1.409,9.225-2.406,10.835-2.991
			c1.613-0.586,3.019-1.246,4.218-1.981L201.946,522.252z"/>
	</g>
	<g>
		<path d="M187.697,520.878l-12.504-5.188c1.112-2.861,1.26-5.523,0.445-7.989c-0.816-2.466-2.309-4.287-4.48-5.462
			c-2.48-1.344-5.127-1.474-7.938-0.39c-2.811,1.083-5.316,3.655-7.516,7.716c-2.062,3.806-2.754,7.122-2.08,9.948
			c0.675,2.826,2.379,4.981,5.113,6.461c3.412,1.849,7.288,1.997,11.627,0.445l8.886,6.618l-23.566,28.966l-31.418-17.019
			l6.023-11.122l22.411,12.14l7.564-9.52c-3.367-0.11-6.432-0.913-9.194-2.41c-5.272-2.855-8.702-7.192-10.29-13.012
			c-1.587-5.818-0.724-11.787,2.589-17.903c2.764-5.103,6.71-8.854,11.838-11.253c6.994-3.285,14.071-2.988,21.231,0.89
			c5.723,3.1,9.556,7.162,11.5,12.19C189.884,510.01,189.804,515.308,187.697,520.878z"/>
	</g>
	<g>
		<path d="M256.395,441.924l7.359-10.167l38.372,27.776c-3.198,3.543-7.08,6.283-11.649,8.221
			c-4.568,1.937-11.975,3.531-22.222,4.783c-8.262,1.025-13.543,1.951-15.846,2.778c-3.142,1.169-5.512,2.856-7.109,5.065
			c-1.767,2.44-2.469,4.792-2.107,7.053c0.363,2.261,1.699,4.229,4.01,5.901c2.286,1.654,4.603,2.282,6.949,1.883
			c2.347-0.398,4.78-2.121,7.301-5.164l10.119,8.985c-5.01,5.556-10.18,8.404-15.507,8.546c-5.327,0.142-10.561-1.649-15.703-5.37
			c-5.636-4.079-8.964-8.804-9.986-14.174c-1.019-5.368,0.105-10.313,3.376-14.833c1.861-2.57,4.094-4.687,6.698-6.343
			c2.606-1.656,5.828-3.035,9.669-4.132c2.547-0.73,6.695-1.429,12.442-2.097c5.748-0.669,9.458-1.187,11.132-1.561
			c1.675-0.371,3.155-0.843,4.439-1.417L256.395,441.924z"/>
	</g>
	<g>
		<path d="M231.766,408.601l-8.318,11.491l23.373,16.919l-6.938,9.583l-51.029,18.334l-9.194-6.654l26.225-36.229l-7.09-5.133
			l6.965-9.623l7.09,5.131l8.318-11.491L231.766,408.601z M216.482,429.716l-14.128,19.517l27.255-10.014L216.482,429.716z"/>
	</g>
	<g>
		<path d="M319.024,368.078l9.008-8.738l32.979,33.998c-3.762,2.937-8.06,4.962-12.896,6.078
			c-4.835,1.117-12.404,1.406-22.712,0.862c-8.314-0.421-13.676-0.423-16.085-0.007c-3.296,0.608-5.922,1.859-7.878,3.758
			c-2.162,2.097-3.261,4.292-3.297,6.581c-0.035,2.289,0.941,4.457,2.928,6.507c1.965,2.024,4.137,3.044,6.517,3.057
			c2.38,0.014,5.075-1.26,8.084-3.821l8.408,10.601c-5.896,4.603-11.479,6.513-16.751,5.73c-5.271-0.783-10.117-3.452-14.536-8.009
			c-4.844-4.993-7.303-10.223-7.379-15.688c-0.075-5.465,1.888-10.141,5.892-14.024c2.279-2.21,4.844-3.905,7.695-5.086
			c2.853-1.181,6.265-1.98,10.239-2.395c2.635-0.278,6.84-0.246,12.615,0.09c5.777,0.337,9.522,0.467,11.234,0.392
			c1.713-0.075,3.252-0.284,4.618-0.627L319.024,368.078z"/>
	</g>
	<g>
		<path d="M305.898,363.386l-10.247-8.283c2.104-2.621,3.152-5.201,3.145-7.74c-0.006-2.538-0.915-4.74-2.723-6.605
			c-1.941-2.001-4.335-2.951-7.183-2.848c-2.847,0.104-5.559,1.406-8.136,3.907c-2.438,2.364-3.735,4.895-3.891,7.591
			c-0.153,2.696,0.684,4.988,2.514,6.873c1.205,1.243,2.886,2.492,5.044,3.75l-8.942,6.598c-2.477-2.69-4.988-4.141-7.534-4.349
			c-2.548-0.209-4.822,0.657-6.824,2.599c-1.703,1.652-2.569,3.476-2.6,5.471c-0.03,1.995,0.77,3.832,2.399,5.512
			c1.606,1.656,3.556,2.515,5.844,2.571c2.289,0.057,4.66-0.858,7.116-2.748l7.154,10.413c-3.663,2.348-7.018,3.782-10.064,4.302
			c-3.045,0.52-6.18,0.166-9.404-1.061c-3.224-1.227-6.185-3.233-8.887-6.018c-4.621-4.764-6.807-10.057-6.559-15.881
			c0.187-4.78,1.845-8.689,4.973-11.725c4.441-4.309,10.34-5.317,17.695-3.029c-2.191-3.503-3.047-7.171-2.57-11.006
			c0.478-3.835,2.248-7.239,5.308-10.207c4.441-4.308,9.8-6.357,16.077-6.149c6.276,0.209,11.76,2.731,16.446,7.563
			c4.442,4.579,6.809,9.653,7.098,15.225C311.435,353.682,309.686,358.773,305.898,363.386z"/>
	</g>
	<g>
		<path d="M387.536,300.818l9.537-8.16l30.791,35.993c-3.939,2.694-8.356,4.447-13.251,5.261c-4.894,0.811-12.469,0.626-22.722-0.56
			c-8.271-0.94-13.623-1.276-16.053-1.012c-3.329,0.4-6.028,1.486-8.098,3.258c-2.289,1.959-3.523,4.079-3.701,6.363
			c-0.177,2.281,0.661,4.508,2.516,6.676c1.835,2.145,3.939,3.297,6.314,3.459c2.375,0.161,5.143-0.941,8.307-3.311l7.729,11.106
			c-6.172,4.227-11.864,5.784-17.076,4.674c-5.211-1.111-9.88-4.079-14.006-8.901c-4.522-5.286-6.651-10.659-6.384-16.118
			c0.266-5.459,2.518-10.002,6.757-13.628c2.411-2.062,5.079-3.595,7.998-4.596c2.921-1,6.376-1.583,10.369-1.75
			c2.646-0.113,6.84,0.182,12.585,0.878c5.743,0.696,9.474,1.062,11.187,1.094c1.714,0.03,3.264-0.08,4.647-0.338L387.536,300.818z"
			/>
	</g>
	<g>
		<path d="M349.427,256.27l9.537-8.16l30.791,35.993c-3.939,2.694-8.355,4.448-13.251,5.261c-4.894,0.812-12.469,0.626-22.722-0.56
			c-8.271-0.94-13.623-1.276-16.053-1.012c-3.329,0.4-6.028,1.486-8.098,3.258c-2.289,1.959-3.523,4.079-3.701,6.363
			c-0.177,2.281,0.661,4.508,2.516,6.676c1.835,2.145,3.939,3.297,6.314,3.459c2.375,0.161,5.145-0.94,8.307-3.311l7.729,11.106
			c-6.172,4.227-11.863,5.783-17.076,4.675c-5.211-1.112-9.88-4.079-14.006-8.901c-4.522-5.286-6.651-10.659-6.384-16.118
			c0.266-5.459,2.518-10.002,6.757-13.628c2.411-2.062,5.079-3.595,7.998-4.596c2.92-0.999,6.376-1.583,10.369-1.75
			c2.646-0.113,6.841,0.182,12.585,0.878c5.744,0.697,9.473,1.063,11.187,1.094c1.715,0.03,3.264-0.08,4.648-0.338L349.427,256.27z"
			/>
	</g>
	<g>
		<path d="M463.701,240.777l10.106-7.444l28.091,38.138c-4.124,2.401-8.656,3.83-13.598,4.283
			c-4.941,0.454-12.48-0.282-22.621-2.211c-8.18-1.538-13.494-2.266-15.937-2.178c-3.348,0.157-6.119,1.044-8.313,2.659
			c-2.426,1.787-3.811,3.813-4.154,6.077c-0.343,2.263,0.331,4.543,2.023,6.84c1.674,2.271,3.688,3.575,6.044,3.91
			c2.357,0.335,5.199-0.562,8.526-2.696l6.9,11.641c-6.463,3.765-12.253,4.904-17.371,3.417c-5.117-1.487-9.558-4.785-13.322-9.896
			c-4.125-5.602-5.856-11.114-5.195-16.54c0.663-5.425,3.239-9.792,7.731-13.1c2.555-1.882,5.327-3.216,8.312-4.001
			c2.985-0.785,6.476-1.116,10.468-0.991c2.647,0.08,6.811,0.678,12.488,1.789c5.678,1.114,9.371,1.748,11.077,1.904
			c1.708,0.155,3.261,0.156,4.661,0.002L463.701,240.777z"/>
	</g>
	<g>
		<path d="M445.598,195.035l8.014,10.88l-41.003,30.201c6.646,1.238,12.846,3.899,18.6,7.981l-9.873,7.272
			c-3.02-2.155-7.055-3.941-12.101-5.36c-5.047-1.419-9.756-1.475-14.128-0.167l-6.503-8.827L445.598,195.035z"/>
	</g>
	<g>
		<path d="M545.902,188.252l10.838-6.33l23.888,40.902c-4.355,1.95-9.013,2.889-13.976,2.817
			c-4.961-0.073-12.381-1.606-22.258-4.598c-7.973-2.398-13.178-3.684-15.618-3.857c-3.346-0.198-6.195,0.39-8.548,1.763
			c-2.602,1.52-4.193,3.388-4.777,5.602c-0.58,2.215-0.152,4.554,1.286,7.019c1.423,2.437,3.289,3.946,5.596,4.529
			c2.309,0.583,5.23-0.01,8.764-1.776l5.627,12.306c-6.825,3.06-12.705,3.577-17.635,1.558c-4.929-2.022-8.997-5.773-12.198-11.255
			c-3.508-6.008-4.645-11.673-3.411-16.998c1.233-5.324,4.259-9.394,9.077-12.207c2.74-1.601,5.637-2.633,8.689-3.097
			c3.052-0.464,6.557-0.424,10.515,0.124c2.625,0.36,6.7,1.396,12.228,3.105c5.529,1.709,9.133,2.732,10.813,3.067
			c1.682,0.336,3.226,0.503,4.634,0.496L545.902,188.252z"/>
	</g>
	<g>
		<path d="M477.542,186.678c-3.444-5.897-4.032-11.735-1.764-17.515c2.672-6.868,9.779-13.675,21.322-20.416
			c11.517-6.727,20.959-9.566,28.325-8.522c6.077,0.868,10.837,4.252,14.281,10.148c3.46,5.925,3.972,12.03,1.536,18.315
			c-2.436,6.287-9.494,12.841-21.18,19.664c-11.461,6.694-20.874,9.519-28.241,8.474
			C485.746,195.959,480.986,192.575,477.542,186.678z M487.218,181.027c0.825,1.412,2.012,2.409,3.556,2.991
			c1.547,0.582,3.661,0.499,6.343-0.251c3.487-0.959,8.801-3.525,15.943-7.696c7.141-4.171,11.841-7.397,14.091-9.678
			c2.252-2.28,3.501-4.225,3.747-5.836c0.247-1.61-0.042-3.123-0.866-4.535c-0.824-1.411-2.009-2.408-3.557-2.99
			c-1.544-0.581-3.661-0.498-6.341,0.252c-3.458,0.942-8.76,3.5-15.902,7.672c-7.141,4.171-11.839,7.397-14.09,9.678
			c-2.25,2.28-3.506,4.229-3.769,5.848C486.113,178.1,486.393,179.616,487.218,181.027z"/>
	</g>
	<g>
		<path d="M649.039,149.593l5.573,12.31l-46.394,21.003c6.241,2.594,11.752,6.486,16.531,11.678l-11.172,5.058
			c-2.506-2.736-6.079-5.325-10.72-7.764c-4.64-2.44-9.234-3.474-13.783-3.104l-4.521-9.988L649.039,149.593z"/>
	</g>
	<g>
		<path d="M624.149,134.145l-6.708-11.322c2.292-1.39,3.745-2.962,4.357-4.718c0.614-1.756,0.463-3.641-0.449-5.655
			c-1.151-2.541-3.297-4.174-6.44-4.898c-3.143-0.724-8.507,0.333-16.091,3.167c4.994,1.47,8.542,4.527,10.644,9.171
			c2.288,5.054,2.311,10.295,0.072,15.725s-6.484,9.561-12.735,12.39c-6.513,2.948-12.638,3.391-18.376,1.325
			c-5.739-2.065-9.964-6.091-12.674-12.078c-2.949-6.512-2.849-12.998,0.298-19.456c3.147-6.458,10.489-12.298,22.026-17.519
			c11.741-5.314,21.196-6.974,28.364-4.975c7.169,1.998,12.334,6.488,15.493,13.468c2.273,5.022,2.776,9.689,1.505,13.993
			C632.163,127.068,629.069,130.862,624.149,134.145z M584.637,118.458c-3.972,1.799-6.64,4.106-8.005,6.922
			c-1.363,2.818-1.503,5.425-0.42,7.818c1.032,2.278,2.785,3.764,5.263,4.454c2.477,0.691,5.76,0.111,9.849-1.74
			c4.148-1.878,6.822-4.072,8.023-6.589c1.202-2.515,1.248-4.998,0.136-7.452c-1.071-2.365-2.907-3.937-5.511-4.71
			C591.371,116.387,588.259,116.819,584.637,118.458z"/>
	</g>
	<g>
		<path d="M738.996,118.432l4.206,12.842l-48.399,15.853c5.924,3.255,10.98,7.723,15.168,13.402l-11.654,3.816
			c-2.193-2.991-5.466-5.951-9.816-8.88c-4.35-2.927-8.806-4.452-13.367-4.578l-3.414-10.42L738.996,118.432z"/>
	</g>
	<g>
		<path d="M691.75,96.4c-0.313,3.781-1.449,6.825-3.408,9.138c-1.958,2.313-4.401,3.946-7.326,4.904
			c-4.996,1.637-9.697,1.246-14.1-1.176c-4.403-2.42-7.657-6.846-9.763-13.274c-2.087-6.368-2.074-11.846,0.032-16.433
			c2.107-4.586,5.661-7.699,10.657-9.336c3.108-1.018,6.137-1.116,9.088-0.295c2.951,0.822,5.547,2.484,7.783,4.991
			c0.276-4.206,1.528-7.746,3.759-10.618c2.23-2.873,5.219-4.923,8.968-6.15c6.185-2.026,11.858-1.701,17.021,0.978
			c5.162,2.678,8.816,7.293,10.962,13.843c1.996,6.095,2.058,11.691,0.185,16.792c-2.21,6.02-6.607,10.108-13.189,12.265
			c-3.626,1.187-7.248,1.38-10.869,0.574C697.929,101.799,694.663,99.731,691.75,96.4z M677.947,97.987
			c2.56-0.839,4.317-2.216,5.276-4.133c0.958-1.916,1.043-4.077,0.254-6.485c-0.798-2.438-2.161-4.15-4.087-5.139
			c-1.927-0.989-4.169-1.064-6.729-0.226c-2.406,0.788-4.096,2.144-5.069,4.064c-0.973,1.922-1.071,4.07-0.293,6.446
			c0.809,2.469,2.182,4.194,4.124,5.178C673.367,98.677,675.542,98.774,677.947,97.987z M707.038,89.772
			c3.535-1.158,5.995-2.966,7.381-5.43c1.388-2.46,1.637-5.048,0.747-7.76c-0.867-2.651-2.538-4.533-5.012-5.646
			c-2.473-1.114-5.508-1.081-9.103,0.097c-3.138,1.028-5.37,2.738-6.696,5.128c-1.325,2.391-1.544,4.943-0.656,7.654
			c1.028,3.139,2.877,5.123,5.544,5.952C701.913,90.601,704.51,90.601,707.038,89.772z"/>
	</g>
	<g>
		<path d="M833.933,96.012l2.72,13.236L786.768,119.5c5.516,3.907,10.032,8.92,13.548,15.037l-12.012,2.469
			c-1.84-3.223-4.754-6.535-8.744-9.938c-3.988-3.403-8.241-5.425-12.76-6.068l-2.206-10.74L833.933,96.012z"/>
	</g>
	<g>
		<path d="M773.272,83.925l-12.294,2.525l-9.303-45.269l9.609-1.974c4.443,2.982,10.498,5.698,18.17,8.147
			c7.672,2.448,15.586,3.892,23.743,4.326c8.158,0.434,15.279,0.01,21.364-1.273l2.622,12.766
			c-9.592,1.742-19.731,1.771-30.421,0.09c-10.687-1.682-20.581-4.83-29.679-9.441L773.272,83.925z"/>
	</g>
	<g>
		<path d="M929.146,83.76l1.355,13.444l-50.668,5.107c5.089,4.449,9.069,9.897,11.942,16.342l-12.201,1.229
			c-1.502-3.394-4.064-6.985-7.684-10.777c-3.622-3.792-7.645-6.237-12.073-7.338l-1.1-10.91L929.146,83.76z"/>
	</g>
	<g>
		<path d="M869.178,19.62l2.747,12.868c-2.647,0.591-4.541,1.618-5.682,3.087c-1.141,1.469-1.604,3.271-1.388,5.408
			c0.286,2.84,1.805,5.111,4.553,6.815c2.75,1.703,8.186,2.404,16.306,2.102c-4.291-2.951-6.689-6.914-7.191-11.891
			c-0.566-5.613,1.086-10.637,4.958-15.072c3.871-4.433,9.187-6.991,15.949-7.672c7.178-0.724,13.147,0.801,17.909,4.574
			c4.763,3.773,7.477,8.962,8.142,15.565c0.714,7.08-1.451,13.18-6.493,18.296s-13.831,8.306-26.367,9.568
			c-12.854,1.296-22.36-0.145-28.518-4.326c-6.156-4.18-9.618-10.066-10.383-17.658c-0.537-5.327,0.51-9.887,3.14-13.681
			C859.491,23.811,863.597,21.149,869.178,19.62z M901.58,47.141c4.37-0.44,7.643-1.786,9.815-4.035
			c2.174-2.248,3.13-4.665,2.869-7.248c-0.25-2.488-1.432-4.463-3.544-5.925c-2.113-1.463-5.385-1.971-9.82-1.523
			c-4.562,0.459-7.812,1.689-9.754,3.689c-1.94,2.001-2.777,4.341-2.506,7.02c0.26,2.584,1.494,4.668,3.699,6.249
			C894.543,46.949,897.624,47.54,901.58,47.141z"/>
	</g>
	<g>
		<path d="M1025.507,81.377l-0.003,13.514l-50.927-0.011c4.616,4.939,8.028,10.757,10.239,17.459l-12.263-0.003
			c-1.153-3.525-3.34-7.358-6.562-11.495c-3.221-4.137-6.979-6.974-11.275-8.514l0.003-10.965L1025.507,81.377z"/>
	</g>
	<g>
		<path d="M1007.383,57.13l-1.392-13.466c3.046-0.383,5.459-1.52,7.238-3.413c1.779-1.891,2.669-4.07,2.67-6.54
			c0.001-2.821-1.146-5.21-3.436-7.166c-2.292-1.955-5.746-2.936-10.362-2.936c-4.328-0.001-7.574,0.969-9.738,2.907
			c-2.164,1.939-3.247,4.464-3.247,7.573c-0.001,3.88,1.715,7.357,5.144,10.437l-1.589,10.964l-36.691-6.933l0.007-35.73
			l12.648,0.003l-0.005,25.487l11.975,2.119c-1.506-3.013-2.259-6.092-2.259-9.234c0.001-5.994,2.184-11.076,6.544-15.242
			c4.361-4.166,10.021-6.25,16.977-6.248c5.803,0.001,10.98,1.686,15.532,5.053c6.219,4.586,9.326,10.95,9.325,19.094
			c-0.001,6.509-1.75,11.814-5.245,15.916C1017.979,53.879,1013.282,56.331,1007.383,57.13z"/>
	</g>
	<g>
		<path d="M1121.438,88.7l-1.277,13.452l-50.696-4.814c4.128,5.353,6.977,11.466,8.546,18.347l-12.208-1.16
			c-0.814-3.62-2.632-7.641-5.447-12.063c-2.816-4.422-6.29-7.602-10.422-9.54l1.036-10.915L1121.438,88.7z"/>
	</g>
	<g>
		<path d="M1126.216,38.38l-14.123-1.341l-2.727,28.724l-11.777-1.119l-41.678-34.679l1.073-11.298l44.521,4.228l0.827-8.713
			l11.824,1.122l-0.827,8.713l14.123,1.341L1126.216,38.38z M1100.269,35.917l-23.983-2.278l22.451,18.41L1100.269,35.917z"/>
	</g>
	<g>
		<path d="M1215.402,106.817l-2.818,13.216l-49.805-10.624c3.483,5.792,5.609,12.194,6.376,19.209l-11.994-2.559
			c-0.394-3.688-1.733-7.892-4.021-12.609c-2.288-4.717-5.371-8.275-9.253-10.677l2.287-10.722L1215.402,106.817z"/>
	</g>
	<g>
		<path d="M1202.026,79.865l1.175-13.123c3.349,0.289,6.075-0.277,8.181-1.698c2.105-1.42,3.43-3.399,3.971-5.939
			c0.582-2.728,0.038-5.244-1.635-7.551c-1.672-2.306-4.262-3.835-7.774-4.585c-3.322-0.709-6.147-0.376-8.474,0.995
			c-2.324,1.373-3.762,3.344-4.31,5.916c-0.36,1.693-0.464,3.786-0.307,6.278l-10.459-3.755c0.857-3.555,0.662-6.448-0.582-8.681
			c-1.245-2.23-3.23-3.638-5.958-4.221c-2.32-0.494-4.316-0.2-5.991,0.887c-1.673,1.086-2.754,2.772-3.243,5.06
			c-0.481,2.258-0.108,4.353,1.117,6.286c1.228,1.933,3.308,3.394,6.244,4.38l-4.667,11.739c-3.989-1.736-7.048-3.724-9.177-5.965
			c-2.128-2.24-3.577-5.042-4.352-8.403c-0.774-3.36-0.757-6.938,0.052-10.731c1.384-6.489,4.564-11.252,9.538-14.29
			c4.075-2.507,8.245-3.306,12.509-2.396c6.052,1.291,10.175,5.629,12.368,13.014c1.689-3.771,4.261-6.524,7.712-8.263
			c3.453-1.739,7.264-2.163,11.433-1.274c6.052,1.291,10.738,4.602,14.059,9.932c3.322,5.331,4.28,11.289,2.875,17.872
			c-1.33,6.24-4.23,11.029-8.695,14.372C1213.169,79.063,1207.966,80.444,1202.026,79.865z"/>
	</g>
	<g>
		<path d="M1307.994,134.363l-4.38,12.784l-48.18-16.506c2.767,6.168,4.112,12.778,4.033,19.834l-11.601-3.975
			c0.051-3.71-0.777-8.043-2.485-13.001c-1.708-4.957-4.344-8.858-7.91-11.708l3.553-10.373L1307.994,134.363z"/>
	</g>
	<g>
		<path d="M1318.707,64.368l11.874,4.068l-15.353,44.812c-4.323-2.023-8.077-4.937-11.266-8.74
			c-3.187-3.801-6.876-10.42-11.065-19.854c-3.394-7.601-5.822-12.383-7.287-14.342c-2.036-2.663-4.343-4.436-6.921-5.318
			c-2.85-0.977-5.305-0.961-7.361,0.045c-2.056,1.007-3.547,2.86-4.472,5.559c-0.914,2.669-0.838,5.068,0.229,7.195
			c1.067,2.128,3.424,3.953,7.071,5.474l-5.638,12.302c-6.776-3.169-11.011-7.279-12.703-12.332
			c-1.692-5.052-1.51-10.582,0.549-16.587c2.255-6.581,5.8-11.145,10.638-13.69c4.837-2.543,9.895-2.914,15.171-1.105
			c3.003,1.029,5.677,2.547,8.022,4.554c2.345,2.007,4.605,4.687,6.776,8.041c1.442,2.222,3.322,5.984,5.641,11.285
			c2.318,5.303,3.899,8.7,4.744,10.191c0.845,1.492,1.728,2.769,2.651,3.832L1318.707,64.368z"/>
	</g>
	<g>
		<path d="M1396.797,171.398l-5.582,12.307l-46.38-21.038c2.165,6.404,2.871,13.113,2.118,20.129l-11.169-5.066
			c0.406-3.688-0.004-8.082-1.23-13.178c-1.226-5.097-3.476-9.235-6.753-12.412l4.529-9.985L1396.797,171.398z"/>
	</g>
	<g>
		<path d="M1418.771,122.954l-5.582,12.307l-46.38-21.038c2.165,6.404,2.87,13.114,2.117,20.128l-11.168-5.065
			c0.406-3.688-0.005-8.081-1.23-13.179c-1.226-5.097-3.476-9.235-6.753-12.412l4.529-9.985L1418.771,122.954z"/>
	</g>
	<g>
		<path d="M1481.54,217.903l-6.819,11.665l-43.965-25.703c1.492,6.592,1.506,13.34,0.032,20.241l-10.587-6.19
			c0.781-3.628,0.828-8.039,0.134-13.236c-0.694-5.196-2.508-9.542-5.441-13.04l5.535-9.465L1481.54,217.903z"/>
	</g>
	<g>
		<path d="M1444.097,141.692c3.445-5.895,8.243-9.272,14.392-10.135c7.297-1.045,16.714,1.804,28.255,8.553
			c11.515,6.732,18.624,13.562,21.332,20.491c2.227,5.721,1.616,11.528-1.83,17.424c-3.464,5.924-8.53,9.367-15.203,10.33
			c-6.672,0.964-15.848-1.968-27.527-8.797c-11.458-6.698-18.54-13.513-21.249-20.442
			C1440.04,153.396,1440.649,147.588,1444.097,141.692z M1453.769,147.346c-0.825,1.412-1.112,2.934-0.859,4.566
			c0.253,1.634,1.362,3.436,3.332,5.401c2.548,2.567,7.392,5.937,14.532,10.111c7.14,4.175,12.257,6.684,15.348,7.524
			c3.091,0.843,5.399,0.976,6.924,0.4c1.525-0.576,2.7-1.57,3.526-2.98c0.825-1.412,1.112-2.934,0.858-4.567
			c-0.252-1.632-1.362-3.433-3.331-5.401c-2.52-2.55-7.349-5.912-14.491-10.087c-7.14-4.175-12.256-6.682-15.348-7.524
			c-3.092-0.84-5.405-0.979-6.945-0.411C1455.777,144.947,1454.594,145.936,1453.769,147.346z"/>
	</g>
	<g>
		<path d="M1495.374,241.144c3.876-5.622,8.912-8.634,15.107-9.038c7.352-0.5,16.532,3.043,27.54,10.63
			c10.982,7.568,17.565,14.909,19.749,22.022c1.793,5.87,0.753,11.618-3.121,17.24c-3.894,5.649-9.203,8.706-15.93,9.172
			c-6.725,0.466-15.657-3.14-26.797-10.819c-10.93-7.532-17.485-14.854-19.669-21.967
			C1490.46,252.515,1491.5,246.768,1495.374,241.144z M1504.602,247.503c-0.928,1.345-1.326,2.844-1.196,4.49
			c0.129,1.648,1.103,3.527,2.921,5.634c2.349,2.751,6.931,6.469,13.74,11.164c6.812,4.693,11.727,7.576,14.746,8.645
			c3.021,1.071,5.312,1.374,6.875,0.914c1.564-0.461,2.812-1.365,3.739-2.71c0.928-1.347,1.327-2.842,1.196-4.491
			c-0.13-1.646-1.104-3.525-2.923-5.634c-2.321-2.731-6.889-6.443-13.699-11.135c-6.812-4.694-11.727-7.576-14.748-8.646
			c-3.02-1.069-5.318-1.378-6.895-0.927C1506.782,245.259,1505.53,246.156,1504.602,247.503z"/>
	</g>
	<g>
		<path d="M1560.708,242.361l6.234-11.589c2.374,1.247,4.471,1.678,6.29,1.297c1.818-0.38,3.355-1.48,4.611-3.303
			c1.583-2.296,1.874-4.978,0.872-8.044c-1.002-3.065-4.676-7.114-11.018-12.148c1.319,5.036,0.531,9.652-2.361,13.851
			c-3.148,4.567-7.626,7.292-13.433,8.177c-5.807,0.885-11.535-0.62-17.185-4.514c-5.886-4.057-9.426-9.076-10.617-15.058
			c-1.194-5.98,0.075-11.677,3.804-17.088c4.058-5.887,9.663-9.147,16.818-9.785s15.946,2.638,26.373,9.825
			c10.612,7.314,16.912,14.557,18.899,21.729c1.988,7.172,0.808,13.912-3.54,20.221c-3.13,4.54-6.867,7.377-11.211,8.51
			C1570.907,245.574,1566.06,244.881,1560.708,242.361z M1553.754,200.422c-3.591-2.474-6.943-3.567-10.061-3.283
			c-3.117,0.285-5.422,1.51-6.913,3.675c-1.42,2.059-1.786,4.328-1.099,6.805c0.688,2.479,2.878,4.992,6.573,7.538
			c3.748,2.584,7.01,3.741,9.783,3.472c2.776-0.267,4.927-1.511,6.454-3.728c1.474-2.137,1.871-4.521,1.19-7.152
			C1559.004,205.121,1557.028,202.678,1553.754,200.422z"/>
	</g>
	<g>
		<path d="M1573.268,297.159c4.537-5.103,9.905-7.472,16.105-7.107c7.358,0.408,16.033,5.056,26.023,13.941
			c9.967,8.863,15.595,16.958,16.888,24.285c1.059,6.047-0.683,11.622-5.221,16.724c-4.56,5.127-10.205,7.508-16.938,7.141
			c-6.731-0.365-15.151-5.045-25.263-14.036c-9.918-8.82-15.521-16.894-16.815-24.222
			C1566.988,307.837,1568.729,302.262,1573.268,297.159z M1581.641,304.604c-1.088,1.222-1.666,2.658-1.74,4.309
			c-0.073,1.65,0.661,3.635,2.205,5.95c1.994,3.018,6.082,7.274,12.262,12.772c6.181,5.496,10.703,8.963,13.569,10.395
			c2.866,1.434,5.103,2.017,6.711,1.753c1.609-0.264,2.955-1.007,4.042-2.229c1.087-1.222,1.667-2.657,1.74-4.309
			c0.073-1.65-0.661-3.635-2.206-5.951c-1.969-2.995-6.044-7.242-12.226-12.739c-6.182-5.497-10.704-8.961-13.57-10.396
			c-2.865-1.432-5.107-2.022-6.728-1.768C1584.08,302.646,1582.728,303.384,1581.641,304.604z"/>
	</g>
	<g>
		<path d="M1629.224,283.523c-3.425,1.631-6.628,2.182-9.612,1.653c-2.982-0.528-5.625-1.816-7.925-3.862
			c-3.929-3.494-5.956-7.751-6.078-12.775c-0.125-5.023,2.062-10.062,6.557-15.117c4.452-5.007,9.191-7.754,14.217-8.242
			c5.023-0.487,9.5,1.016,13.429,4.51c2.443,2.173,4.054,4.742,4.828,7.705c0.774,2.964,0.643,6.042-0.396,9.238
			c3.772-1.878,7.463-2.578,11.068-2.096c3.604,0.481,6.881,2.033,9.827,4.653c4.863,4.326,7.435,9.393,7.719,15.2
			c0.284,5.809-1.866,11.288-6.445,16.438c-4.262,4.79-9.066,7.662-14.416,8.609c-6.315,1.121-12.062-0.622-17.236-5.223
			c-2.851-2.536-4.84-5.569-5.966-9.105C1627.668,291.58,1627.811,287.714,1629.224,283.523z M1620.908,272.393
			c2.013,1.791,4.087,2.617,6.226,2.479c2.138-0.136,4.048-1.15,5.731-3.043c1.703-1.917,2.499-3.957,2.384-6.118
			c-0.114-2.162-1.179-4.138-3.191-5.928c-1.893-1.682-3.913-2.461-6.064-2.336c-2.15,0.126-4.055,1.122-5.718,2.991
			c-1.726,1.94-2.525,3.997-2.397,6.171C1618.004,268.782,1619.016,270.71,1620.908,272.393z M1642.644,293.398
			c2.779,2.471,5.581,3.686,8.406,3.646c2.826-0.039,5.187-1.127,7.082-3.259c1.854-2.085,2.64-4.475,2.356-7.173
			c-0.281-2.697-1.837-5.302-4.664-7.817c-2.466-2.194-5.067-3.263-7.8-3.206c-2.733,0.059-5.049,1.153-6.944,3.285
			c-2.195,2.468-2.981,5.063-2.354,7.785C1639.35,289.383,1640.655,291.63,1642.644,293.398z"/>
	</g>
	<g>
		<path d="M1643.225,360.601c5.078-4.566,10.679-6.324,16.796-5.271c7.268,1.226,15.37,6.811,24.309,16.752
			c8.918,9.919,13.61,18.589,14.079,26.015c0.379,6.128-1.972,11.474-7.05,16.041c-5.103,4.589-10.979,6.325-17.628,5.21
			c-6.648-1.113-14.497-6.701-23.543-16.762c-8.875-9.87-13.545-18.518-14.014-25.944
			C1635.797,370.514,1638.147,365.167,1643.225,360.601z M1650.717,368.933c-1.215,1.092-1.952,2.457-2.208,4.088
			c-0.259,1.633,0.251,3.687,1.528,6.159c1.646,3.221,5.234,7.906,10.765,14.057c5.53,6.151,9.64,10.099,12.327,11.842
			c2.688,1.744,4.848,2.573,6.476,2.488c1.628-0.083,3.05-0.671,4.265-1.766c1.217-1.094,1.952-2.457,2.21-4.088
			c0.256-1.631-0.254-3.685-1.529-6.159c-1.624-3.196-5.202-7.87-10.732-14.022c-5.53-6.151-9.64-10.098-12.327-11.842
			c-2.688-1.744-4.853-2.579-6.491-2.508C1653.361,367.258,1651.933,367.84,1650.717,368.933z"/>
	</g>
	<g>
		<path d="M1679.066,346.937l-8.393-9.334l34.366-30.901l6.56,7.295c-0.329,5.341,0.387,11.939,2.148,19.798
			c1.762,7.857,4.518,15.417,8.265,22.675c3.746,7.261,7.71,13.191,11.892,17.795l-9.69,8.714
			c-6.35-7.397-11.5-16.134-15.448-26.207c-3.949-10.075-6.231-20.203-6.849-30.383L1679.066,346.937z"/>
	</g>
	<g>
		<path d="M1705.714,430.452c5.506-4.04,11.25-5.231,17.234-3.579c7.109,1.94,14.619,8.3,22.526,19.079
			c7.891,10.753,11.699,19.846,11.428,27.281c-0.232,6.134-3.099,11.22-8.605,15.26c-5.532,4.059-11.55,5.204-18.056,3.436
			s-13.76-8.105-21.763-19.013c-7.852-10.701-11.642-19.769-11.371-27.205C1697.34,439.577,1700.208,434.49,1705.714,430.452z
			 M1712.342,439.485c-1.318,0.967-2.188,2.251-2.604,3.848c-0.418,1.599-0.115,3.692,0.909,6.28
			c1.316,3.369,4.423,8.385,9.316,15.054c4.893,6.668,8.589,11.004,11.092,13.004c2.501,2.001,4.566,3.042,6.195,3.119
			c1.628,0.078,3.102-0.367,4.419-1.334c1.317-0.966,2.186-2.25,2.604-3.848c0.417-1.598,0.113-3.692-0.91-6.281
			c-1.3-3.342-4.394-8.345-9.287-15.015c-4.894-6.669-8.591-11.003-11.093-13.006c-2.503-2.001-4.571-3.047-6.208-3.137
			C1715.138,438.08,1713.661,438.518,1712.342,439.485z"/>
	</g>
	<g>
		<path d="M1781.858,396.354l-9.692,8.901c-1.852-1.982-3.698-3.091-5.543-3.329c-1.844-0.237-3.633,0.28-5.364,1.551
			c-2.301,1.688-3.487,4.149-3.558,7.384c-0.073,3.235,2.082,8.272,6.468,15.115c0.362-5.196,2.56-9.274,6.592-12.233
			c4.55-3.338,9.717-4.465,15.502-3.382c5.785,1.085,10.688,4.364,14.709,9.845c4.266,5.815,5.984,11.734,5.15,17.752
			c-0.833,6.019-3.924,10.991-9.274,14.916c-5.736,4.21-12.091,5.442-19.058,3.696c-6.969-1.747-14.179-7.699-21.633-17.858
			c-7.642-10.416-11.225-19.338-10.75-26.765c0.476-7.425,3.789-13.397,9.941-17.911c4.317-3.166,8.776-4.58,13.38-4.239
			C1773.332,390.136,1777.709,392.322,1781.858,396.354z M1774.598,438.242c2.6,3.541,5.419,5.677,8.459,6.407
			s5.608,0.328,7.702-1.207c2.017-1.48,3.117-3.5,3.306-6.064c0.186-2.561-1.038-5.639-3.674-9.232
			c-2.712-3.696-5.421-5.874-8.129-6.53c-2.71-0.657-5.149-0.189-7.32,1.403c-2.094,1.537-3.262,3.657-3.505,6.36
			C1771.193,432.082,1772.247,435.037,1774.598,438.242z"/>
	</g>
	<g>
		<path d="M1761.133,508.673c5.851-3.522,11.681-4.186,17.489-1.996c6.903,2.579,13.802,9.596,20.696,21.049
			c6.879,11.426,9.846,20.83,8.898,28.209c-0.788,6.088-4.107,10.892-9.958,14.414c-5.878,3.538-11.975,4.132-18.292,1.779
			c-6.318-2.351-12.965-9.323-19.942-20.914c-6.846-11.371-9.796-20.745-8.848-28.126
			C1751.963,516.999,1755.283,512.193,1761.133,508.673z M1766.912,518.272c-1.4,0.843-2.382,2.043-2.944,3.595
			c-0.562,1.555-0.45,3.667,0.336,6.338c1.006,3.474,3.642,8.753,7.908,15.838c4.266,7.086,7.552,11.74,9.862,13.96
			c2.311,2.221,4.27,3.444,5.887,3.669c1.613,0.227,3.121-0.083,4.521-0.926c1.401-0.844,2.383-2.041,2.943-3.596
			c0.562-1.554,0.45-3.666-0.335-6.337c-0.988-3.447-3.616-8.712-7.881-15.798c-4.266-7.086-7.555-11.739-9.863-13.96
			c-2.31-2.221-4.276-3.45-5.898-3.689C1769.823,517.127,1768.312,517.428,1766.912,518.272z"/>
	</g>
	<g>
		<path d="M1819.113,535.232l10.816-8.139c1.9,2.41,4.118,3.89,6.657,4.439c2.538,0.549,4.863,0.187,6.979-1.086
			c2.416-1.455,3.872-3.667,4.365-6.642c0.492-2.971-0.451-6.436-2.831-10.392c-2.231-3.708-4.738-5.989-7.515-6.843
			c-2.779-0.854-5.5-0.478-8.164,1.125c-3.323,2-5.419,5.263-6.287,9.789l-10.211,4.295l-12.991-35.006l30.61-18.427l6.522,10.836
			l-21.836,13.144l4.362,11.35c1.804-2.845,4.052-5.078,6.743-6.699c5.138-3.092,10.614-3.844,16.435-2.259
			c5.818,1.586,10.523,5.359,14.111,11.319c2.992,4.971,4.221,10.276,3.684,15.912c-0.721,7.692-4.568,13.639-11.545,17.838
			c-5.574,3.356-11.022,4.595-16.34,3.718S1822.841,539.872,1819.113,535.232z"/>
	</g>
	<g>
		<path d="M1809.333,590.944c6.235-2.784,12.105-2.736,17.603,0.146c6.538,3.4,12.533,11.204,17.983,23.411
			c5.438,12.178,7.239,21.873,5.402,29.082c-1.522,5.946-5.402,10.311-11.638,13.096c-6.265,2.797-12.39,2.643-18.373-0.459
			c-5.985-3.102-11.736-10.831-17.253-23.185c-5.412-12.119-7.197-21.783-5.361-28.994
			C1799.22,598.093,1803.098,593.728,1809.333,590.944z M1813.902,601.175c-1.492,0.667-2.612,1.737-3.358,3.211
			c-0.745,1.474-0.892,3.585-0.438,6.331c0.575,3.57,2.549,9.13,5.92,16.683c3.373,7.553,6.071,12.571,8.095,15.056
			c2.02,2.486,3.819,3.939,5.394,4.359c1.577,0.421,3.109,0.298,4.602-0.369c1.495-0.667,2.612-1.737,3.36-3.211
			c0.745-1.474,0.892-3.585,0.437-6.331c-0.562-3.54-2.529-9.088-5.902-16.64c-3.372-7.553-6.069-12.57-8.091-15.056
			c-2.024-2.484-3.825-3.945-5.407-4.38C1816.933,600.393,1815.396,600.507,1813.902,601.175z"/>
	</g>
	<g>
		<path d="M1895.065,630.188l-5.784-12.953l-26.346,11.765l-4.823-10.802l9.674-53.351l10.362-4.627l18.234,40.837l7.991-3.568
			l4.842,10.846l-7.991,3.568l5.784,12.954L1895.065,630.188z M1884.438,606.389l-9.824-21.999l-4.975,28.606L1884.438,606.389z"/>
	</g>
	<g>
		<path d="M1848.334,676.302c6.528-2.005,12.348-1.241,17.455,2.287c6.075,4.171,11.077,12.647,15.003,25.426
			c3.916,12.75,4.523,22.592,1.823,29.524c-2.236,5.718-6.617,9.578-13.147,11.583c-6.559,2.015-12.619,1.117-18.183-2.692
			c-5.563-3.808-10.33-12.179-14.303-25.113c-3.897-12.688-4.494-22.498-1.796-29.433
			C1837.425,682.168,1841.806,678.306,1848.334,676.302z M1851.623,687.014c-1.563,0.48-2.805,1.406-3.724,2.777
			c-0.92,1.373-1.323,3.451-1.206,6.232c0.138,3.613,1.42,9.374,3.849,17.281c2.43,7.906,4.495,13.218,6.201,15.93
			c1.706,2.713,3.313,4.373,4.825,4.982c1.513,0.609,3.05,0.674,4.612,0.193c1.563-0.48,2.807-1.405,3.726-2.778
			c0.919-1.372,1.322-3.45,1.206-6.231c-0.128-3.583-1.406-9.328-3.834-17.235c-2.428-7.908-4.495-13.217-6.201-15.931
			c-1.704-2.714-3.315-4.382-4.831-5.006C1854.726,686.606,1853.188,686.534,1851.623,687.014z"/>
	</g>
	<g>
		<path d="M1897.374,715.724l12.038-5.357c1.376,3.065,3.198,5.173,5.463,6.32c2.264,1.15,4.637,1.343,7.12,0.58
			c2.666-0.819,4.601-2.52,5.802-5.103c1.203-2.581,1.276-5.59,0.223-9.022c-0.998-3.248-2.662-5.555-4.991-6.918
			c-2.33-1.363-4.753-1.66-7.266-0.888c-1.656,0.509-3.532,1.437-5.634,2.786l-1.809-10.965c3.522-0.982,5.955-2.558,7.301-4.731
			c1.345-2.175,1.608-4.595,0.789-7.262c-0.695-2.268-1.927-3.868-3.689-4.803c-1.762-0.935-3.763-1.059-6-0.372
			c-2.207,0.678-3.855,2.023-4.948,4.035c-1.092,2.014-1.355,4.541-0.789,7.588l-12.527,1.635c-0.425-4.331-0.177-7.97,0.746-10.92
			c0.922-2.949,2.663-5.579,5.224-7.894c2.561-2.312,5.692-4.037,9.402-5.176c6.344-1.948,12.052-1.487,17.126,1.38
			c4.172,2.34,6.9,5.595,8.181,9.764c1.816,5.915,0.032,11.628-5.353,17.138c4.116-0.358,7.773,0.549,10.971,2.717
			c3.198,2.172,5.424,5.295,6.677,9.37c1.816,5.915,1.204,11.621-1.838,17.116c-3.041,5.495-7.779,9.23-14.217,11.208
			c-6.098,1.872-11.693,1.671-16.786-0.605C1903.496,725.071,1899.759,721.197,1897.374,715.724z"/>
	</g>
	<g>
		<path d="M1876.847,767.959c6.687-1.383,12.406-0.077,17.162,3.916c5.656,4.722,9.84,13.629,12.547,26.721
			c2.7,13.06,2.382,22.915-0.958,29.562c-2.763,5.482-7.487,8.914-14.173,10.297c-6.719,1.39-12.668-0.073-17.849-4.387
			s-9.141-13.095-11.88-26.344c-2.687-12.998-2.362-22.82,0.978-29.469C1865.436,772.775,1870.162,769.341,1876.847,767.959z
			 M1879.117,778.932c-1.602,0.331-2.926,1.137-3.97,2.417s-1.641,3.31-1.786,6.09c-0.203,3.609,0.534,9.465,2.209,17.565
			c1.674,8.099,3.232,13.581,4.676,16.441c1.443,2.861,2.888,4.666,4.337,5.414c1.447,0.749,2.972,0.956,4.573,0.626
			c1.601-0.332,2.924-1.137,3.969-2.416c1.044-1.28,1.64-3.31,1.784-6.091c0.209-3.579-0.523-9.419-2.197-17.519
			c-1.675-8.1-3.235-13.579-4.677-16.441c-1.442-2.86-2.89-4.672-4.342-5.437C1882.244,778.817,1880.717,778.601,1879.117,778.932z"
			/>
	</g>
	<g>
		<path d="M1968.372,808.5l2.542,12.291l-46.386,9.592c-0.459-4.75,0.138-9.464,1.789-14.144c1.651-4.68,5.47-11.223,11.457-19.63
			c4.816-6.79,7.694-11.313,8.636-13.57c1.257-3.108,1.608-5.996,1.057-8.665c-0.61-2.95-1.872-5.056-3.785-6.314
			c-1.913-1.257-4.268-1.598-7.062-1.02c-2.765,0.572-4.788,1.858-6.077,3.86s-1.658,4.959-1.11,8.872l-13.458,1.408
			c-0.721-7.445,0.662-13.182,4.15-17.211c3.489-4.026,8.34-6.685,14.558-7.97c6.811-1.409,12.545-0.68,17.197,2.19
			c4.653,2.868,7.544,7.034,8.674,12.496c0.643,3.107,0.696,6.182,0.164,9.222c-0.535,3.041-1.693,6.349-3.473,9.926
			c-1.178,2.371-3.461,5.904-6.844,10.597c-3.383,4.694-5.503,7.784-6.357,9.27c-0.856,1.487-1.505,2.897-1.947,4.232
			L1968.372,808.5z"/>
	</g>
	<g>
		<path d="M1895.388,861.212c6.782-0.806,12.369,0.986,16.763,5.372c5.234,5.189,8.638,14.423,10.214,27.698
			c1.572,13.245,0.41,23.036-3.486,29.374c-3.222,5.225-8.222,8.24-15.004,9.046c-6.813,0.808-12.615-1.158-17.408-5.9
			c-4.793-4.741-7.986-13.829-9.581-27.265c-1.564-13.181-0.396-22.939,3.498-29.279
			C1883.605,865.032,1888.607,862.017,1895.388,861.212z M1896.708,872.339c-1.623,0.192-3.011,0.882-4.16,2.067
			c-1.151,1.188-1.919,3.158-2.301,5.916c-0.512,3.58-0.279,9.477,0.696,17.69c0.976,8.215,2.059,13.808,3.25,16.781
			c1.192,2.975,2.478,4.896,3.856,5.765c1.378,0.87,2.88,1.208,4.503,1.016c1.623-0.192,3.01-0.881,4.161-2.068
			c1.15-1.186,1.918-3.158,2.299-5.915c0.516-3.548,0.286-9.429-0.689-17.643c-0.976-8.214-2.06-13.808-3.251-16.782
			c-1.193-2.974-2.478-4.903-3.858-5.79C1899.834,872.493,1898.332,872.146,1896.708,872.339z"/>
	</g>
	<g>
		<path d="M1973.603,923.211l-13.419,1.594l-6.004-50.572c-4.359,5.167-9.734,9.243-16.126,12.23l-1.446-12.177
			c3.365-1.562,6.911-4.186,10.639-7.874c3.729-3.687,6.102-7.753,7.122-12.201l10.889-1.293L1973.603,923.211z"/>
	</g>
</g>
</svg>
