<?xml version="1.0" encoding="utf-8"?>
<!-- Generator: Adobe Illustrator 17.0.0, SVG Export Plug-In . SVG Version: 6.00 Build 0)  -->
<!DOCTYPE svg PUBLIC "-//W3C//DTD SVG 1.1//EN" "http://www.w3.org/Graphics/SVG/1.1/DTD/svg11.dtd">
<svg version="1.1" id="Layer_1" xmlns="http://www.w3.org/2000/svg" xmlns:xlink="http://www.w3.org/1999/xlink" x="0px" y="0px"
	 width="2000px" fill="rgba(47,47,47,1)" height="2000px" viewBox="0 0 2000 2000" enable-background="new 0 0 2000 2000" xml:space="preserve">
<g>
	<g>
		<path d="M1904.307,953.336c6.829,0.004,12.166,2.445,16.009,7.32c4.581,5.774,6.867,15.346,6.858,28.713
			c-0.009,13.337-2.323,22.922-6.944,28.752c-3.818,4.808-9.142,7.208-15.97,7.204c-6.861-0.004-12.39-2.645-16.586-7.921
			c-4.197-5.275-6.291-14.679-6.282-28.208c0.008-13.273,2.324-22.825,6.943-28.657
			C1892.155,955.733,1897.478,953.331,1904.307,953.336z M1904.3,964.541c-1.635-0.001-3.094,0.519-4.378,1.56
			c-1.283,1.041-2.278,2.908-2.984,5.601c-0.933,3.495-1.401,9.376-1.406,17.648c-0.005,8.272,0.407,13.955,1.239,17.049
			c0.831,3.095,1.88,5.154,3.146,6.18c1.265,1.027,2.716,1.541,4.351,1.542s3.094-0.519,4.378-1.56
			c1.283-1.041,2.277-2.908,2.984-5.601c0.932-3.462,1.402-9.33,1.408-17.6c0.005-8.271-0.409-13.954-1.24-17.049
			c-0.832-3.094-1.881-5.162-3.145-6.206C1907.384,965.064,1905.935,964.541,1904.3,964.541z"/>
	</g>
	<g>
		<path d="M1962.934,953.374c6.829,0.005,12.166,2.445,16.009,7.32c4.581,5.774,6.867,15.346,6.858,28.713
			c-0.009,13.337-2.323,22.922-6.944,28.752c-3.818,4.808-9.142,7.208-15.97,7.204c-6.861-0.004-12.39-2.644-16.586-7.921
			c-4.197-5.275-6.291-14.679-6.282-28.209c0.008-13.273,2.324-22.825,6.943-28.657
			C1950.781,955.771,1956.105,953.369,1962.934,953.374z M1962.927,964.579c-1.635-0.001-3.094,0.519-4.378,1.56
			c-1.283,1.041-2.278,2.908-2.984,5.601c-0.933,3.495-1.401,9.376-1.406,17.648c-0.005,8.272,0.407,13.955,1.239,17.049
			s1.88,5.154,3.146,6.181c1.265,1.027,2.716,1.541,4.351,1.542s3.094-0.519,4.378-1.56c1.283-1.041,2.277-2.908,2.984-5.601
			c0.932-3.462,1.402-9.33,1.408-17.6c0.005-8.271-0.409-13.954-1.24-17.049c-0.832-3.094-1.881-5.162-3.145-6.206
			C1966.012,965.101,1964.562,964.58,1962.927,964.579z"/>
	</g>
	<g>
		<path d="M1877.827,1101.225l13.528-0.463c0.174,3.065,1.143,5.551,2.908,7.456
			c1.765,1.906,3.879,2.942,6.342,3.113c2.814,0.193,5.275-0.785,7.385-2.935c2.108-2.151,3.322-5.532,3.641-10.139
			c0.299-4.317-0.445-7.622-2.232-9.915c-1.785-2.292-4.229-3.546-7.331-3.76c-3.871-0.268-7.46,1.204-10.767,4.413l-10.828-2.339
			l9.437-36.129l35.647,2.463l-0.872,12.618l-25.429-1.756l-2.937,11.8c3.11-1.295,6.231-1.835,9.367-1.618
			c5.979,0.413,10.898,2.939,14.758,7.576c3.855,4.638,5.547,10.426,5.067,17.366c-0.4,5.79-2.437,10.839-6.11,15.148
			c-5.003,5.89-11.566,8.553-19.69,7.993c-6.494-0.449-11.666-2.559-15.519-6.328
			C1880.343,1112.019,1878.221,1107.165,1877.827,1101.225z"/>
	</g>
	<g>
		<path d="M1936.289,1107.097l13.148-0.539c0.135,2.678,0.832,4.702,2.085,6.074
			c1.256,1.372,2.987,2.135,5.195,2.287c2.781,0.192,5.236-0.922,7.364-3.347c2.128-2.423,3.742-7.647,4.843-15.671
			c-3.662,3.701-8.036,5.375-13.122,5.023c-5.534-0.383-10.161-2.846-13.879-7.395c-3.719-4.547-5.341-10.242-4.869-17.088
			c0.493-7.133,3.008-12.734,7.549-16.808c4.539-4.072,10.087-5.884,16.644-5.429c7.133,0.493,12.795,3.656,16.988,9.49
			c4.192,5.834,5.852,15.067,4.979,27.701c-0.889,12.857-3.914,21.97-9.072,27.333c-5.158,5.365-11.561,7.781-19.205,7.254
			c-5.503-0.38-9.847-2.153-13.035-5.312C1938.717,1117.507,1936.845,1112.984,1936.289,1107.097z M1968.836,1079.746
			c0.3-4.35-0.465-7.793-2.298-10.329c-1.834-2.538-4.061-3.897-6.686-4.077c-2.495-0.173-4.635,0.668-6.417,2.52
			c-1.783,1.853-2.829,5.019-3.138,9.496c-0.315,4.542,0.35,7.938,1.995,10.19c1.643,2.25,3.81,3.469,6.496,3.655
			c2.591,0.178,4.845-0.695,6.762-2.619C1967.468,1086.659,1968.563,1083.712,1968.836,1079.746z"/>
	</g>
	<g>
		<path d="M1861.162,1192.357l13.507,0.893c-0.134,3.068,0.583,5.636,2.146,7.708
			c1.565,2.072,3.563,3.317,5.996,3.733c2.78,0.476,5.329-0.252,7.643-2.182s3.858-5.171,4.637-9.721
			c0.729-4.267,0.319-7.629-1.227-10.09c-1.547-2.46-3.854-3.951-6.919-4.475c-3.823-0.653-7.541,0.452-11.152,3.314l-10.541-3.41
			l13.006-35.001l35.22,6.018l-2.13,12.468l-25.123-4.293l-4.103,11.445c3.225-0.977,6.385-1.2,9.483-0.672
			c5.91,1.01,10.55,4.015,13.925,9.014c3.373,4.999,4.474,10.928,3.302,17.784c-0.978,5.721-3.509,10.542-7.594,14.462
			c-5.566,5.358-12.363,7.35-20.39,5.978c-6.416-1.096-11.352-3.712-14.808-7.847
			C1862.584,1203.35,1860.958,1198.306,1861.162,1192.357z"/>
	</g>
	<g>
		<path d="M1933.541,1184.528c-3.198-2.042-5.36-4.468-6.489-7.28c-1.13-2.812-1.436-5.734-0.917-8.768
			c0.886-5.184,3.426-9.154,7.623-11.919c4.196-2.764,9.629-3.575,16.297-2.436c6.604,1.129,11.443,3.695,14.516,7.7
			c3.071,4.005,4.166,8.6,3.279,13.781c-0.551,3.224-1.877,5.948-3.982,8.175c-2.105,2.227-4.786,3.744-8.047,4.553
			c3.592,2.208,6.135,4.968,7.634,8.281c1.499,3.314,1.918,6.913,1.253,10.8c-1.096,6.416-4.033,11.281-8.813,14.593
			c-4.779,3.315-10.565,4.391-17.358,3.23c-6.319-1.08-11.299-3.638-14.934-7.674c-4.292-4.766-5.853-10.563-4.687-17.389
			c0.643-3.759,2.164-7.052,4.567-9.879C1925.881,1187.471,1929.234,1185.55,1933.541,1184.528z M1932.261,1201.141
			c-0.627,3.666-0.175,6.686,1.354,9.062s3.7,3.802,6.513,4.284c2.749,0.47,5.193-0.128,7.332-1.796s3.527-4.365,4.164-8.095
			c0.556-3.254,0.085-6.025-1.409-8.314c-1.496-2.288-3.65-3.673-6.463-4.154c-3.256-0.556-5.873,0.152-7.852,2.123
			C1933.922,1196.222,1932.709,1198.518,1932.261,1201.141z M1938.582,1171.584c-0.454,2.655-0.057,4.852,1.191,6.593
			c1.247,1.742,3.117,2.826,5.615,3.251c2.527,0.433,4.679,0.028,6.452-1.214s2.889-3.19,3.341-5.845
			c0.427-2.496,0.018-4.623-1.225-6.381c-1.246-1.758-3.101-2.847-5.565-3.268c-2.559-0.438-4.728-0.027-6.502,1.229
			C1940.109,1167.21,1939.008,1169.087,1938.582,1171.584z"/>
	</g>
	<g>
		<path d="M1836.6,1279.64l13.279,2.632c-0.529,3.025-0.152,5.665,1.131,7.923c1.283,2.258,3.105,3.749,5.466,4.477
			c2.695,0.831,5.316,0.438,7.86-1.176c2.544-1.615,4.494-4.63,5.854-9.042c1.274-4.136,1.304-7.524,0.087-10.163
			c-1.217-2.639-3.31-4.417-6.281-5.332c-3.709-1.142-7.537-0.526-11.487,1.845l-10.013-4.745l17.419-33.029l34.149,10.52
			l-3.723,12.088l-24.36-7.504l-5.547,10.822c3.324-0.554,6.487-0.367,9.491,0.558c5.728,1.765,9.941,5.344,12.643,10.738
			c2.698,5.394,3.022,11.416,0.974,18.064c-1.709,5.547-4.84,10-9.399,13.359c-6.213,4.595-13.21,5.691-20.993,3.295
			c-6.22-1.917-10.776-5.149-13.668-9.697C1836.589,1290.725,1835.629,1285.514,1836.6,1279.64z"/>
	</g>
	<g>
		<path d="M1903.886,1259.708l3.696-11.994l44.168,13.605l-2.888,9.376c-4.751,2.462-10.043,6.467-15.879,12.017
			c-5.836,5.548-10.904,11.796-15.208,18.739c-4.303,6.944-7.354,13.392-9.155,19.346l-12.454-3.836
			c3.083-9.248,7.933-18.155,14.545-26.719s14.13-15.726,22.545-21.487L1903.886,1259.708z"/>
	</g>
	<g>
		<path d="M1802.242,1367.534l12.982,3.833c-0.804,2.964-0.669,5.627,0.404,7.992
			c1.07,2.365,2.748,4.018,5.031,4.956c2.61,1.074,5.254,0.924,7.935-0.452c2.681-1.375,4.899-4.197,6.656-8.469
			c1.648-4.002,1.985-7.373,1.016-10.111c-0.971-2.74-2.893-4.701-5.768-5.884c-3.587-1.476-7.457-1.213-11.608,0.789l-9.536-5.641
			l20.365-31.297l33.043,13.595l-4.813,11.696l-23.57-9.698l-6.514,10.267c3.36-0.246,6.493,0.229,9.398,1.424
			c5.543,2.28,9.414,6.231,11.609,11.848c2.193,5.617,1.968,11.644-0.679,18.077c-2.208,5.366-5.735,9.515-10.579,12.442
			c-6.607,4.008-13.675,4.462-21.205,1.363c-6.02-2.477-10.26-6.111-12.725-10.904
			C1801.219,1378.571,1800.738,1373.294,1802.242,1367.534z"/>
	</g>
	<g>
		<path d="M1911.974,1374.724l-12.645-3.642c0.73-2.613,0.714-4.767-0.043-6.466
			c-0.758-1.698-2.131-2.956-4.116-3.774c-2.638-1.086-5.356-0.817-8.156,0.804c-2.799,1.622-5.981,6.086-9.54,13.391
			c4.625-2.394,9.252-2.64,13.876-0.739c5.217,2.147,8.869,5.974,10.956,11.476c2.086,5.505,1.837,11.398-0.749,17.684
			c-2.744,6.671-6.903,11.217-12.476,13.638c-5.574,2.422-11.428,2.371-17.565-0.155c-6.581-2.708-10.939-7.491-13.075-14.349
			c-2.135-6.859-0.805-16.113,3.989-27.767c4.915-11.947,10.667-19.651,17.257-23.111c6.588-3.46,13.411-3.737,20.468-0.834
			c4.95,2.036,8.478,5.11,10.587,9.217C1912.844,1364.207,1913.256,1369.083,1911.974,1374.724z M1872.431,1390.331
			c-1.671,4.062-2.027,7.582-1.07,10.558c0.959,2.978,2.64,4.96,5.04,5.948c2.313,0.952,4.612,0.839,6.897-0.335
			c2.286-1.174,4.277-3.82,5.973-7.942c1.743-4.239,2.193-7.687,1.342-10.342c-0.849-2.654-2.518-4.494-5.009-5.52
			c-2.401-0.988-4.82-0.881-7.254,0.317C1875.915,1384.215,1873.943,1386.655,1872.431,1390.331z"/>
	</g>
	<g>
		<path d="M1759.475,1448.023l12.411,5.402c-1.161,2.842-1.356,5.501-0.582,7.98
			c0.774,2.479,2.234,4.325,4.384,5.539c2.458,1.386,5.101,1.562,7.931,0.526c2.828-1.035,5.377-3.563,7.646-7.583
			c2.128-3.77,2.877-7.073,2.252-9.91c-0.627-2.838-2.295-5.022-5.003-6.548c-3.379-1.907-7.249-2.122-11.615-0.648l-8.768-6.77
			l24.061-28.55l31.117,17.557l-6.214,11.014l-22.197-12.524l-7.725,9.39c3.364,0.168,6.414,1.023,9.151,2.568
			c5.221,2.944,8.575,7.34,10.062,13.187c1.487,5.845,0.522,11.797-2.897,17.854c-2.851,5.054-6.861,8.737-12.031,11.047
			c-7.049,3.165-14.118,2.746-21.211-1.255c-5.668-3.199-9.432-7.327-11.287-12.386
			C1757.102,1458.85,1757.273,1453.556,1759.475,1448.023z"/>
	</g>
	<g>
		<path d="M1810.533,1476.831l12.412,5.403c-1.162,2.841-1.357,5.5-0.583,7.98c0.773,2.479,2.234,4.325,4.385,5.538
			c2.456,1.386,5.098,1.563,7.93,0.526c2.828-1.035,5.379-3.562,7.648-7.583c2.126-3.769,2.876-7.075,2.251-9.911
			c-0.628-2.837-2.294-5.021-5.003-6.548c-3.378-1.905-7.25-2.121-11.616-0.648l-8.768-6.77l24.061-28.55l31.117,17.556
			l-6.214,11.015l-22.198-12.524l-7.726,9.389c3.365,0.169,6.415,1.025,9.151,2.569c5.221,2.944,8.575,7.339,10.064,13.186
			c1.486,5.845,0.521,11.797-2.897,17.854c-2.852,5.056-6.861,8.737-12.029,11.047c-7.05,3.164-14.119,2.746-21.211-1.255
			c-5.67-3.198-9.432-7.327-11.288-12.387C1808.161,1487.657,1808.332,1482.362,1810.533,1476.831z"/>
	</g>
	<g>
		<path d="M1708.11,1525.384l11.856,6.534c-1.422,2.723-1.862,5.353-1.323,7.893c0.54,2.541,1.822,4.514,3.85,5.923
			c2.317,1.609,4.934,2.029,7.849,1.262c2.913-0.768,5.688-3.047,8.32-6.839c2.469-3.556,3.522-6.774,3.164-9.658
			c-0.359-2.884-1.817-5.213-4.37-6.986c-3.187-2.213-7.021-2.787-11.507-1.726l-8.1-7.556l26.615-26.192l29.35,20.378l-7.214,10.39
			l-20.936-14.535l-8.568,8.629c3.335,0.482,6.292,1.617,8.874,3.41c4.924,3.419,7.853,8.109,8.792,14.067
			c0.936,5.959-0.578,11.797-4.546,17.512c-3.31,4.768-7.645,8.059-13.006,9.88c-7.314,2.495-14.315,1.42-21.003-3.226
			c-5.346-3.711-8.707-8.173-10.085-13.383C1704.739,1535.946,1705.403,1530.688,1708.11,1525.384z"/>
	</g>
	<g>
		<path d="M1767.536,1588.717l8.091-11.653l-23.701-16.457l6.747-9.718l50.659-19.333l9.322,6.473l-25.506,36.738
			l7.188,4.99l-6.774,9.758l-7.19-4.991l-8.091,11.653L1767.536,1588.717z M1782.402,1567.306l13.741-19.791l-27.053,10.548
			L1782.402,1567.306z"/>
	</g>
	<g>
		<path d="M1650.121,1596.317l10.906,8.021c-1.764,2.514-2.542,5.065-2.339,7.653
			c0.204,2.589,1.22,4.714,3.047,6.373c2.089,1.897,4.627,2.654,7.615,2.273c2.988-0.383,6.035-2.283,9.139-5.701
			c2.91-3.204,4.375-6.259,4.394-9.164c0.019-2.906-1.122-5.405-3.425-7.495c-2.871-2.608-6.6-3.677-11.185-3.205l-7.049-8.548
			l29.794-22.506l26.451,24.021l-8.503,9.364l-18.868-17.135l-9.616,7.441c3.243,0.91,6.028,2.422,8.354,4.534
			c4.436,4.03,6.734,9.061,6.888,15.09c0.152,6.028-2.107,11.62-6.784,16.769c-3.901,4.296-8.629,6.998-14.181,8.104
			c-7.575,1.521-14.377-0.454-20.404-5.93c-4.819-4.377-7.572-9.235-8.261-14.581
			C1645.407,1606.349,1646.749,1601.222,1650.121,1596.317z"/>
	</g>
	<g>
		<path d="M1693.413,1634.852l10.75,7.619c-1.934,2.748-2.817,5.389-2.648,7.922c0.167,2.535,1.212,4.674,3.134,6.42
			c2.064,1.875,4.515,2.67,7.35,2.386c2.834-0.283,5.458-1.755,7.873-4.413c2.283-2.515,3.418-5.122,3.402-7.824
			c-0.017-2.698-0.999-4.933-2.943-6.699c-1.282-1.165-3.041-2.305-5.273-3.423l8.507-7.149c2.643,2.527,5.238,3.816,7.795,3.863
			c2.555,0.047,4.771-0.962,6.647-3.027c1.594-1.755,2.343-3.632,2.248-5.624c-0.097-1.992-1.01-3.773-2.743-5.348
			c-1.709-1.552-3.708-2.284-5.995-2.197c-2.288,0.087-4.599,1.151-6.928,3.192l-7.799-9.94c3.508-2.575,6.765-4.22,9.773-4.931
			c3.005-0.712,6.157-0.557,9.452,0.466c3.294,1.022,6.377,2.836,9.249,5.444c4.912,4.462,7.43,9.605,7.551,15.432
			c0.117,4.783-1.291,8.789-4.222,12.017c-4.16,4.579-9.983,5.961-17.469,4.143c2.408,3.355,3.494,6.964,3.261,10.82
			c-0.233,3.859-1.784,7.366-4.651,10.522c-4.16,4.58-9.379,6.966-15.655,7.154c-6.277,0.189-11.908-1.981-16.892-6.506
			c-4.723-4.29-7.405-9.204-8.045-14.745C1688.499,1644.887,1689.923,1639.694,1693.413,1634.852z"/>
	</g>
	<g>
		<path d="M1583.117,1661.015l10.277,8.81c-1.944,2.375-2.911,4.86-2.901,7.457c0.011,2.597,0.866,4.79,2.565,6.581
			c1.941,2.046,4.416,2.991,7.426,2.833c3.008-0.159,6.19-1.826,9.538-5.004c3.14-2.978,4.828-5.915,5.062-8.811
			c0.234-2.898-0.718-5.475-2.857-7.731c-2.669-2.815-6.309-4.157-10.914-4.03l-6.394-9.047l31.388-20.225l24.589,25.925
			l-9.176,8.703l-17.539-18.491l-10.145,6.705c3.167,1.149,5.831,2.864,7.994,5.145c4.125,4.349,6.04,9.537,5.745,15.561
			c-0.296,6.025-2.967,11.43-8.016,16.218c-4.211,3.993-9.123,6.336-14.744,7.026c-7.668,0.953-14.303-1.524-19.908-7.433
			c-4.477-4.722-6.86-9.775-7.151-15.155C1577.669,1670.666,1579.389,1665.656,1583.117,1661.015z"/>
	</g>
	<g>
		<path d="M1650.686,1740.363l-9.107,8.637l-32.596-34.368c3.794-2.894,8.117-4.871,12.965-5.932
			c4.845-1.063,12.42-1.265,22.721-0.606c8.309,0.513,13.671,0.577,16.085,0.189c3.304-0.572,5.943-1.794,7.92-3.669
			c2.187-2.074,3.31-4.256,3.37-6.545c0.061-2.288-0.891-4.467-2.853-6.537c-1.942-2.048-4.103-3.093-6.482-3.132
			c-2.381-0.04-5.088,1.203-8.127,3.729l-8.288-10.695c5.947-4.537,11.552-6.383,16.813-5.541
			c5.263,0.842,10.077,3.565,14.445,8.172c4.788,5.047,7.188,10.303,7.203,15.769c0.014,5.465-2.003,10.118-6.05,13.956
			c-2.303,2.184-4.888,3.85-7.751,4.999c-2.867,1.149-6.287,1.909-10.266,2.28c-2.639,0.248-6.843,0.17-12.613-0.232
			c-5.772-0.402-9.517-0.575-11.23-0.519c-1.713,0.057-3.255,0.248-4.623,0.575L1650.686,1740.363z"/>
	</g>
	<g>
		<path d="M1509.928,1720.644l9.613,9.531c-2.113,2.227-3.257,4.637-3.434,7.228c-0.178,2.59,0.517,4.841,2.08,6.749
			c1.789,2.183,4.188,3.304,7.202,3.364c3.012,0.059,6.304-1.373,9.875-4.301c3.349-2.742,5.243-5.552,5.688-8.422
			c0.446-2.871-0.318-5.51-2.289-7.916c-2.459-3.001-5.99-4.604-10.595-4.812l-5.721-9.486l32.771-17.899l22.645,27.638
			l-9.783,8.014l-16.153-19.714l-10.605,5.952c3.076,1.377,5.61,3.279,7.6,5.71c3.8,4.637,5.334,9.949,4.604,15.937
			c-0.732,5.985-3.789,11.186-9.169,15.594c-4.489,3.679-9.561,5.658-15.215,5.94c-7.718,0.395-14.156-2.556-19.316-8.854
			c-4.126-5.034-6.138-10.244-6.034-15.635C1503.794,1729.876,1505.873,1725.003,1509.928,1720.644z"/>
	</g>
	<g>
		<path d="M1554.855,1804.08l-8.564-10.453l39.392-32.277c-6.701-0.893-13.03-3.229-18.986-7.011l9.484-7.772
			c3.129,1.995,7.249,3.572,12.362,4.73s9.818,0.97,14.117-0.564l6.949,8.483L1554.855,1804.08z"/>
	</g>
	<g>
		<path d="M1434.744,1764.437l7.744,11.105c-2.479,1.811-4.038,3.976-4.678,6.493
			c-0.641,2.516-0.362,4.854,0.834,7.015c1.366,2.468,3.526,4.002,6.479,4.602c2.95,0.602,6.447-0.217,10.487-2.454
			c3.784-2.096,6.155-4.517,7.108-7.262c0.953-2.746,0.678-5.479-0.828-8.198c-1.88-3.395-5.064-5.607-9.559-6.637l-3.923-10.362
			l35.455-11.717l17.308,31.257l-11.065,6.128l-12.346-22.297l-11.5,3.951c2.776,1.904,4.928,4.234,6.449,6.982
			c2.904,5.244,3.458,10.746,1.664,16.504c-1.795,5.759-5.736,10.323-11.822,13.693c-5.076,2.811-10.422,3.847-16.034,3.108
			c-7.663-0.997-13.466-5.06-17.41-12.183c-3.153-5.693-4.195-11.181-3.126-16.464
			C1427.049,1772.416,1429.97,1767.996,1434.744,1764.437z"/>
	</g>
	<g>
		<path d="M1520.184,1810.032c3.309,5.973,3.762,11.823,1.364,17.549c-2.829,6.806-10.089,13.447-21.784,19.924
			c-11.668,6.461-21.172,9.086-28.513,7.875c-6.057-1.01-10.736-4.499-14.044-10.473c-3.324-6.003-3.697-12.118-1.117-18.346
			c2.578-6.229,9.785-12.62,21.622-19.175c11.611-6.431,21.086-9.039,28.429-7.828
			C1512.193,1800.566,1516.875,1804.057,1520.184,1810.032z M1510.381,1815.459c-0.792-1.431-1.955-2.454-3.486-3.07
			c-1.534-0.618-3.647-0.582-6.346,0.105c-3.509,0.879-8.879,3.322-16.116,7.329c-7.235,4.007-12.005,7.125-14.307,9.353
			c-2.304,2.228-3.597,4.144-3.88,5.748c-0.283,1.605-0.029,3.123,0.763,4.553c0.792,1.431,1.953,2.454,3.486,3.07
			c1.533,0.618,3.647,0.582,6.346-0.105c3.48-0.863,8.837-3.301,16.072-7.307c7.237-4.008,12.004-7.124,14.309-9.35
			c2.301-2.229,3.603-4.148,3.899-5.763C1511.42,1818.411,1511.173,1816.89,1510.381,1815.459z"/>
	</g>
	<g>
		<path d="M1345.935,1838.417l12.953-5.786l-11.771-26.347l10.802-4.826l53.354,9.664l4.629,10.362l-40.835,18.244
			l3.569,7.99l-10.845,4.845l-3.57-7.99l-12.952,5.787L1345.935,1838.417z M1369.733,1827.783l21.998-9.828l-28.609-4.97
			L1369.733,1827.783z"/>
	</g>
	<g>
		<path d="M1374.043,1861.366l6.654,11.355c-2.3,1.379-3.76,2.943-4.381,4.696c-0.622,1.751-0.482,3.639,0.421,5.657
			c1.138,2.547,3.276,4.19,6.416,4.93c3.141,0.738,8.509-0.291,16.107-3.088c-4.986-1.494-8.519-4.568-10.598-9.223
			c-2.263-5.064-2.261-10.308,0.005-15.727c2.267-5.419,6.532-9.527,12.797-12.326c6.528-2.917,12.655-3.329,18.385-1.234
			c5.728,2.093,9.934,6.141,12.615,12.142c2.916,6.527,2.784,13.012-0.396,19.455c-3.18,6.441-10.551,12.245-22.113,17.412
			c-11.768,5.258-21.232,6.869-28.393,4.835c-7.158-2.034-12.301-6.549-15.426-13.544c-2.249-5.036-2.728-9.703-1.435-14.003
			C1365.994,1868.403,1369.107,1864.625,1374.043,1861.366z M1413.478,1877.247c3.981-1.778,6.661-4.072,8.039-6.884
			c1.378-2.81,1.532-5.417,0.459-7.816c-1.02-2.282-2.768-3.775-5.241-4.479c-2.473-0.705-5.76-0.14-9.858,1.691
			c-4.156,1.857-6.843,4.041-8.056,6.55c-1.216,2.509-1.274,4.992-0.174,7.452c1.06,2.37,2.889,3.949,5.488,4.737
			C1406.735,1879.287,1409.849,1878.869,1413.478,1877.247z"/>
	</g>
	<g>
		<path d="M1256.491,1868.833l13.552-4.196l-8.534-27.564l11.303-3.499l51.817,15.975l3.357,10.842l-42.726,13.229
			l2.589,8.36l-11.348,3.514l-2.59-8.361l-13.552,4.196L1256.491,1868.833z M1281.391,1861.125l23.016-7.127l-27.808-8.355
			L1281.391,1861.125z"/>
	</g>
	<g>
		<path d="M1305.761,1899.348c0.375-3.775,1.561-6.803,3.556-9.082c1.994-2.279,4.464-3.875,7.404-4.785
			c5.022-1.555,9.716-1.086,14.078,1.406c4.362,2.492,7.545,6.969,9.546,13.431c1.981,6.4,1.882,11.878-0.301,16.43
			c-2.182,4.553-5.783,7.605-10.806,9.161c-3.125,0.968-6.154,1.016-9.093,0.146c-2.938-0.87-5.504-2.574-7.701-5.116
			c-0.345,4.201-1.654,7.719-3.932,10.556c-2.276,2.837-5.298,4.837-9.065,6.003c-6.219,1.925-11.885,1.507-17.002-1.255
			c-5.118-2.763-8.696-7.436-10.734-14.02c-1.897-6.126-1.87-11.724,0.085-16.791c2.309-5.985,6.772-10.001,13.386-12.05
			c3.645-1.128,7.27-1.261,10.879-0.396C1299.672,1893.849,1302.904,1895.97,1305.761,1899.348z M1290.368,1905.724
			c-3.554,1.101-6.043,2.87-7.469,5.308c-1.427,2.437-1.717,5.021-0.873,7.747c0.825,2.664,2.465,4.572,4.918,5.726
			c2.455,1.153,5.49,1.169,9.104,0.051c3.155-0.977,5.413-2.649,6.778-5.018c1.362-2.37,1.624-4.916,0.78-7.642
			c-0.977-3.155-2.792-5.169-5.445-6.043C1295.505,1904.98,1292.91,1904.937,1290.368,1905.724z M1319.587,1897.987
			c-2.573,0.796-4.355,2.143-5.342,4.045c-0.99,1.899-1.109,4.061-0.359,6.48c0.758,2.45,2.093,4.184,4.003,5.204
			s4.151,1.132,6.725,0.334c2.418-0.749,4.13-2.077,5.135-3.98c1.004-1.906,1.138-4.052,0.397-6.441
			c-0.769-2.481-2.115-4.229-4.04-5.243C1324.179,1897.371,1322.005,1897.238,1319.587,1897.987z"/>
	</g>
	<g>
		<path d="M1162.266,1891.54l13.834-3.135l-6.376-28.14l11.538-2.614l50.422,19.934l2.508,11.067l-43.617,9.883
			l1.934,8.535l-11.584,2.625l-1.933-8.536l-13.834,3.135L1162.266,1891.54z M1187.684,1885.781l23.498-5.324l-27.078-10.482
			L1187.684,1885.781z"/>
	</g>
	<g>
		<path d="M1224.941,1910.28l12.24-2.773l10.213,45.07l-9.568,2.168c-4.501-2.893-10.61-5.486-18.33-7.779
			c-7.719-2.294-15.66-3.575-23.825-3.847c-8.164-0.271-15.275,0.297-21.333,1.703l-2.879-12.709
			c9.552-1.935,19.689-2.17,30.409-0.704c10.72,1.468,20.675,4.412,29.863,8.839L1224.941,1910.28z"/>
	</g>
	<g>
		<path d="M1068.714,1904.081l14.122-1.357l-2.761-28.723l11.775-1.132l47.496,26.164l1.087,11.297l-44.52,4.278
			l0.837,8.713l-11.825,1.137l-0.837-8.713l-14.122,1.357L1068.714,1904.081z M1094.662,1901.589l23.981-2.303l-25.532-13.829
			L1094.662,1901.589z"/>
	</g>
	<g>
		<path d="M1129.16,1976.549l-2.688-12.882c2.651-0.577,4.548-1.598,5.698-3.059
			c1.147-1.464,1.618-3.265,1.414-5.402c-0.273-2.841-1.781-5.118-4.522-6.837c-2.742-1.717-8.175-2.443-16.299-2.177
			c4.278,2.97,6.659,6.944,7.139,11.923c0.54,5.615-1.137,10.633-5.029,15.049c-3.892,4.416-9.222,6.951-15.986,7.601
			c-7.182,0.689-13.145-0.862-17.89-4.658c-4.745-3.796-7.434-8.996-8.069-15.603c-0.681-7.085,1.513-13.175,6.579-18.267
			c5.066-5.095,13.869-8.243,26.413-9.448c12.86-1.236,22.361,0.25,28.498,4.46c6.137,4.209,9.573,10.11,10.301,17.707
			c0.513,5.33-0.556,9.884-3.203,13.667C1138.868,1972.404,1134.748,1975.045,1129.16,1976.549z M1096.886,1948.875
			c-4.373,0.421-7.651,1.75-9.834,3.989c-2.185,2.239-3.152,4.651-2.904,7.236c0.239,2.489,1.411,4.47,3.517,5.941
			c2.106,1.473,5.378,1.996,9.814,1.569c4.563-0.438,7.819-1.653,9.771-3.645c1.95-1.991,2.797-4.326,2.541-7.007
			c-0.249-2.585-1.473-4.674-3.671-6.267C1103.92,1949.1,1100.842,1948.495,1096.886,1948.875z"/>
	</g>
	<g>
		<path d="M974.358,1906.281l14.185-0.145l-0.295-28.851l11.829-0.121l45.081,30.123l0.117,11.349l-44.72,0.458
			l0.09,8.752l-11.877,0.122l-0.09-8.752l-14.185,0.145L974.358,1906.281z M1000.419,1906.014l24.091-0.248l-24.258-15.956
			L1000.419,1906.014z"/>
	</g>
	<g>
		<path d="M992.817,1938.414l1.534,13.45c-3.042,0.416-5.441,1.578-7.201,3.488c-1.76,1.909-2.628,4.098-2.602,6.567
			c0.028,2.82,1.199,5.197,3.513,7.13c2.312,1.932,5.776,2.874,10.392,2.826c4.328-0.044,7.564-1.049,9.707-3.009
			c2.144-1.963,3.2-4.498,3.168-7.607c-0.04-3.88-1.79-7.339-5.252-10.381l1.474-10.98l36.761,6.547l0.367,35.728l-12.646,0.13
			l-0.262-25.485l-11.994-1.992c1.537,2.997,2.322,6.067,2.354,9.209c0.061,5.995-2.067,11.097-6.384,15.31
			c-4.317,4.211-9.953,6.354-16.909,6.426c-5.803,0.059-10.997-1.57-15.584-4.89c-6.267-4.522-9.441-10.852-9.524-18.994
			c-0.067-6.508,1.625-11.831,5.078-15.971C982.257,1941.776,986.928,1939.277,992.817,1938.414z"/>
	</g>
	<g>
		<path d="M879.368,1898.897l14.113,1.444l2.935-28.705l11.77,1.204l41.429,34.982l-1.154,11.291l-44.492-4.55
			l-0.891,8.707l-11.817-1.209l0.89-8.706l-14.113-1.444L879.368,1898.897z M905.298,1901.549l23.969,2.452l-22.318-18.574
			L905.298,1901.549z"/>
	</g>
	<g>
		<path d="M873.403,1957.222l14.113,1.444l2.937-28.704l11.77,1.202l41.428,34.981l-1.155,11.291l-44.492-4.55
			l-0.89,8.706l-11.817-1.207l0.891-8.707l-14.113-1.444L873.403,1957.222z M899.334,1959.874l23.968,2.452l-22.318-18.574
			L899.334,1959.874z"/>
	</g>
	<g>
		<path d="M786.286,1878.686l13.822,3.195l6.496-28.115l11.527,2.663l36.738,39.88l-2.555,11.058l-43.577-10.068
			l-1.97,8.528l-11.575-2.674l1.97-8.528l-13.822-3.194L786.286,1878.686z M811.682,1884.553l23.476,5.424l-19.827-21.215
			L811.682,1884.553z"/>
	</g>
	<g>
		<path d="M797.39,1913.735l-1.399,13.103c-3.342-0.345-6.078,0.175-8.208,1.557
			c-2.129,1.385-3.486,3.34-4.071,5.871c-0.628,2.719-0.127,5.245,1.506,7.579c1.634,2.334,4.199,3.906,7.697,4.715
			c3.312,0.765,6.141,0.481,8.488-0.851c2.348-1.334,3.817-3.28,4.409-5.842c0.39-1.687,0.529-3.778,0.414-6.272l10.393,3.933
			c-0.916,3.539-0.772,6.436,0.435,8.688c1.207,2.254,3.169,3.694,5.887,4.322c2.312,0.533,4.313,0.272,6.005-0.784
			c1.692-1.058,2.802-2.726,3.328-5.006c0.52-2.25,0.183-4.351-1.012-6.305c-1.196-1.953-3.251-3.449-6.171-4.486l4.865-11.659
			c3.959,1.803,6.985,3.843,9.075,6.119c2.091,2.275,3.494,5.102,4.212,8.476c0.717,3.375,0.64,6.95-0.235,10.731
			c-1.493,6.466-4.752,11.175-9.779,14.128c-4.117,2.438-8.301,3.166-12.548,2.184c-6.029-1.393-10.079-5.801-12.147-13.221
			c-1.753,3.742-4.371,6.451-7.85,8.132c-3.483,1.68-7.301,2.041-11.453,1.081c-6.03-1.393-10.66-4.783-13.889-10.169
			c-3.23-5.386-4.089-11.358-2.573-17.918c1.437-6.218,4.415-10.959,8.937-14.223
			C786.233,1914.348,791.458,1913.056,797.39,1913.735z"/>
	</g>
	<g>
		<path d="M695.558,1851.636l13.395,4.666l9.494-27.246l11.171,3.892l32.215,43.612l-3.735,10.718l-42.232-14.716
			l-2.879,8.265l-11.217-3.907l2.879-8.265l-13.395-4.668L695.558,1851.636z M720.169,1860.211l22.752,7.927l-17.421-23.231
			L720.169,1860.211z"/>
	</g>
	<g>
		<path d="M681.823,1929.201l-11.851-4.128l15.585-44.73c4.311,2.046,8.052,4.979,11.22,8.797
			s6.821,10.456,10.963,19.911c3.353,7.618,5.759,12.411,7.212,14.379c2.022,2.672,4.319,4.458,6.893,5.355
			c2.845,0.992,5.299,0.989,7.36-0.008c2.063-0.996,3.563-2.842,4.501-5.534c0.928-2.665,0.863-5.063-0.193-7.198
			c-1.056-2.134-3.403-3.969-7.043-5.509l5.701-12.273c6.759,3.205,10.972,7.337,12.638,12.399
			c1.665,5.061,1.454,10.59-0.635,16.584c-2.288,6.569-5.858,11.113-10.708,13.634c-4.851,2.518-9.908,2.861-15.177,1.026
			c-2.997-1.044-5.663-2.576-7.998-4.594c-2.337-2.02-4.58-4.711-6.733-8.076c-1.431-2.23-3.291-6.002-5.581-11.315
			c-2.292-5.314-3.854-8.72-4.69-10.216s-1.715-2.778-2.633-3.843L681.823,1929.201z"/>
	</g>
	<g>
		<path d="M608.85,1813.355l12.727,6.263l12.739-25.888l10.614,5.223l26.668,47.208l-5.01,10.183l-40.128-19.745
			l-3.863,7.852l-10.658-5.245l3.864-7.851l-12.728-6.263L608.85,1813.355z M632.236,1824.862l21.617,10.637l-14.463-25.177
			L632.236,1824.862z"/>
	</g>
	<g>
		<path d="M579.4,1873.206l5.965-12.125l45.693,22.484c-1.962-6.468-2.456-13.195-1.483-20.185l11.002,5.414
			c-0.522,3.674-0.25,8.076,0.814,13.21c1.066,5.134,3.185,9.338,6.361,12.615l-4.84,9.838L579.4,1873.206z"/>
	</g>
	<g>
		<path d="M523.298,1772.678l12.128,7.362l14.971-24.667l10.113,6.138l22.405,49.376l-5.889,9.702l-38.232-23.206
			l-4.541,7.482l-10.153-6.163l4.541-7.482l-12.128-7.359L523.298,1772.678z M545.58,1786.203l20.596,12.501l-12.188-26.356
			L545.58,1786.203z"/>
	</g>
	<g>
		<path d="M555.292,1856.402c-3.542,5.838-8.397,9.136-14.558,9.897c-7.312,0.926-16.682-2.081-28.111-9.018
			c-11.4-6.92-18.397-13.867-20.99-20.841c-2.132-5.757-1.427-11.554,2.116-17.391c3.561-5.865,8.684-9.225,15.371-10.079
			c6.687-0.853,15.812,2.228,27.379,9.248c11.347,6.888,18.315,13.818,20.909,20.792
			C559.541,1844.766,558.834,1850.563,555.292,1856.402z M545.714,1850.587c0.848-1.396,1.159-2.915,0.934-4.551
			c-0.225-1.638-1.307-3.456-3.244-5.456c-2.505-2.609-7.292-6.057-14.363-10.349s-12.144-6.885-15.223-7.777
			c-3.077-0.893-5.383-1.064-6.917-0.513c-1.533,0.55-2.726,1.524-3.573,2.922c-0.848,1.397-1.161,2.915-0.936,4.552
			c0.225,1.638,1.307,3.455,3.242,5.455c2.478,2.592,7.252,6.034,14.323,10.325c7.072,4.291,12.145,6.883,15.223,7.776
			c3.079,0.893,5.392,1.067,6.938,0.525C543.664,1852.953,544.866,1851.985,545.714,1850.587z"/>
	</g>
	<g>
		<path d="M476.07,1709.233l-6.656,11.371c-2.907-1.688-5.614-2.337-8.123-1.95c-2.51,0.387-4.55,1.614-6.123,3.682
			c-1.688,2.22-2.269,4.729-1.738,7.528c0.53,2.8,2.224,5.286,5.082,7.46c2.705,2.057,5.4,2.959,8.09,2.708
			c2.689-0.25,4.827-1.423,6.419-3.515c1.049-1.379,2.032-3.228,2.952-5.549l7.862,7.854c-2.288,2.851-3.346,5.551-3.17,8.102
			c0.175,2.549,1.373,4.669,3.593,6.357c1.888,1.435,3.821,2.02,5.798,1.752c1.977-0.27,3.675-1.336,5.09-3.197
			c1.397-1.838,1.953-3.892,1.668-6.163c-0.286-2.272-1.547-4.481-3.783-6.624l9.224-8.632c2.869,3.27,4.79,6.372,5.76,9.307
			c0.972,2.933,1.09,6.085,0.358,9.456c-0.731,3.371-2.271,6.601-4.619,9.687c-4.019,5.283-8.923,8.237-14.718,8.865
			c-4.755,0.531-8.868-0.522-12.339-3.161c-4.925-3.745-6.807-9.429-5.645-17.042c-3.135,2.691-6.634,4.086-10.498,4.188
			c-3.864,0.103-7.493-1.138-10.888-3.718c-4.925-3.746-7.754-8.739-8.486-14.976c-0.734-6.237,0.937-12.035,5.014-17.393
			c3.862-5.079,8.526-8.178,13.99-9.298C465.646,1705.209,470.941,1706.177,476.07,1709.233z"/>
	</g>
	<g>
		<path d="M438.196,1755.051l-6.772,11.284c-2.312-1.355-4.386-1.886-6.222-1.59
			c-1.835,0.296-3.423,1.322-4.761,3.084c-1.689,2.22-2.105,4.884-1.247,7.994c0.857,3.108,4.338,7.325,10.437,12.652
			c-1.082-5.093-0.08-9.667,3.007-13.725c3.358-4.414,7.957-6.929,13.799-7.538c5.844-0.612,11.493,1.159,16.954,5.314
			c5.689,4.328,8.991,9.506,9.903,15.537c0.91,6.029-0.623,11.66-4.602,16.892c-4.328,5.69-10.079,8.685-17.258,8.987
			c-7.178,0.3-15.806-3.382-25.884-11.049c-10.259-7.802-16.213-15.333-17.862-22.588c-1.649-7.259-0.155-13.936,4.484-20.034
			c3.339-4.389,7.204-7.048,11.596-7.977C428.16,1751.365,432.969,1752.284,438.196,1755.051z M443.18,1797.271
			c3.47,2.64,6.768,3.889,9.895,3.75c3.127-0.139,5.486-1.255,7.076-3.347c1.514-1.991,1.987-4.238,1.418-6.747
			c-0.569-2.508-2.642-5.121-6.214-7.838c-3.623-2.756-6.828-4.066-9.61-3.926c-2.785,0.137-4.99,1.279-6.621,3.422
			c-1.572,2.067-2.081,4.431-1.524,7.089C438.155,1792.332,440.015,1794.864,443.18,1797.271z"/>
	</g>
	<g>
		<path d="M405.238,1649.241l-7.54,10.805c-2.763-1.914-5.41-2.776-7.942-2.591
			c-2.532,0.185-4.664,1.247-6.397,3.183c-1.861,2.078-2.638,4.532-2.334,7.366c0.306,2.832,1.795,5.445,4.471,7.84
			c2.532,2.266,5.149,3.381,7.849,3.346c2.701-0.036,4.927-1.034,6.68-2.993c1.155-1.29,2.283-3.057,3.384-5.298l7.214,8.456
			c-2.51,2.661-3.778,5.267-3.809,7.823c-0.027,2.555,0.997,4.763,3.075,6.623c1.769,1.582,3.646,2.316,5.64,2.207
			c1.993-0.111,3.769-1.038,5.328-2.78c1.539-1.722,2.258-3.726,2.153-6.013c-0.105-2.287-1.185-4.588-3.244-6.905l9.883-7.87
			c2.6,3.489,4.267,6.733,5.001,9.734c0.734,3.002,0.602,6.155-0.395,9.457c-0.998,3.303-2.789,6.397-5.377,9.288
			c-4.425,4.945-9.55,7.5-15.378,7.665c-4.781,0.151-8.798-1.228-12.046-4.135c-4.611-4.126-6.034-9.94-4.27-17.439
			c-3.339,2.433-6.94,3.544-10.799,3.34c-3.859-0.207-7.378-1.732-10.556-4.574c-4.61-4.127-7.034-9.328-7.267-15.605
			c-0.235-6.275,1.893-11.923,6.383-16.939c4.254-4.756,9.149-7.474,14.686-8.153
			C395.166,1644.401,400.369,1645.787,405.238,1649.241z"/>
	</g>
	<g>
		<path d="M372.496,1714.815c3.429-1.62,6.634-2.16,9.616-1.622c2.981,0.538,5.62,1.834,7.913,3.886
			c3.918,3.507,5.931,7.771,6.04,12.794c0.108,5.022-2.095,10.056-6.606,15.097c-4.468,4.992-9.215,7.725-14.24,8.197
			c-5.026,0.471-9.497-1.046-13.415-4.552c-2.436-2.181-4.039-4.754-4.805-7.719c-0.767-2.967-0.625-6.046,0.424-9.237
			c-3.779,1.867-7.471,2.555-11.072,2.062c-3.603-0.493-6.874-2.056-9.812-4.684c-4.852-4.341-7.408-9.416-7.673-15.224
			c-0.266-5.81,1.901-11.282,6.497-16.418c4.277-4.778,9.09-7.635,14.443-8.567c6.318-1.1,12.059,0.659,17.218,5.279
			c2.844,2.544,4.824,5.583,5.938,9.121C374.076,1706.764,373.922,1710.627,372.496,1714.815z M359.107,1704.898
			c-2.772-2.481-5.569-3.704-8.393-3.673c-2.825,0.03-5.189,1.111-7.092,3.236c-1.86,2.079-2.652,4.468-2.378,7.165
			c0.274,2.698,1.821,5.309,4.64,7.831c2.461,2.203,5.058,3.278,7.791,3.229c2.733-0.05,5.052-1.138,6.955-3.264
			c2.202-2.462,2.994-5.055,2.378-7.778C362.389,1708.922,361.089,1706.673,359.107,1704.898z M380.778,1725.97
			c-2.005-1.795-4.079-2.629-6.219-2.499c-2.137,0.13-4.052,1.138-5.74,3.026c-1.71,1.91-2.512,3.948-2.402,6.11
			c0.108,2.162,1.166,4.141,3.173,5.937c1.887,1.69,3.905,2.474,6.057,2.355c2.15-0.12,4.06-1.11,5.727-2.974
			c1.731-1.936,2.538-3.99,2.417-6.161C383.668,1729.591,382.663,1727.659,380.778,1725.97z"/>
	</g>
	<g>
		<path d="M340.123,1584.473l-8.878,9.738c-2.492-2.256-5.006-3.454-7.541-3.599
			c-2.535-0.145-4.788,0.631-6.756,2.325c-2.115,1.82-3.203,4.154-3.268,7.003c-0.065,2.846,1.074,5.633,3.417,8.354
			c2.218,2.576,4.666,4.019,7.349,4.334c2.683,0.313,5.019-0.387,7.012-2.102c1.313-1.13,2.659-2.732,4.043-4.813l6.056,9.319
			c-2.833,2.311-4.428,4.733-4.787,7.264c-0.36,2.531,0.371,4.853,2.19,6.967c1.548,1.797,3.318,2.771,5.306,2.921
			c1.99,0.147,3.873-0.541,5.646-2.068c1.749-1.506,2.72-3.401,2.912-5.682c0.192-2.282-0.58-4.703-2.321-7.266l10.818-6.524
			c2.126,3.796,3.359,7.229,3.699,10.301c0.339,3.071-0.2,6.18-1.616,9.325c-1.417,3.145-3.596,5.982-6.537,8.514
			c-5.028,4.331-10.442,6.2-16.239,5.609c-4.763-0.47-8.566-2.356-11.411-5.66c-4.038-4.69-4.696-10.638-1.974-17.845
			c-3.626,1.979-7.341,2.617-11.141,1.914c-3.801-0.705-7.093-2.672-9.874-5.904c-4.038-4.689-5.767-10.16-5.185-16.413
			s3.422-11.578,8.524-15.971c4.835-4.163,10.041-6.224,15.619-6.182C330.765,1578.37,335.741,1580.416,340.123,1584.473z"/>
	</g>
	<g>
		<path d="M320.308,1652.051l8.19,9.511l-35.024,30.155l-6.4-7.434c0.443-5.331-0.131-11.945-1.725-19.839
			c-1.593-7.894-4.184-15.51-7.773-22.848c-3.591-7.339-7.427-13.354-11.509-18.045l9.877-8.505
			c6.189,7.532,11.149,16.378,14.88,26.534c3.731,10.156,5.797,20.331,6.196,30.523L320.308,1652.051z"/>
	</g>
	<g>
		<path d="M281.56,1512.714l-9.694,8.926c-2.284-2.464-4.685-3.877-7.196-4.242c-2.514-0.365-4.824,0.21-6.933,1.726
			c-2.265,1.628-3.553,3.859-3.868,6.69c-0.313,2.832,0.578,5.705,2.675,8.621c1.983,2.758,4.297,4.411,6.941,4.958
			c2.645,0.546,5.033,0.053,7.167-1.481c1.406-1.011,2.889-2.49,4.448-4.44l5.219,9.811c-3.022,2.057-4.824,4.328-5.404,6.818
			c-0.579,2.49-0.054,4.866,1.574,7.131c1.384,1.927,3.061,3.049,5.029,3.372c1.968,0.32,3.904-0.201,5.804-1.566
			c1.873-1.348,3.007-3.15,3.4-5.405c0.392-2.255-0.168-4.736-1.678-7.44l11.348-5.554c1.786,3.967,2.714,7.495,2.784,10.584
			c0.068,3.089-0.74,6.137-2.426,9.146c-1.686,3.01-4.104,5.647-7.253,7.911c-5.39,3.875-10.944,5.264-16.668,4.167
			c-4.702-0.885-8.325-3.096-10.872-6.635c-3.612-5.023-3.748-11.007-0.407-17.949c-3.786,1.655-7.541,1.966-11.264,0.933
			c-3.727-1.034-6.833-3.282-9.322-6.743c-3.612-5.023-4.855-10.625-3.73-16.803c1.124-6.179,4.42-11.233,9.886-15.164
			c5.18-3.725,10.545-5.323,16.099-4.794C272.769,1505.816,277.551,1508.292,281.56,1512.714z"/>
	</g>
	<g>
		<path d="M216.559,1601.978l9.778-8.807c1.833,2,3.67,3.126,5.512,3.382s3.636-0.244,5.379-1.497
			c2.317-1.667,3.526-4.115,3.63-7.349c0.104-3.233-2.004-8.294-6.323-15.178c-0.412,5.192-2.649,9.249-6.709,12.17
			c-4.581,3.293-9.758,4.37-15.533,3.231c-5.774-1.14-10.645-4.467-14.614-9.985c-4.212-5.856-5.871-11.79-4.98-17.8
			c0.891-6.011,4.029-10.952,9.418-14.827c5.779-4.156,12.143-5.326,19.094-3.512c6.95,1.814,14.103,7.835,21.459,18.064
			c7.542,10.49,11.04,19.445,10.494,26.866c-0.546,7.421-3.918,13.361-10.113,17.814c-4.348,3.125-8.82,4.496-13.419,4.111
			C225.028,1608.278,220.672,1606.049,216.559,1601.978z M224.221,1560.162c-2.564-3.566-5.363-5.731-8.397-6.49
			c-3.033-0.759-5.605-0.382-7.713,1.134c-2.03,1.46-3.151,3.471-3.363,6.031s0.983,5.651,3.585,9.27
			c2.677,3.722,5.365,5.924,8.068,6.608c2.703,0.683,5.146,0.238,7.333-1.333c2.108-1.517,3.298-3.627,3.567-6.326
			C227.568,1566.353,226.542,1563.389,224.221,1560.162z"/>
	</g>
	<g>
		<path d="M232.651,1434.879l-10.486,7.976c-2.044-2.667-4.301-4.3-6.768-4.898
			c-2.468-0.599-4.822-0.242-7.064,1.069c-2.409,1.409-3.899,3.507-4.477,6.298c-0.577,2.788,0.04,5.733,1.855,8.832
			c1.717,2.932,3.866,4.795,6.446,5.588c2.58,0.791,5.007,0.524,7.274-0.804c1.495-0.875,3.108-2.21,4.845-4.005l4.276,10.259
			c-3.204,1.763-5.209,3.856-6.02,6.28c-0.81,2.424-0.512,4.84,0.897,7.248c1.198,2.047,2.764,3.323,4.692,3.829
			c1.932,0.503,3.906,0.164,5.925-1.017c1.993-1.166,3.289-2.853,3.891-5.061c0.601-2.211,0.277-4.732-0.973-7.565l11.816-4.467
			c1.405,4.116,2.001,7.717,1.78,10.8c-0.221,3.081-1.313,6.042-3.273,8.881c-1.961,2.836-4.613,5.236-7.962,7.196
			c-5.728,3.352-11.39,4.214-16.986,2.586c-4.599-1.321-8.001-3.861-10.202-7.625c-3.126-5.34-2.701-11.31,1.276-17.908
			c-3.923,1.295-7.69,1.251-11.303-0.127c-3.611-1.377-6.493-3.907-8.647-7.586c-3.126-5.341-3.84-11.033-2.14-17.08
			c1.699-6.047,5.453-10.77,11.264-14.171c5.506-3.224,10.998-4.312,16.477-3.264C224.547,1427.187,229.074,1430.1,232.651,1434.879
			z"/>
	</g>
	<g>
		<path d="M181.182,1464.336l-10.916,8.006c-1.871-2.434-4.071-3.941-6.602-4.521c-2.53-0.581-4.862-0.248-6.993,1
			c-2.435,1.424-3.917,3.619-4.448,6.586c-0.529,2.965,0.371,6.441,2.704,10.427c2.185,3.734,4.662,6.047,7.43,6.934
			c2.769,0.888,5.494,0.547,8.177-1.023c3.349-1.96,5.483-5.197,6.406-9.713l10.264-4.169l12.559,35.164l-30.837,18.05
			l-6.389-10.914l21.996-12.875l-4.223-11.402c-1.84,2.823-4.114,5.028-6.827,6.615c-5.174,3.029-10.66,3.714-16.461,2.057
			c-5.8-1.657-10.457-5.488-13.972-11.492c-2.931-5.007-4.096-10.326-3.489-15.956c0.817-7.685,4.737-13.582,11.764-17.695
			c5.617-3.288,11.079-4.461,16.385-3.518C173.021,1456.835,177.51,1459.65,181.182,1464.336z"/>
	</g>
	<g>
		<path d="M191.335,1353.027l-11.438,6.542c-1.678-2.912-3.702-4.825-6.071-5.74
			c-2.368-0.917-4.749-0.869-7.142,0.139c-2.571,1.083-4.324,2.969-5.26,5.66c-0.937,2.69-0.708,5.689,0.686,8.999
			c1.318,3.131,3.205,5.259,5.662,6.382c2.456,1.122,4.895,1.174,7.317,0.153c1.596-0.672,3.371-1.786,5.325-3.34l2.902,10.727
			c-3.405,1.332-5.668,3.144-6.787,5.443c-1.121,2.297-1.138,4.731-0.056,7.303c0.92,2.186,2.305,3.654,4.154,4.408
			c1.849,0.751,3.85,0.674,6.006-0.234c2.128-0.895,3.634-2.401,4.518-4.513c0.884-2.113,0.893-4.654,0.023-7.628l12.3-2.885
			c0.856,4.265,0.976,7.912,0.354,10.938c-0.62,3.028-2.088,5.819-4.401,8.377c-2.314,2.559-5.259,4.59-8.834,6.096
			c-6.114,2.576-11.841,2.692-17.178,0.348c-4.386-1.909-7.428-4.872-9.121-8.891c-2.401-5.703-1.2-11.564,3.601-17.589
			c-4.059,0.771-7.788,0.237-11.188-1.601c-3.4-1.837-5.929-4.721-7.584-8.651c-2.402-5.702-2.367-11.44,0.107-17.213
			c2.473-5.773,6.812-9.967,13.016-12.58c5.88-2.476,11.467-2.839,16.763-1.088C184.303,1344.341,188.412,1347.821,191.335,1353.027
			z"/>
	</g>
	<g>
		<path d="M105.183,1369.019l5.507,13.074l26.591-11.202l4.592,10.9l-10.805,53.134l-10.459,4.405l-17.362-41.214
			l-8.065,3.397l-4.611-10.946l8.066-3.397l-5.507-13.074L105.183,1369.019z M115.304,1393.04l9.352,22.202l5.581-28.493
			L115.304,1393.04z"/>
	</g>
	<g>
		<path d="M156.073,1264.998l-11.633,5.471c-1.406-2.962-3.226-4.98-5.459-6.054
			c-2.231-1.074-4.551-1.215-6.957-0.42c-2.584,0.852-4.437,2.552-5.556,5.096c-1.12,2.544-1.132,5.479-0.033,8.806
			c1.039,3.148,2.71,5.365,5.012,6.649c2.3,1.28,4.669,1.522,7.103,0.717c1.604-0.529,3.417-1.475,5.44-2.833l1.987,10.657
			c-3.416,1.028-5.756,2.617-7.024,4.766c-1.268,2.147-1.475,4.514-0.621,7.098c0.726,2.196,1.958,3.733,3.695,4.61
			c1.739,0.875,3.693,0.955,5.86,0.239c2.139-0.705,3.721-2.052,4.744-4.036c1.024-1.985,1.23-4.458,0.615-7.418l12.187-1.848
			c0.502,4.214,0.334,7.772-0.505,10.666c-0.84,2.895-2.485,5.496-4.935,7.805c-2.451,2.309-5.472,4.055-9.066,5.241
			c-6.147,2.029-11.726,1.696-16.732-0.997c-4.117-2.198-6.845-5.318-8.179-9.357c-1.892-5.732-0.268-11.342,4.87-16.826
			c-4.007,0.435-7.591-0.376-10.757-2.427c-3.164-2.052-5.399-5.053-6.703-9.003c-1.892-5.732-1.41-11.311,1.444-16.732
			s7.401-9.163,13.638-11.221c5.91-1.952,11.373-1.87,16.387,0.248C149.91,1256.005,153.635,1259.708,156.073,1264.998z"/>
	</g>
	<g>
		<path d="M101.757,1282.929l-11.633,5.472c-1.405-2.963-3.226-4.981-5.458-6.055
			c-2.231-1.074-4.551-1.216-6.957-0.42c-2.585,0.852-4.437,2.551-5.556,5.096c-1.121,2.543-1.132,5.479-0.033,8.806
			c1.039,3.148,2.71,5.364,5.011,6.647c2.302,1.281,4.67,1.523,7.105,0.718c1.604-0.529,3.416-1.474,5.439-2.833l1.987,10.658
			c-3.416,1.028-5.756,2.617-7.024,4.766c-1.268,2.147-1.475,4.514-0.621,7.098c0.726,2.196,1.958,3.733,3.695,4.61
			c1.739,0.875,3.692,0.955,5.86,0.239c2.139-0.706,3.721-2.053,4.744-4.036c1.023-1.985,1.23-4.458,0.615-7.418l12.187-1.849
			c0.501,4.215,0.333,7.771-0.506,10.668c-0.839,2.896-2.484,5.496-4.934,7.803c-2.451,2.308-5.472,4.055-9.066,5.241
			c-6.148,2.031-11.726,1.697-16.733-0.998c-4.118-2.198-6.844-5.316-8.177-9.356c-1.892-5.732-0.269-11.343,4.87-16.826
			c-4.006,0.434-7.593-0.376-10.758-2.427c-3.164-2.053-5.397-5.054-6.702-9.003c-1.892-5.733-1.411-11.312,1.443-16.733
			c2.855-5.421,7.4-9.162,13.638-11.221c5.91-1.952,11.372-1.87,16.387,0.248C95.593,1273.937,99.318,1277.639,101.757,1282.929z"/>
	</g>
	<g>
		<path d="M136.06,1175.008l-12.408,4.43c-1.142-3.159-2.799-5.399-4.969-6.715c-2.171-1.318-4.523-1.69-7.057-1.118
			c-2.722,0.613-4.778,2.163-6.173,4.647c-1.394,2.484-1.695,5.478-0.904,8.98c0.749,3.314,2.232,5.74,4.453,7.276
			s4.614,2.015,7.178,1.436c1.688-0.381,3.632-1.164,5.828-2.351l0.971,11.07c-3.586,0.713-6.132,2.1-7.637,4.167
			c-1.506,2.065-1.952,4.458-1.337,7.18c0.522,2.313,1.627,4.003,3.313,5.068c1.687,1.064,3.672,1.339,5.955,0.823
			c2.252-0.508,3.998-1.725,5.239-3.649c1.241-1.924,1.696-4.425,1.361-7.506l12.615-0.68c0.095,4.35-0.428,7.96-1.57,10.833
			c-1.143,2.87-3.078,5.361-5.806,7.474c-2.727,2.112-5.982,3.595-9.767,4.45c-6.474,1.464-12.13,0.571-16.973-2.673
			c-3.984-2.65-6.457-6.102-7.417-10.355c-1.364-6.036,0.849-11.598,6.634-16.684c-4.133,0.046-7.71-1.135-10.735-3.54
			c-3.025-2.407-5.008-5.69-5.947-9.849c-1.364-6.036-0.321-11.679,3.128-16.928c3.447-5.25,8.455-8.615,15.023-10.099
			c6.224-1.405,11.787-0.781,16.693,1.874C130.663,1165.226,134.096,1169.371,136.06,1175.008z"/>
	</g>
	<g>
		<path d="M32.531,1192.087l-2.766-12.244l46.206-10.438c0.544,4.74,0.035,9.466-1.531,14.175
			c-1.565,4.709-5.264,11.322-11.098,19.839c-4.691,6.878-7.486,11.455-8.386,13.728c-1.199,3.13-1.499,6.023-0.899,8.683
			c0.664,2.939,1.965,5.022,3.9,6.243c1.936,1.221,4.296,1.52,7.079,0.891c2.752-0.622,4.754-1.944,6.006-3.97
			c1.252-2.025,1.569-4.989,0.95-8.892l13.431-1.654c0.858,7.43-0.421,13.192-3.835,17.283c-3.414,4.09-8.218,6.835-14.409,8.235
			c-6.785,1.534-12.531,0.908-17.236-1.875c-4.705-2.782-7.672-6.895-8.9-12.335c-0.699-3.097-0.811-6.169-0.333-9.219
			c0.479-3.048,1.575-6.378,3.291-9.986c1.136-2.394,3.353-5.969,6.65-10.723c3.297-4.756,5.359-7.885,6.187-9.386
			s1.451-2.925,1.871-4.268L32.531,1192.087z"/>
	</g>
	<g>
		<path d="M122.513,1082.317l-12.847,2.932c-0.758-3.273-2.139-5.693-4.139-7.258c-2-1.564-4.291-2.213-6.875-1.944
			c-2.774,0.289-4.999,1.584-6.679,3.887c-1.677,2.302-2.332,5.239-1.96,8.811c0.352,3.38,1.538,5.963,3.562,7.752
			c2.024,1.788,4.343,2.546,6.958,2.276c1.723-0.18,3.744-0.728,6.066-1.647l-0.343,11.109c-3.645,0.281-6.337,1.36-8.077,3.232
			c-1.739,1.874-2.464,4.198-2.175,6.973c0.246,2.358,1.143,4.168,2.692,5.425c1.549,1.257,3.488,1.766,5.815,1.524
			c2.296-0.239,4.174-1.24,5.635-3.003c1.46-1.764,2.207-4.194,2.239-7.293l12.607,0.815c-0.42,4.331-1.366,7.854-2.841,10.572
			c-1.473,2.715-3.69,4.96-6.648,6.735c-2.958,1.773-6.367,2.862-10.225,3.263c-6.601,0.687-12.114-0.866-16.538-4.66
			c-3.642-3.104-5.69-6.822-6.141-11.159c-0.64-6.154,2.215-11.416,8.561-15.782c-4.108-0.442-7.522-2.039-10.241-4.784
			c-2.72-2.747-4.299-6.241-4.741-10.482c-0.64-6.154,1.063-11.634,5.106-16.439c4.045-4.806,9.417-7.556,16.112-8.252
			c6.346-0.659,11.797,0.619,16.356,3.835C118.31,1071.963,121.23,1076.485,122.513,1082.317z"/>
	</g>
	<g>
		<path d="M27.394,1073.402l13.441-1.397l5.269,50.655c4.433-5.101,9.867-9.101,16.302-11.995l1.268,12.197
			c-3.387,1.513-6.973,4.087-10.753,7.719c-3.78,3.632-6.213,7.665-7.3,12.099l-10.906,1.135L27.394,1073.402z"/>
	</g>
	<g>
		<path d="M117.03,993.784l-13.108,1.337c-0.353-3.342-1.426-5.911-3.219-7.709s-3.989-2.723-6.584-2.772
			c-2.789-0.054-5.157,0.96-7.104,3.038c-1.947,2.08-2.957,4.914-3.026,8.504c-0.065,3.397,0.797,6.107,2.586,8.13
			c1.79,2.022,3.998,3.058,6.627,3.108c1.731,0.033,3.805-0.264,6.223-0.891l-1.702,10.981c-3.652-0.165-6.456,0.574-8.411,2.221
			c-1.956,1.645-2.959,3.863-3.013,6.651c-0.045,2.372,0.624,4.276,2.006,5.714c1.384,1.437,3.245,2.179,5.584,2.224
			c2.308,0.044,4.293-0.72,5.959-2.292s2.703-3.893,3.115-6.963l12.411,2.355c-0.947,4.245-2.318,7.628-4.114,10.143
			c-1.796,2.515-4.271,4.471-7.424,5.87c-3.153,1.397-6.669,2.06-10.547,1.986c-6.634-0.128-11.916-2.345-15.841-6.654
			c-3.235-3.524-4.811-7.467-4.729-11.826c0.119-6.187,3.595-11.058,10.429-14.613c-4.021-0.942-7.213-2.945-9.576-6.003
			c-2.363-3.061-3.503-6.721-3.42-10.984c0.119-6.186,2.479-11.416,7.082-15.687c4.603-4.272,10.272-6.345,17.002-6.216
			c6.379,0.122,11.632,2.059,15.761,5.809C114.129,982.996,116.47,987.84,117.03,993.784z"/>
	</g>
	<g>
		<path d="M34.099,1044.284c-6.828-0.131-12.118-2.669-15.87-7.615c-4.474-5.857-6.582-15.468-6.325-28.835
			c0.256-13.334,2.747-22.874,7.474-28.619c3.907-4.734,9.273-7.037,16.101-6.905c6.859,0.132,12.338,2.873,16.436,8.227
			c4.098,5.352,6.017,14.792,5.758,28.318c-0.255,13.271-2.744,22.777-7.472,28.522
			C46.293,1042.113,40.926,1044.416,34.099,1044.284z M34.313,1033.081c1.635,0.031,3.105-0.463,4.405-1.479
			c1.303-1.017,2.331-2.865,3.088-5.544c0.997-3.477,1.574-9.35,1.732-17.618c0.159-8.27-0.149-13.959-0.924-17.068
			c-0.774-3.109-1.783-5.189-3.031-6.238c-1.247-1.05-2.687-1.591-4.322-1.622s-3.103,0.462-4.405,1.479
			c-1.301,1.017-2.331,2.865-3.088,5.545c-0.995,3.443-1.572,9.3-1.731,17.57c-0.159,8.27,0.15,13.958,0.924,17.068
			c0.774,3.109,1.785,5.196,3.03,6.263C31.238,1032.5,32.678,1033.051,34.313,1033.081z"/>
	</g>
	<g>
		<path d="M77.121,889.468l1.294-12.484l47.114,4.884c-0.999,4.666-2.993,8.979-5.983,12.941
			c-2.988,3.96-8.608,9.042-16.858,15.245c-6.644,5.017-10.755,8.458-12.336,10.325c-2.136,2.583-3.348,5.229-3.628,7.94
			c-0.311,2.997,0.256,5.384,1.699,7.161c1.444,1.777,3.584,2.814,6.422,3.108c2.806,0.29,5.125-0.322,6.959-1.84
			c1.834-1.52,3.082-4.226,3.744-8.12l13.255,2.728c-1.564,7.313-4.618,12.365-9.162,15.149c-4.543,2.784-9.972,3.849-16.285,3.195
			c-6.919-0.718-12.163-3.147-15.73-7.287c-3.566-4.141-5.063-8.985-4.489-14.534c0.328-3.157,1.206-6.105,2.632-8.841
			c1.429-2.736,3.532-5.539,6.312-8.41c1.842-1.904,5.084-4.582,9.728-8.032c4.645-3.451,7.6-5.755,8.862-6.913
			c1.266-1.158,2.311-2.307,3.137-3.445L77.121,889.468z"/>
	</g>
	<g>
		<path d="M63.529,891.828l-13.159,0.086c-0.043-2.681-0.671-4.728-1.876-6.142
			c-1.207-1.415-2.912-2.234-5.111-2.465c-2.774-0.287-5.265,0.744-7.476,3.093c-2.209,2.35-4.002,7.515-5.378,15.494
			c3.787-3.572,8.216-5.094,13.286-4.568c5.518,0.571,10.056,3.194,13.616,7.864c3.559,4.672,4.987,10.42,4.279,17.244
			c-0.737,7.111-3.443,12.624-8.121,16.538c-4.676,3.915-10.283,5.533-16.82,4.855c-7.111-0.736-12.66-4.094-16.651-10.067
			c-3.989-5.974-5.332-15.258-4.025-27.854c1.329-12.818,4.664-21.819,10.004-27.003c5.34-5.185,11.821-7.38,19.442-6.59
			c5.485,0.569,9.766,2.488,12.843,5.756C61.456,881.34,63.174,885.925,63.529,891.828z M30.062,918.042
			c-0.449,4.337,0.198,7.805,1.943,10.402c1.745,2.599,3.925,4.033,6.54,4.305c2.487,0.257,4.653-0.509,6.499-2.299
			s3-4.919,3.463-9.383c0.47-4.528-0.078-7.944-1.645-10.25c-1.565-2.307-3.688-3.597-6.367-3.875
			c-2.583-0.269-4.866,0.526-6.847,2.384C31.668,911.182,30.472,914.089,30.062,918.042z"/>
	</g>
	<g>
		<path d="M93.928,793.16l2.987-12.19l46.007,11.27c-1.627,4.485-4.191,8.486-7.694,12.003
			c-3.501,3.516-9.761,7.783-18.781,12.801c-7.265,4.062-11.808,6.911-13.629,8.544c-2.469,2.267-4.028,4.724-4.677,7.37
			c-0.717,2.926-0.481,5.37,0.705,7.327c1.188,1.957,3.167,3.276,5.938,3.955c2.74,0.672,5.122,0.38,7.145-0.874
			c2.024-1.253,3.629-3.764,4.817-7.534l12.757,4.512c-2.547,7.032-6.262,11.618-11.143,13.757
			c-4.881,2.138-10.403,2.452-16.569,0.941c-6.756-1.654-11.619-4.778-14.588-9.365c-2.968-4.589-3.789-9.593-2.462-15.011
			c0.755-3.083,2.027-5.883,3.815-8.398c1.789-2.516,4.256-5.006,7.401-7.47c2.084-1.636,5.663-3.845,10.733-6.629
			c5.073-2.784,8.314-4.664,9.724-5.64c1.412-0.975,2.604-1.97,3.577-2.985L93.928,793.16z"/>
	</g>
	<g>
		<path d="M63.991,812.065c3.044,2.264,5.029,4.838,5.955,7.723c0.927,2.883,1.025,5.821,0.292,8.81
			c-1.251,5.106-4.067,8.89-8.448,11.347s-9.857,2.884-16.428,1.273c-6.508-1.594-11.151-4.497-13.932-8.71
			c-2.78-4.214-3.546-8.873-2.294-13.979c0.778-3.176,2.295-5.8,4.552-7.871c2.258-2.071,5.04-3.393,8.35-3.971
			c-3.424-2.456-5.767-5.391-7.028-8.801c-1.26-3.412-1.421-7.032-0.483-10.861c1.548-6.321,4.823-10.966,9.824-13.931
			c5.002-2.967,10.849-3.631,17.544-1.991c6.228,1.526,11.012,4.432,14.352,8.715c3.943,5.058,5.09,10.95,3.443,17.676
			c-0.907,3.705-2.658,6.882-5.256,9.531C71.839,809.672,68.357,811.353,63.991,812.065z M58.044,824.62
			c0.64-2.616,0.4-4.837-0.72-6.663c-1.12-1.826-2.91-3.04-5.371-3.643c-2.491-0.61-4.666-0.359-6.521,0.755
			c-1.856,1.112-3.106,2.977-3.747,5.593c-0.602,2.459-0.345,4.61,0.771,6.451c1.117,1.842,2.89,3.06,5.319,3.654
			c2.521,0.617,4.714,0.363,6.574-0.767C56.21,828.874,57.442,827.079,58.044,824.62z M66.444,795.585
			c0.885-3.611,0.648-6.656-0.708-9.136c-1.357-2.478-3.42-4.056-6.192-4.734c-2.709-0.664-5.19-0.239-7.441,1.271
			c-2.251,1.512-3.828,4.104-4.728,7.778c-0.786,3.206-0.513,6.005,0.816,8.394c1.329,2.388,3.38,3.922,6.151,4.601
			c3.208,0.785,5.867,0.266,7.981-1.559C64.437,800.374,65.811,798.17,66.444,795.585z"/>
	</g>
	<g>
		<path d="M119.571,701.306l3.963-11.911l44.948,14.955c-1.984,4.34-4.863,8.121-8.639,11.343
			c-3.775,3.22-10.36,6.968-19.757,11.242c-7.57,3.461-12.33,5.933-14.276,7.414c-2.645,2.06-4.399,4.382-5.258,6.969
			c-0.951,2.859-0.913,5.312,0.11,7.36c1.026,2.047,2.891,3.522,5.6,4.423c2.676,0.891,5.074,0.793,7.192-0.293
			c2.12-1.087,3.922-3.46,5.411-7.119l12.352,5.529c-3.108,6.805-7.182,11.074-12.22,12.811s-10.568,1.602-16.592-0.402
			c-6.602-2.195-11.197-5.701-13.785-10.517c-2.588-4.815-3.002-9.868-1.24-15.161c1.002-3.012,2.496-5.699,4.482-8.062
			c1.986-2.364,4.647-4.646,7.98-6.849c2.21-1.462,5.955-3.375,11.236-5.739c5.281-2.366,8.665-3.976,10.149-4.833
			c1.485-0.858,2.754-1.754,3.808-2.687L119.571,701.306z"/>
	</g>
	<g>
		<path d="M93.215,739.369l-3.963,11.911L45.4,736.69l3.097-9.309c4.805-2.355,10.186-6.242,16.145-11.659
			c5.959-5.418,11.167-11.55,15.623-18.395c4.457-6.847,7.653-13.225,9.585-19.138l12.366,4.114
			c-3.289,9.178-8.335,17.974-15.139,26.386c-6.804,8.413-14.477,15.406-23.022,20.977L93.215,739.369z"/>
	</g>
	<g>
		<path d="M155.219,610.201l4.447-11.738l44.298,16.782c-2.161,4.255-5.193,7.916-9.097,10.979
			c-3.903,3.063-10.638,6.539-20.2,10.424c-7.708,3.149-12.563,5.424-14.567,6.824c-2.726,1.949-4.573,4.198-5.539,6.746
			c-1.067,2.818-1.131,5.271-0.192,7.358c0.941,2.088,2.744,3.638,5.413,4.648c2.639,1,5.038,1.001,7.199,0.001
			c2.161-0.999,4.061-3.296,5.697-6.892l12.115,6.03c-3.385,6.672-7.629,10.771-12.735,12.301
			c-5.105,1.528-10.626,1.169-16.561-1.08c-6.506-2.465-10.954-6.155-13.342-11.072c-2.388-4.916-2.595-9.983-0.618-15.199
			c1.125-2.968,2.728-5.594,4.808-7.872c2.081-2.281,4.833-4.453,8.254-6.516c2.268-1.371,6.088-3.128,11.461-5.275
			c5.375-2.147,8.821-3.618,10.338-4.414c1.519-0.797,2.824-1.639,3.915-2.527L155.219,610.201z"/>
	</g>
	<g>
		<path d="M85.842,627.426l12.744,3.285c-0.654,2.632-0.579,4.786,0.225,6.462c0.806,1.677,2.212,2.895,4.221,3.656
			c2.669,1.012,5.379,0.666,8.131-1.034c2.753-1.701,5.807-6.252,9.159-13.655c-4.557,2.524-9.173,2.902-13.85,1.13
			c-5.277-1.999-9.035-5.721-11.277-11.163c-2.24-5.442-2.157-11.342,0.252-17.699c2.555-6.745,6.585-11.408,12.087-13.984
			c5.502-2.579,11.357-2.692,17.563-0.342c6.656,2.522,11.149,7.181,13.476,13.977c2.328,6.796,1.261,16.086-3.205,27.869
			c-4.577,12.082-10.111,19.945-16.599,23.59c-6.489,3.643-13.303,4.115-20.438,1.412c-5.007-1.898-8.621-4.868-10.842-8.917
			C85.27,637.965,84.72,633.103,85.842,627.426z M124.935,610.711c1.557-4.107,1.813-7.636,0.77-10.584
			c-1.041-2.95-2.778-4.885-5.206-5.804c-2.339-0.887-4.634-0.71-6.887,0.529c-2.252,1.238-4.167,3.939-5.746,8.107
			c-1.624,4.288-1.974,7.746-1.051,10.377c0.924,2.63,2.644,4.421,5.164,5.375c2.428,0.921,4.844,0.746,7.243-0.52
			C121.622,616.921,123.526,614.429,124.935,610.711z"/>
	</g>
	<g>
		<path d="M202.15,521.912l5.984-11.034l41.641,22.579c-2.711,3.927-6.208,7.146-10.488,9.658
			c-4.278,2.512-11.417,5.051-21.416,7.616c-8.061,2.086-13.176,3.687-15.352,4.805c-2.964,1.566-5.096,3.547-6.395,5.942
			c-1.437,2.648-1.829,5.072-1.177,7.267c0.652,2.194,2.231,3.973,4.74,5.333c2.481,1.345,4.859,1.668,7.134,0.968
			c2.276-0.699,4.466-2.72,6.571-6.064l11.196,7.601c-4.249,6.156-9.007,9.651-14.271,10.479
			c-5.264,0.829-10.686-0.269-16.267-3.294c-6.115-3.316-10.027-7.571-11.734-12.763c-1.706-5.192-1.231-10.241,1.428-15.145
			c1.513-2.79,3.454-5.175,5.821-7.155c2.369-1.979,5.387-3.763,9.054-5.349c2.431-1.053,6.452-2.282,12.065-3.688
			c5.614-1.407,9.226-2.402,10.837-2.986c1.613-0.585,3.019-1.245,4.218-1.979L202.15,521.912z"/>
	</g>
	<g>
		<path d="M187.901,520.532l-12.502-5.194c1.113-2.861,1.263-5.523,0.449-7.989
			c-0.815-2.466-2.307-4.288-4.477-5.464c-2.479-1.345-5.126-1.476-7.938-0.393c-2.812,1.082-5.317,3.653-7.519,7.712
			c-2.064,3.805-2.757,7.121-2.084,9.948c0.674,2.826,2.377,4.982,5.111,6.463c3.411,1.851,7.287,2,11.627,0.45l8.883,6.622
			l-23.578,28.956l-31.411-17.032l6.028-11.119l22.406,12.15l7.568-9.517c-3.367-0.111-6.432-0.916-9.193-2.413
			c-5.27-2.857-8.699-7.195-10.285-13.016c-1.584-5.818-0.719-11.788,2.597-17.902c2.766-5.102,6.714-8.851,11.843-11.248
			c6.996-3.283,14.072-2.982,21.231,0.899c5.722,3.103,9.553,7.166,11.495,12.195C190.092,509.665,190.01,514.963,187.901,520.532z"
			/>
	</g>
	<g>
		<path d="M256.632,441.607l7.364-10.164l38.36,27.793c-3.2,3.541-7.083,6.28-11.652,8.216
			c-4.568,1.935-11.977,3.525-22.224,4.773c-8.262,1.022-13.544,1.945-15.847,2.772c-3.142,1.168-5.513,2.854-7.111,5.062
			c-1.769,2.439-2.471,4.791-2.11,7.052c0.362,2.262,1.697,4.23,4.007,5.903c2.286,1.655,4.602,2.284,6.948,1.886
			c2.347-0.397,4.781-2.119,7.303-5.161l10.115,8.989c-5.013,5.554-10.183,8.4-15.511,8.539c-5.328,0.139-10.56-1.653-15.7-5.377
			c-5.634-4.082-8.96-8.808-9.98-14.178c-1.017-5.369,0.109-10.313,3.383-14.831c1.862-2.569,4.096-4.685,6.701-6.34
			c2.607-1.655,5.83-3.033,9.671-4.127c2.547-0.729,6.695-1.426,12.443-2.092c5.748-0.667,9.459-1.183,11.133-1.556
			c1.675-0.37,3.155-0.842,4.44-1.415L256.632,441.607z"/>
	</g>
	<g>
		<path d="M232.018,408.274l-8.323,11.488l23.366,16.929l-6.942,9.581l-51.037,18.312l-9.191-6.658l26.24-36.217
			l-7.088-5.136l6.969-9.62l7.088,5.134l8.323-11.488L232.018,408.274z M216.725,429.382l-14.137,19.511l27.26-10.002
			L216.725,429.382z"/>
	</g>
	<g>
		<path d="M319.294,367.788l9.012-8.734l32.965,34.012c-3.763,2.935-8.062,4.959-12.899,6.073
			c-4.835,1.115-12.405,1.4-22.713,0.852c-8.314-0.425-13.676-0.429-16.085-0.014c-3.297,0.607-5.923,1.857-7.88,3.755
			c-2.163,2.096-3.263,4.291-3.299,6.58c-0.035,2.289,0.939,4.458,2.925,6.508c1.964,2.025,4.135,3.046,6.516,3.06
			c2.38,0.015,5.075-1.258,8.085-3.818l8.403,10.605c-5.898,4.6-11.482,6.508-16.753,5.723s-10.115-3.456-14.533-8.015
			c-4.842-4.995-7.299-10.226-7.373-15.691c-0.073-5.466,1.893-10.14,5.898-14.021c2.279-2.209,4.845-3.903,7.697-5.082
			c2.853-1.18,6.266-1.977,10.24-2.39c2.635-0.277,6.84-0.243,12.615,0.096c5.777,0.339,9.522,0.471,11.233,0.397
			c1.713-0.075,3.252-0.283,4.619-0.625L319.294,367.788z"/>
	</g>
	<g>
		<path d="M306.169,363.09l-10.244-8.287c2.105-2.62,3.154-5.199,3.148-7.739c-0.005-2.538-0.913-4.74-2.72-6.606
			c-1.941-2.002-4.334-2.953-7.182-2.851c-2.847,0.103-5.56,1.404-8.138,3.903c-2.439,2.363-3.737,4.894-3.894,7.589
			c-0.155,2.696,0.682,4.989,2.512,6.874c1.205,1.244,2.885,2.493,5.042,3.753l-8.945,6.594c-2.475-2.691-4.986-4.143-7.532-4.352
			c-2.548-0.21-4.822,0.655-6.826,2.596c-1.703,1.651-2.57,3.475-2.603,5.469c-0.03,1.995,0.768,3.832,2.396,5.513
			c1.606,1.657,3.555,2.517,5.843,2.574c2.289,0.058,4.66-0.856,7.117-2.745l7.149,10.416c-3.664,2.346-7.02,3.779-10.066,4.298
			c-3.045,0.519-6.18,0.164-9.403-1.065c-3.223-1.228-6.184-3.236-8.884-6.022c-4.619-4.766-6.802-10.06-6.553-15.883
			c0.189-4.779,1.849-8.688,4.978-11.723c4.443-4.307,10.342-5.312,17.697-3.021c-2.19-3.504-3.044-7.172-2.565-11.007
			c0.48-3.835,2.251-7.238,5.312-10.205c4.443-4.306,9.803-6.352,16.079-6.142c6.276,0.212,11.758,2.736,16.443,7.57
			c4.44,4.581,6.804,9.656,7.091,15.228C311.71,353.388,309.959,358.479,306.169,363.09z"/>
	</g>
	<g>
		<path d="M387.834,300.558l9.541-8.156l30.776,36.006c-3.94,2.692-8.358,4.444-13.253,5.256
			c-4.895,0.809-12.47,0.621-22.722-0.57c-8.271-0.943-13.623-1.282-16.052-1.019c-3.329,0.399-6.028,1.483-8.1,3.255
			c-2.29,1.958-3.525,4.078-3.704,6.361c-0.178,2.281,0.659,4.508,2.513,6.677c1.834,2.145,3.938,3.299,6.312,3.462
			c2.375,0.162,5.144-0.939,8.308-3.307l7.725,11.109c-6.174,4.224-11.867,5.779-17.078,4.667c-5.21-1.113-9.878-4.083-14.002-8.907
			c-4.52-5.288-6.646-10.662-6.377-16.121c0.269-5.459,2.522-10.001,6.763-13.625c2.412-2.061,5.081-3.592,8-4.593
			c2.921-0.998,6.377-1.58,10.369-1.746c2.646-0.112,6.84,0.185,12.584,0.884c5.743,0.698,9.474,1.066,11.187,1.098
			c1.714,0.031,3.264-0.079,4.647-0.336L387.834,300.558z"/>
	</g>
	<g>
		<path d="M349.744,255.993l9.541-8.156l30.776,36.006c-3.94,2.692-8.357,4.444-13.253,5.256
			c-4.894,0.81-12.47,0.621-22.722-0.57c-8.271-0.943-13.623-1.282-16.052-1.019c-3.329,0.399-6.028,1.483-8.1,3.255
			c-2.29,1.958-3.525,4.078-3.704,6.361c-0.178,2.281,0.659,4.508,2.513,6.677c1.834,2.145,3.938,3.299,6.312,3.462
			c2.375,0.162,5.145-0.938,8.308-3.307l7.725,11.109c-6.174,4.224-11.866,5.778-17.078,4.667c-5.21-1.115-9.878-4.083-14.002-8.907
			c-4.52-5.288-6.646-10.662-6.377-16.121c0.269-5.458,2.522-10.001,6.763-13.625c2.412-2.061,5.081-3.592,8-4.593
			c2.921-0.998,6.377-1.58,10.369-1.746c2.646-0.112,6.84,0.185,12.584,0.884c5.743,0.7,9.472,1.067,11.187,1.098
			c1.715,0.031,3.264-0.079,4.648-0.336L349.744,255.993z"/>
	</g>
	<g>
		<path d="M464.025,240.549l10.109-7.439l28.075,38.15c-4.125,2.399-8.658,3.826-13.6,4.278
			c-4.941,0.451-12.48-0.287-22.62-2.221c-8.18-1.541-13.493-2.271-15.936-2.185c-3.348,0.156-6.12,1.041-8.314,2.656
			c-2.427,1.786-3.813,3.811-4.157,6.075c-0.344,2.263,0.329,4.543,2.02,6.841c1.673,2.272,3.687,3.576,6.043,3.913
			c2.357,0.336,5.2-0.56,8.527-2.693l6.895,11.644c-6.465,3.763-12.255,4.899-17.372,3.409c-5.116-1.489-9.556-4.789-13.317-9.901
			c-4.122-5.603-5.852-11.117-5.188-16.543c0.666-5.424,3.243-9.79,7.736-13.097c2.556-1.881,5.328-3.213,8.314-3.998
			c2.985-0.784,6.476-1.113,10.468-0.986c2.647,0.081,6.811,0.681,12.487,1.794c5.677,1.117,9.37,1.752,11.077,1.909
			c1.708,0.156,3.261,0.158,4.661,0.004L464.025,240.549z"/>
	</g>
	<g>
		<path d="M445.941,194.799l8.009,10.883l-41.016,30.184c6.646,1.241,12.844,3.904,18.597,7.989l-9.876,7.267
			c-3.019-2.156-7.053-3.944-12.099-5.365c-5.047-1.421-9.756-1.479-14.128-0.173l-6.499-8.83L445.941,194.799z"/>
	</g>
	<g>
		<path d="M546.248,188.059l10.841-6.326l23.871,40.912c-4.356,1.948-9.014,2.885-13.977,2.811
			c-4.961-0.075-12.38-1.612-22.257-4.607c-7.972-2.401-13.177-3.69-15.616-3.864c-3.346-0.2-6.195,0.387-8.549,1.759
			c-2.603,1.519-4.195,3.386-4.779,5.6c-0.581,2.215-0.154,4.554,1.283,7.019c1.422,2.438,3.287,3.947,5.594,4.531
			c2.308,0.584,5.23-0.007,8.765-1.773l5.622,12.309c-6.827,3.057-12.706,3.571-17.636,1.55c-4.929-2.024-8.995-5.777-12.193-11.26
			c-3.506-6.009-4.64-11.675-3.404-16.999c1.235-5.323,4.263-9.392,9.082-12.203c2.741-1.6,5.638-2.63,8.69-3.094
			c3.052-0.463,6.557-0.421,10.515,0.129c2.625,0.361,6.699,1.399,12.227,3.11c5.528,1.712,9.132,2.736,10.812,3.072
			c1.682,0.337,3.226,0.504,4.634,0.498L546.248,188.059z"/>
	</g>
	<g>
		<path d="M477.889,186.456c-3.442-5.898-4.027-11.737-1.756-17.516c2.674-6.867,9.785-13.671,21.331-20.407
			c11.52-6.722,20.963-9.557,28.328-8.51c6.077,0.871,10.836,4.256,14.276,10.154c3.457,5.926,3.967,12.031,1.528,18.316
			c-2.439,6.286-9.5,12.837-21.188,19.655c-11.464,6.689-20.878,9.51-28.244,8.462C486.089,195.74,481.33,192.354,477.889,186.456z
			 M487.567,180.809c0.824,1.412,2.011,2.41,3.555,2.992c1.546,0.582,3.661,0.501,6.343-0.248c3.488-0.957,8.802-3.522,15.946-7.689
			c7.143-4.168,11.844-7.392,14.095-9.672c2.253-2.279,3.503-4.223,3.75-5.834c0.248-1.61-0.04-3.123-0.864-4.535
			c-0.823-1.411-2.008-2.408-3.556-2.991c-1.544-0.582-3.661-0.499-6.341,0.249c-3.458,0.941-8.762,3.497-15.905,7.665
			s-11.842,7.392-14.094,9.672c-2.251,2.279-3.508,4.227-3.771,5.846C486.463,177.881,486.742,179.398,487.567,180.809z"/>
	</g>
	<g>
		<path d="M649.401,149.444l5.568,12.313l-46.403,20.983c6.24,2.597,11.749,6.491,16.526,11.685l-11.174,5.053
			c-2.505-2.737-6.077-5.327-10.717-7.768c-4.639-2.442-9.233-3.478-13.782-3.11l-4.517-9.99L649.401,149.444z"/>
	</g>
	<g>
		<path d="M624.518,133.985l-6.703-11.325c2.293-1.389,3.747-2.96,4.359-4.716c0.614-1.756,0.465-3.64-0.447-5.655
			c-1.15-2.542-3.295-4.176-6.438-4.9c-3.142-0.726-8.508,0.329-16.093,3.16c4.993,1.472,8.54,4.53,10.64,9.175
			c2.286,5.055,2.306,10.296,0.065,15.725s-6.489,9.558-12.74,12.385c-6.514,2.945-12.64,3.386-18.376,1.317
			c-5.738-2.067-9.961-6.096-12.669-12.083c-2.946-6.514-2.844-12.999,0.307-19.456c3.15-6.456,10.495-12.293,22.033-17.509
			c11.744-5.309,21.199-6.965,28.366-4.963c7.168,2.001,12.331,6.493,15.487,13.475c2.271,5.023,2.772,9.69,1.499,13.994
			C632.535,126.912,629.439,130.704,624.518,133.985z M585.013,118.281c-3.972,1.797-6.642,4.103-8.008,6.919
			c-1.365,2.817-1.505,5.424-0.423,7.818c1.031,2.278,2.784,3.765,5.261,4.456c2.477,0.692,5.76,0.113,9.85-1.735
			c4.149-1.876,6.824-4.069,8.026-6.585c1.203-2.514,1.25-4.998,0.14-7.452c-1.07-2.365-2.905-3.938-5.509-4.713
			C591.747,116.213,588.635,116.644,585.013,118.281z"/>
	</g>
	<g>
		<path d="M739.372,118.321l4.201,12.844l-48.406,15.832c5.923,3.258,10.977,7.727,15.163,13.408l-11.656,3.811
			c-2.192-2.992-5.464-5.954-9.812-8.884c-4.349-2.929-8.804-4.456-13.365-4.584l-3.41-10.421L739.372,118.321z"/>
	</g>
	<g>
		<path d="M692.135,96.269c-0.314,3.781-1.452,6.825-3.412,9.137c-1.959,2.312-4.403,3.944-7.328,4.901
			c-4.997,1.635-9.697,1.242-14.1-1.182c-4.401-2.422-7.655-6.849-9.758-13.278c-2.084-6.369-2.069-11.847,0.039-16.433
			c2.109-4.585,5.664-7.697,10.661-9.332c3.108-1.017,6.137-1.113,9.088-0.291c2.95,0.823,5.546,2.486,7.781,4.994
			c0.277-4.206,1.531-7.745,3.764-10.616c2.232-2.872,5.221-4.921,8.97-6.146c6.186-2.023,11.859-1.696,17.02,0.986
			c5.161,2.68,8.813,7.297,10.956,13.847c1.993,6.096,2.053,11.692,0.178,16.792c-2.213,6.019-6.611,10.105-13.194,12.26
			c-3.626,1.185-7.248,1.377-10.869,0.57C698.312,101.671,695.046,99.601,692.135,96.269z M678.331,97.85
			c2.56-0.838,4.318-2.214,5.278-4.13c0.959-1.915,1.045-4.076,0.257-6.485c-0.797-2.438-2.159-4.151-4.084-5.141
			c-1.926-0.99-4.169-1.066-6.729-0.229c-2.406,0.787-4.097,2.142-5.071,4.062c-0.974,1.922-1.073,4.07-0.296,6.446
			c0.808,2.47,2.181,4.195,4.121,5.18C673.751,98.538,675.926,98.636,678.331,97.85z M707.426,89.648
			c3.536-1.156,5.996-2.964,7.383-5.427c1.389-2.46,1.639-5.048,0.75-7.759c-0.866-2.652-2.536-4.534-5.01-5.648
			c-2.472-1.115-5.508-1.083-9.103,0.094c-3.138,1.026-5.371,2.736-6.698,5.125c-1.326,2.39-1.546,4.942-0.659,7.654
			c1.026,3.14,2.875,5.124,5.541,5.955C702.3,90.474,704.897,90.475,707.426,89.648z"/>
	</g>
	<g>
		<path d="M834.319,95.942l2.714,13.237l-49.89,10.23c5.514,3.909,10.029,8.925,13.541,15.043l-12.013,2.464
			c-1.839-3.223-4.751-6.537-8.74-9.942c-3.987-3.405-8.239-5.429-12.757-6.073l-2.202-10.741L834.319,95.942z"/>
	</g>
	<g>
		<path d="M773.663,83.829l-12.295,2.52l-9.284-45.273l9.61-1.97c4.441,2.984,10.496,5.702,18.167,8.155
			c7.671,2.452,15.585,3.899,23.741,4.336c8.157,0.438,15.279,0.017,21.365-1.264l2.617,12.767
			c-9.592,1.738-19.732,1.763-30.421,0.077c-10.687-1.687-20.578-4.838-29.675-9.453L773.663,83.829z"/>
	</g>
	<g>
		<path d="M929.536,83.73l1.35,13.445l-50.67,5.086c5.087,4.451,9.065,9.901,11.935,16.347l-12.201,1.224
			c-1.5-3.394-4.061-6.987-7.68-10.78c-3.62-3.794-7.642-6.24-12.07-7.343l-1.095-10.91L929.536,83.73z"/>
	</g>
	<g>
		<path d="M869.596,19.565l2.741,12.869c-2.647,0.589-4.542,1.616-5.683,3.085c-1.141,1.469-1.605,3.27-1.39,5.407
			c0.285,2.84,1.803,5.112,4.551,6.817c2.749,1.705,8.185,2.408,16.305,2.109c-4.29-2.953-6.686-6.917-7.186-11.894
			c-0.563-5.614,1.091-10.637,4.965-15.07c3.873-4.431,9.19-6.987,15.952-7.665c7.178-0.721,13.146,0.806,17.907,4.582
			c4.762,3.775,7.473,8.965,8.136,15.569c0.711,7.08-1.456,13.179-6.501,18.293s-13.835,8.3-26.371,9.557
			c-12.855,1.29-22.36-0.155-28.516-4.338c-6.154-4.183-9.614-10.07-10.375-17.663c-0.534-5.327,0.514-9.887,3.145-13.679
			C859.907,23.751,864.014,21.092,869.596,19.565z M901.986,47.099c4.37-0.438,7.643-1.783,9.817-4.031
			c2.175-2.247,3.132-4.664,2.872-7.247c-0.249-2.488-1.431-4.464-3.542-5.927c-2.112-1.464-5.385-1.973-9.82-1.527
			c-4.562,0.458-7.813,1.686-9.756,3.685c-1.941,2-2.779,4.34-2.509,7.019c0.259,2.584,1.492,4.668,3.696,6.251
			C894.949,46.904,898.03,47.497,901.986,47.099z"/>
	</g>
	<g>
		<path d="M1025.899,81.389l-0.009,13.514l-50.927-0.033c4.614,4.941,8.024,10.761,10.231,17.463l-12.263-0.008
			c-1.152-3.525-3.337-7.359-6.557-11.497c-3.22-4.138-6.976-6.977-11.271-8.519l0.007-10.965L1025.899,81.389z"/>
	</g>
	<g>
		<path d="M1007.785,57.134l-1.387-13.467c3.047-0.382,5.459-1.518,7.239-3.41c1.78-1.891,2.671-4.069,2.673-6.539
			c0.002-2.821-1.143-5.211-3.433-7.167c-2.291-1.956-5.745-2.938-10.361-2.94c-4.328-0.003-7.575,0.966-9.739,2.903
			c-2.165,1.938-3.249,4.463-3.25,7.572c-0.002,3.88,1.712,7.358,5.139,10.439l-1.594,10.963l-36.688-6.948l0.023-35.73
			l12.648,0.008l-0.016,25.487l11.974,2.124c-1.505-3.014-2.257-6.092-2.255-9.235c0.004-5.994,2.188-11.075,6.551-15.239
			c4.363-4.164,10.023-6.245,16.98-6.241c5.803,0.004,10.979,1.691,15.53,5.06c6.217,4.589,9.321,10.954,9.317,19.098
			c-0.004,6.509-1.755,11.813-5.252,15.913C1018.382,53.887,1013.684,56.337,1007.785,57.134z"/>
	</g>
	<g>
		<path d="M1121.827,88.752l-1.283,13.451l-50.694-4.836c4.125,5.355,6.972,11.469,8.538,18.351l-12.208-1.165
			c-0.812-3.621-2.628-7.642-5.442-12.066c-2.814-4.423-6.286-7.604-10.418-9.544l1.041-10.914L1121.827,88.752z"/>
	</g>
	<g>
		<path d="M1126.625,38.434l-14.122-1.347l-2.739,28.723l-11.776-1.124l-41.664-34.697l1.077-11.297l44.519,4.247
			l0.831-8.713l11.823,1.127l-0.831,8.713l14.122,1.347L1126.625,38.434z M1100.68,35.96l-23.982-2.288l22.443,18.419L1100.68,35.96
			z"/>
	</g>
	<g>
		<path d="M1215.783,106.91l-2.824,13.215l-49.8-10.645c3.481,5.793,5.604,12.197,6.367,19.211l-11.993-2.564
			c-0.392-3.688-1.729-7.893-4.016-12.611c-2.286-4.718-5.367-8.278-9.248-10.681l2.292-10.721L1215.783,106.91z"/>
	</g>
	<g>
		<path d="M1202.418,79.951l1.181-13.122c3.349,0.291,6.075-0.275,8.181-1.694c2.106-1.419,3.431-3.397,3.974-5.938
			c0.583-2.728,0.04-5.244-1.631-7.552c-1.671-2.306-4.26-3.836-7.772-4.588c-3.322-0.71-6.147-0.378-8.474,0.991
			c-2.325,1.372-3.764,3.342-4.313,5.914c-0.361,1.693-0.465,3.786-0.31,6.278l-10.457-3.76c0.858-3.554,0.665-6.447-0.578-8.682
			c-1.244-2.231-3.228-3.64-5.956-4.223c-2.319-0.495-4.316-0.202-5.992,0.884c-1.674,1.085-2.756,2.771-3.245,5.059
			c-0.481,2.258-0.11,4.353,1.115,6.287c1.227,1.934,3.307,3.395,6.242,4.383l-4.672,11.737c-3.988-1.738-7.047-3.727-9.174-5.968
			c-2.126-2.241-3.575-5.043-4.349-8.405c-0.773-3.361-0.754-6.939,0.057-10.731c1.387-6.489,4.569-11.25,9.544-14.286
			c4.076-2.505,8.246-3.303,12.51-2.391c6.051,1.293,10.172,5.634,12.362,13.019c1.69-3.77,4.264-6.522,7.716-8.259
			c3.453-1.738,7.265-2.16,11.434-1.269c6.052,1.294,10.736,4.607,14.055,9.938c3.319,5.332,4.275,11.29,2.867,17.873
			c-1.332,6.239-4.234,11.027-8.701,14.369C1213.562,79.154,1208.358,80.533,1202.418,79.951z"/>
	</g>
	<g>
		<path d="M1308.363,134.495l-4.385,12.782l-48.173-16.527c2.765,6.169,4.107,12.779,4.025,19.836l-11.599-3.98
			c0.053-3.71-0.774-8.044-2.479-13.002c-1.706-4.957-4.34-8.86-7.905-11.711l3.558-10.372L1308.363,134.495z"/>
	</g>
	<g>
		<path d="M1319.106,64.504l11.872,4.073l-15.372,44.806c-4.322-2.025-8.075-4.94-11.262-8.745
			c-3.185-3.803-6.872-10.423-11.057-19.859c-3.391-7.603-5.817-12.385-7.281-14.345c-2.035-2.664-4.341-4.438-6.918-5.321
			c-2.85-0.978-5.305-0.963-7.362,0.042c-2.056,1.006-3.548,2.859-4.474,5.557c-0.915,2.668-0.84,5.068,0.226,7.195
			c1.066,2.128,3.423,3.954,7.069,5.477l-5.643,12.3c-6.775-3.171-11.008-7.284-12.697-12.338
			c-1.69-5.053-1.505-10.583,0.556-16.587c2.258-6.58,5.805-11.142,10.644-13.685c4.838-2.541,9.896-2.91,15.172-1.099
			c3.002,1.031,5.676,2.549,8.02,4.557c2.345,2.008,4.603,4.689,6.773,8.044c1.441,2.223,3.319,5.985,5.636,11.288
			c2.316,5.304,3.895,8.702,4.74,10.193c0.845,1.492,1.727,2.77,2.649,3.833L1319.106,64.504z"/>
	</g>
	<g>
		<path d="M1397.15,171.568l-5.587,12.305l-46.371-21.058c2.162,6.404,2.866,13.115,2.109,20.13l-11.167-5.071
			c0.408-3.688,0-8.082-1.224-13.178c-1.224-5.098-3.473-9.236-6.748-12.414l4.534-9.983L1397.15,171.568z"/>
	</g>
	<g>
		<path d="M1419.145,123.133l-5.587,12.305l-46.371-21.058c2.162,6.404,2.865,13.115,2.108,20.129l-11.166-5.07
			c0.408-3.688-0.001-8.081-1.224-13.179c-1.224-5.098-3.473-9.236-6.748-12.414l4.534-9.983L1419.145,123.133z"/>
	</g>
	<g>
		<path d="M1481.874,218.109l-6.824,11.662l-43.954-25.722c1.489,6.593,1.5,13.34,0.023,20.241l-10.584-6.194
			c0.783-3.628,0.832-8.039,0.139-13.236c-0.691-5.196-2.504-9.543-5.435-13.042l5.539-9.462L1481.874,218.109z"/>
	</g>
	<g>
		<path d="M1444.463,141.882c3.448-5.893,8.247-9.269,14.397-10.129c7.297-1.041,16.714,1.811,28.252,8.565
			c11.512,6.737,18.618,13.57,21.323,20.5c2.225,5.722,1.611,11.529-1.838,17.423c-3.466,5.922-8.534,9.363-15.208,10.324
			c-6.672,0.962-15.847-1.975-27.524-8.809c-11.456-6.703-18.534-13.521-21.24-20.451
			C1440.4,153.584,1441.013,147.776,1444.463,141.882z M1454.132,147.54c-0.825,1.411-1.113,2.934-0.861,4.565
			c0.252,1.634,1.361,3.436,3.33,5.403c2.547,2.568,7.389,5.94,14.528,10.117c7.138,4.178,12.254,6.689,15.345,7.531
			c3.091,0.844,5.399,0.978,6.924,0.403c1.525-0.575,2.7-1.568,3.527-2.979c0.825-1.411,1.113-2.934,0.86-4.567
			c-0.251-1.632-1.36-3.433-3.329-5.402c-2.519-2.551-7.347-5.915-14.486-10.093c-7.138-4.178-12.254-6.688-15.345-7.531
			c-3.091-0.842-5.405-0.982-6.945-0.414C1456.141,145.142,1454.958,146.13,1454.132,147.54z"/>
	</g>
	<g>
		<path d="M1495.697,241.356c3.879-5.621,8.916-8.631,15.111-9.031c7.352-0.497,16.531,3.05,27.536,10.642
			c10.979,7.573,17.559,14.916,19.74,22.03c1.791,5.871,0.748,11.618-3.128,17.239c-3.896,5.648-9.206,8.702-15.934,9.165
			c-6.725,0.463-15.656-3.147-26.792-10.831c-10.927-7.537-17.479-14.862-19.66-21.975
			C1490.778,252.724,1491.821,246.978,1495.697,241.356z M1504.922,247.719c-0.929,1.345-1.328,2.843-1.198,4.489
			c0.128,1.648,1.102,3.527,2.918,5.635c2.348,2.752,6.928,6.472,13.735,11.17c6.81,4.696,11.724,7.581,14.742,8.652
			c3.02,1.072,5.312,1.376,6.874,0.917c1.564-0.46,2.812-1.363,3.74-2.708c0.929-1.346,1.328-2.842,1.198-4.491
			c-0.129-1.646-1.103-3.526-2.921-5.636c-2.32-2.732-6.887-6.446-13.694-11.141c-6.81-4.697-11.724-7.581-14.745-8.652
			c-3.019-1.07-5.318-1.381-6.894-0.93C1507.104,245.476,1505.851,246.373,1504.922,247.719z"/>
	</g>
	<g>
		<path d="M1561.031,242.6l6.24-11.587c2.373,1.248,4.47,1.68,6.29,1.3c1.818-0.379,3.356-1.479,4.613-3.301
			c1.584-2.296,1.876-4.977,0.875-8.043s-4.673-7.116-11.013-12.153c1.317,5.037,0.527,9.652-2.367,13.85
			c-3.15,4.566-7.629,7.289-13.436,8.171s-11.534-0.625-17.183-4.521c-5.885-4.06-9.422-9.08-10.611-15.063
			c-1.192-5.981,0.08-11.677,3.811-17.086c4.061-5.885,9.667-9.143,16.822-9.777c7.156-0.635,15.945,2.645,26.368,9.836
			c10.609,7.319,16.906,14.564,18.89,21.737c1.985,7.172,0.802,13.912-3.548,20.22c-3.132,4.539-6.87,7.374-11.214,8.505
			C1571.228,245.818,1566.382,245.123,1561.031,242.6z M1554.095,200.659c-3.589-2.475-6.942-3.57-10.06-3.287
			c-3.117,0.283-5.422,1.507-6.914,3.672c-1.421,2.059-1.788,4.327-1.102,6.805c0.687,2.479,2.876,4.993,6.57,7.541
			c3.747,2.585,7.009,3.744,9.782,3.476c2.776-0.266,4.928-1.509,6.456-3.725c1.475-2.137,1.873-4.52,1.193-7.151
			C1559.343,205.36,1557.367,202.916,1554.095,200.659z"/>
	</g>
	<g>
		<path d="M1573.568,297.404c4.539-5.101,9.908-7.468,16.108-7.101c7.358,0.412,16.031,5.063,26.017,13.952
			c9.963,8.867,15.588,16.965,16.877,24.293c1.056,6.048-0.688,11.621-5.228,16.721c-4.562,5.125-10.208,7.504-16.941,7.134
			c-6.73-0.368-15.149-5.052-25.257-14.047c-9.915-8.825-15.514-16.901-16.805-24.229
			C1567.283,308.08,1569.027,302.505,1573.568,297.404z M1581.937,304.853c-1.088,1.222-1.667,2.658-1.742,4.309
			c-0.074,1.65,0.66,3.635,2.202,5.951c1.992,3.019,6.078,7.276,12.257,12.777c6.178,5.499,10.699,8.967,13.565,10.401
			c2.865,1.435,5.103,2.019,6.71,1.756c1.609-0.263,2.955-1.006,4.043-2.228s1.668-2.656,1.742-4.308
			c0.074-1.65-0.66-3.635-2.203-5.952c-1.968-2.996-6.041-7.244-12.22-12.744c-6.18-5.5-10.7-8.966-13.565-10.402
			c-2.865-1.434-5.106-2.024-6.728-1.771C1584.377,302.895,1583.025,303.633,1581.937,304.853z"/>
	</g>
	<g>
		<path d="M1629.53,283.792c-3.425,1.63-6.629,2.179-9.612,1.649c-2.982-0.53-5.624-1.819-7.923-3.865
			c-3.928-3.496-5.953-7.754-6.073-12.778c-0.122-5.023,2.066-10.061,6.564-15.114c4.454-5.005,9.194-7.75,14.221-8.236
			c5.023-0.485,9.5,1.02,13.427,4.515c2.442,2.174,4.052,4.743,4.825,7.708c0.773,2.964,0.641,6.042-0.4,9.237
			c3.773-1.876,7.464-2.575,11.069-2.092c3.604,0.482,6.88,2.036,9.825,4.657c4.861,4.328,7.431,9.396,7.713,15.203
			c0.281,5.809-1.871,11.288-6.452,16.436c-4.264,4.789-9.069,7.658-14.42,8.603c-6.316,1.119-12.061-0.627-17.234-5.231
			c-2.85-2.537-4.837-5.571-5.962-9.107C1627.97,291.848,1628.115,287.982,1629.53,283.792z M1621.218,272.659
			c2.012,1.792,4.086,2.619,6.225,2.482c2.138-0.135,4.048-1.148,5.732-3.041c1.704-1.916,2.501-3.956,2.386-6.117
			c-0.113-2.162-1.177-4.139-3.188-5.929c-1.892-1.683-3.912-2.463-6.063-2.338c-2.15,0.125-4.055,1.121-5.719,2.988
			c-1.726,1.939-2.527,3.996-2.4,6.17C1618.316,269.046,1619.327,270.975,1621.218,272.659z M1642.945,293.673
			c2.778,2.472,5.58,3.688,8.404,3.65c2.826-0.038,5.187-1.125,7.084-3.256c1.855-2.084,2.642-4.474,2.359-7.172
			c-0.279-2.698-1.834-5.303-4.661-7.819c-2.465-2.195-5.066-3.265-7.799-3.209c-2.733,0.057-5.049,1.151-6.945,3.282
			c-2.197,2.467-2.983,5.062-2.358,7.784C1639.652,289.657,1640.957,291.904,1642.945,293.673z"/>
	</g>
	<g>
		<path d="M1643.498,360.875c5.08-4.564,10.682-6.319,16.798-5.264c7.268,1.229,15.367,6.817,24.302,16.763
			c8.914,9.923,13.603,18.595,14.068,26.021c0.376,6.128-1.977,11.473-7.056,16.038c-5.105,4.586-10.982,6.32-17.63,5.202
			c-6.648-1.115-14.494-6.707-23.536-16.772c-8.87-9.874-13.537-18.524-14.003-25.95
			C1636.065,370.785,1638.418,365.439,1643.498,360.875z M1650.986,369.211c-1.216,1.092-1.953,2.456-2.209,4.087
			c-0.259,1.633,0.249,3.687,1.525,6.16c1.644,3.222,5.23,7.908,10.759,14.062c5.528,6.154,9.635,10.103,12.322,11.847
			c2.688,1.745,4.847,2.575,6.475,2.491c1.628-0.082,3.051-0.669,4.266-1.764c1.217-1.093,1.953-2.456,2.212-4.087
			c0.257-1.631-0.252-3.686-1.526-6.16c-1.623-3.197-5.198-7.873-10.726-14.026c-5.528-6.154-9.636-10.102-12.322-11.847
			c-2.688-1.745-4.852-2.581-6.49-2.511C1653.63,367.537,1652.202,368.118,1650.986,369.211z"/>
	</g>
	<g>
		<path d="M1679.344,347.227l-8.389-9.337l34.379-30.886l6.557,7.298c-0.332,5.341,0.382,11.94,2.14,19.799
			c1.758,7.858,4.511,15.419,8.255,22.678c3.743,7.263,7.705,13.195,11.885,17.8l-9.694,8.71
			c-6.347-7.4-11.493-16.139-15.436-26.214c-3.944-10.077-6.223-20.205-6.836-30.386L1679.344,347.227z"/>
	</g>
	<g>
		<path d="M1705.956,430.753c5.507-4.038,11.252-5.226,17.235-3.572c7.108,1.943,14.615,8.306,22.518,19.088
			c7.886,10.756,11.69,19.851,11.416,27.286c-0.234,6.134-3.104,11.219-8.611,15.256c-5.534,4.057-11.552,5.199-18.058,3.429
			s-13.757-8.111-21.755-19.023c-7.847-10.704-11.633-19.774-11.359-27.209C1697.579,439.875,1700.449,434.789,1705.956,430.753z
			 M1712.581,439.79c-1.319,0.966-2.188,2.25-2.606,3.847c-0.419,1.599-0.116,3.692,0.907,6.28c1.315,3.369,4.42,8.387,9.31,15.058
			c4.89,6.67,8.585,11.008,11.087,13.009c2.501,2.002,4.565,3.044,6.193,3.122c1.628,0.079,3.102-0.366,4.419-1.332
			c1.317-0.966,2.187-2.249,2.606-3.847c0.418-1.598,0.115-3.692-0.907-6.282c-1.298-3.342-4.39-8.347-9.28-15.019
			c-4.891-6.671-8.586-11.006-11.088-13.011c-2.502-2.002-4.57-3.049-6.206-3.14C1715.377,438.386,1713.9,438.823,1712.581,439.79z"
			/>
	</g>
	<g>
		<path d="M1782.115,396.688l-9.695,8.897c-1.851-1.982-3.697-3.093-5.541-3.332
			c-1.844-0.237-3.633,0.279-5.365,1.548c-2.302,1.687-3.488,4.147-3.562,7.382c-0.074,3.234,2.079,8.273,6.461,15.118
			c0.365-5.196,2.564-9.273,6.598-12.23c4.551-3.336,9.719-4.461,15.503-3.375c5.785,1.087,10.686,4.368,14.705,9.851
			c4.264,5.817,5.979,11.736,5.142,17.754c-0.836,6.019-3.929,10.99-9.281,14.912c-5.738,4.207-12.094,5.437-19.06,3.688
			c-6.968-1.75-14.176-7.705-21.625-17.867c-7.638-10.419-11.217-19.343-10.739-26.769c0.479-7.425,3.794-13.395,9.949-17.907
			c4.318-3.164,8.778-4.576,13.382-4.233C1773.592,390.466,1777.968,392.654,1782.115,396.688z M1774.837,438.573
			c2.598,3.542,5.416,5.679,8.457,6.411c3.04,0.732,5.608,0.33,7.702-1.204c2.018-1.479,3.119-3.498,3.309-6.063
			c0.187-2.561-1.036-5.639-3.67-9.234c-2.711-3.697-5.418-5.876-8.127-6.533c-2.709-0.658-5.149-0.191-7.321,1.4
			c-2.094,1.536-3.264,3.655-3.508,6.358C1771.435,432.411,1772.488,435.367,1774.837,438.573z"/>
	</g>
	<g>
		<path d="M1761.342,508.998c5.852-3.519,11.682-4.181,17.49-1.989c6.901,2.582,13.798,9.602,20.687,21.058
			c6.874,11.429,9.837,20.834,8.886,28.212c-0.791,6.088-4.111,10.89-9.964,14.41c-5.879,3.536-11.977,4.127-18.293,1.771
			c-6.317-2.354-12.961-9.328-19.933-20.923c-6.841-11.374-9.787-20.749-8.836-28.13
			C1752.169,517.32,1755.491,512.516,1761.342,508.998z M1767.117,518.6c-1.401,0.842-2.383,2.042-2.945,3.594
			c-0.562,1.555-0.452,3.667,0.333,6.338c1.004,3.475,3.638,8.754,7.901,15.842c4.263,7.088,7.547,11.744,9.856,13.964
			c2.31,2.222,4.269,3.446,5.885,3.672c1.613,0.227,3.121-0.081,4.522-0.924s2.383-2.04,2.944-3.595
			c0.563-1.554,0.451-3.666-0.332-6.337c-0.987-3.447-3.612-8.713-7.875-15.802c-4.263-7.087-7.55-11.742-9.857-13.964
			c-2.309-2.221-4.274-3.452-5.897-3.691C1770.029,517.456,1768.518,517.757,1767.117,518.6z"/>
	</g>
	<g>
		<path d="M1819.31,535.582l10.82-8.134c1.899,2.411,4.116,3.891,6.655,4.442c2.538,0.55,4.863,0.189,6.98-1.083
			c2.417-1.453,3.874-3.666,4.368-6.64c0.493-2.971-0.448-6.436-2.827-10.393c-2.229-3.709-4.735-5.991-7.512-6.846
			c-2.778-0.855-5.5-0.48-8.164,1.122c-3.324,1.999-5.422,5.261-6.291,9.786l-10.213,4.291l-12.976-35.011l30.618-18.414
			l6.518,10.839l-21.842,13.135l4.357,11.352c1.806-2.844,4.054-5.076,6.746-6.696c5.139-3.09,10.615-3.84,16.436-2.252
			c5.818,1.589,10.521,5.364,14.106,11.325c2.99,4.972,4.217,10.277,3.678,15.914c-0.724,7.692-4.574,13.637-11.552,17.833
			c-5.576,3.353-11.024,4.591-16.342,3.711C1827.557,542.984,1823.037,540.224,1819.31,535.582z"/>
	</g>
	<g>
		<path d="M1809.508,591.29c6.236-2.782,12.106-2.73,17.603,0.154c6.536,3.402,12.528,11.209,17.973,23.419
			c5.433,12.18,7.23,21.876,5.39,29.085c-1.525,5.946-5.406,10.309-11.644,13.091c-6.266,2.794-12.391,2.638-18.373-0.467
			c-5.984-3.104-11.731-10.836-17.243-23.193c-5.406-12.121-7.187-21.786-5.349-28.997
			C1799.391,598.434,1803.271,594.071,1809.508,591.29z M1814.072,601.523c-1.493,0.666-2.612,1.736-3.359,3.21
			c-0.745,1.473-0.894,3.584-0.441,6.33c0.573,3.57,2.545,9.132,5.913,16.686c3.37,7.554,6.066,12.574,8.089,15.059
			c2.019,2.487,3.817,3.941,5.392,4.361c1.576,0.422,3.109,0.299,4.602-0.367c1.495-0.666,2.613-1.736,3.362-3.21
			c0.745-1.473,0.894-3.584,0.44-6.331c-0.561-3.54-2.525-9.089-5.895-16.643c-3.368-7.554-6.064-12.572-8.084-15.06
			c-2.023-2.485-3.824-3.947-5.405-4.382C1817.103,600.742,1815.566,600.856,1814.072,601.523z"/>
	</g>
	<g>
		<path d="M1895.222,630.57l-5.779-12.956l-26.351,11.753l-4.818-10.804l9.697-53.347l10.364-4.623l18.217,40.845
			l7.993-3.565l4.838,10.848l-7.993,3.565l5.779,12.956L1895.222,630.57z M1884.605,606.767l-9.814-22.003l-4.987,28.604
			L1884.605,606.767z"/>
	</g>
	<g>
		<path d="M1848.472,676.664c6.529-2.002,12.348-1.236,17.454,2.294c6.074,4.174,11.072,12.652,14.992,25.433
			c3.91,12.752,4.514,22.594,1.811,29.525c-2.239,5.717-6.621,9.575-13.152,11.577c-6.56,2.012-12.62,1.111-18.182-2.699
			s-10.325-12.184-14.292-25.119c-3.891-12.69-4.484-22.5-1.783-29.434C1837.56,682.526,1841.943,678.666,1848.472,676.664z
			 M1851.756,687.377c-1.563,0.479-2.806,1.405-3.726,2.775c-0.921,1.373-1.324,3.45-1.209,6.231
			c0.137,3.613,1.416,9.375,3.842,17.282s4.49,13.22,6.194,15.933c1.704,2.714,3.311,4.375,4.823,4.984
			c1.513,0.61,3.049,0.675,4.612,0.195c1.563-0.479,2.807-1.404,3.727-2.777c0.92-1.371,1.323-3.449,1.208-6.23
			c-0.126-3.583-1.402-9.329-3.827-17.237c-2.425-7.909-4.489-13.219-6.195-15.933c-1.703-2.714-3.314-4.383-4.829-5.008
			C1854.859,686.971,1853.321,686.898,1851.756,687.377z"/>
	</g>
	<g>
		<path d="M1897.495,716.107l12.041-5.352c1.375,3.065,3.196,5.174,5.46,6.322c2.263,1.151,4.637,1.345,7.12,0.583
			c2.666-0.818,4.602-2.518,5.804-5.1c1.204-2.581,1.279-5.589,0.227-9.022c-0.996-3.249-2.66-5.556-4.989-6.92
			c-2.329-1.364-4.753-1.662-7.266-0.891c-1.656,0.508-3.532,1.436-5.635,2.784l-1.804-10.966c3.523-0.98,5.957-2.556,7.303-4.728
			c1.346-2.174,1.61-4.594,0.792-7.262c-0.694-2.269-1.925-3.869-3.687-4.804s-3.762-1.06-6-0.374
			c-2.207,0.677-3.856,2.021-4.95,4.033c-1.093,2.013-1.357,4.541-0.793,7.588l-12.528,1.629c-0.423-4.331-0.173-7.97,0.751-10.92
			c0.924-2.949,2.666-5.578,5.227-7.892c2.562-2.311,5.694-4.034,9.404-5.172c6.345-1.946,12.052-1.482,17.126,1.388
			c4.171,2.342,6.898,5.598,8.177,9.767c1.813,5.916,0.027,11.628-5.36,17.136c4.116-0.356,7.772,0.552,10.97,2.722
			c3.198,2.173,5.422,5.298,6.673,9.373c1.813,5.916,1.199,11.622-1.845,17.115c-3.043,5.494-7.783,9.227-14.222,11.202
			c-6.099,1.87-11.694,1.666-16.786-0.612C1903.612,725.457,1899.877,721.582,1897.495,716.107z"/>
	</g>
	<g>
		<path d="M1876.946,768.333c6.688-1.38,12.406-0.072,17.161,3.924c5.655,4.725,9.834,13.633,12.536,26.726
			c2.694,13.062,2.372,22.916-0.971,29.562c-2.766,5.481-7.491,8.911-14.177,10.291c-6.72,1.387-12.668-0.079-17.847-4.394
			c-5.179-4.316-9.136-13.099-11.869-26.349c-2.682-12.999-2.352-22.821,0.991-29.468
			C1865.532,773.144,1870.26,769.713,1876.946,768.333z M1879.211,779.307c-1.602,0.331-2.926,1.136-3.971,2.415
			c-1.044,1.279-1.642,3.309-1.788,6.089c-0.204,3.609,0.53,9.465,2.201,17.566c1.67,8.1,3.226,13.582,4.669,16.443
			c1.441,2.862,2.886,4.667,4.335,5.415c1.447,0.75,2.971,0.957,4.572,0.628c1.601-0.331,2.925-1.136,3.97-2.414
			c1.045-1.279,1.641-3.31,1.787-6.09c0.211-3.579-0.519-9.419-2.19-17.52c-1.671-8.1-3.229-13.581-4.67-16.443
			c-1.441-2.861-2.888-4.673-4.34-5.439C1882.337,779.193,1880.811,778.977,1879.211,779.307z"/>
	</g>
	<g>
		<path d="M1968.453,808.913l2.537,12.292l-46.391,9.572c-0.457-4.75,0.142-9.464,1.795-14.143
			c1.653-4.679,5.475-11.22,11.466-19.625c4.819-6.788,7.699-11.31,8.642-13.566c1.258-3.108,1.61-5.995,1.06-8.664
			c-0.609-2.95-1.87-5.057-3.782-6.316c-1.913-1.258-4.268-1.6-7.062-1.023c-2.765,0.571-4.789,1.856-6.078,3.857
			c-1.289,2.002-1.661,4.958-1.114,8.871l-13.459,1.403c-0.718-7.445,0.668-13.182,4.157-17.21
			c3.491-4.025,8.343-6.681,14.561-7.963c6.812-1.406,12.546-0.674,17.196,2.197c4.652,2.87,7.541,7.037,8.669,12.5
			c0.642,3.107,0.694,6.182,0.16,9.222c-0.536,3.04-1.695,6.349-3.477,9.925c-1.179,2.371-3.464,5.903-6.848,10.594
			c-3.385,4.693-5.506,7.782-6.361,9.267c-0.856,1.487-1.506,2.896-1.948,4.232L1968.453,808.913z"/>
	</g>
	<g>
		<path d="M1895.447,861.594c6.782-0.803,12.369,0.991,16.761,5.379c5.232,5.191,8.631,14.427,10.202,27.702
			c1.567,13.245,0.4,23.037-3.499,29.373c-3.224,5.224-8.226,8.237-15.008,9.04c-6.814,0.806-12.615-1.163-17.406-5.907
			c-4.79-4.743-7.98-13.833-9.57-27.269c-1.559-13.181-0.387-22.939,3.511-29.277
			C1883.662,865.41,1888.666,862.396,1895.447,861.594z M1896.763,872.722c-1.623,0.192-3.012,0.881-4.161,2.065
			c-1.152,1.187-1.92,3.158-2.303,5.915c-0.513,3.58-0.283,9.477,0.688,17.69c0.972,8.215,2.053,13.809,3.243,16.783
			c1.19,2.976,2.475,4.898,3.854,5.767c1.377,0.871,2.88,1.21,4.503,1.018s3.011-0.88,4.162-2.067
			c1.15-1.185,1.92-3.157,2.302-5.914c0.517-3.548,0.29-9.429-0.682-17.643c-0.973-8.214-2.054-13.809-3.244-16.783
			c-1.191-2.974-2.476-4.904-3.856-5.792C1899.888,872.877,1898.386,872.53,1896.763,872.722z"/>
	</g>
	<g>
		<path d="M1973.635,923.627l-13.419,1.588l-5.983-50.575c-4.362,5.166-9.738,9.239-16.132,12.223l-1.44-12.178
			c3.365-1.561,6.913-4.183,10.642-7.869c3.73-3.686,6.105-7.751,7.127-12.198l10.89-1.288L1973.635,923.627z"/>
	</g>
</g>
</svg>
