<?xml version="1.0" encoding="utf-8"?>
<!-- Generator: Adobe Illustrator 17.0.0, SVG Export Plug-In . SVG Version: 6.00 Build 0)  -->
<!DOCTYPE svg PUBLIC "-//W3C//DTD SVG 1.1//EN" "http://www.w3.org/Graphics/SVG/1.1/DTD/svg11.dtd">
<svg version="1.1" id="Layer_1" xmlns="http://www.w3.org/2000/svg" xmlns:xlink="http://www.w3.org/1999/xlink" x="0px" y="0px"
	 width="35px" height="70px" viewBox="0 0 35 70" enable-background="new 0 0 35 70" xml:space="preserve">
<g>
	<path fill="#27AAE1" d="M17.5,2C26.047,2,33,8.953,33,17.5C33,26.047,26.047,33,17.5,33C8.953,33,2,26.047,2,17.5
		C2,8.953,8.953,2,17.5,2 M17.5,0C7.835,0,0,7.835,0,17.5S7.835,35,17.5,35C27.165,35,35,27.165,35,17.5S27.165,0,17.5,0L17.5,0z"/>
</g>
<path fill="#27AAE1" d="M23.696,14.617c0-0.146-0.002-0.291-0.009-0.434c0.624-0.467,1.165-1.051,1.594-1.719
	c-0.573,0.259-1.187,0.431-1.834,0.504c0.66-0.408,1.166-1.059,1.405-1.84c-0.618,0.376-1.301,0.645-2.028,0.784
	c-0.582-0.664-1.412-1.087-2.33-1.103c-1.764-0.03-3.193,1.466-3.193,3.339c0,0.266,0.028,0.524,0.083,0.774
	c-2.655-0.171-5.009-1.558-6.583-3.648c-0.275,0.501-0.432,1.086-0.432,1.712c0,1.187,0.564,2.241,1.42,2.864
	c-0.524-0.024-1.016-0.184-1.447-0.445c0,0.014,0,0.029,0,0.044c0,1.658,1.101,3.047,2.562,3.372
	c-0.268,0.076-0.551,0.116-0.841,0.115c-0.206-0.002-0.406-0.023-0.601-0.066c0.406,1.359,1.586,2.351,2.982,2.384
	c-1.093,0.911-2.47,1.453-3.965,1.449c-0.258,0-0.513-0.017-0.762-0.048c1.414,0.972,3.091,1.539,4.895,1.539
	C20.486,24.194,23.696,19.066,23.696,14.617z"/>
<g>
	<path fill-rule="evenodd" clip-rule="evenodd" fill="#29A8E0" d="M17.5,69.5c-9.374,0-17-7.626-17-17s7.626-17,17-17
		s17,7.626,17,17S26.874,69.5,17.5,69.5z"/>
	<path fill="#27AAE1" d="M17.5,36C26.598,36,34,43.402,34,52.5C34,61.598,26.598,69,17.5,69C8.402,69,1,61.598,1,52.5
		C1,43.402,8.402,36,17.5,36 M17.5,35C7.835,35,0,42.835,0,52.5S7.835,70,17.5,70C27.165,70,35,62.165,35,52.5S27.165,35,17.5,35
		L17.5,35z"/>
</g>
<path fill="#FFFFFF" d="M23.696,49.617c0-0.146-0.002-0.291-0.009-0.434c0.624-0.467,1.165-1.051,1.594-1.719
	c-0.573,0.259-1.187,0.431-1.834,0.504c0.66-0.408,1.166-1.059,1.405-1.84c-0.618,0.376-1.301,0.645-2.028,0.784
	c-0.582-0.664-1.412-1.087-2.33-1.103c-1.764-0.03-3.193,1.466-3.193,3.339c0,0.266,0.028,0.524,0.083,0.774
	c-2.655-0.171-5.009-1.558-6.583-3.648c-0.275,0.501-0.432,1.086-0.432,1.713c0,1.187,0.564,2.241,1.42,2.864
	c-0.524-0.025-1.016-0.184-1.447-0.445c0,0.014,0,0.029,0,0.044c0,1.658,1.101,3.047,2.562,3.372
	c-0.268,0.076-0.551,0.116-0.841,0.115c-0.206-0.002-0.406-0.023-0.601-0.066c0.406,1.359,1.586,2.351,2.982,2.384
	c-1.093,0.911-2.47,1.453-3.965,1.449c-0.258,0-0.513-0.017-0.762-0.048c1.414,0.972,3.091,1.539,4.895,1.539
	C20.486,59.194,23.696,54.066,23.696,49.617z"/>
</svg>
