<?xml version="1.0" encoding="utf-8"?>
<!-- Generator: Adobe Illustrator 16.0.0, SVG Export Plug-In . SVG Version: 6.00 Build 0)  -->
<!DOCTYPE svg PUBLIC "-//W3C//DTD SVG 1.1//EN" "http://www.w3.org/Graphics/SVG/1.1/DTD/svg11.dtd">
<svg version="1.1" id="Capa_1" xmlns="http://www.w3.org/2000/svg" xmlns:xlink="http://www.w3.org/1999/xlink" x="0px" y="0px"
	 width="44.236px" height="44.236px" viewBox="0 0 44.236 44.236" enable-background="new 0 0 44.236 44.236" xml:space="preserve">
<g>
	<g>
		<path d="M44.236,22.109c0.005,12.196-9.912,22.123-22.109,22.127C9.931,44.241,0.005,34.324,0,22.127
			C-0.006,9.931,9.912,0.005,22.109,0C34.304-0.006,44.231,9.912,44.236,22.109z"/>
		<path fill="#FFFFFF" d="M28.964,24.475c0,0.169-0.063,0.34-0.194,0.469c-0.26,0.26-0.681,0.26-0.939,0l-6.032-6.02l-6.024,6.025
			c-0.259,0.259-0.681,0.259-0.94,0c-0.259-0.26-0.259-0.681,0-0.939l6.495-6.493c0.26-0.26,0.68-0.26,0.939,0l6.501,6.487
			C28.899,24.133,28.964,24.304,28.964,24.475z"/>
	</g>
</g>
</svg>
