<?xml version="1.0" encoding="utf-8"?>
<!-- Generator: Adobe Illustrator 17.0.0, SVG Export Plug-In . SVG Version: 6.00 Build 0)  -->
<!DOCTYPE svg PUBLIC "-//W3C//DTD SVG 1.1//EN" "http://www.w3.org/Graphics/SVG/1.1/DTD/svg11.dtd">
<svg version="1.1" id="Layer_1" xmlns="http://www.w3.org/2000/svg" xmlns:xlink="http://www.w3.org/1999/xlink" x="0px" y="0px"
	 width="530px" height="363px" viewBox="0 0 530 363" enable-background="new 0 0 530 363" xml:space="preserve">
<g>
	<g>
		<linearGradient id="SVGID_1_" gradientUnits="userSpaceOnUse" x1="-10.7535" y1="22.2936" x2="540.7535" y2="340.7064">
			<stop  offset="0" style="stop-color:#0071F1"/>
			<stop  offset="1" style="stop-color:#00FFF4"/>
		</linearGradient>
		<path fill="url(#SVGID_1_)" d="M530,358c0,2.75-2.25,5-5,5H5c-2.75,0-5-2.25-5-5V5c0-2.75,2.25-5,5-5h520c2.75,0,5,2.25,5,5V358z"
			/>
	</g>
	<g>
		<g>
			<path fill="#303030" d="M204.028,224.961h-1.466l-1.137-4.567h-0.019l-1.118,4.567h-1.493l-1.776-6.709h1.475l1.062,4.567h0.019
				l1.165-4.567h1.381l1.147,4.623h0.018l1.1-4.623h1.446L204.028,224.961L204.028,224.961z M210.623,222.857h-3.505
				c0.038,0.845,0.451,1.231,1.194,1.231c0.536,0,0.967-0.329,1.052-0.63h1.175c-0.376,1.147-1.175,1.635-2.274,1.635
				c-1.532,0-2.481-1.052-2.481-2.556c0-1.457,1.005-2.565,2.481-2.565C209.919,219.972,210.717,221.362,210.623,222.857
				L210.623,222.857z M208.227,220.977c-0.845,0-1.09,0.657-1.109,1.033h2.171C209.166,221.334,208.876,220.977,208.227,220.977
				L208.227,220.977z M211.449,224.961v-6.709h1.334v6.709H211.449L211.449,224.961z M216.156,220.977
				c-0.855,0-1.137,0.864-1.137,1.578c0,0.695,0.272,1.532,1.109,1.532c0.62,0,0.976-0.395,1.061-0.987h1.288
				c-0.169,1.288-1.061,1.992-2.339,1.992c-1.466,0-2.452-1.033-2.452-2.49c0-1.512,0.902-2.631,2.48-2.631
				c1.147,0,2.199,0.601,2.284,1.841h-1.306C217.058,221.268,216.71,220.977,216.156,220.977L216.156,220.977z M221.585,225.092
				c-1.521,0-2.508-1.014-2.508-2.556c0-1.55,0.987-2.565,2.508-2.565c1.533,0,2.519,1.014,2.519,2.565
				C224.104,224.078,223.117,225.092,221.585,225.092L221.585,225.092z M221.585,220.977c-0.902,0-1.174,0.779-1.174,1.559
				c0,0.77,0.272,1.55,1.174,1.55c0.912,0,1.185-0.78,1.185-1.55C222.77,221.756,222.497,220.977,221.585,220.977L221.585,220.977z
				 M231.094,224.961v-2.753c0-0.648-0.057-1.184-0.818-1.184c-0.751,0-0.893,0.62-0.893,1.231v2.706h-1.334v-2.725
				c0-0.563,0.038-1.212-0.808-1.212c-0.263,0-0.902,0.169-0.902,1.118v2.819h-1.334v-4.857h1.259v0.657h0.018
				c0.348-0.498,0.856-0.789,1.485-0.789c0.611,0,1.156,0.225,1.419,0.808c0.282-0.423,0.79-0.808,1.467-0.808
				c1.033,0,1.776,0.479,1.776,1.738v3.251H231.094L231.094,224.961z M238.083,222.857h-3.504c0.038,0.845,0.45,1.231,1.193,1.231
				c0.536,0,0.968-0.329,1.053-0.63h1.174c-0.376,1.147-1.174,1.635-2.274,1.635c-1.532,0-2.48-1.052-2.48-2.556
				c0-1.457,1.005-2.565,2.48-2.565C237.378,219.972,238.177,221.362,238.083,222.857L238.083,222.857z M235.687,220.977
				c-0.846,0-1.09,0.657-1.109,1.033h2.17C236.627,221.334,236.335,220.977,235.687,220.977L235.687,220.977z M238.936,224.961
				v-1.447h1.476v1.447H238.936L238.936,224.961z M239.331,222.95l-0.357-2.893v-1.804h1.391v1.804l-0.367,2.893H239.331
				L239.331,222.95z"/>
		</g>
		<g>
			<path fill="#002E04" d="M302.369,179.897v-2.473h-2.768v2.473h-0.715v-5.3h0.715v2.192h2.768v-2.192h0.716v5.3H302.369
				L302.369,179.897z M306.665,180.038c-1.979,0-2.584-1.646-2.584-2.791c0-1.144,0.605-2.79,2.584-2.79
				c1.978,0,2.583,1.646,2.583,2.79C309.248,178.392,308.643,180.038,306.665,180.038L306.665,180.038z M306.665,175.092
				c-1.152,0-1.845,0.908-1.845,2.155s0.694,2.155,1.845,2.155c1.151,0,1.845-0.908,1.845-2.155S307.816,175.092,306.665,175.092
				L306.665,175.092z M312.304,180.038c-1.424,0-2.037-0.916-2.037-1.905v-3.535h0.715v3.336c0,1.152,0.701,1.469,1.344,1.469
				c0.657,0,1.395-0.302,1.395-1.454v-3.351h0.715v3.439C314.437,179.122,313.758,180.038,312.304,180.038L312.304,180.038z
				 M319.331,179.897c-0.103-0.325-0.126-1.13-0.126-1.329c0-0.436-0.089-0.945-0.945-0.945h-1.735v2.274h-0.716v-5.3h2.451
				c0.871,0,1.741,0.303,1.741,1.425c0,0.782-0.398,1.07-0.738,1.269c0.303,0.126,0.606,0.258,0.635,0.996l0.045,0.959
				c0.007,0.295,0.044,0.405,0.265,0.531v0.118L319.331,179.897L319.331,179.897z M318.313,175.21h-1.787v1.8h1.661
				c0.524,0,1.077-0.133,1.077-0.915C319.265,175.276,318.667,175.21,318.313,175.21L318.313,175.21z M323.007,175.07
				c-0.45,0-1.211,0.126-1.211,0.93c0,0.45,0.318,0.598,0.628,0.672l1.513,0.348c0.686,0.162,1.203,0.575,1.203,1.417
				c0,1.254-1.166,1.602-2.075,1.602c-0.982,0-1.365-0.296-1.601-0.51c-0.45-0.405-0.539-0.849-0.539-1.343h0.672
				c0,0.959,0.782,1.241,1.462,1.241c0.517,0,1.388-0.134,1.388-0.894c0-0.553-0.259-0.73-1.13-0.938l-1.085-0.25
				c-0.347-0.082-1.129-0.325-1.129-1.247c0-0.827,0.539-1.639,1.823-1.639c1.852,0,2.037,1.107,2.066,1.69h-0.672
				C324.285,175.328,323.605,175.07,323.007,175.07L323.007,175.07z"/>
		</g>
		<g>
			<path fill="#2F2F2F" d="M355.24,176.158v0.05c1.881,0.414,3.03,1.979,3.03,3.885c0,3.591-3.005,5.62-6.353,5.62
				c-3.836,0-6.426-2.297-6.353-6.23h3.299c0.073,1.856,1.001,3.372,3.005,3.372c1.563,0,2.785-1.075,2.785-2.688
				c0-2.589-2.272-2.541-3.958-2.541v-2.443c1.491,0.122,3.641-0.171,3.641-2.126c0-1.441-1.149-2.272-2.419-2.272
				c-1.735,0-2.663,1.294-2.638,3.054h-3.299c0.122-3.494,2.394-5.914,5.913-5.914c2.737,0,5.742,1.686,5.742,4.741
				C357.634,174.277,356.828,175.718,355.24,176.158L355.24,176.158z M371.782,185.369h-12.559c0.025-3.958,2.444-5.643,5.4-7.647
				c1.514-1.026,3.567-2.077,3.592-4.178c0-1.613-1.075-2.639-2.566-2.639c-2.052,0-2.712,2.126-2.712,3.934h-3.323
				c-0.123-3.909,2.101-6.915,6.206-6.915c3.128,0,5.865,2.004,5.865,5.352c0,2.566-1.369,3.982-3.055,5.18
				c-1.686,1.196-3.688,2.174-4.935,3.933h8.088L371.782,185.369L371.782,185.369z"/>
		</g>
		<g>
			<path fill="#002E04" d="M381.08,179.897v-3.13c0-0.155,0.015-0.827,0.015-1.321h-0.015l-1.491,4.451h-0.708l-1.491-4.444h-0.015
				c0,0.487,0.015,1.159,0.015,1.314v3.13h-0.695v-5.3h1.026l1.513,4.481h0.015l1.505-4.481h1.018v5.3H381.08L381.08,179.897z
				 M383.125,179.897v-5.3h0.715v5.3H383.125L383.125,179.897z M388.616,179.897l-2.694-4.281h-0.014v4.281h-0.695v-5.3h0.849
				l2.65,4.28h0.015v-4.28h0.694v5.3H388.616L388.616,179.897z"/>
		</g>
		<g>
			<path fill="#002E04" d="M230.911,180.233h-2.118v-5.3h2.147c1.381,0,2.23,1.047,2.23,2.576
				C233.169,178.698,232.652,180.233,230.911,180.233L230.911,180.233z M230.844,175.545h-1.336v4.075h1.388
				c0.93,0,1.536-0.731,1.536-2.068C232.431,176.218,231.818,175.545,230.844,175.545L230.844,175.545z M237.421,180.233
				l-0.524-1.543h-2.126l-0.553,1.543h-0.738l1.993-5.3h0.812l1.919,5.3H237.421L237.421,180.233z M235.855,175.722h-0.015
				l-0.849,2.333h1.646L235.855,175.722L235.855,175.722z M240.528,178.1v2.133h-0.716V178.1l-2.001-3.167h0.834l1.522,2.546
				l1.52-2.546h0.841L240.528,178.1L240.528,178.1z M244.668,175.405c-0.449,0-1.21,0.126-1.21,0.93c0,0.45,0.317,0.598,0.627,0.672
				l1.513,0.347c0.687,0.162,1.202,0.576,1.202,1.418c0,1.254-1.166,1.601-2.074,1.601c-0.983,0-1.366-0.295-1.602-0.509
				c-0.45-0.405-0.539-0.849-0.539-1.343h0.673c0,0.959,0.782,1.24,1.461,1.24c0.517,0,1.388-0.133,1.388-0.893
				c0-0.554-0.258-0.73-1.129-0.938l-1.085-0.251c-0.348-0.081-1.13-0.325-1.13-1.247c0-0.826,0.539-1.638,1.823-1.638
				c1.852,0,2.038,1.107,2.066,1.69h-0.672C245.946,175.664,245.267,175.405,244.668,175.405L244.668,175.405z"/>
		</g>
		<g>
			<path fill="#303030" d="M201.297,175.01l0.049,0.049c0.929-0.952,2.004-1.319,3.348-1.319c3.372,0,5.277,2.614,5.277,5.815
				c0,3.518-2.907,6.23-6.352,6.158c-3.323,0-6.304-1.833-6.353-5.424h3.47c0.171,1.514,1.295,2.566,2.81,2.566
				c1.808,0,2.956-1.588,2.956-3.299c0-1.784-1.099-3.2-2.956-3.2c-1.246,0-1.93,0.44-2.615,1.368h-3.128l1.686-9.455h9.554v2.859
				h-7.062L201.297,175.01L201.297,175.01z"/>
		</g>
		<g>
			<g>
				<g>
					<path fill="#303030" d="M220.998,178.553v-10.287h-3.104l-7.428,9.969v3.177h7.233v3.958h3.299v-3.958h2.272v-2.859H220.998
						L220.998,178.553z M217.699,178.553h-4.496l4.422-5.937h0.074V178.553z"/>
				</g>
			</g>
		</g>
		<g enable-background="new    ">
			<path fill="#2F2F2F" d="M197.358,112.131h3.911v0.577h-1.63v4.239h-0.65v-4.239h-1.63L197.358,112.131L197.358,112.131z"/>
			<path fill="#2F2F2F" d="M201.679,112.802v-0.67h0.59v0.67H201.679z M202.27,116.947h-0.59v-3.508h0.59V116.947z"/>
			<path fill="#2F2F2F" d="M203.156,113.439h0.557v0.497h0.013c0.128-0.188,0.429-0.597,1.06-0.597c0.631,0,0.832,0.382,0.932,0.57
				c0.295-0.329,0.53-0.57,1.073-0.57c0.376,0,1.087,0.195,1.087,1.181v2.428h-0.59v-2.267c0-0.483-0.148-0.812-0.65-0.812
				c-0.497,0-0.825,0.47-0.825,0.939v2.139h-0.59v-2.428c0-0.295-0.114-0.65-0.55-0.65c-0.335,0-0.926,0.215-0.926,1.167v1.911
				h-0.59L203.156,113.439L203.156,113.439z"/>
			<path fill="#2F2F2F" d="M211.723,115.847c-0.02,0.168-0.181,0.664-0.624,0.959c-0.161,0.107-0.389,0.241-0.952,0.241
				c-0.986,0-1.569-0.745-1.569-1.757c0-1.087,0.523-1.952,1.684-1.952c1.013,0,1.509,0.805,1.509,2.046h-2.562
				c0,0.732,0.342,1.154,1.02,1.154c0.557,0,0.885-0.429,0.905-0.691H211.723z M211.16,114.915c-0.034-0.544-0.262-1.046-0.98-1.046
				c-0.543,0-0.972,0.503-0.972,1.046H211.16z"/>
			<path fill="#2F2F2F" d="M215.066,116.37h2.441v0.577h-3.092v-4.816h0.65L215.066,116.37L215.066,116.37z"/>
			<path fill="#2F2F2F" d="M221.051,115.847c-0.02,0.168-0.181,0.664-0.624,0.959c-0.161,0.107-0.389,0.241-0.952,0.241
				c-0.986,0-1.57-0.745-1.57-1.757c0-1.087,0.523-1.952,1.684-1.952c1.013,0,1.509,0.805,1.509,2.046h-2.562
				c0,0.732,0.342,1.154,1.02,1.154c0.557,0,0.886-0.429,0.906-0.691H221.051z M220.488,114.915
				c-0.034-0.544-0.261-1.046-0.98-1.046c-0.544,0-0.973,0.503-0.973,1.046H220.488z"/>
			<path fill="#2F2F2F" d="M222.535,113.928v3.019h-0.59v-3.019h-0.483v-0.49h0.483v-0.603c0-0.53,0.336-0.772,0.912-0.772
				c0.087,0,0.175,0.007,0.268,0.013v0.53c-0.074-0.007-0.167-0.013-0.241-0.013c-0.255,0-0.349,0.128-0.349,0.409v0.436h0.59v0.49
				L222.535,113.928L222.535,113.928z"/>
			<path fill="#2F2F2F" d="M224.126,113.928v2.281c0,0.275,0.235,0.275,0.355,0.275h0.208v0.463
				c-0.215,0.02-0.382,0.047-0.443,0.047c-0.584,0-0.711-0.329-0.711-0.751v-2.314h-0.476v-0.49h0.476v-0.979h0.59v0.979h0.563v0.49
				H224.126z"/>
			<path fill="#2F2F2F" d="M231.016,112.131v3.126c0,0.986-0.617,1.818-1.939,1.818c-1.294,0-1.851-0.832-1.851-1.731v-3.213h0.65
				v3.032c0,1.046,0.637,1.335,1.221,1.335c0.597,0,1.268-0.275,1.268-1.321v-3.045L231.016,112.131L231.016,112.131z"/>
			<path fill="#2F2F2F" d="M234.834,116.947h-0.59v-2.16c0-0.61-0.174-0.919-0.751-0.919c-0.335,0-0.926,0.215-0.926,1.167v1.911
				h-0.59v-3.508h0.557v0.497h0.013c0.127-0.188,0.456-0.597,1.06-0.597c0.544,0,1.227,0.221,1.227,1.221L234.834,116.947
				L234.834,116.947z"/>
			<path fill="#2F2F2F" d="M236.432,113.928v2.281c0,0.275,0.235,0.275,0.355,0.275h0.208v0.463
				c-0.215,0.02-0.382,0.047-0.443,0.047c-0.584,0-0.711-0.329-0.711-0.751v-2.314h-0.476v-0.49h0.476v-0.979h0.59v0.979h0.563v0.49
				H236.432z"/>
			<path fill="#2F2F2F" d="M237.587,112.802v-0.67h0.59v0.67H237.587z M238.177,116.947h-0.59v-3.508h0.59V116.947z"/>
			<path fill="#2F2F2F" d="M239.667,116.947h-0.59v-4.816h0.59V116.947z"/>
		</g>
		<g enable-background="new    ">
			<path fill="#2F2F2F" d="M245.692,116.37h2.441v0.577h-3.092v-4.816h0.65L245.692,116.37L245.692,116.37z"/>
			<path fill="#2F2F2F" d="M248.678,114.506c0.027-0.839,0.584-1.167,1.449-1.167c0.282,0,1.301,0.081,1.301,0.98v2.019
				c0,0.148,0.074,0.208,0.195,0.208c0.053,0,0.127-0.013,0.195-0.027v0.429c-0.1,0.027-0.188,0.067-0.322,0.067
				c-0.523,0-0.604-0.268-0.624-0.537c-0.228,0.248-0.584,0.57-1.268,0.57c-0.644,0-1.1-0.409-1.1-1.013
				c0-0.296,0.087-0.98,1.066-1.1l0.973-0.121c0.141-0.013,0.308-0.067,0.308-0.416c0-0.369-0.268-0.57-0.825-0.57
				c-0.67,0-0.764,0.409-0.805,0.678L248.678,114.506L248.678,114.506z M250.838,115.156c-0.094,0.074-0.241,0.128-0.973,0.221
				c-0.288,0.04-0.751,0.128-0.751,0.57c0,0.382,0.195,0.61,0.637,0.61c0.55,0,1.087-0.355,1.087-0.825L250.838,115.156
				L250.838,115.156z"/>
			<path fill="#2F2F2F" d="M254.717,116.947v-0.509l-0.013-0.013c-0.248,0.409-0.55,0.624-1.113,0.624
				c-0.516,0-1.141-0.248-1.141-1.087v-2.522h0.59v2.328c0,0.577,0.296,0.772,0.678,0.772c0.745,0,0.966-0.657,0.966-1.167v-1.932
				h0.59v3.508L254.717,116.947L254.717,116.947z"/>
			<path fill="#2F2F2F" d="M259.018,116.947h-0.59v-2.16c0-0.61-0.174-0.919-0.751-0.919c-0.335,0-0.925,0.215-0.925,1.167v1.911
				h-0.59v-3.508h0.556v0.497h0.013c0.128-0.188,0.456-0.597,1.06-0.597c0.544,0,1.227,0.221,1.227,1.221L259.018,116.947
				L259.018,116.947z"/>
			<path fill="#2F2F2F" d="M262.084,114.619c-0.073-0.469-0.336-0.751-0.832-0.751c-0.732,0-0.966,0.697-0.966,1.322
				c0,0.604,0.148,1.348,0.959,1.348c0.396,0,0.738-0.296,0.838-0.832h0.57c-0.06,0.557-0.402,1.342-1.429,1.342
				c-0.986,0-1.57-0.745-1.57-1.757c0-1.087,0.524-1.952,1.684-1.952c0.919,0,1.268,0.671,1.315,1.281H262.084z"/>
			<path fill="#2F2F2F" d="M266.103,116.947h-0.59v-2.294c0-0.476-0.134-0.785-0.697-0.785c-0.483,0-0.979,0.282-0.979,1.167v1.911
				h-0.59v-4.816h0.59v1.778h0.013c0.168-0.221,0.463-0.57,1.026-0.57c0.544,0,1.227,0.221,1.227,1.221L266.103,116.947
				L266.103,116.947z"/>
			<path fill="#2F2F2F" d="M266.99,112.802v-0.67h0.59v0.67H266.99z M267.581,116.947h-0.59v-3.508h0.59V116.947z"/>
			<path fill="#2F2F2F" d="M271.324,116.947h-0.59v-2.16c0-0.61-0.175-0.919-0.751-0.919c-0.336,0-0.926,0.215-0.926,1.167v1.911
				h-0.59v-3.508h0.557v0.497h0.013c0.128-0.188,0.456-0.597,1.06-0.597c0.544,0,1.227,0.221,1.227,1.221V116.947z"/>
			<path fill="#2F2F2F" d="M275.109,116.658c0,0.503-0.007,1.764-1.63,1.764c-0.416,0-1.227-0.113-1.342-1.046h0.59
				c0.107,0.557,0.65,0.557,0.792,0.557c1.02,0,0.999-0.818,0.999-1.234v-0.148h-0.013v0.027c-0.155,0.248-0.463,0.469-0.933,0.469
				c-1.194,0-1.543-1.12-1.543-1.958c0-0.986,0.53-1.751,1.462-1.751c0.638,0,0.906,0.396,1.046,0.597h0.013v-0.497h0.556V116.658z
				 M273.587,116.538c0.376,0,0.959-0.249,0.959-1.181c0-0.57-0.094-1.49-0.946-1.49c-0.912,0-0.959,0.865-0.959,1.315
				C272.641,115.954,272.943,116.538,273.587,116.538z"/>
			<path fill="#2F2F2F" d="M276.64,116.947h-0.697v-0.711h0.697V116.947z"/>
			<path fill="#2F2F2F" d="M278.505,116.947h-0.697v-0.711h0.697V116.947z"/>
			<path fill="#2F2F2F" d="M280.371,116.947h-0.697v-0.711h0.697V116.947z"/>
		</g>
		<g>
			<path fill="#2F2F2F" d="M108.962,180.787v1.609h-6.261v-8.221h6.201v1.609h-4.404v1.668h3.876v1.609h-3.876v1.726H108.962
				L108.962,180.787z M115.902,179.46l2.009,2.936h-2.114l-1.761-2.631h-1.421v2.631h-1.808v-8.221h3.757
				c1.045,0,1.856,0.294,2.396,0.834c0.458,0.458,0.704,1.104,0.704,1.879v0.024C117.663,178.238,116.947,179.072,115.902,179.46
				L115.902,179.46z M115.831,176.982c0-0.775-0.54-1.174-1.421-1.174h-1.796v2.36h1.832c0.881,0,1.385-0.47,1.385-1.163V176.982
				L115.831,176.982z M125.649,182.396l-0.751-1.843h-3.476l-0.751,1.843h-1.844l3.523-8.28h1.668l3.523,8.28H125.649
				L125.649,182.396z M123.159,176.29l-1.092,2.665h2.185L123.159,176.29L123.159,176.29z"/>
		</g>
		<g>
			<g>
				<g>
					<g>
						<path fill="#303030" d="M85.83,188.578c-6.013,0-10.904-4.8-10.904-10.699c0-4.181,2.506-8.005,6.385-9.74
							c0.303-0.135,0.661-0.004,0.798,0.293c0.138,0.298,0.004,0.648-0.298,0.784c-3.45,1.543-5.68,4.944-5.68,8.664
							c0,5.247,4.351,9.516,9.699,9.516s9.699-4.269,9.699-9.516c0-3.767-2.269-7.185-5.781-8.708
							c-0.304-0.132-0.442-0.482-0.308-0.78c0.135-0.298,0.491-0.434,0.795-0.302c3.948,1.713,6.499,5.556,6.499,9.79
							C96.735,183.778,91.843,188.578,85.83,188.578z"/>
					</g>
				</g>
				<g>
					<g>
						<path fill="#303030" d="M87.511,168.281c-0.333,0-0.603-0.265-0.603-0.592c0-0.595-0.494-1.079-1.1-1.079
							s-1.1,0.484-1.1,1.079c0,0.327-0.27,0.592-0.603,0.592c-0.333,0-0.603-0.265-0.603-0.592c0-1.247,1.035-2.262,2.306-2.262
							s2.306,1.015,2.306,2.262C88.114,168.016,87.845,168.281,87.511,168.281z"/>
					</g>
				</g>
				<g>
					<g>
						<path fill="#303030" d="M78.546,171.326c-0.154,0-0.309-0.058-0.426-0.173l-1.371-1.345c-0.236-0.231-0.236-0.605,0-0.837
							c0.235-0.231,0.617-0.231,0.852,0l1.371,1.345c0.236,0.231,0.236,0.605,0,0.837C78.855,171.269,78.7,171.326,78.546,171.326z"
							/>
					</g>
				</g>
				<g>
					<g>
						<path fill="#303030" d="M93.056,171.266c-0.154,0-0.308-0.058-0.426-0.173c-0.236-0.231-0.236-0.605,0-0.837l1.243-1.22
							c0.235-0.231,0.617-0.231,0.852,0c0.236,0.231,0.236,0.605,0,0.837l-1.243,1.22C93.365,171.208,93.211,171.266,93.056,171.266
							z"/>
					</g>
				</g>
			</g>
			<g>
				<g>
					<path fill="#303030" d="M85.83,180.425c-1.259,0-2.284-1.005-2.284-2.241s1.024-2.241,2.284-2.241
						c1.26,0,2.284,1.005,2.284,2.241S87.09,180.425,85.83,180.425z M85.83,177.127c-0.595,0-1.078,0.474-1.078,1.058
						c0,0.584,0.484,1.058,1.078,1.058c0.594,0,1.078-0.474,1.078-1.058C86.909,177.601,86.425,177.127,85.83,177.127z"/>
				</g>
			</g>
			<g>
				<g>
					<path fill="#303030" d="M85.884,177.05c-0.333,0-0.603-0.265-0.603-0.592v-3.076c0-0.327,0.27-0.592,0.603-0.592
						c0.333,0,0.603,0.265,0.603,0.592v3.076C86.487,176.785,86.217,177.05,85.884,177.05z"/>
				</g>
			</g>
			<g>
				<g>
					<path fill="#303030" d="M85.884,186.041c-0.159,0-0.314-0.064-0.427-0.173c-0.111-0.111-0.176-0.263-0.176-0.419
						c0-0.156,0.065-0.308,0.176-0.419c0.224-0.218,0.63-0.22,0.853,0c0.111,0.111,0.176,0.263,0.176,0.419
						s-0.065,0.308-0.176,0.419C86.197,185.977,86.043,186.041,85.884,186.041z"/>
				</g>
			</g>
			<g>
				<g>
					<path fill="#303030" d="M93.6,178.706c-0.159,0-0.314-0.064-0.427-0.173c-0.111-0.111-0.176-0.263-0.176-0.419
						c0-0.156,0.065-0.308,0.176-0.419c0.224-0.22,0.629-0.22,0.853,0c0.111,0.111,0.176,0.263,0.176,0.419
						c0,0.156-0.065,0.308-0.176,0.419C93.914,178.642,93.759,178.706,93.6,178.706z"/>
				</g>
			</g>
			<g>
				<g>
					<path fill="#303030" d="M77.926,178.706c-0.159,0-0.314-0.064-0.427-0.173c-0.111-0.111-0.176-0.263-0.176-0.419
						c0-0.156,0.065-0.308,0.176-0.419c0.224-0.22,0.629-0.22,0.853,0c0.111,0.111,0.176,0.263,0.176,0.419
						c0,0.156-0.065,0.308-0.176,0.419C78.24,178.642,78.085,178.706,77.926,178.706z"/>
				</g>
			</g>
			<g>
				<g>
					<path fill="#303030" d="M85.884,170.898c-0.159,0-0.314-0.064-0.427-0.173c-0.111-0.111-0.176-0.263-0.176-0.419
						c0-0.156,0.065-0.308,0.176-0.419c0.224-0.218,0.63-0.22,0.853,0c0.111,0.111,0.176,0.263,0.176,0.419
						s-0.065,0.308-0.176,0.419C86.197,170.834,86.043,170.898,85.884,170.898z"/>
				</g>
			</g>
			<g>
				<g>
					<path fill="#303030" d="M80.393,183.907c-0.159,0-0.316-0.064-0.427-0.173c-0.113-0.111-0.176-0.263-0.176-0.419
						c0-0.156,0.063-0.308,0.176-0.419c0.224-0.22,0.627-0.22,0.851,0c0.113,0.111,0.179,0.263,0.179,0.419
						s-0.065,0.308-0.179,0.419C80.706,183.843,80.55,183.907,80.393,183.907z"/>
				</g>
			</g>
			<g>
				<g>
					<path fill="#303030" d="M91.134,184.075c-0.157,0-0.313-0.064-0.424-0.175c-0.113-0.109-0.179-0.26-0.179-0.416
						c0-0.156,0.065-0.308,0.179-0.419c0.222-0.22,0.627-0.22,0.851,0c0.113,0.109,0.176,0.263,0.176,0.419
						s-0.063,0.308-0.176,0.419C91.449,184.011,91.292,184.075,91.134,184.075z"/>
				</g>
			</g>
			<g>
				<g>
					<path fill="#303030" d="M80.051,173.201c-0.157,0-0.314-0.064-0.427-0.173c-0.111-0.111-0.176-0.265-0.176-0.419
						c0-0.156,0.065-0.31,0.176-0.419c0.227-0.22,0.629-0.22,0.853,0c0.113,0.109,0.176,0.263,0.176,0.419
						c0,0.153-0.063,0.308-0.176,0.416C80.364,173.137,80.21,173.201,80.051,173.201z"/>
				</g>
			</g>
			<g>
				<g>
					<path fill="#303030" d="M91.305,173.201c-0.159,0-0.314-0.064-0.427-0.175c-0.111-0.109-0.176-0.263-0.176-0.416
						c0-0.156,0.065-0.31,0.176-0.419c0.224-0.22,0.629-0.22,0.853,0c0.111,0.111,0.176,0.263,0.176,0.419
						c0,0.153-0.065,0.308-0.176,0.416C91.618,173.137,91.463,173.201,91.305,173.201z"/>
				</g>
			</g>
		</g>
		<g>
			<path fill="#2F2F2F" d="M273.717,185.712c-3.372,0-6.254-2.15-6.254-8.967c0-6.671,2.883-8.821,6.254-8.821
				c3.421,0,6.304,2.15,6.304,8.821C280.021,183.562,277.137,185.712,273.717,185.712L273.717,185.712z M273.717,170.783
				c-2.785,0-2.785,4.178-2.785,5.962c0,1.93,0,6.109,2.785,6.109c2.835,0,2.835-4.179,2.835-6.109
				C276.552,174.961,276.552,170.783,273.717,170.783L273.717,170.783z M290.577,176.109v0.049c2.028,0.464,3.2,2.029,3.2,4.179
				c0,3.592-3.226,5.375-6.402,5.375c-3.298,0-6.499-1.662-6.499-5.352c0-2.174,1.223-3.714,3.225-4.203v-0.049
				c-1.661-0.463-2.516-1.832-2.516-3.518c0-3.079,2.98-4.667,5.766-4.667c4.252,0,5.717,2.933,5.717,4.594
				C293.069,174.204,292.189,175.572,290.577,176.109L290.577,176.109z M287.351,170.538c-1.393,0-2.614,0.856-2.614,2.371
				c0,1.491,1.222,2.248,2.614,2.248c1.417,0,2.566-0.782,2.566-2.248C289.917,172.029,289.502,170.538,287.351,170.538
				L287.351,170.538z M287.375,177.478c-1.686,0-3.029,0.952-3.029,2.712c0,1.759,1.368,2.908,3.029,2.908
				c1.662,0,2.933-1.173,2.933-2.884C290.308,178.577,288.988,177.478,287.375,177.478L287.375,177.478z"/>
		</g>
		<g>
			<g>
				<g>
					<path fill="#303030" d="M197.465,309.997h0.955v-0.823c0-0.363,0.01-0.923,0.308-1.27c0.313-0.367,0.744-0.617,1.483-0.617
						c1.205,0,1.713,0.152,1.713,0.152l-0.24,1.255c0,0-0.398-0.102-0.769-0.102c-0.371,0-0.705,0.118-0.705,0.447v0.957h1.524
						l-0.106,1.226h-1.417v4.259h-1.791v-4.259h-0.955V309.997L197.465,309.997z"/>
				</g>
			</g>
			<g>
				<g>
					<path fill="#303030" d="M311.356,310.456c-0.056-0.275-0.141-0.546-0.25-0.805c-0.107-0.253-0.24-0.498-0.395-0.727
						c-0.153-0.227-0.329-0.44-0.523-0.633c-0.194-0.194-0.406-0.369-0.633-0.522c-0.229-0.155-0.473-0.288-0.728-0.395
						c-0.258-0.109-0.529-0.194-0.804-0.249c-0.282-0.058-0.572-0.088-0.861-0.088c-0.29,0-0.581,0.03-0.862,0.088
						c-0.275,0.055-0.546,0.14-0.804,0.249c-0.254,0.107-0.499,0.24-0.727,0.395c-0.227,0.153-0.44,0.329-0.633,0.522
						c-0.193,0.194-0.369,0.407-0.522,0.633c-0.155,0.229-0.288,0.473-0.395,0.727c-0.109,0.259-0.193,0.53-0.25,0.805
						c-0.058,0.281-0.087,0.571-0.087,0.861c0,0.291,0.029,0.581,0.087,0.862c0.056,0.274,0.141,0.546,0.25,0.804
						c0.107,0.253,0.24,0.498,0.395,0.727c0.153,0.227,0.329,0.44,0.522,0.633c0.194,0.194,0.406,0.369,0.633,0.522
						c0.229,0.155,0.473,0.288,0.727,0.395c0.258,0.109,0.529,0.193,0.804,0.249c0.282,0.058,0.572,0.088,0.862,0.088
						s0.58-0.029,0.861-0.088c0.275-0.056,0.546-0.14,0.804-0.249c0.254-0.107,0.499-0.24,0.728-0.395
						c0.227-0.153,0.44-0.328,0.633-0.522c0.194-0.194,0.37-0.406,0.523-0.633c0.155-0.229,0.288-0.474,0.395-0.727
						c0.109-0.258,0.194-0.53,0.25-0.804c0.058-0.282,0.087-0.572,0.087-0.862C311.443,311.027,311.414,310.737,311.356,310.456
						 M310.817,311.281c-0.052-0.011-1.29-0.278-2.545-0.12c-0.026-0.062-0.052-0.125-0.079-0.188
						c-0.076-0.179-0.158-0.356-0.243-0.531c1.443-0.589,2.03-1.437,2.037-1.447C310.498,309.618,310.809,310.414,310.817,311.281
						 M309.577,308.574c-0.009,0.014-0.53,0.807-1.909,1.324c-0.625-1.148-1.311-2.06-1.366-2.133
						c0.276-0.067,0.565-0.103,0.862-0.103C308.088,307.662,308.933,308.007,309.577,308.574 M306.288,307.768
						c0,0.001-0.001,0.001-0.001,0.001s-0.004,0.001-0.011,0.002C306.28,307.771,306.284,307.77,306.288,307.768 M305.603,308.012
						c0.049,0.065,0.725,0.981,1.357,2.106c-1.755,0.466-3.278,0.448-3.374,0.447C303.824,309.432,304.584,308.493,305.603,308.012
						 M303.508,311.317c0-0.039,0.001-0.077,0.002-0.115c0.065,0.001,1.871,0.042,3.753-0.521c0.104,0.205,0.205,0.413,0.296,0.621
						c-0.048,0.014-0.097,0.028-0.144,0.044c-1.973,0.638-2.973,2.412-2.973,2.412l0.001,0.002
						C303.862,313.112,303.508,312.256,303.508,311.317 M307.163,314.973c-0.885,0-1.696-0.314-2.328-0.837
						c0.048,0.039,0.082,0.064,0.082,0.064s0.7-1.529,2.869-2.284c0.008-0.003,0.016-0.005,0.024-0.008
						c0.514,1.337,0.727,2.456,0.781,2.776C308.151,314.87,307.669,314.973,307.163,314.973 M309.205,314.349
						c-0.037-0.22-0.232-1.293-0.711-2.611c1.18-0.189,2.202,0.135,2.278,0.159C310.609,312.916,310.026,313.795,309.205,314.349"/>
				</g>
			</g>
			<g>
				<g>
					<path fill="#303030" d="M273.272,311.859l-2.812,1.651v-3.303L273.272,311.859z M275.899,313.39v-3.071c0,0,0-1.48-1.48-1.48
						h-5.628c0,0-1.479,0-1.479,1.48v3.071c0,0,0,1.48,1.479,1.48h5.628C274.418,314.87,275.899,314.87,275.899,313.39"/>
				</g>
			</g>
			<g>
				<path fill="#303030" d="M221.85,308.876c-0.305,0.13-0.634,0.218-0.978,0.257c0.352-0.202,0.622-0.523,0.748-0.904
					c-0.329,0.187-0.694,0.323-1.082,0.396c-0.31-0.318-0.753-0.516-1.243-0.516c-0.941,0-1.703,0.733-1.703,1.636
					c0,0.128,0.014,0.253,0.044,0.372c-1.416-0.068-2.671-0.719-3.512-1.709c-0.147,0.243-0.23,0.524-0.23,0.823
					c0,0.567,0.301,1.068,0.758,1.361c-0.279-0.008-0.542-0.082-0.772-0.204v0.02c0,0.793,0.588,1.454,1.367,1.604
					c-0.143,0.039-0.293,0.057-0.449,0.057c-0.109,0-0.217-0.01-0.32-0.029c0.216,0.65,0.846,1.123,1.592,1.135
					c-0.584,0.439-1.318,0.7-2.116,0.7c-0.138,0-0.274-0.007-0.406-0.022c0.754,0.463,1.649,0.734,2.611,0.734
					c3.134,0,4.847-2.492,4.847-4.653c0-0.071-0.001-0.143-0.005-0.212C221.333,309.492,221.622,309.204,221.85,308.876"/>
			</g>
			<g>
				<g>
					<path fill="#303030" d="M325.292,307.112c-2.351,0-4.257,1.906-4.257,4.257c0,1.743,1.048,3.241,2.548,3.899
						c-0.013-0.297-0.002-0.654,0.074-0.978c0.082-0.346,0.548-2.32,0.548-2.32s-0.136-0.272-0.136-0.673
						c0-0.631,0.366-1.102,0.821-1.102c0.387,0,0.574,0.291,0.574,0.639c0,0.39-0.249,0.972-0.376,1.511
						c-0.106,0.451,0.227,0.819,0.672,0.819c0.806,0,1.35-1.035,1.35-2.263c0-0.933-0.628-1.631-1.771-1.631
						c-1.291,0-2.095,0.963-2.095,2.038c0,0.371,0.109,0.633,0.28,0.835c0.079,0.093,0.09,0.131,0.061,0.237
						c-0.02,0.078-0.067,0.267-0.087,0.342c-0.028,0.107-0.116,0.146-0.213,0.106c-0.596-0.243-0.872-0.894-0.872-1.626
						c0-1.209,1.02-2.66,3.042-2.66c1.626,0,2.695,1.176,2.695,2.439c0,1.67-0.929,2.918-2.297,2.918
						c-0.459,0-0.892-0.249-1.04-0.531c0,0-0.248,0.981-0.299,1.17c-0.091,0.329-0.267,0.656-0.429,0.912
						c0.382,0.113,0.788,0.175,1.206,0.175c2.351,0,4.256-1.906,4.256-4.257C329.548,309.018,327.643,307.112,325.292,307.112"/>
				</g>
			</g>
			<g>
				<g>
					<path fill="#303030" d="M251.293,315.24h-1.578v-5.049h1.578V315.24L251.293,315.24z M250.464,309.56h-0.011
						c-0.571,0-0.942-0.386-0.942-0.875c0-0.499,0.382-0.877,0.964-0.877c0.582,0,0.94,0.377,0.951,0.875
						C251.426,309.172,251.057,309.56,250.464,309.56 M257.605,315.24h-1.789v-2.613c0-0.684-0.28-1.151-0.895-1.151
						c-0.471,0-0.733,0.315-0.854,0.619c-0.046,0.109-0.039,0.26-0.039,0.412v2.733h-1.772c0,0,0.023-4.628,0-5.049h1.772v0.793
						c0.104-0.347,0.671-0.841,1.575-0.841c1.121,0,2.002,0.726,2.002,2.29V315.24L257.605,315.24z"/>
				</g>
			</g>
			<g>
				<g>
					<path fill="#303030" d="M289.049,309.46c0.158,0.219,0.238,0.48,0.238,0.785c0,0.314-0.079,0.567-0.24,0.757
						c-0.091,0.107-0.223,0.204-0.397,0.293c0.265,0.096,0.465,0.247,0.601,0.454c0.134,0.206,0.202,0.458,0.202,0.754
						c0,0.305-0.076,0.578-0.232,0.82c-0.098,0.16-0.221,0.296-0.368,0.404c-0.166,0.126-0.36,0.212-0.587,0.259
						c-0.226,0.047-0.47,0.069-0.735,0.069h-2.342v-5.144h2.511C288.336,308.921,288.784,309.104,289.049,309.46 M286.227,309.805
						v1.135h1.263c0.225,0,0.408-0.043,0.55-0.128c0.141-0.085,0.211-0.236,0.211-0.451c0-0.241-0.093-0.398-0.279-0.476
						c-0.161-0.053-0.365-0.08-0.614-0.08L286.227,309.805L286.227,309.805z M286.227,311.791v1.372h1.261
						c0.225,0,0.401-0.03,0.527-0.091c0.228-0.113,0.342-0.326,0.342-0.643c0-0.268-0.109-0.451-0.331-0.552
						c-0.124-0.055-0.297-0.085-0.52-0.087L286.227,311.791L286.227,311.791z M292.595,310.329c0.268,0.119,0.49,0.306,0.663,0.563
						c0.159,0.226,0.261,0.489,0.307,0.787c0.027,0.174,0.038,0.427,0.034,0.755h-2.8c0.017,0.382,0.149,0.649,0.402,0.802
						c0.154,0.096,0.339,0.144,0.554,0.144c0.228,0,0.414-0.058,0.557-0.175c0.079-0.063,0.147-0.15,0.207-0.262h1.026
						c-0.027,0.226-0.151,0.455-0.372,0.688c-0.344,0.369-0.826,0.555-1.445,0.555c-0.512,0-0.963-0.156-1.353-0.468
						c-0.392-0.312-0.586-0.82-0.586-1.523c0-0.659,0.176-1.165,0.528-1.517c0.354-0.351,0.812-0.528,1.374-0.528
						C292.026,310.151,292.327,310.211,292.595,310.329 M291.092,311.189c-0.142,0.145-0.231,0.341-0.268,0.589h1.732
						c-0.018-0.264-0.108-0.464-0.267-0.601c-0.161-0.137-0.359-0.204-0.597-0.204C291.435,310.971,291.234,311.044,291.092,311.189
						 M292.791,309.152h-2.227v0.64h2.227V309.152z"/>
				</g>
			</g>
			<g>
				<g>
					<path fill="#303030" d="M234.464,312.382h1.73c-0.303,0.858-1.126,1.474-2.089,1.467c-1.168-0.008-2.134-0.943-2.18-2.11
						c-0.049-1.251,0.955-2.285,2.196-2.285c0.567,0,1.085,0.216,1.475,0.57c0.093,0.084,0.233,0.085,0.324-0.001l0.635-0.598
						c0.1-0.094,0.1-0.251,0.001-0.346c-0.619-0.586-1.449-0.952-2.365-0.97c-1.953-0.038-3.599,1.563-3.612,3.516
						c-0.014,1.968,1.577,3.567,3.542,3.567c1.889,0,3.432-1.479,3.536-3.343c0.003-0.023,0.004-0.813,0.004-0.813h-3.198
						c-0.131,0-0.237,0.106-0.237,0.237v0.87C234.227,312.276,234.333,312.382,234.464,312.382z"/>
				</g>
				<g>
					<path fill="#303030" d="M240.593,311.116v-0.85c0-0.115-0.093-0.208-0.208-0.208h-0.715c-0.115,0-0.208,0.093-0.208,0.208v0.85
						h-0.85c-0.115,0-0.208,0.093-0.208,0.208v0.715c0,0.115,0.093,0.208,0.208,0.208h0.85v0.85c0,0.115,0.093,0.208,0.208,0.208
						h0.715c0.115,0,0.208-0.093,0.208-0.208v-0.85h0.85c0.115,0,0.208-0.093,0.208-0.208v-0.715c0-0.115-0.093-0.208-0.208-0.208
						H240.593L240.593,311.116z"/>
				</g>
			</g>
		</g>
		<g enable-background="new    ">
			<path d="M199.324,240.771h-0.684l-1.254-4.816h0.704l0.898,3.917h0.013l1.08-3.917h0.711l1.08,3.917h0.013l0.899-3.917h0.718
				l-1.268,4.816h-0.684l-1.1-3.991h-0.013L199.324,240.771z"/>
			<path d="M206.825,239.671c-0.02,0.168-0.181,0.664-0.624,0.959c-0.161,0.107-0.389,0.241-0.952,0.241
				c-0.986,0-1.57-0.745-1.57-1.757c0-1.087,0.523-1.952,1.684-1.952c1.013,0,1.509,0.805,1.509,2.046h-2.562
				c0,0.732,0.342,1.154,1.02,1.154c0.557,0,0.886-0.429,0.906-0.691H206.825z M206.262,238.739
				c-0.034-0.544-0.261-1.046-0.98-1.046c-0.544,0-0.973,0.503-0.973,1.046H206.262z"/>
			<path d="M209.423,238.33c0.027-0.839,0.584-1.167,1.449-1.167c0.282,0,1.301,0.081,1.301,0.98v2.019
				c0,0.148,0.074,0.208,0.195,0.208c0.053,0,0.127-0.013,0.195-0.027v0.429c-0.1,0.027-0.188,0.067-0.322,0.067
				c-0.523,0-0.603-0.268-0.624-0.537c-0.228,0.248-0.584,0.57-1.268,0.57c-0.644,0-1.1-0.409-1.1-1.013
				c0-0.296,0.087-0.98,1.066-1.1l0.973-0.121c0.141-0.013,0.308-0.067,0.308-0.416c0-0.369-0.268-0.57-0.825-0.57
				c-0.671,0-0.764,0.409-0.805,0.678H209.423z M211.583,238.98c-0.094,0.074-0.242,0.128-0.973,0.221
				c-0.289,0.04-0.751,0.128-0.751,0.57c0,0.382,0.195,0.61,0.638,0.61c0.55,0,1.087-0.355,1.087-0.825V238.98z"/>
			<path d="M213.845,240.771h-0.59v-3.508h0.557v0.584h0.013c0.235-0.409,0.544-0.684,0.986-0.684c0.074,0,0.107,0.007,0.154,0.02
				v0.61h-0.221c-0.55,0-0.898,0.429-0.898,0.939v2.04H213.845z"/>
			<path d="M218.253,239.671c-0.02,0.168-0.181,0.664-0.624,0.959c-0.161,0.107-0.389,0.241-0.952,0.241
				c-0.986,0-1.57-0.745-1.57-1.757c0-1.087,0.523-1.952,1.684-1.952c1.013,0,1.509,0.805,1.509,2.046h-2.562
				c0,0.732,0.342,1.154,1.02,1.154c0.557,0,0.886-0.429,0.906-0.691H218.253z M217.69,238.739c-0.034-0.544-0.261-1.046-0.98-1.046
				c-0.544,0-0.973,0.503-0.973,1.046H217.69z"/>
			<path d="M223.728,240.771h-0.59v-2.294c0-0.476-0.134-0.785-0.697-0.785c-0.483,0-0.979,0.282-0.979,1.167v1.911h-0.59v-4.816
				h0.59v1.778h0.013c0.168-0.221,0.463-0.57,1.026-0.57c0.544,0,1.227,0.221,1.227,1.221L223.728,240.771L223.728,240.771z"/>
			<path d="M224.582,238.33c0.027-0.839,0.584-1.167,1.449-1.167c0.282,0,1.301,0.081,1.301,0.98v2.019
				c0,0.148,0.074,0.208,0.195,0.208c0.053,0,0.127-0.013,0.195-0.027v0.429c-0.1,0.027-0.188,0.067-0.322,0.067
				c-0.523,0-0.603-0.268-0.624-0.537c-0.228,0.248-0.584,0.57-1.268,0.57c-0.644,0-1.1-0.409-1.1-1.013
				c0-0.296,0.087-0.98,1.066-1.1l0.973-0.121c0.141-0.013,0.308-0.067,0.308-0.416c0-0.369-0.268-0.57-0.825-0.57
				c-0.671,0-0.764,0.409-0.805,0.678H224.582z M226.742,238.98c-0.094,0.074-0.242,0.128-0.973,0.221
				c-0.289,0.04-0.751,0.128-0.751,0.57c0,0.382,0.195,0.61,0.638,0.61c0.55,0,1.087-0.355,1.087-0.825V238.98z"/>
			<path d="M228.286,237.263h0.557v0.497h0.013c0.141-0.201,0.409-0.597,1.046-0.597c0.933,0,1.462,0.765,1.462,1.751
				c0,0.838-0.349,1.958-1.543,1.958c-0.469,0-0.778-0.221-0.932-0.469h-0.013v1.757h-0.59L228.286,237.263L228.286,237.263z
				 M229.809,240.363c0.644,0,0.945-0.584,0.945-1.355c0-0.449-0.047-1.315-0.959-1.315c-0.852,0-0.945,0.919-0.945,1.49
				C228.85,240.114,229.433,240.363,229.809,240.363z"/>
			<path d="M232.017,237.263h0.557v0.497h0.013c0.141-0.201,0.409-0.597,1.046-0.597c0.933,0,1.462,0.765,1.462,1.751
				c0,0.838-0.349,1.958-1.543,1.958c-0.469,0-0.778-0.221-0.932-0.469h-0.013v1.757h-0.59L232.017,237.263L232.017,237.263z
				 M233.54,240.363c0.644,0,0.945-0.584,0.945-1.355c0-0.449-0.047-1.315-0.959-1.315c-0.852,0-0.946,0.919-0.946,1.49
				C232.581,240.114,233.164,240.363,233.54,240.363z"/>
			<path d="M237.787,237.263h0.65c-0.409,1.147-0.812,2.294-1.261,3.441c-0.557,1.422-0.617,1.502-1.375,1.502
				c-0.087,0-0.154-0.027-0.248-0.053v-0.537c0.074,0.027,0.195,0.06,0.355,0.06c0.309,0,0.342-0.087,0.624-0.812l-1.301-3.602
				h0.671l0.932,2.857h0.013L237.787,237.263z"/>
			<path d="M241.539,237.753v2.281c0,0.275,0.235,0.275,0.355,0.275h0.208v0.463c-0.215,0.02-0.382,0.047-0.443,0.047
				c-0.584,0-0.711-0.329-0.711-0.751v-2.314h-0.476v-0.49h0.476v-0.979h0.59v0.979h0.563v0.49H241.539z"/>
			<path d="M243.974,237.163c1.12,0,1.63,0.946,1.63,1.851c0,0.905-0.51,1.851-1.63,1.851c-1.12,0-1.63-0.945-1.63-1.851
				C242.344,238.109,242.854,237.163,243.974,237.163z M243.974,240.356c0.845,0,1.02-0.872,1.02-1.342
				c0-0.469-0.175-1.342-1.02-1.342c-0.846,0-1.02,0.872-1.02,1.342C242.955,239.483,243.129,240.356,243.974,240.356z"/>
			<path d="M250.134,238.263c-0.007-0.221-0.087-0.59-0.832-0.59c-0.181,0-0.697,0.06-0.697,0.496c0,0.289,0.181,0.356,0.638,0.47
				l0.59,0.148c0.731,0.181,0.986,0.449,0.986,0.926c0,0.724-0.597,1.16-1.389,1.16c-1.389,0-1.489-0.805-1.509-1.227h0.57
				c0.02,0.275,0.1,0.718,0.932,0.718c0.423,0,0.805-0.168,0.805-0.557c0-0.282-0.195-0.376-0.697-0.503l-0.684-0.168
				c-0.49-0.12-0.812-0.369-0.812-0.852c0-0.771,0.637-1.12,1.328-1.12c1.254,0,1.342,0.926,1.342,1.1L250.134,238.263
				L250.134,238.263z"/>
			<path d="M254.475,239.671c-0.02,0.168-0.181,0.664-0.624,0.959c-0.161,0.107-0.389,0.241-0.952,0.241
				c-0.986,0-1.569-0.745-1.569-1.757c0-1.087,0.523-1.952,1.684-1.952c1.013,0,1.509,0.805,1.509,2.046h-2.562
				c0,0.732,0.342,1.154,1.02,1.154c0.557,0,0.885-0.429,0.905-0.691H254.475z M253.912,238.739
				c-0.034-0.544-0.262-1.046-0.98-1.046c-0.543,0-0.972,0.503-0.972,1.046H253.912z"/>
			<path d="M258.206,239.671c-0.02,0.168-0.181,0.664-0.624,0.959c-0.161,0.107-0.389,0.241-0.952,0.241
				c-0.986,0-1.569-0.745-1.569-1.757c0-1.087,0.523-1.952,1.684-1.952c1.013,0,1.509,0.805,1.509,2.046h-2.562
				c0,0.732,0.342,1.154,1.02,1.154c0.557,0,0.885-0.429,0.905-0.691H258.206z M257.643,238.739
				c-0.034-0.544-0.262-1.046-0.98-1.046c-0.543,0-0.972,0.503-0.972,1.046H257.643z"/>
			<path d="M263.018,237.263h0.65c-0.409,1.147-0.812,2.294-1.261,3.441c-0.557,1.422-0.617,1.502-1.375,1.502
				c-0.087,0-0.154-0.027-0.248-0.053v-0.537c0.074,0.027,0.195,0.06,0.355,0.06c0.308,0,0.342-0.087,0.624-0.812l-1.301-3.602
				h0.671l0.933,2.857h0.013L263.018,237.263z"/>
			<path d="M265.474,237.163c1.121,0,1.63,0.946,1.63,1.851c0,0.905-0.509,1.851-1.63,1.851c-1.12,0-1.63-0.945-1.63-1.851
				C263.845,238.109,264.354,237.163,265.474,237.163z M265.474,240.356c0.845,0,1.02-0.872,1.02-1.342
				c0-0.469-0.174-1.342-1.02-1.342c-0.845,0-1.02,0.872-1.02,1.342C264.454,239.483,264.629,240.356,265.474,240.356z"/>
			<path d="M270.064,240.771v-0.509l-0.013-0.013c-0.249,0.409-0.55,0.624-1.114,0.624c-0.516,0-1.14-0.248-1.14-1.087v-2.522h0.59
				v2.328c0,0.577,0.295,0.772,0.677,0.772c0.745,0,0.966-0.657,0.966-1.167v-1.932h0.59v3.508L270.064,240.771L270.064,240.771z"/>
			<path d="M271.655,240.06h0.697v0.657c0,0.912-0.563,1.02-0.697,1.04v-0.309c0.282-0.027,0.356-0.362,0.356-0.677h-0.356V240.06z"
				/>
			<path d="M276.667,237.163c1.12,0,1.63,0.946,1.63,1.851c0,0.905-0.51,1.851-1.63,1.851s-1.63-0.945-1.63-1.851
				C275.037,238.109,275.547,237.163,276.667,237.163z M276.667,240.356c0.845,0,1.02-0.872,1.02-1.342
				c0-0.469-0.175-1.342-1.02-1.342c-0.845,0-1.02,0.872-1.02,1.342C275.647,239.483,275.822,240.356,276.667,240.356z"/>
			<path d="M281.257,240.771v-0.509l-0.013-0.013c-0.248,0.409-0.55,0.624-1.113,0.624c-0.516,0-1.141-0.248-1.141-1.087v-2.522
				h0.59v2.328c0,0.577,0.296,0.772,0.678,0.772c0.745,0,0.966-0.657,0.966-1.167v-1.932h0.59v3.508L281.257,240.771
				L281.257,240.771z"/>
			<path d="M283.371,240.771h-0.59v-3.508h0.556v0.584h0.013c0.235-0.409,0.544-0.684,0.986-0.684c0.073,0,0.107,0.007,0.154,0.02
				v0.61h-0.221c-0.55,0-0.898,0.429-0.898,0.939L283.371,240.771L283.371,240.771z"/>
			<path d="M288.792,238.263c-0.006-0.221-0.087-0.59-0.832-0.59c-0.181,0-0.698,0.06-0.698,0.496c0,0.289,0.181,0.356,0.637,0.47
				l0.59,0.148c0.731,0.181,0.986,0.449,0.986,0.926c0,0.724-0.597,1.16-1.389,1.16c-1.389,0-1.49-0.805-1.509-1.227h0.57
				c0.02,0.275,0.1,0.718,0.933,0.718c0.423,0,0.805-0.168,0.805-0.557c0-0.282-0.195-0.376-0.697-0.503l-0.685-0.168
				c-0.489-0.12-0.811-0.369-0.811-0.852c0-0.771,0.637-1.12,1.328-1.12c1.254,0,1.342,0.926,1.342,1.1L288.792,238.263
				L288.792,238.263z"/>
			<path d="M290.169,236.626v-0.67h0.59v0.67H290.169z M290.759,240.771h-0.59v-3.508h0.59V240.771z"/>
			<path d="M292.37,237.753v2.281c0,0.275,0.235,0.275,0.355,0.275h0.208v0.463c-0.215,0.02-0.382,0.047-0.443,0.047
				c-0.584,0-0.711-0.329-0.711-0.751v-2.314h-0.477v-0.49h0.477v-0.979h0.59v0.979h0.563v0.49H292.37z"/>
			<path d="M296.355,239.671c-0.02,0.168-0.181,0.664-0.624,0.959c-0.161,0.107-0.389,0.241-0.953,0.241
				c-0.986,0-1.569-0.745-1.569-1.757c0-1.087,0.523-1.952,1.683-1.952c1.013,0,1.509,0.805,1.509,2.046h-2.562
				c0,0.732,0.342,1.154,1.02,1.154c0.557,0,0.885-0.429,0.905-0.691H296.355z M295.792,238.739
				c-0.034-0.544-0.262-1.046-0.98-1.046c-0.544,0-0.973,0.503-0.973,1.046H295.792z"/>
			<path d="M298.986,236.626v-0.67h0.59v0.67H298.986z M299.577,240.771h-0.59v-3.508h0.59V240.771z"/>
			<path d="M302.455,238.263c-0.006-0.221-0.087-0.59-0.832-0.59c-0.181,0-0.698,0.06-0.698,0.496c0,0.289,0.181,0.356,0.637,0.47
				l0.59,0.148c0.731,0.181,0.986,0.449,0.986,0.926c0,0.724-0.597,1.16-1.389,1.16c-1.389,0-1.49-0.805-1.509-1.227h0.57
				c0.02,0.275,0.1,0.718,0.933,0.718c0.423,0,0.805-0.168,0.805-0.557c0-0.282-0.195-0.376-0.697-0.503l-0.685-0.168
				c-0.489-0.12-0.811-0.369-0.811-0.852c0-0.771,0.637-1.12,1.328-1.12c1.254,0,1.342,0.926,1.342,1.1L302.455,238.263
				L302.455,238.263z"/>
			<path d="M305.663,238.33c0.027-0.839,0.584-1.167,1.449-1.167c0.282,0,1.301,0.081,1.301,0.98v2.019
				c0,0.148,0.074,0.208,0.195,0.208c0.053,0,0.127-0.013,0.195-0.027v0.429c-0.1,0.027-0.188,0.067-0.322,0.067
				c-0.523,0-0.604-0.268-0.624-0.537c-0.228,0.248-0.584,0.57-1.268,0.57c-0.644,0-1.1-0.409-1.1-1.013
				c0-0.296,0.087-0.98,1.066-1.1l0.973-0.121c0.141-0.013,0.308-0.067,0.308-0.416c0-0.369-0.268-0.57-0.825-0.57
				c-0.67,0-0.764,0.409-0.805,0.678H305.663z M307.823,238.98c-0.094,0.074-0.241,0.128-0.973,0.221
				c-0.288,0.04-0.751,0.128-0.751,0.57c0,0.382,0.195,0.61,0.637,0.61c0.55,0,1.087-0.355,1.087-0.825L307.823,238.98
				L307.823,238.98z"/>
			<path d="M310.018,240.771h-0.59v-4.816h0.59V240.771z"/>
			<path d="M310.904,237.263h0.557v0.497h0.013c0.128-0.188,0.429-0.597,1.06-0.597c0.63,0,0.832,0.382,0.932,0.57
				c0.296-0.329,0.53-0.57,1.073-0.57c0.376,0,1.087,0.195,1.087,1.181v2.428h-0.59v-2.267c0-0.483-0.147-0.812-0.65-0.812
				c-0.496,0-0.825,0.47-0.825,0.939v2.139h-0.59v-2.428c0-0.295-0.114-0.65-0.55-0.65c-0.336,0-0.926,0.215-0.926,1.167v1.911
				h-0.59L310.904,237.263L310.904,237.263z"/>
			<path d="M317.922,237.163c1.121,0,1.63,0.946,1.63,1.851c0,0.905-0.509,1.851-1.63,1.851c-1.12,0-1.63-0.945-1.63-1.851
				C316.292,238.109,316.802,237.163,317.922,237.163z M317.922,240.356c0.846,0,1.02-0.872,1.02-1.342
				c0-0.469-0.174-1.342-1.02-1.342c-0.845,0-1.02,0.872-1.02,1.342C316.902,239.483,317.077,240.356,317.922,240.356z"/>
			<path d="M322.216,238.263c-0.007-0.221-0.087-0.59-0.832-0.59c-0.181,0-0.697,0.06-0.697,0.496c0,0.289,0.181,0.356,0.637,0.47
				l0.59,0.148c0.731,0.181,0.986,0.449,0.986,0.926c0,0.724-0.597,1.16-1.389,1.16c-1.389,0-1.489-0.805-1.509-1.227h0.57
				c0.02,0.275,0.1,0.718,0.933,0.718c0.423,0,0.804-0.168,0.804-0.557c0-0.282-0.195-0.376-0.697-0.503l-0.685-0.168
				c-0.489-0.12-0.811-0.369-0.811-0.852c0-0.771,0.637-1.12,1.328-1.12c1.254,0,1.342,0.926,1.342,1.1L322.216,238.263
				L322.216,238.263z"/>
			<path d="M324.304,237.753v2.281c0,0.275,0.235,0.275,0.356,0.275h0.208v0.463c-0.215,0.02-0.382,0.047-0.443,0.047
				c-0.584,0-0.711-0.329-0.711-0.751v-2.314h-0.476v-0.49h0.476v-0.979h0.59v0.979h0.564v0.49H324.304z"/>
			<path d="M327.981,240.771h-0.59v-3.508h0.557v0.584h0.013c0.235-0.409,0.544-0.684,0.986-0.684c0.074,0,0.107,0.007,0.154,0.02
				v0.61h-0.221c-0.55,0-0.899,0.429-0.899,0.939L327.981,240.771L327.981,240.771z"/>
			<path d="M332.389,239.671c-0.02,0.168-0.181,0.664-0.624,0.959c-0.161,0.107-0.389,0.241-0.952,0.241
				c-0.986,0-1.57-0.745-1.57-1.757c0-1.087,0.523-1.952,1.684-1.952c1.013,0,1.509,0.805,1.509,2.046h-2.562
				c0,0.732,0.342,1.154,1.02,1.154c0.557,0,0.886-0.429,0.905-0.691H332.389z M331.826,238.739
				c-0.034-0.544-0.261-1.046-0.98-1.046c-0.544,0-0.973,0.503-0.973,1.046H331.826z"/>
			<path d="M333.121,238.33c0.027-0.839,0.584-1.167,1.449-1.167c0.282,0,1.301,0.081,1.301,0.98v2.019
				c0,0.148,0.074,0.208,0.195,0.208c0.053,0,0.128-0.013,0.195-0.027v0.429c-0.1,0.027-0.188,0.067-0.322,0.067
				c-0.523,0-0.604-0.268-0.624-0.537c-0.228,0.248-0.584,0.57-1.268,0.57c-0.644,0-1.1-0.409-1.1-1.013
				c0-0.296,0.087-0.98,1.066-1.1l0.973-0.121c0.141-0.013,0.308-0.067,0.308-0.416c0-0.369-0.268-0.57-0.825-0.57
				c-0.67,0-0.765,0.409-0.805,0.678H333.121z M335.282,238.98c-0.094,0.074-0.242,0.128-0.973,0.221
				c-0.288,0.04-0.751,0.128-0.751,0.57c0,0.382,0.195,0.61,0.637,0.61c0.55,0,1.087-0.355,1.087-0.825L335.282,238.98
				L335.282,238.98z"/>
			<path d="M339.784,240.771h-0.557v-0.483h-0.013c-0.255,0.476-0.657,0.584-0.999,0.584c-1.194,0-1.543-1.12-1.543-1.958
				c0-0.986,0.53-1.751,1.462-1.751c0.637,0,0.906,0.396,1.046,0.597l0.013-0.047v-1.757h0.59L339.784,240.771L339.784,240.771z
				 M338.228,240.363c0.376,0,0.959-0.249,0.959-1.181c0-0.57-0.094-1.49-0.946-1.49c-0.912,0-0.959,0.865-0.959,1.315
				C337.282,239.778,337.584,240.363,338.228,240.363z"/>
			<path d="M342.797,237.263h0.65c-0.409,1.147-0.812,2.294-1.261,3.441c-0.556,1.422-0.617,1.502-1.375,1.502
				c-0.087,0-0.154-0.027-0.248-0.053v-0.537c0.073,0.027,0.195,0.06,0.355,0.06c0.308,0,0.342-0.087,0.624-0.812l-1.301-3.602h0.67
				l0.933,2.857h0.013L342.797,237.263z"/>
			<path d="M344.133,240.771h-0.698v-0.711h0.698V240.771z"/>
		</g>
		<g enable-background="new    ">
			<path d="M198.505,248.824h-0.65v-4.816h2.167c0.892,0,1.429,0.577,1.429,1.354c0,0.671-0.382,1.429-1.429,1.429h-1.516
				L198.505,248.824L198.505,248.824z M198.505,246.235h1.294c0.584,0,0.98-0.215,0.98-0.865c0-0.61-0.416-0.805-0.952-0.805h-1.321
				L198.505,246.235L198.505,246.235z"/>
			<path d="M202.793,248.824h-0.59v-4.816h0.59V248.824z"/>
			<path d="M206.657,247.724c-0.02,0.168-0.181,0.664-0.624,0.959c-0.161,0.107-0.389,0.241-0.952,0.241
				c-0.986,0-1.57-0.745-1.57-1.757c0-1.087,0.523-1.952,1.684-1.952c1.013,0,1.509,0.805,1.509,2.046h-2.562
				c0,0.732,0.342,1.154,1.02,1.154c0.557,0,0.886-0.429,0.906-0.691H206.657z M206.094,246.792
				c-0.034-0.544-0.261-1.046-0.98-1.046c-0.544,0-0.973,0.503-0.973,1.046H206.094z"/>
			<path d="M207.39,246.383c0.027-0.839,0.584-1.167,1.449-1.167c0.282,0,1.301,0.081,1.301,0.98v2.019
				c0,0.148,0.074,0.208,0.195,0.208c0.053,0,0.127-0.013,0.195-0.027v0.429c-0.1,0.027-0.188,0.067-0.322,0.067
				c-0.523,0-0.603-0.268-0.624-0.537c-0.228,0.248-0.584,0.57-1.268,0.57c-0.644,0-1.1-0.409-1.1-1.013
				c0-0.296,0.087-0.98,1.066-1.1l0.973-0.121c0.141-0.013,0.308-0.067,0.308-0.416c0-0.369-0.268-0.57-0.825-0.57
				c-0.671,0-0.764,0.409-0.805,0.678H207.39z M209.55,247.033c-0.094,0.074-0.242,0.128-0.973,0.221
				c-0.289,0.04-0.751,0.128-0.751,0.57c0,0.382,0.195,0.61,0.638,0.61c0.55,0,1.087-0.355,1.087-0.825V247.033z"/>
			<path d="M213.133,246.316c-0.006-0.221-0.087-0.59-0.832-0.59c-0.181,0-0.697,0.06-0.697,0.496c0,0.289,0.181,0.356,0.637,0.47
				l0.59,0.148c0.731,0.181,0.986,0.449,0.986,0.926c0,0.724-0.597,1.16-1.389,1.16c-1.389,0-1.489-0.805-1.509-1.227h0.57
				c0.02,0.275,0.1,0.718,0.932,0.718c0.423,0,0.805-0.168,0.805-0.557c0-0.282-0.195-0.376-0.697-0.503l-0.684-0.168
				c-0.49-0.12-0.811-0.369-0.811-0.852c0-0.771,0.637-1.12,1.328-1.12c1.254,0,1.342,0.926,1.342,1.1L213.133,246.316
				L213.133,246.316z"/>
			<path d="M217.475,247.724c-0.02,0.168-0.181,0.664-0.624,0.959c-0.161,0.107-0.389,0.241-0.952,0.241
				c-0.986,0-1.57-0.745-1.57-1.757c0-1.087,0.523-1.952,1.684-1.952c1.013,0,1.509,0.805,1.509,2.046h-2.562
				c0,0.732,0.342,1.154,1.02,1.154c0.557,0,0.886-0.429,0.906-0.691H217.475z M216.911,246.792
				c-0.034-0.544-0.261-1.046-0.98-1.046c-0.544,0-0.973,0.503-0.973,1.046H216.911z"/>
			<path d="M222.286,246.496c-0.074-0.469-0.335-0.751-0.832-0.751c-0.731,0-0.966,0.697-0.966,1.322
				c0,0.604,0.148,1.348,0.959,1.348c0.396,0,0.738-0.296,0.839-0.832h0.57c-0.06,0.557-0.402,1.342-1.429,1.342
				c-0.986,0-1.569-0.745-1.569-1.757c0-1.087,0.523-1.952,1.684-1.952c0.919,0,1.268,0.671,1.315,1.281L222.286,246.496
				L222.286,246.496z"/>
			<path d="M224.876,245.215c1.12,0,1.63,0.946,1.63,1.851c0,0.905-0.51,1.851-1.63,1.851s-1.63-0.945-1.63-1.851
				C223.247,246.161,223.757,245.215,224.876,245.215z M224.876,248.408c0.846,0,1.02-0.872,1.02-1.342s-0.174-1.342-1.02-1.342
				c-0.845,0-1.02,0.872-1.02,1.342S224.031,248.408,224.876,248.408z"/>
			<path d="M227.179,245.316h0.557v0.497h0.013c0.128-0.188,0.429-0.597,1.06-0.597c0.631,0,0.832,0.382,0.932,0.57
				c0.295-0.329,0.53-0.57,1.073-0.57c0.376,0,1.087,0.195,1.087,1.181v2.428h-0.59v-2.267c0-0.483-0.148-0.812-0.65-0.812
				c-0.497,0-0.825,0.47-0.825,0.939v2.139h-0.59v-2.428c0-0.295-0.114-0.65-0.55-0.65c-0.335,0-0.926,0.215-0.926,1.167v1.911
				h-0.59L227.179,245.316L227.179,245.316z"/>
			<path d="M235.747,247.724c-0.02,0.168-0.181,0.664-0.624,0.959c-0.161,0.107-0.389,0.241-0.952,0.241
				c-0.986,0-1.569-0.745-1.569-1.757c0-1.087,0.523-1.952,1.684-1.952c1.013,0,1.509,0.805,1.509,2.046h-2.562
				c0,0.732,0.342,1.154,1.02,1.154c0.557,0,0.885-0.429,0.905-0.691H235.747z M235.183,246.792
				c-0.034-0.544-0.262-1.046-0.98-1.046c-0.543,0-0.972,0.503-0.972,1.046H235.183z"/>
			<path d="M238.318,248.824v-4.816h0.59v1.75h0.013c0.255-0.369,0.603-0.537,1.013-0.544c0.932,0,1.462,0.765,1.462,1.751
				c0,0.838-0.349,1.958-1.543,1.958c-0.597,0-0.845-0.342-0.966-0.537h-0.013v0.436L238.318,248.824L238.318,248.824z
				 M239.827,245.745c-0.852,0-0.946,0.919-0.946,1.49c0,0.932,0.584,1.181,0.959,1.181c0.644,0,0.946-0.584,0.946-1.355
				C240.786,246.611,240.739,245.745,239.827,245.745z"/>
			<path d="M242.075,246.383c0.027-0.839,0.584-1.167,1.449-1.167c0.282,0,1.301,0.081,1.301,0.98v2.019
				c0,0.148,0.074,0.208,0.195,0.208c0.053,0,0.127-0.013,0.195-0.027v0.429c-0.101,0.027-0.188,0.067-0.322,0.067
				c-0.523,0-0.604-0.268-0.624-0.537c-0.228,0.248-0.584,0.57-1.268,0.57c-0.644,0-1.1-0.409-1.1-1.013
				c0-0.296,0.087-0.98,1.066-1.1l0.973-0.121c0.141-0.013,0.309-0.067,0.309-0.416c0-0.369-0.268-0.57-0.825-0.57
				c-0.671,0-0.764,0.409-0.805,0.678H242.075z M244.236,247.033c-0.094,0.074-0.242,0.128-0.973,0.221
				c-0.289,0.04-0.751,0.128-0.751,0.57c0,0.382,0.195,0.61,0.637,0.61c0.55,0,1.087-0.355,1.087-0.825L244.236,247.033
				L244.236,247.033z"/>
			<path d="M248.02,246.496c-0.074-0.469-0.336-0.751-0.832-0.751c-0.731,0-0.966,0.697-0.966,1.322
				c0,0.604,0.148,1.348,0.959,1.348c0.396,0,0.738-0.296,0.839-0.832h0.57c-0.06,0.557-0.402,1.342-1.429,1.342
				c-0.986,0-1.57-0.745-1.57-1.757c0-1.087,0.523-1.952,1.684-1.952c0.919,0,1.268,0.671,1.315,1.281L248.02,246.496
				L248.02,246.496z"/>
			<path d="M251.972,248.824h-0.758l-1.093-1.771l-0.49,0.443v1.328h-0.57v-4.816h0.57v2.79l1.509-1.483h0.751l-1.342,1.308
				L251.972,248.824z"/>
			<path d="M254.872,248.824h-0.59v-4.816h0.59V248.824z"/>
			<path d="M255.738,246.383c0.027-0.839,0.584-1.167,1.449-1.167c0.282,0,1.301,0.081,1.301,0.98v2.019
				c0,0.148,0.074,0.208,0.195,0.208c0.053,0,0.127-0.013,0.195-0.027v0.429c-0.1,0.027-0.188,0.067-0.322,0.067
				c-0.523,0-0.603-0.268-0.624-0.537c-0.228,0.248-0.584,0.57-1.268,0.57c-0.644,0-1.1-0.409-1.1-1.013
				c0-0.296,0.087-0.98,1.066-1.1l0.973-0.121c0.141-0.013,0.308-0.067,0.308-0.416c0-0.369-0.268-0.57-0.825-0.57
				c-0.671,0-0.764,0.409-0.805,0.678H255.738z M257.898,247.033c-0.094,0.074-0.242,0.128-0.973,0.221
				c-0.289,0.04-0.751,0.128-0.751,0.57c0,0.382,0.195,0.61,0.638,0.61c0.55,0,1.087-0.355,1.087-0.825V247.033z"/>
			<path d="M260.214,245.806v2.281c0,0.275,0.235,0.275,0.355,0.275h0.208v0.463c-0.215,0.02-0.382,0.047-0.443,0.047
				c-0.584,0-0.711-0.329-0.711-0.751v-2.314h-0.476v-0.49h0.476v-0.979h0.59v0.979h0.563v0.49H260.214z"/>
			<path d="M264.199,247.724c-0.02,0.168-0.181,0.664-0.624,0.959c-0.161,0.107-0.389,0.241-0.952,0.241
				c-0.986,0-1.57-0.745-1.57-1.757c0-1.087,0.523-1.952,1.684-1.952c1.013,0,1.509,0.805,1.509,2.046h-2.562
				c0,0.732,0.342,1.154,1.02,1.154c0.557,0,0.886-0.429,0.906-0.691H264.199z M263.635,246.792
				c-0.034-0.544-0.261-1.046-0.98-1.046c-0.544,0-0.973,0.503-0.973,1.046H263.635z"/>
			<path d="M265.622,248.824h-0.59v-3.508h0.557v0.584h0.013c0.235-0.409,0.544-0.684,0.986-0.684c0.074,0,0.107,0.007,0.154,0.02
				v0.61h-0.221c-0.549,0-0.898,0.429-0.898,0.939L265.622,248.824L265.622,248.824z"/>
			<path d="M269.031,246.383c0.027-0.839,0.584-1.167,1.449-1.167c0.282,0,1.301,0.081,1.301,0.98v2.019
				c0,0.148,0.073,0.208,0.195,0.208c0.053,0,0.128-0.013,0.195-0.027v0.429c-0.1,0.027-0.188,0.067-0.322,0.067
				c-0.523,0-0.603-0.268-0.624-0.537c-0.228,0.248-0.584,0.57-1.268,0.57c-0.644,0-1.1-0.409-1.1-1.013
				c0-0.296,0.088-0.98,1.066-1.1l0.973-0.121c0.141-0.013,0.308-0.067,0.308-0.416c0-0.369-0.268-0.57-0.825-0.57
				c-0.671,0-0.765,0.409-0.805,0.678H269.031z M271.191,247.033c-0.094,0.074-0.242,0.128-0.973,0.221
				c-0.289,0.04-0.751,0.128-0.751,0.57c0,0.382,0.195,0.61,0.637,0.61c0.55,0,1.087-0.355,1.087-0.825L271.191,247.033
				L271.191,247.033z"/>
			<path d="M275.64,248.824h-0.59v-2.16c0-0.61-0.174-0.919-0.751-0.919c-0.335,0-0.925,0.215-0.925,1.167v1.911h-0.59v-3.508h0.556
				v0.497h0.013c0.128-0.188,0.456-0.597,1.06-0.597c0.544,0,1.227,0.221,1.227,1.221L275.64,248.824L275.64,248.824z"/>
			<path d="M279.424,248.824h-0.556v-0.483h-0.013c-0.255,0.476-0.657,0.584-0.999,0.584c-1.194,0-1.543-1.12-1.543-1.958
				c0-0.986,0.53-1.751,1.462-1.751c0.637,0,0.905,0.396,1.047,0.597l0.013-0.047v-1.757h0.59L279.424,248.824L279.424,248.824z
				 M277.868,248.415c0.376,0,0.959-0.249,0.959-1.181c0-0.57-0.094-1.49-0.945-1.49c-0.912,0-0.959,0.865-0.959,1.315
				C276.923,247.831,277.224,248.415,277.868,248.415z"/>
			<path d="M283.391,248.824h-0.61l-1.013-3.508h0.644l0.671,2.757h0.013l0.677-2.757h0.657l0.684,2.757h0.013l0.711-2.757h0.59
				l-1.02,3.508h-0.61l-0.711-2.716h-0.013L283.391,248.824z"/>
			<path d="M289.866,247.724c-0.02,0.168-0.181,0.664-0.624,0.959c-0.161,0.107-0.389,0.241-0.952,0.241
				c-0.986,0-1.57-0.745-1.57-1.757c0-1.087,0.523-1.952,1.684-1.952c1.013,0,1.509,0.805,1.509,2.046h-2.563
				c0,0.732,0.342,1.154,1.02,1.154c0.557,0,0.886-0.429,0.906-0.691H289.866z M289.302,246.792
				c-0.033-0.544-0.261-1.046-0.98-1.046c-0.544,0-0.973,0.503-0.973,1.046H289.302z"/>
			<path d="M290.578,244.008h0.49v1.71h-0.49V244.008z"/>
			<path d="M292.504,248.824h-0.59v-4.816h0.59V248.824z"/>
			<path d="M293.993,248.824h-0.59v-4.816h0.59V248.824z"/>
			<path d="M298.736,246.316c-0.006-0.221-0.087-0.59-0.832-0.59c-0.181,0-0.697,0.06-0.697,0.496c0,0.289,0.181,0.356,0.637,0.47
				l0.59,0.148c0.731,0.181,0.986,0.449,0.986,0.926c0,0.724-0.597,1.16-1.389,1.16c-1.389,0-1.49-0.805-1.509-1.227h0.57
				c0.02,0.275,0.1,0.718,0.933,0.718c0.423,0,0.805-0.168,0.805-0.557c0-0.282-0.195-0.376-0.698-0.503l-0.685-0.168
				c-0.489-0.12-0.811-0.369-0.811-0.852c0-0.771,0.637-1.12,1.328-1.12c1.254,0,1.342,0.926,1.342,1.1L298.736,246.316
				L298.736,246.316z"/>
			<path d="M302.387,248.824v-0.509l-0.013-0.013c-0.249,0.409-0.55,0.624-1.114,0.624c-0.516,0-1.14-0.248-1.14-1.087v-2.522h0.59
				v2.328c0,0.577,0.295,0.772,0.677,0.772c0.745,0,0.966-0.657,0.966-1.167v-1.932h0.59v3.508L302.387,248.824L302.387,248.824z"/>
			<path d="M304.502,248.824h-0.59v-3.508h0.556v0.584h0.013c0.235-0.409,0.544-0.684,0.986-0.684c0.073,0,0.107,0.007,0.154,0.02
				v0.61h-0.221c-0.55,0-0.898,0.429-0.898,0.939L304.502,248.824L304.502,248.824z"/>
			<path d="M306.22,245.316h0.557v0.497h0.013c0.141-0.201,0.409-0.597,1.046-0.597c0.933,0,1.462,0.765,1.462,1.751
				c0,0.838-0.348,1.958-1.543,1.958c-0.469,0-0.778-0.221-0.933-0.469h-0.013v1.757h-0.59L306.22,245.316L306.22,245.316z
				 M307.742,248.415c0.644,0,0.945-0.584,0.945-1.355c0-0.449-0.047-1.315-0.959-1.315c-0.852,0-0.945,0.919-0.945,1.49
				C306.783,248.167,307.367,248.415,307.742,248.415z"/>
			<path d="M310.668,248.824h-0.59v-3.508h0.557v0.584h0.013c0.235-0.409,0.544-0.684,0.986-0.684c0.074,0,0.107,0.007,0.154,0.02
				v0.61h-0.221c-0.549,0-0.898,0.429-0.898,0.939L310.668,248.824L310.668,248.824z"/>
			<path d="M312.347,244.679v-0.67h0.59v0.67H312.347z M312.937,248.824h-0.59v-3.508h0.59V248.824z"/>
			<path d="M315.814,246.316c-0.007-0.221-0.087-0.59-0.832-0.59c-0.181,0-0.698,0.06-0.698,0.496c0,0.289,0.181,0.356,0.638,0.47
				l0.59,0.148c0.731,0.181,0.986,0.449,0.986,0.926c0,0.724-0.597,1.16-1.389,1.16c-1.389,0-1.489-0.805-1.509-1.227h0.57
				c0.02,0.275,0.1,0.718,0.932,0.718c0.423,0,0.805-0.168,0.805-0.557c0-0.282-0.195-0.376-0.697-0.503l-0.684-0.168
				c-0.49-0.12-0.812-0.369-0.812-0.852c0-0.771,0.637-1.12,1.328-1.12c1.254,0,1.342,0.926,1.342,1.1L315.814,246.316
				L315.814,246.316z"/>
			<path d="M320.156,247.724c-0.02,0.168-0.181,0.664-0.624,0.959c-0.161,0.107-0.389,0.241-0.953,0.241
				c-0.986,0-1.569-0.745-1.569-1.757c0-1.087,0.523-1.952,1.683-1.952c1.013,0,1.509,0.805,1.509,2.046h-2.562
				c0,0.732,0.342,1.154,1.02,1.154c0.557,0,0.885-0.429,0.905-0.691H320.156z M319.592,246.792
				c-0.034-0.544-0.262-1.046-0.98-1.046c-0.544,0-0.973,0.503-0.973,1.046H319.592z"/>
			<path d="M324.967,245.316h0.65c-0.409,1.147-0.812,2.294-1.261,3.441c-0.556,1.422-0.617,1.502-1.375,1.502
				c-0.087,0-0.154-0.027-0.248-0.053v-0.537c0.073,0.027,0.195,0.06,0.355,0.06c0.308,0,0.342-0.087,0.624-0.812l-1.301-3.602h0.67
				l0.933,2.857h0.013L324.967,245.316z"/>
			<path d="M327.424,245.215c1.12,0,1.63,0.946,1.63,1.851c0,0.905-0.51,1.851-1.63,1.851s-1.63-0.945-1.63-1.851
				C325.794,246.161,326.303,245.215,327.424,245.215z M327.424,248.408c0.845,0,1.02-0.872,1.02-1.342s-0.174-1.342-1.02-1.342
				c-0.845,0-1.02,0.872-1.02,1.342S326.579,248.408,327.424,248.408z"/>
			<path d="M332.013,248.824v-0.509L332,248.301c-0.249,0.409-0.55,0.624-1.114,0.624c-0.516,0-1.14-0.248-1.14-1.087v-2.522h0.59
				v2.328c0,0.577,0.296,0.772,0.678,0.772c0.745,0,0.966-0.657,0.966-1.167v-1.932h0.59v3.508L332.013,248.824L332.013,248.824z"/>
			<path d="M333.786,247.677l-0.161-2.079v-1.59h0.65v1.59l-0.161,2.079H333.786z M334.275,248.824h-0.65v-0.684h0.65V248.824z"/>
		</g>
		<g enable-background="new    ">
			<path fill="#303030" d="M197.31,329.704c0-1.02,0.827-1.771,1.804-1.771c0.968,0,1.794,0.752,1.794,1.771
				c0,1.029-0.827,1.781-1.794,1.781C198.137,331.485,197.31,330.733,197.31,329.704z M199.114,331.189
				c0.803,0,1.438-0.629,1.438-1.485c0-0.841-0.634-1.475-1.438-1.475c-0.813,0-1.447,0.634-1.447,1.475
				C197.667,330.56,198.301,331.189,199.114,331.189z M200.049,330.038c-0.089,0.465-0.442,0.756-0.874,0.756
				c-0.639,0-1.048-0.479-1.048-1.094c0-0.625,0.39-1.086,1.029-1.086c0.451,0,0.822,0.258,0.888,0.738h-0.315
				c-0.056-0.258-0.272-0.427-0.568-0.427c-0.442,0-0.677,0.334-0.677,0.771c0,0.423,0.263,0.79,0.691,0.79
				c0.296,0,0.512-0.183,0.554-0.447L200.049,330.038L200.049,330.038z"/>
			<path fill="#303030" d="M202.35,329.277c0-1.076,0.785-1.184,1.142-1.184c0.573,0,1.034,0.371,1.034,0.987
				c0,0.592-0.39,0.841-0.883,1.104l-0.343,0.188c-0.451,0.249-0.55,0.507-0.568,0.634h1.794v0.39h-2.26
				c0.024-0.686,0.334-1.052,0.775-1.311l0.437-0.253c0.352-0.202,0.606-0.339,0.606-0.771c0-0.263-0.169-0.597-0.653-0.597
				c-0.625,0-0.653,0.583-0.667,0.813L202.35,329.277L202.35,329.277z"/>
			<path fill="#303030" d="M206.061,331.485c-0.949,0-1.133-1.01-1.133-1.696s0.183-1.696,1.133-1.696
				c0.949,0,1.132,1.01,1.132,1.696S207.01,331.485,206.061,331.485z M206.061,328.464c-0.475,0-0.691,0.498-0.691,1.325
				c0,0.827,0.216,1.325,0.691,1.325c0.474,0,0.691-0.498,0.691-1.325C206.752,328.962,206.536,328.464,206.061,328.464z"/>
			<path fill="#303030" d="M208.701,331.396h-0.442v-2.344h-0.771v-0.329c0.536-0.038,0.756-0.09,0.888-0.629h0.324V331.396z"/>
			<path fill="#303030" d="M209.612,328.164h2.284v0.361c-0.329,0.343-1.118,1.395-1.358,2.871h-0.455
				c0.113-0.907,0.714-2.091,1.348-2.829h-1.818L209.612,328.164L209.612,328.164z"/>
			<path fill="#303030" d="M212.055,331.396h-0.489v-0.498h0.489V331.396z"/>
			<path fill="#303030" d="M216.381,331.396h-2.49v-3.373h2.457v0.404h-2.001v1.034h1.846v0.404h-1.846v1.127h2.034L216.381,331.396
				L216.381,331.396z"/>
			<path fill="#303030" d="M217.489,331.396h-0.456v-3.373h1.56c0.554,0,1.109,0.193,1.109,0.907c0,0.498-0.254,0.681-0.47,0.808
				c0.193,0.08,0.385,0.164,0.404,0.634l0.028,0.611c0.004,0.188,0.028,0.258,0.169,0.338v0.075h-0.559
				c-0.066-0.207-0.08-0.719-0.08-0.845c0-0.278-0.056-0.601-0.601-0.601h-1.104V331.396z M217.489,329.559h1.057
				c0.334,0,0.686-0.085,0.686-0.583c0-0.522-0.381-0.564-0.606-0.564h-1.137V329.559z"/>
			<path fill="#303030" d="M220.9,330.414l-0.352,0.982h-0.47l1.269-3.373h0.517l1.222,3.373h-0.498l-0.334-0.982H220.9z
				 M222.088,330.01l-0.498-1.485h-0.009l-0.54,1.485H222.088z"/>
			<path fill="#303030" d="M224.831,328.022h1.367c0.879,0,1.419,0.667,1.419,1.64c0,0.756-0.329,1.734-1.438,1.734h-1.348V328.022z
				 M225.287,331.006h0.883c0.592,0,0.977-0.465,0.977-1.315s-0.39-1.278-1.01-1.278h-0.85L225.287,331.006L225.287,331.006z"/>
			<path fill="#303030" d="M230.233,330.625c-0.014,0.117-0.127,0.465-0.437,0.672c-0.113,0.075-0.272,0.169-0.667,0.169
				c-0.691,0-1.099-0.522-1.099-1.231c0-0.761,0.366-1.367,1.179-1.367c0.709,0,1.057,0.564,1.057,1.434h-1.794
				c0,0.512,0.24,0.808,0.714,0.808c0.39,0,0.62-0.3,0.634-0.484L230.233,330.625L230.233,330.625z M229.838,329.972
				c-0.023-0.381-0.183-0.733-0.686-0.733c-0.381,0-0.681,0.352-0.681,0.733H229.838z"/>
			<path fill="#303030" d="M232.154,329.638c-0.004-0.155-0.061-0.413-0.583-0.413c-0.127,0-0.489,0.042-0.489,0.348
				c0,0.202,0.127,0.249,0.446,0.329l0.413,0.103c0.512,0.127,0.691,0.315,0.691,0.648c0,0.507-0.418,0.813-0.973,0.813
				c-0.972,0-1.043-0.564-1.057-0.86h0.399c0.014,0.193,0.071,0.503,0.653,0.503c0.296,0,0.564-0.117,0.564-0.39
				c0-0.197-0.136-0.263-0.489-0.352l-0.479-0.117c-0.343-0.085-0.568-0.258-0.568-0.597c0-0.54,0.447-0.785,0.93-0.785
				c0.879,0,0.94,0.648,0.94,0.771L232.154,329.638L232.154,329.638z"/>
			<path fill="#303030" d="M233.116,328.492v-0.47h0.413v0.47H233.116z M233.53,331.396h-0.413v-2.457h0.413V331.396z"/>
			<path fill="#303030" d="M236.189,331.194c0,0.352-0.004,1.236-1.142,1.236c-0.291,0-0.86-0.08-0.94-0.733h0.413
				c0.075,0.39,0.455,0.39,0.554,0.39c0.714,0,0.7-0.573,0.7-0.865v-0.103h-0.009v0.018c-0.108,0.174-0.324,0.329-0.653,0.329
				c-0.836,0-1.081-0.785-1.081-1.372c0-0.691,0.371-1.227,1.024-1.227c0.446,0,0.634,0.278,0.733,0.418h0.009v-0.348h0.39
				L236.189,331.194L236.189,331.194z M235.123,331.109c0.263,0,0.672-0.174,0.672-0.827c0-0.399-0.066-1.043-0.662-1.043
				c-0.639,0-0.672,0.606-0.672,0.921C234.46,330.701,234.671,331.109,235.123,331.109z"/>
			<path fill="#303030" d="M238.763,331.396h-0.413v-1.513c0-0.428-0.122-0.644-0.526-0.644c-0.235,0-0.648,0.15-0.648,0.817v1.339
				h-0.413v-2.457h0.39v0.348h0.009c0.089-0.132,0.319-0.418,0.743-0.418c0.381,0,0.86,0.155,0.86,0.855L238.763,331.396
				L238.763,331.396z"/>
			<path fill="#303030" d="M242.765,329.009c-0.023-0.522-0.456-0.686-0.836-0.686c-0.287,0-0.771,0.08-0.771,0.592
				c0,0.287,0.202,0.381,0.399,0.428l0.963,0.221c0.437,0.103,0.766,0.366,0.766,0.902c0,0.798-0.743,1.02-1.32,1.02
				c-0.625,0-0.869-0.188-1.02-0.324c-0.287-0.258-0.343-0.541-0.343-0.855h0.428c0,0.611,0.498,0.79,0.93,0.79
				c0.329,0,0.883-0.085,0.883-0.568c0-0.352-0.164-0.465-0.719-0.597l-0.691-0.16c-0.221-0.051-0.719-0.206-0.719-0.794
				c0-0.526,0.343-1.043,1.16-1.043c1.179,0,1.297,0.705,1.316,1.076L242.765,329.009L242.765,329.009z"/>
			<path fill="#303030" d="M244.32,329.282v1.597c0,0.193,0.164,0.193,0.249,0.193h0.146v0.324c-0.15,0.014-0.268,0.033-0.31,0.033
				c-0.409,0-0.498-0.23-0.498-0.526v-1.621h-0.334v-0.343h0.334v-0.686h0.413v0.686h0.395v0.343H244.32z"/>
			<path fill="#303030" d="M246.72,331.396v-0.357l-0.009-0.009c-0.174,0.287-0.385,0.437-0.78,0.437
				c-0.362,0-0.798-0.174-0.798-0.761v-1.766h0.413v1.631c0,0.403,0.207,0.54,0.474,0.54c0.522,0,0.677-0.46,0.677-0.817v-1.353
				h0.413v2.457L246.72,331.396L246.72,331.396z"/>
			<path fill="#303030" d="M249.769,331.396h-0.39v-0.339h-0.009c-0.179,0.334-0.46,0.409-0.7,0.409
				c-0.836,0-1.081-0.785-1.081-1.372c0-0.691,0.371-1.227,1.024-1.227c0.446,0,0.634,0.278,0.733,0.418l0.009-0.033v-1.231h0.413
				L249.769,331.396L249.769,331.396z M248.679,331.109c0.263,0,0.672-0.174,0.672-0.827c0-0.399-0.066-1.043-0.662-1.043
				c-0.639,0-0.672,0.606-0.672,0.921C248.016,330.701,248.228,331.109,248.679,331.109z"/>
			<path fill="#303030" d="M250.351,328.492v-0.47h0.413v0.47H250.351z M250.764,331.396h-0.413v-2.457h0.413V331.396z"/>
			<path fill="#303030" d="M252.385,328.868c0.785,0,1.142,0.663,1.142,1.297c0,0.634-0.357,1.296-1.142,1.296
				s-1.142-0.662-1.142-1.296C251.243,329.531,251.6,328.868,252.385,328.868z M252.385,331.104c0.592,0,0.714-0.61,0.714-0.939
				c0-0.329-0.122-0.94-0.714-0.94c-0.592,0-0.714,0.61-0.714,0.94C251.67,330.494,251.793,331.104,252.385,331.104z"/>
			<path fill="#303030" d="M254.4,331.396h-0.489v-0.498h0.489V331.396z"/>
			<path fill="#303030" d="M256.486,330.414l-0.352,0.982h-0.47l1.269-3.373h0.517l1.222,3.373h-0.498l-0.334-0.982H256.486z
				 M257.674,330.01l-0.498-1.485h-0.009l-0.54,1.485H257.674z"/>
			<path fill="#303030" d="M261.037,331.396h-0.413v-1.513c0-0.428-0.122-0.644-0.526-0.644c-0.235,0-0.648,0.15-0.648,0.817v1.339
				h-0.413v-2.457h0.39v0.348h0.009c0.089-0.132,0.319-0.418,0.743-0.418c0.381,0,0.86,0.155,0.86,0.855L261.037,331.396
				L261.037,331.396z"/>
			<path fill="#303030" d="M263.531,331.396h-0.455v-3.373h0.455V331.396z"/>
			<path fill="#303030" d="M266.261,331.396h-0.413v-1.513c0-0.428-0.122-0.644-0.526-0.644c-0.235,0-0.648,0.15-0.648,0.817v1.339
				h-0.413v-2.457h0.39v0.348h0.009c0.089-0.132,0.319-0.418,0.743-0.418c0.381,0,0.859,0.155,0.859,0.855V331.396z"/>
			<path fill="#303030" d="M266.881,328.492v-0.47h0.413v0.47H266.881z M267.294,331.396h-0.413v-2.457h0.413V331.396z"/>
			<path fill="#303030" d="M268.421,329.282v1.597c0,0.193,0.164,0.193,0.249,0.193h0.146v0.324c-0.15,0.014-0.268,0.033-0.31,0.033
				c-0.409,0-0.498-0.23-0.498-0.526v-1.621h-0.334v-0.343h0.334v-0.686h0.413v0.686h0.395v0.343H268.421z"/>
			<path fill="#303030" d="M269.229,328.492v-0.47h0.413v0.47H269.229z M269.642,331.396h-0.413v-2.457h0.413V331.396z"/>
			<path fill="#303030" d="M270.248,329.685c0.019-0.587,0.409-0.817,1.015-0.817c0.197,0,0.911,0.056,0.911,0.686v1.414
				c0,0.103,0.051,0.146,0.136,0.146c0.038,0,0.089-0.01,0.136-0.019v0.3c-0.071,0.019-0.132,0.047-0.226,0.047
				c-0.366,0-0.423-0.188-0.437-0.376c-0.159,0.174-0.408,0.399-0.888,0.399c-0.451,0-0.77-0.287-0.77-0.71
				c0-0.206,0.061-0.686,0.747-0.771l0.681-0.085c0.099-0.009,0.216-0.047,0.216-0.291c0-0.258-0.188-0.399-0.578-0.399
				c-0.47,0-0.536,0.287-0.564,0.474L270.248,329.685L270.248,329.685z M271.761,330.141c-0.066,0.051-0.169,0.09-0.681,0.155
				c-0.202,0.028-0.526,0.089-0.526,0.4c0,0.268,0.136,0.427,0.446,0.427c0.385,0,0.761-0.249,0.761-0.578L271.761,330.141
				L271.761,330.141z"/>
			<path fill="#303030" d="M273.382,329.282v1.597c0,0.193,0.164,0.193,0.249,0.193h0.146v0.324c-0.15,0.014-0.268,0.033-0.31,0.033
				c-0.409,0-0.498-0.23-0.498-0.526v-1.621h-0.334v-0.343h0.334v-0.686h0.414v0.686h0.395v0.343H273.382z"/>
			<path fill="#303030" d="M274.189,328.492v-0.47h0.414v0.47H274.189z M274.602,331.396h-0.414v-2.457h0.414V331.396z"/>
			<path fill="#303030" d="M276.778,328.938h0.451l-0.935,2.457h-0.442l-0.897-2.457h0.479l0.639,2.001h0.009L276.778,328.938z"/>
			<path fill="#303030" d="M279.54,330.625c-0.014,0.117-0.127,0.465-0.437,0.672c-0.113,0.075-0.273,0.169-0.667,0.169
				c-0.691,0-1.1-0.522-1.1-1.231c0-0.761,0.367-1.367,1.18-1.367c0.709,0,1.057,0.564,1.057,1.434h-1.795
				c0,0.512,0.24,0.808,0.714,0.808c0.39,0,0.62-0.3,0.634-0.484L279.54,330.625L279.54,330.625z M279.145,329.972
				c-0.023-0.381-0.183-0.733-0.686-0.733c-0.381,0-0.681,0.352-0.681,0.733H279.145z"/>
			<path fill="#303030" d="M282.372,328.868c0.785,0,1.142,0.663,1.142,1.297c0,0.634-0.357,1.296-1.142,1.296
				c-0.785,0-1.142-0.662-1.142-1.296C281.23,329.531,281.587,328.868,282.372,328.868z M282.372,331.104
				c0.592,0,0.714-0.61,0.714-0.939c0-0.329-0.122-0.94-0.714-0.94s-0.714,0.61-0.714,0.94
				C281.658,330.494,281.779,331.104,282.372,331.104z"/>
			<path fill="#303030" d="M284.495,329.282v2.114h-0.413v-2.114h-0.339v-0.343h0.339v-0.423c0-0.371,0.235-0.54,0.639-0.54
				c0.061,0,0.122,0.004,0.188,0.009v0.371c-0.051-0.005-0.117-0.009-0.169-0.009c-0.178,0-0.244,0.089-0.244,0.286v0.305h0.413
				v0.343H284.495z"/>
			<path fill="#303030" d="M288.131,329.765c-0.051-0.329-0.235-0.526-0.583-0.526c-0.512,0-0.677,0.489-0.677,0.926
				c0,0.423,0.103,0.944,0.672,0.944c0.278,0,0.517-0.206,0.588-0.583h0.4c-0.042,0.39-0.282,0.94-1,0.94
				c-0.691,0-1.099-0.522-1.099-1.231c0-0.761,0.366-1.367,1.179-1.367c0.644,0,0.888,0.47,0.921,0.897L288.131,329.765
				L288.131,329.765z"/>
			<path fill="#303030" d="M289.413,331.396h-0.413v-2.457h0.39v0.409h0.009c0.164-0.287,0.381-0.48,0.691-0.48
				c0.051,0,0.075,0.005,0.108,0.014v0.428h-0.155c-0.385,0-0.63,0.3-0.63,0.658L289.413,331.396L289.413,331.396z"/>
			<path fill="#303030" d="M292.5,330.625c-0.014,0.117-0.127,0.465-0.437,0.672c-0.113,0.075-0.272,0.169-0.667,0.169
				c-0.691,0-1.099-0.522-1.099-1.231c0-0.761,0.366-1.367,1.179-1.367c0.71,0,1.057,0.564,1.057,1.434h-1.794
				c0,0.512,0.239,0.808,0.714,0.808c0.39,0,0.62-0.3,0.634-0.484L292.5,330.625L292.5,330.625z M292.105,329.972
				c-0.024-0.381-0.183-0.733-0.686-0.733c-0.381,0-0.681,0.352-0.681,0.733H292.105z"/>
			<path fill="#303030" d="M293.011,329.685c0.019-0.587,0.408-0.817,1.015-0.817c0.197,0,0.911,0.056,0.911,0.686v1.414
				c0,0.103,0.051,0.146,0.136,0.146c0.038,0,0.09-0.01,0.136-0.019v0.3c-0.071,0.019-0.132,0.047-0.225,0.047
				c-0.366,0-0.423-0.188-0.437-0.376c-0.16,0.174-0.409,0.399-0.888,0.399c-0.451,0-0.771-0.287-0.771-0.71
				c0-0.206,0.061-0.686,0.747-0.771l0.682-0.085c0.099-0.009,0.216-0.047,0.216-0.291c0-0.258-0.188-0.399-0.578-0.399
				c-0.47,0-0.536,0.287-0.564,0.474L293.011,329.685L293.011,329.685z M294.524,330.141c-0.066,0.051-0.169,0.09-0.681,0.155
				c-0.202,0.028-0.526,0.089-0.526,0.4c0,0.268,0.136,0.427,0.446,0.427c0.385,0,0.761-0.249,0.761-0.578L294.524,330.141
				L294.524,330.141z"/>
			<path fill="#303030" d="M296.144,329.282v1.597c0,0.193,0.164,0.193,0.249,0.193h0.146v0.324c-0.15,0.014-0.268,0.033-0.31,0.033
				c-0.409,0-0.498-0.23-0.498-0.526v-1.621h-0.334v-0.343h0.334v-0.686h0.413v0.686h0.395v0.343H296.144z"/>
			<path fill="#303030" d="M296.952,328.492v-0.47h0.414v0.47H296.952z M297.366,331.396h-0.414v-2.457h0.414V331.396z"/>
			<path fill="#303030" d="M299.54,328.938h0.451l-0.935,2.457h-0.442l-0.897-2.457h0.479l0.639,2.001h0.009L299.54,328.938z"/>
			<path fill="#303030" d="M302.303,330.625c-0.014,0.117-0.127,0.465-0.437,0.672c-0.113,0.075-0.273,0.169-0.667,0.169
				c-0.691,0-1.1-0.522-1.1-1.231c0-0.761,0.367-1.367,1.18-1.367c0.709,0,1.057,0.564,1.057,1.434h-1.795
				c0,0.512,0.24,0.808,0.714,0.808c0.39,0,0.62-0.3,0.634-0.484L302.303,330.625L302.303,330.625z M301.908,329.972
				c-0.023-0.381-0.183-0.733-0.686-0.733c-0.381,0-0.681,0.352-0.681,0.733H301.908z"/>
			<path fill="#303030" d="M303.88,330.306h-1.151v-0.423h1.151V330.306z"/>
			<path fill="#303030" d="M306.479,330.625c-0.014,0.117-0.127,0.465-0.437,0.672c-0.113,0.075-0.273,0.169-0.667,0.169
				c-0.691,0-1.1-0.522-1.1-1.231c0-0.761,0.367-1.367,1.18-1.367c0.709,0,1.057,0.564,1.057,1.434h-1.795
				c0,0.512,0.24,0.808,0.714,0.808c0.39,0,0.62-0.3,0.634-0.484L306.479,330.625L306.479,330.625z M306.084,329.972
				c-0.023-0.381-0.183-0.733-0.686-0.733c-0.381,0-0.681,0.352-0.681,0.733H306.084z"/>
			<path fill="#303030" d="M307.474,331.396h-0.413v-2.457h0.39v0.409h0.009c0.164-0.287,0.381-0.48,0.691-0.48
				c0.051,0,0.075,0.005,0.108,0.014v0.428h-0.155c-0.385,0-0.63,0.3-0.63,0.658L307.474,331.396L307.474,331.396z"/>
			<path fill="#303030" d="M308.507,329.685c0.019-0.587,0.408-0.817,1.015-0.817c0.197,0,0.911,0.056,0.911,0.686v1.414
				c0,0.103,0.051,0.146,0.136,0.146c0.038,0,0.09-0.01,0.136-0.019v0.3c-0.071,0.019-0.132,0.047-0.225,0.047
				c-0.366,0-0.423-0.188-0.437-0.376c-0.16,0.174-0.409,0.399-0.888,0.399c-0.451,0-0.771-0.287-0.771-0.71
				c0-0.206,0.061-0.686,0.747-0.771l0.682-0.085c0.099-0.009,0.216-0.047,0.216-0.291c0-0.258-0.188-0.399-0.578-0.399
				c-0.47,0-0.536,0.287-0.564,0.474L308.507,329.685L308.507,329.685z M310.019,330.141c-0.066,0.051-0.169,0.09-0.681,0.155
				c-0.202,0.028-0.526,0.089-0.526,0.4c0,0.268,0.136,0.427,0.446,0.427c0.385,0,0.761-0.249,0.761-0.578L310.019,330.141
				L310.019,330.141z"/>
			<path fill="#303030" d="M311.725,331.396h-0.489v-0.498h0.489V331.396z"/>
			<path fill="#303030" d="M313.975,329.765c-0.051-0.329-0.235-0.526-0.583-0.526c-0.512,0-0.677,0.489-0.677,0.926
				c0,0.423,0.103,0.944,0.672,0.944c0.278,0,0.517-0.206,0.588-0.583h0.4c-0.042,0.39-0.282,0.94-1,0.94
				c-0.691,0-1.099-0.522-1.099-1.231c0-0.761,0.366-1.367,1.179-1.367c0.644,0,0.888,0.47,0.921,0.897L313.975,329.765
				L313.975,329.765z"/>
			<path fill="#303030" d="M315.788,328.868c0.785,0,1.142,0.663,1.142,1.297c0,0.634-0.357,1.296-1.142,1.296
				c-0.785,0-1.142-0.662-1.142-1.296C314.646,329.531,315.003,328.868,315.788,328.868z M315.788,331.104
				c0.592,0,0.714-0.61,0.714-0.939c0-0.329-0.122-0.94-0.714-0.94s-0.714,0.61-0.714,0.94
				C315.074,330.494,315.195,331.104,315.788,331.104z"/>
			<path fill="#303030" d="M317.399,328.938h0.39v0.348h0.01c0.089-0.132,0.3-0.418,0.742-0.418c0.442,0,0.583,0.268,0.653,0.399
				c0.207-0.23,0.371-0.399,0.752-0.399c0.263,0,0.761,0.136,0.761,0.827v1.701h-0.413v-1.588c0-0.339-0.103-0.568-0.456-0.568
				c-0.348,0-0.578,0.329-0.578,0.658v1.498h-0.413v-1.701c0-0.207-0.08-0.456-0.385-0.456c-0.235,0-0.648,0.15-0.648,0.817v1.339
				h-0.414L317.399,328.938L317.399,328.938z"/>
			<path fill="#303030" d="M286.289,331.983v-0.235h34.718v0.235H286.289z"/>
		</g>
		<g>
			<path fill="#002E04" d="M442.347,175.07c-0.45,0-1.21,0.126-1.21,0.93c0,0.45,0.318,0.598,0.628,0.672l1.513,0.348
				c0.687,0.162,1.202,0.575,1.202,1.417c0,1.254-1.166,1.602-2.075,1.602c-0.982,0-1.365-0.296-1.601-0.51
				c-0.45-0.405-0.539-0.849-0.539-1.343h0.672c0,0.959,0.783,1.241,1.461,1.241c0.517,0,1.388-0.134,1.388-0.894
				c0-0.553-0.258-0.73-1.13-0.938l-1.085-0.25c-0.347-0.082-1.129-0.325-1.129-1.247c0-0.827,0.539-1.639,1.824-1.639
				c1.852,0,2.037,1.107,2.067,1.69h-0.672C443.625,175.328,442.945,175.07,442.347,175.07L442.347,175.07z M449.523,179.263v0.635
				h-3.912v-5.3h3.86v0.635h-3.144v1.624h2.901v0.635h-2.901v1.772L449.523,179.263L449.523,179.263z M452.844,175.092
				c-0.961,0-1.735,0.708-1.735,2.103c0,1.247,0.442,2.207,1.757,2.207c0.464,0,1.269-0.221,1.512-1.454h0.695
				c-0.296,2.001-1.919,2.09-2.317,2.09c-1.204,0-2.385-0.783-2.385-2.82c0-1.632,0.93-2.761,2.473-2.761
				c1.365,0,2.074,0.849,2.177,1.735h-0.694C454.129,175.262,453.354,175.092,452.844,175.092L452.844,175.092z"/>
		</g>
		<g>
			<path fill="#2F2F2F" d="M416.421,165.831h-2.94c-0.414,1.152-1.174,2.16-2.283,3.024c-1.109,0.864-2.137,1.451-3.082,1.761v3.288
				c1.797-0.593,3.358-1.509,4.682-2.746v13.656h3.624V165.831L416.421,165.831z"/>
			<path fill="#2F2F2F" d="M425.355,183.294c1.129,0.986,2.551,1.48,4.266,1.48c1.809,0,3.322-0.586,4.537-1.758
				c1.215-1.172,1.822-2.59,1.822-4.253c0-1.146-0.325-2.124-0.976-2.935c-0.65-0.81-1.518-1.331-2.604-1.564
				c1.818-0.991,2.727-2.318,2.727-3.981c0-1.172-0.444-2.223-1.331-3.153c-1.077-1.138-2.508-1.707-4.292-1.707
				c-1.042,0-1.984,0.196-2.825,0.588c-0.84,0.393-1.495,0.932-1.964,1.616c-0.47,0.685-0.821,1.6-1.053,2.746l3.348,0.569
				c0.094-0.827,0.362-1.456,0.801-1.887c0.439-0.431,0.969-0.646,1.59-0.646c0.629,0,1.133,0.19,1.512,0.569
				c0.379,0.379,0.569,0.887,0.569,1.525c0,0.75-0.258,1.352-0.775,1.804c-0.517,0.452-1.267,0.666-2.249,0.64l-0.401,2.959
				c0.646-0.181,1.202-0.271,1.667-0.271c0.706,0,1.305,0.267,1.796,0.802c0.492,0.534,0.738,1.258,0.738,2.171
				c0,0.965-0.257,1.732-0.77,2.3c-0.513,0.57-1.144,0.854-1.893,0.854c-0.698,0-1.292-0.237-1.783-0.711
				c-0.491-0.474-0.794-1.16-0.906-2.056l-3.515,0.426C423.572,181.017,424.227,182.307,425.355,183.294L425.355,183.294z"/>
		</g>
		<g opacity="0.15">
			<defs>
				<rect id="SVGID_2_" y="0" opacity="0.15" width="530" height="363"/>
			</defs>
			<clipPath id="SVGID_3_">
				<use xlink:href="#SVGID_2_"  overflow="visible"/>
			</clipPath>
			<g clip-path="url(#SVGID_3_)">
				<g>
					<g>
						<path fill="#303030" d="M355.198,6.097l2.382,2.616l-10.074,8.914c-0.791-1.085-1.317-2.312-1.578-3.68
							c-0.26-1.368-0.252-3.495,0.024-6.382c0.219-2.329,0.283-3.834,0.193-4.514c-0.134-0.931-0.46-1.68-0.977-2.248
							c-0.572-0.628-1.184-0.958-1.835-0.991c-0.652-0.032-1.281,0.22-1.888,0.757c-0.6,0.531-0.916,1.131-0.948,1.798
							c-0.032,0.668,0.299,1.437,0.992,2.307l-3.119,2.253c-1.241-1.7-1.718-3.287-1.433-4.758c0.286-1.471,1.103-2.804,2.454-3.999
							c1.48-1.309,2.998-1.947,4.555-1.913c1.557,0.033,2.865,0.631,3.924,1.794c0.603,0.661,1.055,1.398,1.357,2.21
							c0.303,0.812,0.49,1.778,0.561,2.897c0.048,0.742-0.011,1.922-0.175,3.539c-0.164,1.618-0.246,2.667-0.245,3.148
							c0.001,0.482,0.042,0.916,0.124,1.302L355.198,6.097z"/>
					</g>
					<g>
						<path fill="#303030" d="M351.768-12.783c1.452-1.285,3.05-1.782,4.793-1.49c2.07,0.34,4.374,1.903,6.911,4.689
							c2.531,2.78,3.859,5.212,3.984,7.296c0.101,1.72-0.574,3.223-2.027,4.508c-1.459,1.291-3.136,1.782-5.03,1.474
							c-1.894-0.309-4.125-1.873-6.693-4.693c-2.519-2.766-3.841-5.191-3.966-7.276C349.639-9.996,350.315-11.498,351.768-12.783z
							 M353.894-10.448c-0.348,0.308-0.559,0.691-0.634,1.149c-0.075,0.459,0.068,1.035,0.429,1.729
							c0.465,0.903,1.483,2.217,3.053,3.94c1.57,1.724,2.737,2.83,3.501,3.318c0.764,0.488,1.379,0.72,1.843,0.695
							c0.464-0.024,0.87-0.191,1.218-0.498c0.348-0.307,0.559-0.691,0.634-1.149c0.075-0.458-0.068-1.035-0.429-1.728
							c-0.459-0.896-1.474-2.207-3.043-3.93c-1.57-1.724-2.737-2.829-3.501-3.317c-0.764-0.488-1.38-0.721-1.847-0.7
							C354.649-10.92,354.242-10.756,353.894-10.448z"/>
					</g>
					<g>
						<path fill="#303030" d="M371.837,32.226l-3.124,2.239l-8.494-11.546c-0.371,1.864-1.147,3.602-2.327,5.214l-2.045-2.78
							c0.623-0.846,1.143-1.977,1.562-3.392c0.419-1.416,0.448-2.738,0.087-3.967l2.534-1.816L371.837,32.226z"/>
					</g>
					<g>
						<path fill="#303030" d="M374.743,24.498l2.783-2.494c0.518,0.55,1.04,0.859,1.565,0.927c0.525,0.068,1.043-0.082,1.554-0.448
							c0.645-0.462,0.979-1.146,1.004-2.051c0.024-0.905-0.574-2.319-1.796-4.241c-0.128,1.457-0.781,2.608-1.959,3.452
							c-1.282,0.919-2.745,1.226-4.389,0.922c-1.644-0.304-3.038-1.233-4.182-2.789c-1.192-1.621-1.663-3.279-1.41-4.975
							c0.252-1.696,1.138-3.088,2.657-4.177c1.652-1.184,3.47-1.529,5.452-1.035c1.982,0.494,4.029,2.177,6.141,5.048
							c2.149,2.922,3.148,5.426,2.996,7.511c-0.152,2.085-1.114,3.763-2.885,5.032c-1.274,0.913-2.549,1.319-3.824,1.217
							C377.174,26.294,375.939,25.662,374.743,24.498z M376.889,12.737c-0.727-0.988-1.523-1.589-2.387-1.803
							c-0.864-0.213-1.601-0.102-2.208,0.333c-0.578,0.414-0.894,0.982-0.946,1.702s0.295,1.59,1.044,2.607
							c0.759,1.032,1.524,1.641,2.295,1.827c0.771,0.186,1.467,0.056,2.09-0.39c0.6-0.43,0.935-1.025,1.004-1.785
							C377.849,14.469,377.552,13.638,376.889,12.737z"/>
					</g>
					<g>
						<path fill="#303030" d="M385.635,55.163l-3.35,1.893l-7.169-12.393c-0.574,1.815-1.536,3.461-2.885,4.938l-1.726-2.984
							c0.712-0.775,1.353-1.844,1.925-3.208c0.571-1.364,0.745-2.676,0.522-3.937l2.718-1.536L385.635,55.163z"/>
					</g>
					<g>
						<path fill="#303030" d="M389.115,40.912c-1.074,0.131-1.989-0.007-2.746-0.412s-1.352-0.983-1.785-1.732
							c-0.74-1.279-0.897-2.594-0.47-3.943c0.427-1.349,1.479-2.498,3.156-3.446c1.661-0.939,3.192-1.25,4.593-0.935
							c1.401,0.316,2.471,1.114,3.211,2.393c0.46,0.796,0.659,1.623,0.597,2.481c-0.063,0.858-0.38,1.667-0.954,2.426
							c1.191-0.166,2.25-0.024,3.179,0.424c0.929,0.448,1.671,1.152,2.226,2.112c0.916,1.584,1.146,3.162,0.69,4.735
							c-0.456,1.573-1.538,2.842-3.246,3.808c-1.59,0.898-3.15,1.237-4.681,1.015c-1.807-0.262-3.198-1.236-4.173-2.921
							c-0.537-0.929-0.796-1.913-0.776-2.955C387.957,42.921,388.349,41.904,389.115,40.912z M387.891,37.209
							c0.379,0.656,0.864,1.06,1.453,1.213c0.589,0.153,1.198,0.053,1.826-0.302c0.636-0.359,1.037-0.832,1.204-1.418
							c0.167-0.586,0.061-1.207-0.318-1.862c-0.356-0.616-0.831-1.003-1.422-1.16c-0.592-0.157-1.198-0.061-1.817,0.29
							c-0.644,0.364-1.048,0.841-1.213,1.431C387.438,35.99,387.534,36.593,387.891,37.209z M391.832,44.734
							c0.523,0.905,1.168,1.477,1.935,1.717c0.766,0.24,1.503,0.16,2.21-0.24c0.692-0.391,1.123-0.958,1.294-1.702
							c0.171-0.744-0.01-1.576-0.542-2.497c-0.465-0.804-1.069-1.319-1.812-1.546c-0.743-0.227-1.468-0.141-2.175,0.259
							c-0.819,0.463-1.268,1.085-1.349,1.865C391.311,43.372,391.457,44.087,391.832,44.734z"/>
					</g>
					<g>
						<path fill="#303030" d="M397.273,79.971l-3.544,1.507l-5.688-13.123c-0.779,1.741-1.924,3.27-3.434,4.587l-1.37-3.16
							c0.796-0.691,1.557-1.682,2.281-2.974c0.725-1.292,1.049-2.577,0.973-3.856l2.875-1.223L397.273,79.971z"/>
					</g>
					<g>
						<path fill="#303030" d="M397.215,62.604l-1.402-3.234l12.12-5.156l1.096,2.528c-0.582,1.392-0.997,3.213-1.248,5.462
							c-0.25,2.249-0.205,4.507,0.136,6.774c0.34,2.267,0.862,4.2,1.565,5.799l-3.418,1.454c-1.03-2.536-1.612-5.322-1.747-8.356
							c-0.135-3.034,0.184-5.934,0.957-8.7L397.215,62.604z"/>
					</g>
					<g>
						<path fill="#303030" d="M406.086,105.438l-3.679,1.144l-4.295-13.634c-0.955,1.654-2.251,3.061-3.889,4.22l-1.034-3.283
							c0.863-0.608,1.721-1.518,2.576-2.731c0.854-1.213,1.31-2.459,1.366-3.74l2.985-0.929L406.086,105.438z"/>
					</g>
					<g>
						<path fill="#303030" d="M420.61,85.273l-3.44,1.494c-0.315-0.694-0.709-1.155-1.184-1.384
							c-0.475-0.229-1.005-0.253-1.589-0.071c-0.777,0.242-1.326,0.789-1.646,1.643c-0.32,0.854-0.208,2.388,0.336,4.603
							c0.581-1.349,1.553-2.236,2.915-2.659c1.536-0.478,3.033-0.312,4.491,0.498c1.458,0.809,2.473,2.124,3.046,3.943
							c0.609,1.931,0.521,3.66-0.264,5.185c-0.784,1.526-2.08,2.57-3.887,3.132c-1.938,0.603-3.764,0.358-5.479-0.734
							c-1.715-1.092-3.103-3.325-4.166-6.698c-1.09-3.459-1.225-6.154-0.406-8.087c0.819-1.932,2.268-3.221,4.345-3.868
							c1.458-0.453,2.791-0.427,4,0.078C418.891,82.851,419.867,83.827,420.61,85.273z M414.755,95.759
							c0.37,1.176,0.931,1.998,1.683,2.466c0.751,0.469,1.481,0.593,2.187,0.373c0.681-0.212,1.166-0.65,1.455-1.314
							c0.289-0.665,0.246-1.593-0.13-2.787c-0.387-1.228-0.914-2.05-1.583-2.469c-0.669-0.419-1.37-0.514-2.103-0.286
							c-0.707,0.22-1.219,0.679-1.536,1.375C414.411,93.814,414.42,94.694,414.755,95.759z"/>
					</g>
					<g>
						<path fill="#303030" d="M412.207,131.788l-3.776,0.775l-2.88-13.999c-1.118,1.552-2.551,2.824-4.298,3.817l-0.693-3.371
							c0.92-0.519,1.866-1.341,2.84-2.463c0.973-1.123,1.553-2.319,1.74-3.588l3.063-0.629L412.207,131.788z"/>
					</g>
					<g>
						<path fill="#303030" d="M417.955,125.414l3.683-1.156c0.28,0.815,0.734,1.413,1.363,1.793c0.629,0.381,1.288,0.5,1.978,0.359
							c0.788-0.162,1.391-0.614,1.807-1.356c0.417-0.742,0.495-1.748,0.234-3.017c-0.245-1.19-0.699-2.026-1.363-2.51
							c-0.664-0.484-1.431-0.636-2.3-0.458c-1.084,0.223-1.958,0.894-2.625,2.013l-3.153,0.193l-0.14-10.483l9.982-2.049
							l0.715,3.476l-7.12,1.462l0.086,3.413c0.757-0.587,1.574-0.971,2.452-1.151c1.675-0.344,3.218-0.036,4.629,0.924
							c1.411,0.959,2.313,2.395,2.707,4.308c0.328,1.595,0.15,3.115-0.532,4.559c-0.929,1.973-2.531,3.192-4.806,3.659
							c-1.818,0.373-3.399,0.197-4.743-0.528C419.463,128.14,418.512,126.99,417.955,125.414z"/>
					</g>
					<g>
						<path fill="#303030" d="M415.592,158.576l-3.83,0.421l-1.525-14.211c-1.262,1.442-2.808,2.576-4.642,3.402l-0.367-3.422
							c0.965-0.432,1.986-1.162,3.062-2.19c1.076-1.028,1.768-2.165,2.075-3.412l3.108-0.342L415.592,158.576z"/>
					</g>
					<g>
						<path fill="#303030" d="M429.92,157l-0.425-3.959l-8.179,0.899l-0.354-3.301l7.329-13.447l3.217-0.354l1.339,12.48
							l2.481-0.273l0.356,3.314l-2.481,0.273l0.425,3.959L429.92,157z M429.14,149.727l-0.722-6.723l-3.872,7.228L429.14,149.727z"
							/>
					</g>
				</g>
				<g>
					<g>
						<path fill="#303030" d="M413.397,212.475l-3.819-0.47l1.884-14.19c-1.566,1.115-3.337,1.864-5.313,2.247l0.454-3.417
							c1.039-0.199,2.203-0.675,3.491-1.429c1.288-0.754,2.229-1.703,2.823-2.846l3.099,0.381L413.397,212.475z"/>
					</g>
					<g>
						<path fill="#303030" d="M433.558,211.401l-0.464,3.497l-13.388-1.647c0.32-1.304,0.922-2.503,1.804-3.598
							c0.882-1.094,2.522-2.488,4.92-4.181c1.932-1.369,3.13-2.311,3.594-2.826c0.629-0.713,0.993-1.448,1.094-2.208
							c0.111-0.84-0.032-1.513-0.429-2.021c-0.398-0.507-1-0.811-1.806-0.91c-0.797-0.098-1.463,0.061-1.997,0.476
							c-0.534,0.415-0.91,1.168-1.129,2.258L422,199.397c0.502-2.044,1.41-3.445,2.726-4.199c1.316-0.755,2.871-1.022,4.665-0.801
							c1.966,0.242,3.442,0.955,4.427,2.138c0.984,1.183,1.374,2.552,1.168,4.107c-0.117,0.884-0.39,1.707-0.818,2.466
							c-0.428,0.76-1.049,1.535-1.863,2.324c-0.539,0.524-1.484,1.257-2.833,2.198c-1.35,0.941-2.21,1.571-2.578,1.889
							c-0.369,0.318-0.676,0.634-0.92,0.949L433.558,211.401z"/>
					</g>
					<g>
						<path fill="#303030" d="M408.078,239.009l-3.754-0.828l3.252-13.956c-1.666,0.963-3.501,1.542-5.503,1.738l0.783-3.361
							c1.053-0.1,2.258-0.465,3.612-1.095c1.355-0.63,2.383-1.486,3.085-2.569l3.046,0.672L408.078,239.009z"/>
					</g>
					<g>
						<path fill="#303030" d="M422.856,242.268l-3.754-0.828l3.252-13.956c-1.666,0.963-3.501,1.542-5.503,1.737l0.783-3.36
							c1.053-0.1,2.257-0.465,3.612-1.095c1.355-0.63,2.383-1.486,3.085-2.569l3.046,0.672L422.856,242.268z"/>
					</g>
					<g>
						<path fill="#303030" d="M399.884,264.972l-3.645-1.204l4.691-13.56c-1.757,0.789-3.641,1.179-5.653,1.171l1.13-3.265
							c1.058,0.007,2.293-0.234,3.705-0.723c1.412-0.489,2.524-1.237,3.335-2.244l2.957,0.978L399.884,264.972z"/>
					</g>
					<g>
						<path fill="#303030" d="M419.055,250.305c1.842,0.609,3.057,1.733,3.646,3.374c0.705,1.946,0.442,4.698-0.79,8.257
							c-1.229,3.551-2.734,5.898-4.517,7.04c-1.472,0.94-3.129,1.106-4.971,0.497c-1.851-0.612-3.1-1.807-3.747-3.586
							c-0.647-1.779-0.347-4.469,0.899-8.071c1.223-3.534,2.725-5.872,4.508-7.014C415.556,249.862,417.213,249.696,419.055,250.305
							z M418.023,253.288c-0.441-0.146-0.883-0.137-1.324,0.026c-0.442,0.163-0.883,0.572-1.32,1.226
							c-0.573,0.848-1.24,2.372-2.002,4.575c-0.762,2.202-1.173,3.753-1.233,4.651c-0.06,0.898,0.033,1.54,0.28,1.926
							c0.247,0.386,0.591,0.652,1.032,0.798c0.441,0.146,0.883,0.137,1.324-0.026c0.442-0.163,0.882-0.572,1.32-1.226
							c0.57-0.839,1.236-2.36,1.998-4.562c0.762-2.202,1.173-3.753,1.233-4.651c0.06-0.898-0.033-1.542-0.279-1.932
							C418.807,253.702,418.464,253.434,418.023,253.288z"/>
					</g>
					<g>
						<path fill="#303030" d="M394.174,270.109c1.79,0.743,2.917,1.954,3.38,3.634c0.556,1.992,0.086,4.719-1.41,8.18
							c-1.493,3.453-3.171,5.684-5.034,6.693c-1.538,0.83-3.203,0.874-4.993,0.132c-1.799-0.746-2.953-2.03-3.464-3.852
							c-0.511-1.822-0.009-4.484,1.505-7.986c1.485-3.437,3.16-5.659,5.023-6.667C390.72,269.411,392.384,269.367,394.174,270.109z
							 M392.92,273.01c-0.429-0.178-0.87-0.201-1.322-0.071c-0.453,0.13-0.923,0.506-1.409,1.126
							c-0.635,0.804-1.415,2.276-2.341,4.417c-0.926,2.142-1.452,3.658-1.58,4.549c-0.128,0.892-0.083,1.539,0.134,1.942
							c0.217,0.403,0.54,0.694,0.969,0.872c0.429,0.178,0.869,0.201,1.322,0.071c0.452-0.13,0.922-0.506,1.408-1.127
							c0.631-0.795,1.41-2.264,2.335-4.405c0.926-2.142,1.452-3.658,1.58-4.55c0.128-0.891,0.084-1.541-0.132-1.948
							C393.671,273.481,393.349,273.188,392.92,273.01z"/>
					</g>
					<g>
						<path fill="#303030" d="M397.533,288.137l3.59,1.048c-0.214,0.724-0.216,1.325-0.006,1.804
							c0.209,0.478,0.603,0.837,1.184,1.078c0.731,0.303,1.497,0.229,2.297-0.222c0.8-0.451,1.723-1.694,2.77-3.726
							c-1.332,0.652-2.666,0.7-4.003,0.146c-1.454-0.603-2.469-1.677-3.045-3.223c-0.576-1.545-0.48-3.206,0.288-4.983
							c0.8-1.851,2.002-3.112,3.606-3.783c1.603-0.671,3.266-0.65,4.989,0.065c1.874,0.777,3.102,2.131,3.686,4.061
							c0.583,1.93,0.166,4.535-1.252,7.813c-1.443,3.337-3.109,5.484-5,6.442c-1.891,0.958-3.841,1.021-5.849,0.188
							c-1.446-0.6-2.45-1.464-3.012-2.593C397.213,291.124,397.132,289.752,397.533,288.137z M408.856,283.818
							c0.488-1.129,0.604-2.113,0.348-2.954c-0.256-0.84-0.729-1.404-1.418-1.689c-0.656-0.272-1.31-0.242-1.964,0.088
							c-0.654,0.331-1.232,1.078-1.734,2.24c-0.51,1.179-0.648,2.142-0.416,2.888c0.232,0.747,0.701,1.267,1.407,1.56
							c0.681,0.283,1.369,0.255,2.065-0.083C407.84,285.53,408.411,284.847,408.856,283.818z"/>
					</g>
					<g>
						<path fill="#303030" d="M382.936,294.735c1.682,0.954,2.648,2.294,2.897,4.019c0.302,2.046-0.505,4.697-2.421,7.953
							c-1.912,3.248-3.855,5.26-5.829,6.036c-1.629,0.638-3.285,0.48-4.968-0.475c-1.69-0.959-2.675-2.374-2.954-4.246
							c-0.279-1.871,0.552-4.454,2.491-7.75c1.903-3.232,3.841-5.236,5.815-6.012C379.597,293.622,381.253,293.78,382.936,294.735z
							 M381.33,297.463c-0.403-0.229-0.837-0.305-1.302-0.231c-0.465,0.075-0.978,0.39-1.538,0.948
							c-0.73,0.721-1.688,2.089-2.874,4.104c-1.186,2.014-1.898,3.456-2.136,4.327c-0.238,0.87-0.275,1.519-0.11,1.945
							c0.165,0.427,0.449,0.754,0.852,0.983c0.403,0.229,0.837,0.306,1.302,0.231c0.465-0.075,0.978-0.39,1.538-0.948
							c0.725-0.713,1.681-2.077,2.867-4.092c1.186-2.015,1.897-3.457,2.136-4.327c0.238-0.87,0.276-1.52,0.113-1.951
							C382.015,298.021,381.732,297.692,381.33,297.463z"/>
					</g>
					<g>
						<path fill="#303030" d="M389.913,309.332c-0.65-0.848-0.985-1.696-1.006-2.547c-0.021-0.85,0.189-1.65,0.63-2.4
							c0.754-1.281,1.828-2.082,3.225-2.404c1.396-0.323,2.928-0.011,4.594,0.935c1.651,0.936,2.686,2.081,3.107,3.435
							c0.42,1.353,0.254,2.669-0.5,3.95c-0.469,0.796-1.095,1.387-1.879,1.769c-0.784,0.383-1.652,0.524-2.603,0.421
							c0.738,0.929,1.143,1.903,1.212,2.922c0.07,1.018-0.178,2.008-0.744,2.968c-0.933,1.585-2.203,2.583-3.809,2.994
							c-1.607,0.411-3.259,0.135-4.957-0.828c-1.58-0.896-2.654-2.052-3.221-3.468c-0.671-1.672-0.509-3.351,0.483-5.037
							c0.547-0.929,1.282-1.65,2.206-2.163C387.574,309.367,388.662,309.184,389.913,309.332z M392.551,306.407
							c-0.386,0.656-0.5,1.274-0.34,1.854c0.159,0.58,0.55,1.046,1.174,1.4c0.632,0.358,1.247,0.46,1.844,0.304
							c0.598-0.155,1.089-0.562,1.475-1.217c0.363-0.617,0.466-1.217,0.309-1.801c-0.157-0.584-0.543-1.05-1.159-1.4
							c-0.64-0.363-1.26-0.465-1.86-0.305C393.396,305.402,392.914,305.791,392.551,306.407z M387.914,313.588
							c-0.533,0.906-0.714,1.746-0.543,2.52c0.171,0.775,0.608,1.361,1.311,1.76c0.687,0.39,1.4,0.469,2.137,0.236
							c0.738-0.232,1.377-0.809,1.92-1.731c0.473-0.804,0.625-1.58,0.454-2.328c-0.171-0.748-0.608-1.321-1.311-1.72
							c-0.814-0.462-1.583-0.528-2.308-0.2S388.295,312.94,387.914,313.588z"/>
					</g>
					<g>
						<path fill="#303030" d="M369.173,317.605c1.563,1.134,2.371,2.572,2.424,4.314c0.069,2.068-1.032,4.616-3.304,7.643
							c-2.266,3.021-4.423,4.808-6.471,5.363c-1.69,0.456-3.317,0.117-4.88-1.017c-1.571-1.139-2.388-2.655-2.454-4.546
							c-0.066-1.891,1.051-4.369,3.35-7.433c2.255-3.006,4.406-4.786,6.454-5.341C365.983,316.133,367.61,316.472,369.173,317.605z
							 M367.269,320.143c-0.374-0.271-0.797-0.395-1.267-0.372c-0.471,0.023-1.016,0.281-1.634,0.773
							c-0.807,0.637-1.912,1.892-3.318,3.766c-1.405,1.873-2.276,3.229-2.61,4.068c-0.335,0.839-0.444,1.48-0.329,1.923
							c0.115,0.443,0.36,0.8,0.735,1.071c0.374,0.271,0.797,0.395,1.267,0.373c0.47-0.023,1.015-0.281,1.634-0.774
							c0.801-0.63,1.904-1.881,3.31-3.755c1.405-1.873,2.275-3.229,2.61-4.068c0.335-0.839,0.446-1.482,0.333-1.928
							C367.887,320.773,367.643,320.415,367.269,320.143z"/>
					</g>
					<g>
						<path fill="#303030" d="M375.019,326.672l2.132-2.843l10.578,7.672l-1.667,2.222c-1.511,0.216-3.313,0.792-5.409,1.727
							c-2.095,0.935-4.051,2.127-5.867,3.573c-1.816,1.446-3.249,2.877-4.298,4.29l-2.983-2.163c1.707-2.17,3.856-4.087,6.447-5.75
							c2.591-1.664,5.291-2.873,8.1-3.627L375.019,326.672z"/>
					</g>
					<g>
						<path fill="#303030" d="M353.197,338.791c1.44,1.281,2.098,2.792,1.976,4.531c-0.14,2.065-1.491,4.495-4.055,7.287
							c-2.557,2.786-4.882,4.355-6.975,4.707c-1.727,0.289-3.31-0.208-4.75-1.489c-1.447-1.288-2.108-2.876-1.982-4.766
							c0.125-1.89,1.485-4.247,4.08-7.073c2.545-2.772,4.864-4.335,6.956-4.687C350.173,337.013,351.756,337.51,353.197,338.791z
							 M351.048,341.132c-0.345-0.307-0.753-0.472-1.223-0.495c-0.47-0.023-1.038,0.18-1.703,0.611
							c-0.866,0.555-2.092,1.697-3.678,3.425c-1.586,1.728-2.588,2.993-3.005,3.795c-0.418,0.802-0.591,1.43-0.521,1.882
							c0.07,0.452,0.278,0.832,0.623,1.138c0.345,0.307,0.752,0.472,1.223,0.495c0.47,0.023,1.038-0.181,1.703-0.611
							c0.86-0.549,2.083-1.687,3.669-3.415c1.586-1.728,2.587-2.993,3.005-3.796c0.417-0.803,0.592-1.431,0.525-1.887
							C351.599,341.819,351.393,341.439,351.048,341.132z"/>
					</g>
					<g>
						<path fill="#303030" d="M367.033,357.763l-3.035-2.153c0.449-0.623,0.654-1.194,0.616-1.715
							c-0.038-0.52-0.284-0.983-0.737-1.385c-0.602-0.536-1.357-0.72-2.264-0.554c-0.908,0.166-2.193,1.047-3.857,2.645
							c1.472-0.199,2.736,0.171,3.791,1.11c1.19,1.059,1.797,2.415,1.822,4.067c0.025,1.652-0.614,3.188-1.917,4.608
							c-1.383,1.507-2.939,2.318-4.667,2.435c-1.729,0.117-3.293-0.448-4.692-1.693c-1.501-1.335-2.205-3.011-2.111-5.026
							c0.094-2.016,1.348-4.339,3.764-6.971c2.477-2.699,4.767-4.196,6.868-4.491c2.101-0.296,3.957,0.272,5.566,1.704
							c1.129,1.005,1.776,2.149,1.942,3.435C368.287,355.063,367.924,356.391,367.033,357.763z M354.92,358.172
							c-0.842,0.918-1.279,1.815-1.311,2.693c-0.032,0.878,0.226,1.56,0.773,2.048c0.528,0.47,1.154,0.656,1.881,0.561
							c0.726-0.096,1.517-0.609,2.371-1.54c0.879-0.958,1.334-1.827,1.364-2.609c0.03-0.783-0.239-1.426-0.806-1.931
							c-0.548-0.487-1.206-0.687-1.975-0.598C356.448,356.883,355.682,357.342,354.92,358.172z"/>
					</g>
					<g>
						<path fill="#303030" d="M334.482,358.514c1.315,1.406,1.831,2.97,1.548,4.693c-0.33,2.045-1.899,4.345-4.709,6.897
							c-2.803,2.547-5.262,3.902-7.377,4.065c-1.745,0.133-3.275-0.504-4.59-1.91c-1.321-1.412-1.832-3.054-1.533-4.926
							c0.299-1.871,1.87-4.099,4.714-6.682c2.789-2.534,5.241-3.883,7.357-4.047C331.637,356.472,333.167,357.108,334.482,358.514z
							 M332.127,360.654c-0.315-0.337-0.705-0.538-1.171-0.603c-0.466-0.065-1.05,0.087-1.752,0.456
							c-0.914,0.476-2.239,1.504-3.977,3.083c-1.738,1.579-2.852,2.75-3.342,3.512c-0.49,0.763-0.72,1.371-0.692,1.829
							c0.028,0.456,0.2,0.853,0.515,1.19c0.315,0.336,0.705,0.538,1.171,0.602c0.466,0.065,1.05-0.087,1.751-0.456
							c0.907-0.469,2.229-1.494,3.967-3.073c1.738-1.579,2.852-2.75,3.342-3.512c0.49-0.763,0.722-1.373,0.697-1.833
							C332.612,361.388,332.442,360.99,332.127,360.654z"/>
					</g>
				</g>
			</g>
		</g>
	</g>
</g>
</svg>
